<svg version="1.1" id="Layer_1" xmlns="http://www.w3.org/2000/svg" xmlns:xlink="http://www.w3.org/1999/xlink" x="0px" y="0px"
	 width="100%" height="100%" viewBox="0 0 250 532" style="enable-background:new 0 0 250 532;" xml:space="preserve">
<path id="path" d="M90.119,525.084l-0.094-0.028c-0.095-0.027-0.19-0.041-0.284-0.041c-0.431,0-0.83,0.282-0.959,0.716
	c-0.157,0.53,0.146,1.086,0.675,1.243c0.014,0.004,0.028,0.009,0.042,0.012c0.016,0.005,0.027,0.008,0.042,0.013l0.012,0.003
	c0.095,0.028,0.19,0.042,0.285,0.042c0.431,0,0.828-0.281,0.957-0.715C90.951,525.798,90.648,525.241,90.119,525.084z
	 M35.669,491.636c-0.197-0.207-0.461-0.313-0.726-0.313c-0.247,0-0.494,0.091-0.687,0.275c-0.401,0.379-0.418,1.012-0.039,1.412
	c0.024,0.025,0.054,0.057,0.078,0.083c0.196,0.202,0.456,0.303,0.717,0.303c0.247,0,0.495-0.091,0.688-0.275
	c0.4-0.38,0.417-1.013,0.038-1.414L35.669,491.636z M44.405,500.007c-0.189-0.164-0.422-0.245-0.655-0.245
	c-0.28,0-0.558,0.117-0.756,0.345c-0.362,0.417-0.318,1.049,0.1,1.41c0.017,0.015,0.034,0.03,0.05,0.044
	c0.012,0.011,0.019,0.017,0.031,0.028c0.188,0.161,0.419,0.24,0.649,0.24c0.28,0,0.557-0.117,0.755-0.344
	c0.362-0.418,0.317-1.05-0.1-1.412L44.405,500.007z M32.324,326.245l0.064-0.074c0.363-0.416,0.321-1.048-0.095-1.411
	c-0.19-0.166-0.424-0.247-0.658-0.247c-0.278,0-0.556,0.115-0.753,0.341c-0.009,0.01-0.017,0.02-0.026,0.03
	c-0.018,0.02-0.03,0.034-0.048,0.054c-0.355,0.416-0.309,1.042,0.104,1.403c0.189,0.166,0.424,0.247,0.657,0.247
	C31.849,326.588,32.126,326.471,32.324,326.245z M30.318,485.599c-0.198-0.238-0.483-0.361-0.77-0.361
	c-0.226,0-0.452,0.075-0.639,0.231c-0.425,0.352-0.483,0.983-0.13,1.408l0.022,0.027c0.018,0.02,0.034,0.041,0.052,0.062
	c0.197,0.231,0.477,0.349,0.759,0.349c0.225,0,0.452-0.076,0.639-0.231c0.424-0.354,0.483-0.984,0.13-1.409L30.318,485.599z
	 M32.944,488.661c-0.197-0.223-0.472-0.336-0.749-0.336c-0.236,0-0.472,0.083-0.663,0.252c-0.412,0.365-0.451,0.994-0.088,1.407
	c0.026,0.03,0.05,0.057,0.076,0.086c0.197,0.218,0.469,0.33,0.742,0.33c0.236,0,0.473-0.083,0.663-0.252
	c0.413-0.367,0.451-0.999,0.084-1.412L32.944,488.661z M11.593,454.758l-0.038-0.091c-0.161-0.383-0.532-0.613-0.923-0.613
	c-0.129,0-0.26,0.025-0.387,0.078c-0.509,0.214-0.748,0.801-0.535,1.31c0.013,0.03,0.026,0.061,0.039,0.091
	c0.161,0.383,0.531,0.613,0.921,0.613c0.129,0,0.261-0.025,0.387-0.078C11.566,455.854,11.806,455.268,11.593,454.758z
	 M37.824,320.342l0.069-0.069c0.39-0.391,0.389-1.025-0.002-1.415c-0.195-0.194-0.45-0.291-0.706-0.291
	c-0.256,0-0.513,0.098-0.708,0.294c-0.024,0.023-0.047,0.048-0.071,0.071c-0.389,0.392-0.388,1.025,0.004,1.414
	c0.195,0.195,0.45,0.291,0.705,0.291C37.372,320.637,37.629,320.54,37.824,320.342z M43.698,314.812l0.074-0.065
	c0.415-0.365,0.455-0.997,0.09-1.411c-0.198-0.224-0.474-0.34-0.751-0.34c-0.235,0-0.47,0.083-0.66,0.25l-0.05,0.044
	c-0.012,0.01-0.02,0.017-0.032,0.027c-0.408,0.367-0.446,0.994-0.082,1.407c0.198,0.224,0.473,0.339,0.75,0.339
	C43.272,315.062,43.508,314.98,43.698,314.812z M38.49,494.521c-0.195-0.193-0.449-0.289-0.703-0.289
	c-0.258,0-0.515,0.099-0.711,0.297c-0.386,0.39-0.385,1.017,0,1.407c0.008,0.007,0.017,0.017,0.025,0.024
	c0.018,0.018,0.036,0.035,0.054,0.054c0.195,0.192,0.449,0.288,0.703,0.288c0.258,0,0.516-0.098,0.711-0.297
	c0.388-0.393,0.384-1.026-0.009-1.414L38.49,494.521z M40.716,317.529l0.072-0.067c0.402-0.378,0.422-1.011,0.043-1.413
	c-0.197-0.21-0.462-0.315-0.729-0.315c-0.246,0-0.492,0.09-0.684,0.271l-0.028,0.027c-0.017,0.016-0.036,0.034-0.053,0.049
	c-0.394,0.38-0.41,1.007-0.034,1.407c0.197,0.209,0.462,0.314,0.728,0.314C40.277,317.801,40.523,317.712,40.716,317.529z
	 M35.026,323.249l0.067-0.072c0.377-0.403,0.355-1.036-0.049-1.413c-0.193-0.181-0.437-0.27-0.682-0.27
	c-0.264,0-0.528,0.105-0.724,0.312c-0.027,0.029-0.049,0.053-0.076,0.081c-0.375,0.404-0.352,1.036,0.051,1.412
	c0.193,0.18,0.437,0.269,0.681,0.269C34.562,323.567,34.829,323.461,35.026,323.249z M16.828,465.664l-0.047-0.087
	c-0.181-0.334-0.525-0.524-0.881-0.524c-0.161,0-0.324,0.04-0.475,0.121c-0.481,0.261-0.662,0.859-0.41,1.343
	c0.01,0.017,0.021,0.039,0.031,0.057c0.008,0.014,0.016,0.029,0.024,0.044c0.181,0.334,0.525,0.523,0.88,0.523
	c0.161,0,0.325-0.039,0.476-0.121C16.912,466.756,17.092,466.149,16.828,465.664z M27.793,482.452
	c-0.197-0.254-0.493-0.387-0.791-0.387c-0.214,0-0.43,0.069-0.612,0.21c-0.436,0.338-0.515,0.965-0.178,1.402
	c0.002,0.003,0.002,0.003,0.005,0.006c0.019,0.025,0.038,0.049,0.057,0.074l0.001,0.002c0.197,0.253,0.492,0.386,0.79,0.386
	c0.215,0,0.431-0.069,0.614-0.211c0.436-0.339,0.514-0.967,0.175-1.403L27.793,482.452z M20.355,342.455l0.052-0.083
	c0.291-0.47,0.146-1.087-0.323-1.377c-0.164-0.103-0.346-0.15-0.526-0.15c-0.333,0-0.657,0.165-0.847,0.467
	c-0.014,0.023-0.028,0.045-0.042,0.068c-0.005,0.008-0.009,0.016-0.014,0.022c-0.29,0.471-0.144,1.087,0.325,1.378
	c0.163,0.101,0.345,0.15,0.525,0.15C19.839,342.93,20.166,342.762,20.355,342.455z M14.963,462.086l-0.044-0.088
	c-0.175-0.35-0.528-0.553-0.895-0.553c-0.15,0-0.303,0.033-0.446,0.105c-0.49,0.244-0.691,0.837-0.454,1.329
	c0.014,0.027,0.027,0.054,0.042,0.083c0.003,0.006,0.006,0.013,0.01,0.019c0.175,0.351,0.528,0.553,0.895,0.553
	c0.15,0,0.303-0.034,0.447-0.106C15.011,463.181,15.211,462.581,14.963,462.086z M20.853,472.542
	c-0.191-0.302-0.515-0.467-0.848-0.467c-0.182,0-0.366,0.05-0.532,0.153c-0.465,0.293-0.606,0.906-0.317,1.373
	c0.017,0.026,0.035,0.056,0.052,0.082c0.002,0.003,0.003,0.006,0.005,0.009c0.191,0.302,0.515,0.466,0.847,0.466
	c0.183,0,0.367-0.049,0.533-0.154c0.467-0.294,0.607-0.911,0.312-1.379L20.853,472.542z M13.217,458.45l-0.041-0.09
	c-0.168-0.367-0.531-0.583-0.909-0.583c-0.14,0-0.281,0.029-0.417,0.091c-0.499,0.23-0.72,0.819-0.495,1.319
	c0.008,0.019,0.019,0.042,0.028,0.059l0.018,0.038c0.169,0.367,0.531,0.583,0.909,0.583c0.14,0,0.282-0.03,0.418-0.092
	C13.229,459.545,13.448,458.952,13.217,458.45z M18.76,469.092c-0.186-0.317-0.521-0.495-0.865-0.495
	c-0.171,0-0.345,0.044-0.504,0.137c-0.473,0.276-0.634,0.88-0.365,1.356c0.022,0.037,0.043,0.073,0.065,0.111
	c0.188,0.31,0.517,0.482,0.856,0.482c0.171,0,0.346-0.044,0.504-0.137c0.476-0.279,0.637-0.893,0.358-1.369L18.76,469.092z
	 M27.219,332.492l0.06-0.078c0.336-0.439,0.252-1.067-0.187-1.402c-0.182-0.14-0.395-0.206-0.607-0.206
	c-0.301,0-0.598,0.135-0.795,0.393c-0.011,0.014-0.021,0.028-0.032,0.042c-0.01,0.012-0.023,0.03-0.032,0.041
	c-0.331,0.439-0.246,1.063,0.191,1.397c0.181,0.138,0.395,0.206,0.606,0.206C26.725,332.885,27.022,332.75,27.219,332.492z
	 M25.372,479.225c-0.196-0.27-0.501-0.412-0.81-0.412c-0.204,0-0.409,0.062-0.586,0.19c-0.447,0.325-0.546,0.95-0.222,1.397
	c0.015,0.02,0.03,0.041,0.045,0.061c0.007,0.01,0.014,0.02,0.021,0.03c0.196,0.263,0.498,0.402,0.803,0.402
	c0.204,0,0.409-0.063,0.587-0.192c0.447-0.324,0.546-0.95,0.221-1.397L25.372,479.225z M22.534,339.061l0.055-0.082
	c0.306-0.46,0.182-1.081-0.278-1.387c-0.17-0.114-0.363-0.168-0.553-0.168c-0.32,0-0.635,0.154-0.828,0.438
	c-0.006,0.01-0.013,0.02-0.02,0.03c-0.014,0.02-0.027,0.041-0.04,0.061c-0.306,0.46-0.181,1.081,0.279,1.387
	c0.17,0.113,0.362,0.168,0.552,0.168C22.024,339.507,22.342,339.35,22.534,339.061z M24.823,335.738l0.057-0.08
	c0.321-0.45,0.217-1.075-0.232-1.396c-0.176-0.126-0.379-0.187-0.58-0.187c-0.308,0-0.612,0.143-0.807,0.409
	c-0.016,0.021-0.037,0.051-0.053,0.073c-0.004,0.006-0.009,0.012-0.013,0.018c-0.322,0.449-0.219,1.072,0.231,1.394
	c0.176,0.126,0.379,0.186,0.581,0.186C24.32,336.156,24.627,336.011,24.823,335.738z M23.058,475.921
	c-0.193-0.286-0.509-0.44-0.83-0.44c-0.193,0-0.388,0.056-0.56,0.172c-0.454,0.307-0.575,0.921-0.276,1.377
	c0.024,0.035,0.046,0.067,0.07,0.103c0.193,0.279,0.505,0.431,0.822,0.431c0.193,0,0.388-0.056,0.56-0.173
	c0.458-0.309,0.577-0.931,0.267-1.389L23.058,475.921z M41.403,497.312c-0.193-0.178-0.437-0.266-0.68-0.266
	c-0.269,0-0.537,0.108-0.734,0.32c-0.375,0.405-0.351,1.038,0.054,1.413c0.024,0.023,0.049,0.046,0.073,0.069
	c0.193,0.179,0.436,0.267,0.679,0.267c0.269,0,0.536-0.108,0.733-0.32c0.375-0.405,0.351-1.038-0.053-1.414L41.403,497.312z
	 M74.992,519.505l-0.09-0.04c-0.132-0.058-0.271-0.087-0.407-0.087c-0.382,0-0.747,0.221-0.914,0.592
	c-0.225,0.505,0.001,1.096,0.506,1.321c0.027,0.012,0.055,0.025,0.082,0.037c0.004,0.002,0.007,0.003,0.011,0.005
	c0.131,0.059,0.269,0.086,0.404,0.086c0.383,0,0.749-0.222,0.915-0.594C75.723,520.321,75.497,519.73,74.992,519.505z
	 M74.046,295.12l0.089-0.04c0.503-0.229,0.725-0.822,0.496-1.325c-0.168-0.368-0.53-0.586-0.91-0.586
	c-0.139,0-0.279,0.03-0.414,0.09c-0.008,0.004-0.015,0.007-0.022,0.011c-0.018,0.008-0.03,0.014-0.048,0.022
	c-0.007,0.003-0.014,0.007-0.021,0.009c-0.502,0.23-0.724,0.822-0.495,1.324c0.168,0.368,0.531,0.586,0.91,0.586
	C73.771,295.211,73.911,295.182,74.046,295.12z M77.743,293.508l0.091-0.038c0.51-0.212,0.751-0.797,0.539-1.308
	c-0.16-0.384-0.532-0.616-0.923-0.616c-0.128,0-0.258,0.025-0.384,0.077c-0.016,0.007-0.032,0.014-0.047,0.019
	c-0.018,0.008-0.035,0.015-0.054,0.023c-0.504,0.216-0.741,0.798-0.53,1.305c0.16,0.384,0.532,0.615,0.923,0.615
	C77.487,293.585,77.618,293.561,77.743,293.508z M70.404,296.854l0.088-0.043c0.494-0.246,0.697-0.846,0.452-1.341
	c-0.175-0.352-0.529-0.555-0.896-0.555c-0.149,0-0.301,0.033-0.443,0.103c-0.028,0.014-0.056,0.028-0.084,0.042
	c-0.004,0.002-0.004,0.002-0.008,0.004c-0.494,0.245-0.695,0.845-0.45,1.339c0.174,0.351,0.529,0.556,0.897,0.556
	C70.11,296.958,70.262,296.925,70.404,296.854z M67.737,515.981l-0.087-0.046c-0.149-0.078-0.309-0.115-0.466-0.115
	c-0.359,0-0.706,0.194-0.886,0.533c-0.256,0.485-0.073,1.086,0.409,1.347c0.031,0.016,0.066,0.035,0.097,0.051
	c0.149,0.079,0.309,0.116,0.466,0.116c0.359,0,0.705-0.195,0.884-0.534C68.412,516.844,68.225,516.239,67.737,515.981z
	 M78.703,521.088l-0.091-0.037c-0.123-0.051-0.252-0.074-0.377-0.074c-0.395,0-0.769,0.235-0.927,0.623
	c-0.208,0.509,0.035,1.09,0.542,1.301c0.007,0.003,0.015,0.006,0.022,0.009c0.019,0.007,0.038,0.016,0.057,0.023
	c0.011,0.004,0.018,0.007,0.029,0.01c0.121,0.049,0.246,0.071,0.368,0.071c0.395,0,0.768-0.236,0.926-0.623
	C79.46,521.88,79.214,521.295,78.703,521.088z M71.335,517.803l-0.088-0.043c-0.141-0.068-0.29-0.1-0.437-0.1
	c-0.37,0-0.727,0.207-0.9,0.563c-0.242,0.496-0.035,1.094,0.462,1.335c0.011,0.006,0.022,0.011,0.033,0.017
	c0.007,0.003,0.01,0.005,0.017,0.008c0.014,0.007,0.027,0.012,0.04,0.019c0.141,0.069,0.289,0.101,0.436,0.101
	c0.371,0,0.728-0.208,0.901-0.563C72.039,518.642,71.832,518.044,71.335,517.803z M89.125,289.414l0.094-0.028
	c0.529-0.161,0.826-0.72,0.666-1.248c-0.131-0.432-0.527-0.709-0.956-0.709c-0.093,0-0.187,0.012-0.281,0.04
	c-0.015,0.004-0.039,0.011-0.054,0.016c-0.017,0.005-0.035,0.011-0.052,0.016c-0.528,0.16-0.826,0.718-0.665,1.247
	c0.131,0.432,0.528,0.71,0.957,0.71C88.931,289.458,89.029,289.443,89.125,289.414z M81.491,292.018l0.092-0.035
	c0.517-0.195,0.777-0.773,0.582-1.289c-0.151-0.401-0.531-0.648-0.935-0.648c-0.114,0-0.229,0.02-0.342,0.061
	c-0.022,0.009-0.043,0.017-0.065,0.025c-0.014,0.005-0.027,0.01-0.04,0.015c-0.517,0.195-0.777,0.772-0.582,1.289
	c0.151,0.401,0.532,0.647,0.936,0.647C81.256,292.083,81.375,292.063,81.491,292.018z M86.271,523.878l-0.094-0.032
	c-0.104-0.034-0.21-0.051-0.315-0.051c-0.419,0-0.81,0.265-0.949,0.685c-0.174,0.524,0.108,1.089,0.632,1.264l0.076,0.025
	c0.007,0.002,0.014,0.005,0.02,0.007c0.105,0.034,0.211,0.051,0.315,0.051c0.419,0,0.81-0.265,0.949-0.686
	C87.079,524.618,86.795,524.052,86.271,523.878z M82.463,522.545l-0.092-0.035c-0.114-0.042-0.231-0.061-0.347-0.061
	c-0.406,0-0.789,0.25-0.938,0.653c-0.19,0.516,0.07,1.087,0.582,1.282c0.033,0.012,0.071,0.026,0.105,0.039
	c0.113,0.041,0.229,0.061,0.343,0.061c0.407,0,0.789-0.25,0.938-0.655C83.246,523.311,82.981,522.736,82.463,522.545z
	 M85.287,290.653l0.093-0.032c0.523-0.177,0.803-0.746,0.624-1.269c-0.141-0.416-0.53-0.678-0.946-0.678
	c-0.107,0-0.216,0.017-0.323,0.054c-0.013,0.004-0.025,0.008-0.038,0.013c-0.022,0.007-0.045,0.014-0.067,0.022
	c-0.516,0.182-0.79,0.746-0.613,1.266c0.142,0.416,0.53,0.678,0.947,0.678C85.071,290.707,85.18,290.69,85.287,290.653z
	 M66.821,298.708l0.087-0.047c0.486-0.262,0.669-0.868,0.408-1.355c-0.181-0.336-0.525-0.527-0.881-0.527
	c-0.158,0-0.319,0.038-0.468,0.117c-0.004,0.002-0.014,0.007-0.017,0.009c-0.025,0.013-0.05,0.027-0.075,0.04
	c-0.487,0.262-0.669,0.867-0.407,1.353c0.181,0.336,0.525,0.527,0.882,0.527C66.508,298.826,66.67,298.789,66.821,298.708z
	 M53.917,507.484c-0.175-0.124-0.377-0.184-0.578-0.184c-0.313,0-0.621,0.147-0.817,0.421c-0.317,0.447-0.215,1.065,0.227,1.387
	c0.016,0.01,0.032,0.022,0.048,0.034c0.006,0.005,0.013,0.009,0.02,0.014l0.029,0.02c0.174,0.122,0.374,0.181,0.572,0.181
	c0.313,0,0.622-0.147,0.817-0.422c0.319-0.45,0.213-1.075-0.238-1.394L53.917,507.484z M53.153,307.262l0.08-0.057
	c0.448-0.322,0.55-0.947,0.227-1.396c-0.195-0.271-0.501-0.416-0.812-0.416c-0.198,0-0.399,0.059-0.573,0.182
	c-0.019,0.014-0.042,0.03-0.061,0.044c-0.01,0.007-0.021,0.014-0.03,0.022c-0.448,0.323-0.549,0.949-0.226,1.396
	c0.195,0.271,0.501,0.415,0.812,0.415C52.771,307.452,52.976,307.39,53.153,307.262z M47.494,502.603
	c-0.185-0.15-0.408-0.224-0.63-0.224c-0.291,0-0.579,0.126-0.777,0.369c-0.348,0.428-0.283,1.056,0.143,1.404
	c0.03,0.025,0.06,0.049,0.091,0.074c0.183,0.145,0.402,0.214,0.619,0.214c0.291,0,0.58-0.125,0.777-0.37
	c0.348-0.429,0.282-1.059-0.146-1.407L47.494,502.603z M56.463,304.957l0.082-0.055c0.458-0.307,0.58-0.929,0.272-1.387
	c-0.193-0.287-0.509-0.443-0.831-0.443c-0.19,0-0.383,0.054-0.553,0.168c-0.007,0.004-0.018,0.012-0.025,0.017l-0.062,0.041
	c-0.458,0.308-0.58,0.929-0.272,1.387c0.193,0.288,0.51,0.443,0.832,0.443C56.098,305.126,56.292,305.072,56.463,304.957z
	 M49.92,309.675l0.078-0.059c0.437-0.338,0.518-0.966,0.181-1.403c-0.197-0.255-0.493-0.39-0.792-0.39
	c-0.211,0-0.424,0.067-0.604,0.205c-0.006,0.004-0.018,0.014-0.024,0.018c-0.01,0.007-0.02,0.015-0.03,0.023
	c-0.015,0.012-0.027,0.02-0.042,0.032c-0.428,0.34-0.504,0.96-0.169,1.394c0.197,0.256,0.493,0.389,0.792,0.389
	C49.523,309.884,49.738,309.816,49.92,309.675z M59.847,302.76l0.083-0.052c0.468-0.293,0.61-0.91,0.318-1.378
	c-0.189-0.304-0.515-0.47-0.849-0.47c-0.177,0-0.356,0.047-0.519,0.145c-0.026,0.017-0.048,0.03-0.075,0.047
	c-0.007,0.005-0.014,0.009-0.02,0.014c-0.469,0.292-0.611,0.91-0.318,1.377c0.19,0.304,0.516,0.47,0.849,0.47
	C59.498,302.913,59.682,302.864,59.847,302.76z M63.3,300.676l0.086-0.049c0.477-0.278,0.64-0.89,0.363-1.367
	c-0.186-0.32-0.521-0.498-0.866-0.498c-0.167,0-0.337,0.042-0.493,0.13c-0.01,0.006-0.022,0.013-0.032,0.018
	c-0.021,0.013-0.042,0.025-0.063,0.037c-0.477,0.278-0.639,0.89-0.362,1.367c0.186,0.32,0.52,0.497,0.865,0.497
	C62.97,300.812,63.143,300.769,63.3,300.676z M57.327,509.819l-0.082-0.055c-0.17-0.111-0.361-0.165-0.551-0.165
	c-0.324,0-0.643,0.158-0.835,0.448c-0.305,0.461-0.178,1.081,0.282,1.386c0.017,0.01,0.034,0.021,0.05,0.033
	c0.01,0.006,0.025,0.017,0.035,0.023c0.169,0.111,0.36,0.165,0.548,0.165c0.325,0,0.643-0.158,0.836-0.449
	C57.915,510.744,57.787,510.124,57.327,509.819z M64.2,514.042l-0.086-0.049c-0.156-0.089-0.327-0.132-0.495-0.132
	c-0.347,0-0.685,0.182-0.87,0.505c-0.274,0.479-0.107,1.09,0.373,1.363c0.027,0.016,0.052,0.03,0.079,0.046
	c0.001,0,0.002,0.001,0.004,0.002c0.003,0.003,0.001,0,0.004,0.003c0.156,0.088,0.326,0.13,0.494,0.13
	c0.348,0,0.685-0.181,0.87-0.505C64.848,514.924,64.68,514.314,64.2,514.042z M60.729,511.987l-0.084-0.051
	c-0.163-0.101-0.344-0.149-0.523-0.149c-0.336,0-0.664,0.169-0.853,0.477c-0.289,0.47-0.143,1.085,0.326,1.375
	c0.004,0.002,0.003,0.001,0.006,0.003c0.021,0.014,0.042,0.027,0.063,0.039c0.01,0.007,0.017,0.01,0.027,0.017
	c0.161,0.096,0.338,0.143,0.513,0.143c0.335,0,0.663-0.169,0.852-0.476C61.346,512.893,61.199,512.276,60.729,511.987z
	 M46.767,312.193l0.076-0.062c0.426-0.352,0.487-0.981,0.136-1.408c-0.198-0.239-0.484-0.364-0.772-0.364
	c-0.224,0-0.449,0.075-0.635,0.229c-0.011,0.008-0.02,0.017-0.031,0.025c-0.012,0.01-0.022,0.018-0.034,0.028
	c-0.004,0.002-0.009,0.007-0.013,0.01c-0.425,0.352-0.485,0.982-0.134,1.408c0.198,0.239,0.483,0.363,0.771,0.363
	C46.355,312.422,46.581,312.347,46.767,312.193z M29.721,329.327l0.062-0.077c0.35-0.427,0.287-1.057-0.141-1.407
	c-0.186-0.152-0.41-0.226-0.632-0.226c-0.289,0-0.574,0.124-0.772,0.364c-0.015,0.019-0.029,0.036-0.044,0.054
	c-0.003,0.003-0.006,0.007-0.009,0.01c-0.005,0.006-0.011,0.014-0.016,0.02c-0.347,0.428-0.282,1.055,0.144,1.402
	c0.186,0.153,0.41,0.227,0.632,0.227C29.236,329.695,29.523,329.568,29.721,329.327z M238.131,358.759
	c0.163,0.378,0.532,0.606,0.921,0.606c0.131,0,0.265-0.026,0.393-0.081c0.508-0.216,0.743-0.804,0.525-1.313
	c-0.001-0.002-0.003-0.007-0.004-0.009c-0.008-0.019-0.014-0.032-0.021-0.05c-0.005-0.01-0.009-0.022-0.014-0.032
	c-0.162-0.379-0.531-0.607-0.919-0.607c-0.131,0-0.265,0.027-0.394,0.081c-0.508,0.218-0.743,0.806-0.525,1.314L238.131,358.759z
	 M230.375,339.839c-0.011-0.018-0.023-0.035-0.033-0.053c-0.19-0.299-0.513-0.462-0.843-0.461c-0.185,0-0.371,0.051-0.537,0.157
	c-0.466,0.298-0.601,0.917-0.305,1.382l0.054,0.083c0.19,0.299,0.514,0.462,0.843,0.462c0.184,0,0.371-0.051,0.538-0.158
	c0.464-0.296,0.601-0.91,0.308-1.375C230.392,339.866,230.382,339.849,230.375,339.839z M236.483,355.077
	c0.171,0.363,0.531,0.576,0.907,0.576c0.142,0,0.286-0.03,0.423-0.094c0.496-0.232,0.713-0.819,0.488-1.316
	c-0.019-0.04-0.036-0.077-0.055-0.116c-0.172-0.355-0.527-0.565-0.899-0.565c-0.142,0-0.286,0.031-0.424,0.095
	c-0.5,0.234-0.716,0.83-0.482,1.331L236.483,355.077z M228.087,336.388l-0.012-0.018c-0.194-0.281-0.507-0.433-0.825-0.433
	c-0.195,0-0.393,0.057-0.566,0.177c-0.455,0.312-0.569,0.936-0.257,1.389l0.056,0.081c0.194,0.284,0.507,0.435,0.825,0.435
	c0.195,0,0.393-0.056,0.565-0.176c0.455-0.312,0.571-0.934,0.26-1.389C228.117,336.432,228.102,336.41,228.087,336.388z
	 M232.523,343.321c-0.013-0.02-0.021-0.036-0.034-0.056c-0.188-0.308-0.516-0.479-0.854-0.479c-0.174,0-0.35,0.044-0.51,0.14
	c-0.474,0.282-0.631,0.896-0.348,1.371l0.05,0.084c0.187,0.314,0.52,0.489,0.861,0.489c0.174,0,0.35-0.045,0.51-0.14
	c0.475-0.282,0.631-0.895,0.349-1.371C232.538,343.348,232.531,343.334,232.523,343.321z M232.829,347.884
	c0.183,0.331,0.524,0.518,0.877,0.518c0.163,0,0.329-0.04,0.481-0.125c0.481-0.265,0.658-0.868,0.397-1.352
	c-0.006-0.01-0.01-0.017-0.016-0.027c-0.01-0.018-0.02-0.035-0.028-0.052c-0.004-0.008-0.01-0.017-0.014-0.024
	c-0.182-0.325-0.521-0.508-0.87-0.508c-0.163,0-0.328,0.04-0.481,0.124c-0.483,0.267-0.66,0.875-0.394,1.36L232.829,347.884z
	 M234.716,351.45c0.176,0.348,0.527,0.548,0.893,0.548c0.152,0,0.307-0.035,0.452-0.109c0.489-0.249,0.685-0.844,0.442-1.335
	c-0.016-0.032-0.035-0.07-0.051-0.101c-0.178-0.345-0.528-0.544-0.892-0.544c-0.153,0-0.309,0.035-0.453,0.109
	c-0.492,0.251-0.688,0.853-0.436,1.345L234.716,351.45z M225.739,333.088c-0.014-0.019-0.028-0.038-0.042-0.058
	c-0.196-0.266-0.499-0.407-0.805-0.407c-0.206,0-0.414,0.063-0.593,0.194c-0.444,0.328-0.539,0.954-0.212,1.398l0.059,0.08
	c0.196,0.266,0.499,0.407,0.807,0.407c0.205,0,0.413-0.064,0.592-0.194c0.442-0.327,0.539-0.948,0.217-1.393
	C225.754,333.106,225.747,333.097,225.739,333.088z M14.984,349.865c0.15,0.079,0.311,0.117,0.469,0.117
	c0.358,0,0.705-0.193,0.884-0.531l0.046-0.087c0.259-0.488,0.074-1.093-0.413-1.353c-0.15-0.08-0.311-0.118-0.469-0.118
	c-0.357,0-0.701,0.192-0.882,0.527c-0.011,0.022-0.023,0.044-0.035,0.066c-0.004,0.008-0.009,0.017-0.014,0.025
	C14.312,349,14.497,349.605,14.984,349.865z M16.923,346.288c0.157,0.091,0.328,0.134,0.497,0.134c0.346,0,0.683-0.18,0.868-0.502
	l0.049-0.085c0.275-0.48,0.11-1.091-0.368-1.366c-0.157-0.091-0.329-0.134-0.498-0.134c-0.346,0-0.683,0.181-0.867,0.502
	l-0.01,0.017c-0.014,0.025-0.03,0.052-0.044,0.075C16.281,345.409,16.446,346.015,16.923,346.288z M220.618,326.587
	c-0.198-0.232-0.478-0.351-0.761-0.351c-0.228,0-0.457,0.077-0.644,0.235c-0.422,0.355-0.475,0.987-0.12,1.409l0.064,0.076
	c0.198,0.234,0.48,0.355,0.766,0.355c0.227,0,0.456-0.077,0.643-0.234c0.423-0.355,0.477-0.986,0.121-1.409l-0.032-0.038
	C220.641,326.614,220.631,326.601,220.618,326.587z M223.222,329.782c-0.003-0.004-0.007-0.009-0.01-0.013
	c-0.197-0.25-0.49-0.381-0.786-0.381c-0.217,0-0.434,0.07-0.618,0.215c-0.434,0.342-0.508,0.971-0.166,1.404l0.061,0.077
	c0.197,0.251,0.49,0.381,0.787,0.381c0.216,0,0.435-0.07,0.617-0.215c0.434-0.342,0.509-0.969,0.167-1.403
	c-0.004-0.006-0.008-0.011-0.012-0.015C223.248,329.814,223.237,329.801,223.222,329.782z M248.152,392.556
	c-0.55,0.06-0.945,0.553-0.885,1.102l0.011,0.099c0.055,0.513,0.488,0.892,0.993,0.892c0.035,0,0.071-0.002,0.108-0.006
	c0.547-0.059,0.942-0.549,0.887-1.095c-0.004-0.037-0.008-0.073-0.012-0.11c-0.057-0.51-0.491-0.888-0.993-0.888
	C248.225,392.55,248.188,392.552,248.152,392.556z M13.165,353.501c0.141,0.069,0.292,0.103,0.439,0.103
	c0.37,0,0.724-0.206,0.898-0.561l0.043-0.088c0.244-0.496,0.038-1.096-0.457-1.339c-0.142-0.07-0.292-0.103-0.44-0.103
	c-0.369,0-0.725,0.206-0.898,0.56c-0.004,0.007-0.008,0.017-0.012,0.024c-0.012,0.025-0.025,0.052-0.038,0.077
	C12.467,352.669,12.673,353.26,13.165,353.501z M247.617,388.524c-0.547,0.077-0.928,0.584-0.851,1.131l0.014,0.098
	c0.071,0.499,0.499,0.861,0.989,0.861c0.047,0,0.094-0.004,0.142-0.011c0.543-0.076,0.922-0.575,0.852-1.118
	c-0.005-0.036-0.011-0.075-0.016-0.111c-0.071-0.499-0.498-0.859-0.987-0.859C247.712,388.514,247.664,388.518,247.617,388.524z
	 M248.877,400.66c-0.015,0-0.029,0-0.044,0.001c-0.552,0.023-0.98,0.49-0.957,1.043l0.004,0.098
	c0.023,0.537,0.466,0.958,0.999,0.958c0.015,0,0.028-0.001,0.043-0.001c0.552-0.023,0.98-0.49,0.956-1.042v-0.019
	c-0.002-0.033-0.003-0.06-0.005-0.094C249.845,401.074,249.406,400.66,248.877,400.66z M239.621,362.401l0.035,0.092
	c0.154,0.395,0.532,0.637,0.932,0.637c0.121,0,0.243-0.022,0.363-0.069c0.515-0.2,0.768-0.78,0.568-1.294
	c-0.012-0.029-0.023-0.059-0.034-0.089l-0.004-0.007c-0.154-0.394-0.53-0.634-0.929-0.634c-0.121,0-0.244,0.021-0.363,0.068
	C239.675,361.306,239.421,361.886,239.621,362.401z M248.559,396.604c-0.551,0.041-0.964,0.522-0.922,1.073l0.008,0.098
	c0.039,0.525,0.477,0.926,0.996,0.926c0.025,0,0.051-0.001,0.076-0.003c0.55-0.041,0.962-0.519,0.922-1.07
	c-0.003-0.041-0.006-0.074-0.009-0.116c-0.046-0.519-0.481-0.911-0.995-0.911C248.61,396.601,248.584,396.602,248.559,396.604z
	 M246.946,384.513c-0.544,0.096-0.908,0.615-0.812,1.158l0.017,0.097c0.085,0.486,0.508,0.828,0.984,0.828
	c0.058,0,0.115-0.005,0.174-0.015c0.539-0.094,0.901-0.605,0.814-1.144c-0.006-0.031-0.012-0.064-0.017-0.097
	c-0.001-0.005-0.002-0.01-0.003-0.015c-0.085-0.485-0.507-0.827-0.983-0.827C247.062,384.498,247.005,384.503,246.946,384.513z
	 M242.303,370.008l0.029,0.095c0.135,0.427,0.529,0.699,0.954,0.699c0.1,0,0.2-0.015,0.301-0.046
	c0.522-0.165,0.814-0.721,0.656-1.244c-0.006-0.018-0.011-0.035-0.017-0.054c-0.006-0.018-0.012-0.035-0.017-0.052
	c-0.135-0.427-0.529-0.699-0.953-0.699c-0.101,0-0.202,0.015-0.302,0.046C242.429,368.919,242.136,369.481,242.303,370.008z
	 M241.025,366.182l0.032,0.093c0.145,0.412,0.531,0.669,0.944,0.669c0.109,0,0.222-0.018,0.331-0.056
	c0.521-0.184,0.795-0.755,0.611-1.276c-0.005-0.014-0.01-0.028-0.015-0.042c-0.004-0.011-0.008-0.023-0.012-0.035
	c-0.002-0.006-0.005-0.012-0.007-0.019c-0.145-0.41-0.53-0.667-0.943-0.667c-0.11,0-0.221,0.017-0.332,0.056
	C241.115,365.09,240.841,365.662,241.025,366.182z M243.454,373.875l0.026,0.095c0.123,0.442,0.525,0.731,0.963,0.731
	c0.089,0,0.18-0.012,0.27-0.037c0.531-0.148,0.843-0.7,0.693-1.232c-0.004-0.015-0.006-0.024-0.011-0.039
	c-0.005-0.02-0.011-0.038-0.016-0.057c-0.124-0.443-0.525-0.731-0.962-0.731c-0.09,0-0.181,0.012-0.271,0.037
	C243.615,372.791,243.305,373.342,243.454,373.875z M246.144,380.525c-0.54,0.114-0.888,0.644-0.774,1.185l0.02,0.096
	c0.1,0.472,0.516,0.796,0.978,0.796c0.068,0,0.137-0.007,0.206-0.021c0.539-0.112,0.886-0.641,0.774-1.181
	c-0.008-0.035-0.016-0.071-0.022-0.108c-0.101-0.467-0.514-0.788-0.976-0.788C246.283,380.504,246.214,380.511,246.144,380.525z
	 M244.477,377.776l0.023,0.096c0.111,0.457,0.52,0.764,0.971,0.764c0.078,0,0.157-0.01,0.237-0.029
	c0.536-0.131,0.865-0.672,0.734-1.208c-0.005-0.02-0.01-0.038-0.015-0.057c-0.004-0.016-0.007-0.03-0.011-0.045
	c-0.114-0.454-0.521-0.757-0.969-0.757c-0.078,0-0.158,0.009-0.238,0.028C244.674,376.699,244.345,377.24,244.477,377.776z
	 M4.843,376.399c0.085,0.022,0.171,0.033,0.256,0.033c0.443,0,0.849-0.297,0.968-0.745l0.025-0.095
	c0.141-0.534-0.178-1.081-0.712-1.222c-0.086-0.023-0.172-0.033-0.256-0.033c-0.44,0-0.842,0.293-0.963,0.736
	c-0.003,0.012-0.006,0.023-0.009,0.035c-0.006,0.023-0.012,0.047-0.018,0.069C3.992,375.712,4.31,376.259,4.843,376.399z
	 M1.765,420.8c0.549-0.056,0.95-0.546,0.894-1.096l-0.01-0.099c-0.052-0.514-0.487-0.899-0.994-0.899
	c-0.034,0-0.067,0.002-0.102,0.005c-0.55,0.056-0.95,0.546-0.894,1.096c0,0.009,0.001,0.017,0.002,0.024
	c0.001,0.013,0.002,0.027,0.004,0.04c0.001,0.011,0.002,0.024,0.004,0.036c0.052,0.516,0.486,0.9,0.993,0.9
	C1.696,420.806,1.73,420.805,1.765,420.8z M2.916,428.852c0.544-0.091,0.912-0.607,0.821-1.152l-0.016-0.096
	c-0.082-0.489-0.506-0.835-0.985-0.835c-0.055,0-0.111,0.004-0.166,0.014c-0.545,0.091-0.912,0.607-0.82,1.151
	c0.001,0.007,0.002,0.013,0.003,0.019c0.003,0.017,0.005,0.029,0.008,0.045l0.006,0.035c0.081,0.488,0.503,0.834,0.983,0.834
	C2.804,428.866,2.86,428.862,2.916,428.852z M1.042,404.554c0.009,0.001,0.019,0.001,0.028,0.001c0.539,0,0.984-0.43,1-0.973
	l0.003-0.098c0.016-0.553-0.419-1.013-0.971-1.029H1.073c-0.539,0-0.983,0.428-0.999,0.972l-0.001,0.035
	c0,0.021-0.001,0.038-0.001,0.059v0.006C0.055,404.078,0.489,404.538,1.042,404.554z M2.274,424.837
	c0.547-0.074,0.932-0.577,0.858-1.125l-0.013-0.098c-0.068-0.502-0.497-0.867-0.99-0.867c-0.044,0-0.089,0.003-0.134,0.01
	c-0.543,0.072-0.925,0.568-0.86,1.109c0.004,0.033,0.008,0.062,0.013,0.094c0.001,0.007,0.002,0.012,0.003,0.02
	c0.067,0.501,0.496,0.866,0.989,0.866C2.184,424.846,2.229,424.843,2.274,424.837z M1.022,408.625h0.005
	c0.552-0.002,0.998-0.453,0.995-1.004l0-0.098c-0.002-0.551-0.449-0.997-1-0.997H1.018c-0.547,0.002-0.991,0.443-0.996,0.989v0.125
	C0.03,408.185,0.475,408.625,1.022,408.625z M1.103,412.692H1.14c0.552-0.021,0.983-0.485,0.964-1.036L2.1,411.557
	c-0.019-0.539-0.463-0.964-0.999-0.964c-0.012,0-0.024,0-0.036,0.001c-0.552,0.019-0.983,0.482-0.963,1.034
	c0.001,0.018,0.001,0.035,0.002,0.051c0,0.017,0.001,0.04,0.002,0.057C0.128,412.272,0.57,412.692,1.103,412.692z M1.388,416.751
	c0.551-0.038,0.966-0.515,0.928-1.066l-0.007-0.099c-0.036-0.528-0.475-0.932-0.997-0.932c-0.023,0-0.046,0-0.069,0.002
	c-0.551,0.038-0.967,0.515-0.929,1.066c0.002,0.033,0.004,0.066,0.007,0.1c0.037,0.528,0.476,0.932,0.997,0.932
	C1.341,416.754,1.364,416.753,1.388,416.751z M7.46,443.388l-0.029-0.093c-0.132-0.431-0.528-0.707-0.956-0.707
	c-0.097,0-0.196,0.015-0.294,0.045c-0.528,0.162-0.824,0.721-0.661,1.25c0.002,0.007,0.004,0.014,0.006,0.021
	c0.002,0.008,0.005,0.017,0.008,0.025c0.003,0.009,0.005,0.019,0.008,0.027c0.003,0.012,0.005,0.017,0.009,0.029
	c0.134,0.425,0.528,0.699,0.952,0.699c0.098,0,0.197-0.015,0.295-0.044C7.326,444.477,7.623,443.917,7.46,443.388z M8.712,447.224
	L8.68,447.13c-0.143-0.414-0.531-0.675-0.946-0.675c-0.108,0-0.218,0.017-0.326,0.055c-0.522,0.181-0.8,0.749-0.62,1.271
	c0.005,0.015,0.01,0.03,0.016,0.045c0.006,0.019,0.011,0.033,0.018,0.051c0.144,0.414,0.531,0.672,0.944,0.672
	c0.108,0,0.218-0.017,0.326-0.054C8.615,448.314,8.892,447.746,8.712,447.224z M4.598,436.811c0.538-0.128,0.87-0.667,0.742-1.204
	l-0.023-0.096c-0.109-0.459-0.519-0.77-0.972-0.77c-0.076,0-0.154,0.009-0.231,0.027c-0.534,0.126-0.866,0.66-0.745,1.194
	c0.007,0.031,0.013,0.052,0.02,0.083c0.002,0.008,0.004,0.016,0.005,0.024c0.109,0.46,0.52,0.77,0.973,0.77
	C4.443,436.838,4.521,436.829,4.598,436.811z M3.692,432.844c0.541-0.109,0.891-0.637,0.782-1.178l-0.019-0.097
	c-0.096-0.474-0.513-0.801-0.979-0.801c-0.066,0-0.132,0.006-0.199,0.019c-0.541,0.109-0.891,0.637-0.782,1.178
	c0.001,0.008,0.003,0.016,0.004,0.023c0.006,0.032,0.012,0.058,0.018,0.09c0.101,0.467,0.514,0.788,0.976,0.788
	C3.558,432.865,3.625,432.858,3.692,432.844z M6.336,439.514L6.31,439.42c-0.121-0.445-0.524-0.738-0.965-0.738
	c-0.087,0-0.175,0.012-0.263,0.035c-0.533,0.145-0.847,0.694-0.702,1.227c0.005,0.018,0.01,0.036,0.015,0.055
	c0.004,0.015,0.009,0.035,0.014,0.051c0.124,0.44,0.525,0.728,0.962,0.728c0.087,0,0.175-0.012,0.263-0.035
	C6.167,440.597,6.481,440.047,6.336,439.514z M11.466,357.197c0.133,0.059,0.273,0.088,0.41,0.088c0.381,0,0.746-0.219,0.912-0.59
	l0.041-0.09c0.226-0.504,0.002-1.096-0.501-1.324c-0.133-0.059-0.273-0.088-0.41-0.088c-0.38,0-0.743,0.218-0.911,0.586
	c-0.003,0.007-0.004,0.01-0.008,0.017c-0.012,0.027-0.023,0.052-0.035,0.078C10.738,356.378,10.963,356.97,11.466,357.197z
	 M10.09,451.014l-0.035-0.091c-0.152-0.399-0.532-0.644-0.935-0.644c-0.118,0-0.239,0.02-0.356,0.066
	c-0.516,0.197-0.775,0.774-0.578,1.291c0.012,0.031,0.024,0.062,0.036,0.093c0.152,0.399,0.531,0.644,0.933,0.644
	c0.119,0,0.239-0.021,0.357-0.066C10.027,452.109,10.286,451.531,10.09,451.014z M7.112,368.59c0.105,0.035,0.212,0.051,0.318,0.051
	c0.418,0,0.808-0.263,0.948-0.683l0.031-0.093c0.176-0.524-0.106-1.091-0.629-1.266c-0.106-0.036-0.213-0.053-0.319-0.053
	c-0.418,0-0.807,0.264-0.947,0.682c-0.005,0.017-0.011,0.032-0.017,0.049c-0.005,0.015-0.012,0.036-0.017,0.051
	C6.308,367.851,6.59,368.414,7.112,368.59z M5.914,372.476c0.096,0.028,0.192,0.042,0.287,0.042c0.43,0,0.828-0.28,0.958-0.714
	l0.028-0.093c0.159-0.529-0.142-1.087-0.671-1.245c-0.096-0.03-0.192-0.043-0.288-0.043c-0.426,0.001-0.819,0.275-0.953,0.701
	c-0.012,0.038-0.024,0.077-0.035,0.115C5.087,371.765,5.387,372.319,5.914,372.476z M9.888,360.945
	c0.124,0.052,0.253,0.076,0.38,0.076c0.394,0,0.766-0.234,0.926-0.62l0.038-0.091c0.21-0.511-0.034-1.096-0.544-1.305
	c-0.124-0.052-0.253-0.077-0.38-0.077c-0.393,0-0.765,0.235-0.924,0.62l-0.023,0.056c-0.004,0.012-0.012,0.03-0.017,0.041
	C9.135,360.155,9.378,360.736,9.888,360.945z M8.437,364.743c0.115,0.043,0.233,0.064,0.349,0.064c0.406,0,0.788-0.248,0.938-0.65
	l0.034-0.093c0.193-0.517-0.07-1.094-0.587-1.286c-0.116-0.044-0.234-0.064-0.35-0.064c-0.405,0-0.786,0.248-0.936,0.65
	c-0.005,0.015-0.011,0.03-0.017,0.044c-0.005,0.016-0.014,0.039-0.02,0.054C7.658,363.979,7.921,364.552,8.437,364.743z
	 M3.098,384.344c0.065,0.012,0.129,0.018,0.192,0.018c0.469,0,0.889-0.331,0.981-0.81l0.019-0.096
	c0.105-0.543-0.249-1.067-0.791-1.172c-0.064-0.013-0.129-0.019-0.192-0.019c-0.469,0-0.887,0.331-0.979,0.809
	c-0.003,0.014-0.005,0.028-0.008,0.04c-0.001,0.008-0.004,0.022-0.005,0.03c-0.002,0.009-0.004,0.019-0.005,0.029
	C2.203,383.714,2.556,384.238,3.098,384.344z M1.88,392.385c0.042,0.006,0.085,0.008,0.127,0.008c0.496,0,0.927-0.369,0.991-0.874
	l0.012-0.098c0.069-0.548-0.318-1.049-0.866-1.118c-0.043-0.006-0.085-0.009-0.127-0.009c-0.496,0-0.926,0.369-0.99,0.874
	c-0.003,0.019-0.005,0.037-0.007,0.056c-0.002,0.012-0.004,0.033-0.006,0.046C0.945,391.817,1.333,392.316,1.88,392.385z
	 M1.47,396.431c0.032,0.003,0.063,0.005,0.094,0.005c0.51,0,0.946-0.389,0.994-0.907l0.009-0.098
	c0.051-0.55-0.353-1.038-0.902-1.089c-0.032-0.003-0.063-0.004-0.095-0.004c-0.506,0-0.939,0.382-0.993,0.893
	c-0.004,0.041-0.007,0.079-0.011,0.121C0.52,395.897,0.923,396.38,1.47,396.431z M1.189,400.489
	c0.021,0.001,0.041,0.002,0.062,0.002c0.525,0,0.965-0.409,0.998-0.94l0.006-0.098c0.034-0.551-0.386-1.026-0.938-1.06
	c-0.021-0.001-0.041-0.002-0.062-0.002c-0.52,0-0.958,0.403-0.996,0.928c-0.002,0.021-0.002,0.041-0.004,0.062
	c-0.001,0.015-0.002,0.032-0.003,0.049C0.219,399.98,0.638,400.455,1.189,400.489z M2.422,388.354
	c0.054,0.007,0.107,0.012,0.159,0.012c0.483,0,0.909-0.35,0.988-0.841l0.016-0.098c0.087-0.545-0.284-1.059-0.829-1.146
	c-0.054-0.009-0.107-0.014-0.16-0.014c-0.482,0-0.907,0.351-0.985,0.841c0,0,0,0,0,0.001c-0.003,0.02-0.006,0.038-0.009,0.058
	c-0.003,0.014-0.005,0.028-0.007,0.04C1.507,387.753,1.877,388.266,2.422,388.354z M3.907,380.358
	c0.075,0.017,0.15,0.025,0.224,0.025c0.456,0,0.868-0.315,0.974-0.778l0.022-0.096c0.123-0.538-0.214-1.074-0.752-1.198
	c-0.075-0.017-0.15-0.025-0.225-0.025c-0.455,0-0.867,0.315-0.973,0.777c-0.007,0.032-0.015,0.064-0.022,0.098
	C3.032,379.698,3.368,380.234,3.907,380.358z M50.666,505.096c-0.181-0.138-0.394-0.204-0.604-0.204c-0.302,0-0.6,0.137-0.797,0.396
	c-0.334,0.44-0.249,1.067,0.191,1.4c0.004,0.003,0.008,0.006,0.011,0.009c0.016,0.013,0.033,0.025,0.049,0.037
	c0.006,0.005,0.013,0.01,0.02,0.015c0.181,0.137,0.393,0.203,0.603,0.203c0.302,0,0.601-0.137,0.798-0.395
	c0.334-0.441,0.248-1.068-0.192-1.4L50.666,505.096z M206.272,312.124c-0.005-0.004-0.011-0.009-0.017-0.014
	c-0.006-0.005-0.006-0.005-0.012-0.01c-0.016-0.014-0.031-0.027-0.048-0.041c-0.188-0.161-0.419-0.24-0.649-0.24
	c-0.281,0-0.562,0.119-0.76,0.35c-0.359,0.419-0.309,1.051,0.109,1.41l0.075,0.064c0.188,0.162,0.42,0.24,0.649,0.24
	c0.282,0,0.562-0.118,0.761-0.349C206.741,313.115,206.692,312.483,206.272,312.124z M93.002,288.304l0.095-0.027
	c0.533-0.142,0.85-0.691,0.707-1.224c-0.12-0.446-0.523-0.741-0.965-0.741c-0.086,0-0.173,0.01-0.26,0.034
	c-0.009,0.002-0.017,0.005-0.025,0.007c-0.012,0.003-0.022,0.006-0.034,0.009c-0.013,0.004-0.025,0.007-0.038,0.011
	c-0.533,0.142-0.85,0.69-0.706,1.224c0.12,0.446,0.524,0.741,0.966,0.741C92.828,288.338,92.916,288.326,93.002,288.304z
	 M207.611,498.574c-0.237,0-0.476,0.084-0.666,0.255l-0.073,0.065c-0.412,0.368-0.448,1-0.08,1.412
	c0.197,0.222,0.471,0.335,0.746,0.335c0.233,0,0.467-0.081,0.656-0.246c0.028-0.027,0.057-0.051,0.086-0.077
	c0.409-0.368,0.444-1,0.076-1.41C208.158,498.687,207.885,498.574,207.611,498.574z M201.374,503.795
	c-0.216,0-0.433,0.07-0.616,0.213l-0.077,0.061c-0.435,0.339-0.512,0.968-0.172,1.404c0.197,0.252,0.491,0.384,0.788,0.384
	c0.216,0,0.433-0.069,0.615-0.212c0.004-0.003,0.007-0.006,0.011-0.009c0.022-0.017,0.042-0.033,0.064-0.05
	c0,0,0.002-0.002,0.004-0.004c0.434-0.34,0.511-0.969,0.171-1.404C201.965,503.927,201.671,503.795,201.374,503.795z
	 M199.802,306.942c-0.002-0.002-0.005-0.004-0.007-0.005c-0.18-0.135-0.39-0.2-0.599-0.2c-0.304,0-0.603,0.139-0.8,0.401
	c-0.331,0.441-0.241,1.07,0.201,1.401l0.078,0.058c0.18,0.135,0.391,0.2,0.598,0.2c0.305,0,0.605-0.138,0.802-0.401
	c0.328-0.438,0.243-1.058-0.189-1.391C199.856,306.982,199.833,306.965,199.802,306.942z M203.116,309.508
	c-0.001-0.001-0.003-0.002-0.003-0.002c-0.025-0.02-0.052-0.042-0.076-0.062c-0.185-0.147-0.404-0.218-0.623-0.218
	c-0.294,0-0.584,0.129-0.782,0.376c-0.345,0.43-0.274,1.06,0.156,1.405l0.077,0.061c0.185,0.148,0.405,0.219,0.624,0.219
	c0.294,0,0.584-0.127,0.781-0.375C203.616,310.483,203.547,309.854,203.116,309.508z M209.348,314.848
	c-0.005-0.006-0.014-0.013-0.019-0.018c-0.02-0.017-0.039-0.036-0.059-0.053l-0.004-0.003c-0.191-0.175-0.432-0.261-0.673-0.261
	c-0.271,0-0.542,0.109-0.739,0.326c-0.373,0.407-0.344,1.04,0.064,1.412l0.072,0.066c0.192,0.175,0.433,0.262,0.675,0.262
	c0.271,0,0.541-0.109,0.738-0.325C209.775,315.849,209.749,315.221,209.348,314.848z M210.598,495.815
	c-0.248,0-0.496,0.092-0.69,0.276l-0.071,0.067c-0.4,0.382-0.415,1.015-0.034,1.414c0.196,0.207,0.46,0.311,0.724,0.311
	c0.248,0,0.496-0.092,0.689-0.277c0.014-0.012,0.026-0.024,0.039-0.037c0.015-0.014,0.027-0.025,0.042-0.039
	c0.391-0.381,0.404-1.01,0.025-1.406C211.125,495.919,210.862,495.815,210.598,495.815z M216.295,490.011
	c-0.269,0-0.539,0.108-0.736,0.323l-0.066,0.072c-0.374,0.406-0.348,1.039,0.059,1.413c0.191,0.177,0.434,0.265,0.677,0.265
	c0.267,0,0.532-0.106,0.729-0.315c0.019-0.021,0.035-0.04,0.054-0.059c0.007-0.008,0.014-0.015,0.021-0.023
	c0.374-0.406,0.347-1.039-0.06-1.413C216.78,490.098,216.537,490.011,216.295,490.011z M215.206,320.57
	c-0.009-0.009-0.017-0.017-0.025-0.027c-0.017-0.017-0.032-0.033-0.049-0.051c-0.196-0.2-0.456-0.301-0.716-0.301
	c-0.249,0-0.499,0.093-0.693,0.279c-0.398,0.383-0.41,1.016-0.027,1.413l0.068,0.071c0.196,0.204,0.458,0.307,0.722,0.307
	c0.249,0,0.498-0.093,0.692-0.278C215.577,321.601,215.589,320.969,215.206,320.57z M213.494,492.959
	c-0.259,0-0.518,0.101-0.713,0.3l-0.069,0.07c-0.388,0.393-0.382,1.027,0.012,1.414c0.195,0.191,0.448,0.287,0.701,0.287
	c0.257,0,0.515-0.098,0.71-0.296c0.024-0.025,0.054-0.055,0.078-0.08c0.382-0.393,0.375-1.023-0.018-1.408
	C214,493.055,213.747,492.959,213.494,492.959z M212.321,317.658c-0.024-0.022-0.048-0.046-0.072-0.069
	c-0.194-0.189-0.445-0.284-0.697-0.284c-0.26,0-0.519,0.101-0.716,0.302c-0.386,0.396-0.378,1.029,0.018,1.415l0.07,0.069
	c0.194,0.189,0.446,0.284,0.698,0.284c0.261,0,0.52-0.1,0.716-0.302C212.723,318.677,212.716,318.044,212.321,317.658z
	 M187.946,512.96c-0.173,0-0.348,0.044-0.507,0.139l-0.085,0.051c-0.476,0.28-0.634,0.893-0.353,1.369
	c0.187,0.317,0.519,0.493,0.862,0.493c0.168,0,0.339-0.043,0.495-0.132c0.018-0.01,0.031-0.019,0.048-0.029l0.05-0.029
	c0.475-0.28,0.634-0.893,0.352-1.369C188.622,513.135,188.289,512.96,187.946,512.96z M217.998,323.577
	c-0.021-0.023-0.048-0.054-0.068-0.077c-0.198-0.219-0.471-0.33-0.744-0.33c-0.238,0-0.478,0.084-0.669,0.257
	c-0.41,0.369-0.443,1.001-0.073,1.412l0.065,0.073c0.197,0.22,0.47,0.332,0.744,0.332c0.238,0,0.478-0.085,0.668-0.257
	C218.331,324.618,218.365,323.987,217.998,323.577z M186.159,298.056c-0.014-0.008-0.02-0.01-0.034-0.019
	c-0.016-0.01-0.032-0.018-0.049-0.027c-0.01-0.006-0.015-0.009-0.025-0.015c-0.152-0.084-0.317-0.123-0.479-0.123
	c-0.35,0-0.689,0.184-0.873,0.511c-0.269,0.482-0.098,1.091,0.383,1.361l0.086,0.048c0.155,0.087,0.323,0.129,0.489,0.129
	c0.35,0,0.689-0.185,0.873-0.511C186.797,298.933,186.632,298.33,186.159,298.056z M184.411,514.969
	c-0.162,0-0.327,0.039-0.479,0.123l-0.086,0.047c-0.484,0.265-0.663,0.872-0.398,1.357c0.182,0.332,0.524,0.521,0.878,0.521
	c0.162,0,0.327-0.039,0.478-0.122c0.02-0.01,0.038-0.02,0.057-0.031c0.014-0.007,0.029-0.016,0.043-0.023
	c0.476-0.268,0.649-0.87,0.386-1.351C185.107,515.156,184.765,514.969,184.411,514.969z M180.811,516.862
	c-0.151,0-0.305,0.034-0.449,0.108l-0.088,0.044c-0.493,0.249-0.691,0.851-0.442,1.344c0.176,0.348,0.527,0.55,0.893,0.55
	c0.148,0,0.299-0.033,0.441-0.104l0.057-0.028c0.014-0.007,0.027-0.014,0.04-0.02c0.493-0.248,0.691-0.849,0.442-1.343
	C181.53,517.063,181.177,516.862,180.811,516.862z M182.553,296.107c-0.031-0.016-0.061-0.032-0.092-0.048
	c-0.003-0.002-0.007-0.004-0.01-0.005c-0.147-0.077-0.305-0.113-0.46-0.113c-0.361,0-0.71,0.196-0.888,0.539
	c-0.254,0.49-0.062,1.094,0.428,1.35l0.087,0.044c0.147,0.076,0.305,0.113,0.46,0.113c0.361,0,0.711-0.197,0.889-0.54
	C183.219,296.962,183.033,296.364,182.553,296.107z M196.549,304.589c-0.02-0.015-0.041-0.029-0.061-0.043
	c-0.007-0.004-0.019-0.012-0.024-0.017c-0.173-0.117-0.369-0.174-0.563-0.174c-0.315,0-0.626,0.148-0.819,0.427
	c-0.316,0.453-0.206,1.077,0.247,1.394l0.08,0.056c0.175,0.122,0.374,0.181,0.572,0.181c0.316,0,0.626-0.148,0.82-0.427
	c0.316-0.452,0.207-1.075-0.245-1.392L196.549,304.589z M194.809,508.598c-0.194,0-0.389,0.056-0.562,0.174l-0.081,0.054
	c-0.456,0.312-0.574,0.934-0.264,1.39c0.194,0.284,0.508,0.437,0.827,0.437c0.194,0,0.39-0.056,0.562-0.174
	c0.027-0.019,0.055-0.038,0.083-0.056c0.456-0.311,0.573-0.933,0.263-1.389C195.443,508.75,195.129,508.598,194.809,508.598z
	 M198.131,506.25c-0.205,0-0.412,0.063-0.59,0.193l-0.079,0.059c-0.446,0.325-0.544,0.952-0.218,1.398
	c0.195,0.267,0.5,0.41,0.808,0.41c0.205,0,0.411-0.062,0.59-0.194l0.056-0.041c0.007-0.004,0.02-0.014,0.025-0.018
	c0.445-0.326,0.542-0.952,0.216-1.397C198.742,506.392,198.439,506.25,198.131,506.25z M191.414,510.834
	c-0.184,0-0.369,0.051-0.536,0.156l-0.083,0.053c-0.466,0.296-0.604,0.914-0.309,1.381c0.19,0.3,0.515,0.464,0.846,0.464
	c0.183,0,0.368-0.051,0.534-0.156c0.014-0.008,0.027-0.017,0.041-0.026c0.01-0.006,0.015-0.009,0.024-0.016
	c0.007-0.004,0.013-0.008,0.02-0.012c0.466-0.296,0.604-0.915,0.308-1.38C192.068,510.999,191.744,510.834,191.414,510.834z
	 M189.687,300.117c-0.007-0.005-0.013-0.009-0.02-0.013c-0.01-0.005-0.023-0.012-0.032-0.019c-0.011-0.007-0.022-0.014-0.033-0.02
	c-0.162-0.099-0.341-0.145-0.517-0.145c-0.339,0-0.669,0.172-0.857,0.483c-0.285,0.472-0.134,1.087,0.339,1.373l0.084,0.051
	c0.162,0.097,0.341,0.144,0.516,0.144c0.339,0,0.669-0.172,0.857-0.481C190.31,301.017,190.16,300.402,189.687,300.117z
	 M193.118,302.273c-0.014-0.009-0.027-0.019-0.042-0.027l-0.003-0.003c-0.169-0.109-0.357-0.161-0.544-0.161
	c-0.327,0-0.647,0.16-0.839,0.454c-0.301,0.463-0.17,1.083,0.293,1.384l0.082,0.054c0.169,0.111,0.357,0.163,0.545,0.163
	c0.327,0,0.647-0.16,0.839-0.454c0.299-0.458,0.174-1.07-0.278-1.375C193.15,302.294,193.139,302.285,193.118,302.273z
	 M245.374,436.978c-0.083-0.022-0.166-0.031-0.248-0.031c-0.446,0-0.852,0.3-0.969,0.752l-0.024,0.096
	c-0.138,0.535,0.185,1.08,0.72,1.217c0.083,0.022,0.167,0.033,0.249,0.033c0.446,0,0.852-0.301,0.968-0.753
	c0.009-0.032,0.017-0.064,0.024-0.096C246.232,437.659,245.909,437.114,245.374,436.978z M247.714,425.007
	c-0.051-0.007-0.102-0.012-0.152-0.012c-0.485,0-0.911,0.355-0.987,0.85l-0.015,0.097c-0.084,0.546,0.291,1.057,0.837,1.141
	c0.052,0.007,0.102,0.012,0.153,0.012c0.481,0,0.904-0.349,0.984-0.837c0.006-0.036,0.012-0.074,0.018-0.111
	C248.634,425.601,248.259,425.091,247.714,425.007z M247.067,429.023c-0.062-0.012-0.124-0.018-0.185-0.018
	c-0.473,0-0.893,0.336-0.983,0.817l-0.018,0.096c-0.102,0.543,0.256,1.065,0.799,1.167c0.062,0.012,0.125,0.017,0.186,0.017
	c0.47,0,0.888-0.333,0.98-0.809c0.007-0.04,0.014-0.076,0.021-0.116C247.962,429.639,247.606,429.124,247.067,429.023z
	 M246.285,433.013c-0.073-0.016-0.145-0.023-0.217-0.023c-0.459,0-0.872,0.318-0.975,0.784l-0.021,0.097
	c-0.119,0.539,0.221,1.073,0.76,1.192c0.073,0.017,0.145,0.025,0.218,0.025c0.459,0,0.872-0.317,0.975-0.784
	c0.005-0.018,0.009-0.038,0.014-0.058c0.003-0.015,0.007-0.031,0.01-0.046C247.162,433.661,246.821,433.132,246.285,433.013z
	 M178.88,294.274c-0.029-0.014-0.05-0.023-0.078-0.038c-0.007-0.004-0.013-0.007-0.02-0.009c-0.14-0.067-0.286-0.098-0.431-0.098
	c-0.373,0-0.732,0.21-0.902,0.569c-0.238,0.498-0.027,1.094,0.472,1.333l0.089,0.043c0.139,0.067,0.285,0.098,0.43,0.098
	c0.374,0,0.732-0.21,0.903-0.569C179.58,295.107,179.372,294.514,178.88,294.274z M244.333,440.909
	c-0.094-0.027-0.188-0.041-0.28-0.041c-0.434,0-0.833,0.284-0.96,0.72l-0.027,0.095c-0.155,0.53,0.149,1.085,0.68,1.24
	c0.094,0.027,0.188,0.041,0.281,0.041c0.433,0,0.831-0.283,0.959-0.72v-0.001c0.009-0.032,0.019-0.063,0.027-0.096
	C245.168,441.618,244.863,441.064,244.333,440.909z M248.231,420.972c-0.04-0.005-0.08-0.007-0.119-0.007
	c-0.5,0-0.932,0.374-0.994,0.881l-0.012,0.098c-0.065,0.549,0.326,1.047,0.874,1.112c0.041,0.005,0.081,0.008,0.121,0.008
	c0.499,0,0.93-0.373,0.991-0.88c0.001-0.015,0.003-0.03,0.005-0.046c0.003-0.025,0.005-0.043,0.009-0.067
	C249.164,421.527,248.775,421.038,248.231,420.972z M248.985,408.797h-0.021c-0.543,0-0.988,0.434-0.999,0.979l-0.002,0.099
	c-0.013,0.552,0.426,1.008,0.977,1.021h0.022c0.538,0,0.98-0.426,0.999-0.965c0.001-0.037,0.001-0.065,0.002-0.103v-0.009
	C249.975,409.266,249.536,408.809,248.985,408.797z M249.985,405.737v-0.032c-0.012-0.543-0.455-0.979-0.999-0.979h-0.012
	c-0.551,0.006-0.995,0.459-0.989,1.011l0.001,0.099c0.006,0.548,0.453,0.99,1.001,0.99h0.01c0.549-0.006,0.99-0.453,0.989-1.001
	v-0.032C249.986,405.774,249.986,405.755,249.985,405.737z M248.614,416.924c-0.029-0.003-0.059-0.004-0.087-0.004
	c-0.514,0-0.951,0.393-0.996,0.914l-0.009,0.098c-0.048,0.55,0.359,1.035,0.91,1.083c0.029,0.002,0.059,0.004,0.088,0.004
	c0.513,0,0.949-0.393,0.995-0.913c0.003-0.033,0.005-0.066,0.008-0.1C249.571,417.456,249.164,416.971,248.614,416.924z
	 M248.866,412.863c-0.018-0.001-0.036-0.002-0.054-0.002c-0.528,0-0.97,0.413-0.999,0.947l-0.006,0.098
	c-0.029,0.552,0.393,1.024,0.944,1.053c0.018,0.002,0.037,0.002,0.056,0.002c0.524,0,0.963-0.407,0.997-0.935
	c0.002-0.041,0.004-0.075,0.006-0.116C249.837,413.361,249.416,412.893,248.866,412.863z M243.162,444.802
	c-0.104-0.034-0.209-0.049-0.312-0.049c-0.421,0-0.812,0.268-0.95,0.689l-0.03,0.093c-0.173,0.524,0.113,1.09,0.637,1.263
	c0.104,0.033,0.209,0.05,0.312,0.05c0.419,0,0.809-0.266,0.948-0.686c0.002-0.004,0.003-0.007,0.004-0.01
	c0.007-0.022,0.015-0.044,0.021-0.066c0.004-0.011,0.007-0.022,0.011-0.033C243.969,445.531,243.683,444.974,243.162,444.802z
	 M231.474,470.695c-0.163-0.099-0.343-0.146-0.52-0.146c-0.337,0-0.666,0.171-0.854,0.48l-0.052,0.084
	c-0.287,0.472-0.139,1.087,0.333,1.375c0.162,0.098,0.342,0.147,0.52,0.147c0.337,0,0.666-0.171,0.854-0.48
	c0.001-0.001,0.001-0.002,0.002-0.003c0.008-0.014,0.016-0.026,0.024-0.04c0.009-0.014,0.017-0.028,0.025-0.041
	C232.094,471.598,231.946,470.982,231.474,470.695z M226.495,477.351c-0.314,0-0.624,0.147-0.818,0.425l-0.057,0.081
	c-0.318,0.451-0.21,1.075,0.242,1.394c0.175,0.123,0.376,0.182,0.574,0.182c0.312,0,0.618-0.145,0.812-0.417
	c0.01-0.013,0.023-0.032,0.032-0.045c0.007-0.01,0.015-0.02,0.021-0.03c0.004-0.006,0.009-0.013,0.013-0.018
	c0.313-0.452,0.204-1.072-0.246-1.39C226.895,477.409,226.693,477.351,226.495,477.351z M229.329,474.15
	c-0.169-0.111-0.359-0.164-0.548-0.164c-0.326,0-0.646,0.16-0.838,0.451l-0.054,0.083c-0.304,0.462-0.175,1.082,0.287,1.385
	c0.169,0.111,0.359,0.164,0.548,0.164c0.324,0,0.642-0.157,0.834-0.447c0.02-0.03,0.039-0.061,0.059-0.09
	C229.919,475.071,229.79,474.453,229.329,474.15z M221.602,483.847c-0.292,0-0.582,0.127-0.779,0.373l-0.062,0.077
	c-0.347,0.43-0.279,1.06,0.15,1.406c0.185,0.15,0.406,0.222,0.627,0.222c0.291,0,0.58-0.127,0.777-0.37
	c0.007-0.009,0.015-0.019,0.021-0.027c0.015-0.017,0.028-0.035,0.043-0.053c0.346-0.43,0.278-1.06-0.151-1.407
	C222.044,483.92,221.823,483.847,221.602,483.847z M218.999,486.973c-0.281,0-0.56,0.117-0.758,0.346l-0.064,0.076
	c-0.36,0.418-0.314,1.05,0.104,1.41c0.188,0.163,0.421,0.243,0.652,0.243c0.275,0,0.55-0.114,0.747-0.336
	c0.025-0.03,0.057-0.064,0.082-0.094c0.354-0.419,0.305-1.046-0.111-1.404C219.462,487.052,219.23,486.973,218.999,486.973z
	 M241.864,448.658c-0.113-0.041-0.228-0.061-0.343-0.061c-0.408,0-0.792,0.252-0.939,0.657l-0.034,0.093
	c-0.189,0.519,0.077,1.092,0.596,1.282c0.113,0.042,0.23,0.061,0.344,0.061c0.403,0,0.781-0.246,0.934-0.642
	c0.008-0.022,0.018-0.048,0.025-0.07c0.005-0.012,0.01-0.025,0.014-0.038C242.65,449.421,242.382,448.847,241.864,448.658z
	 M224.102,480.639c-0.303,0-0.602,0.137-0.8,0.398l-0.059,0.078c-0.333,0.441-0.244,1.068,0.196,1.401
	c0.181,0.136,0.392,0.202,0.602,0.202c0.303,0,0.602-0.137,0.799-0.398c0.016-0.022,0.032-0.043,0.049-0.064
	c0.005-0.007,0.011-0.015,0.016-0.022c0.327-0.441,0.238-1.063-0.201-1.394C224.524,480.705,224.312,480.639,224.102,480.639z
	 M240.439,452.467c-0.122-0.05-0.249-0.074-0.373-0.074c-0.396,0-0.772,0.237-0.93,0.627l-0.037,0.091
	c-0.206,0.513,0.042,1.095,0.554,1.302c0.123,0.049,0.249,0.073,0.374,0.073c0.395,0,0.77-0.237,0.928-0.627
	c0.002-0.007,0.005-0.014,0.008-0.02c0.013-0.03,0.022-0.055,0.034-0.084C241.195,453.246,240.947,452.671,240.439,452.467z
	 M238.886,456.226c-0.131-0.059-0.268-0.086-0.402-0.086c-0.385,0-0.751,0.223-0.916,0.597l-0.039,0.09
	c-0.224,0.506,0.005,1.096,0.51,1.319c0.132,0.059,0.269,0.086,0.404,0.086c0.38,0,0.743-0.218,0.91-0.586
	c0.013-0.03,0.028-0.066,0.041-0.094c0.002-0.003,0.003-0.005,0.004-0.008C239.621,457.039,239.392,456.448,238.886,456.226z
	 M237.213,459.933c-0.14-0.067-0.287-0.1-0.433-0.1c-0.372,0-0.729,0.209-0.902,0.566l-0.042,0.089
	c-0.24,0.497-0.031,1.096,0.466,1.335c0.141,0.068,0.288,0.1,0.434,0.1c0.372,0,0.729-0.208,0.901-0.566
	c0.01-0.021,0.02-0.041,0.03-0.062c0.005-0.01,0.011-0.021,0.016-0.032C237.919,460.766,237.709,460.171,237.213,459.933z
	 M233.505,467.171c-0.156-0.088-0.325-0.13-0.492-0.13c-0.349,0-0.687,0.183-0.872,0.508l-0.048,0.085
	c-0.272,0.482-0.104,1.092,0.377,1.363c0.156,0.089,0.325,0.131,0.492,0.131c0.348,0,0.686-0.183,0.87-0.506
	c0.004-0.007,0.007-0.012,0.011-0.02c0.001-0.002,0.003-0.005,0.004-0.008c0.014-0.024,0.027-0.048,0.041-0.072
	C234.153,468.044,233.983,467.441,233.505,467.171z M235.418,463.582c-0.147-0.077-0.307-0.113-0.462-0.113
	c-0.36,0-0.709,0.195-0.888,0.536l-0.045,0.088c-0.256,0.489-0.067,1.094,0.422,1.35c0.148,0.078,0.307,0.114,0.463,0.114
	c0.355,0,0.699-0.19,0.88-0.524c0.015-0.027,0.027-0.051,0.042-0.079c0.004-0.007,0.007-0.014,0.011-0.022
	C236.097,464.442,235.907,463.837,235.418,463.582z M204.535,501.237c-0.227,0-0.454,0.076-0.642,0.232l-0.075,0.064
	c-0.424,0.354-0.48,0.985-0.126,1.409c0.198,0.236,0.482,0.358,0.768,0.358c0.226,0,0.454-0.076,0.64-0.233l0.05-0.041
	c0.012-0.01,0.025-0.022,0.038-0.032c0.414-0.356,0.466-0.979,0.114-1.399C205.105,501.358,204.821,501.237,204.535,501.237z
	 M125.007,284.098c0.552,0,1-0.448,1-1c0-0.553-0.447-1-0.999-1c0,0,0,0,0,0h-0.107c-0.549,0.004-0.992,0.45-0.992,1
	c0.001,0.553,0.449,1,1.001,1H125.007z M125.955,530.099h-0.006l-0.098,0.001c-0.552,0.004-0.997,0.455-0.993,1.007
	c0.003,0.55,0.45,0.993,0.999,0.993h0.033c0.03,0,0.059-0.001,0.088-0.001c0.546-0.011,0.983-0.458,0.979-1.006
	C126.952,530.543,126.505,530.099,125.955,530.099z M130.023,530.003c-0.013,0-0.027,0-0.04,0.001l-0.099,0.004
	c-0.552,0.022-0.981,0.487-0.96,1.038c0.021,0.539,0.464,0.961,0.998,0.961c0.013,0,0.026,0,0.04-0.001c0.008,0,0.015,0,0.022-0.001
	c0.017,0,0.04-0.001,0.057-0.002c0.007,0,0.014,0,0.02-0.001c0.552-0.021,0.981-0.487,0.96-1.039
	C131,530.424,130.557,530.003,130.023,530.003z M127.408,282.12c-0.038-0.001-0.086-0.001-0.124-0.002h-0.005
	c-0.544,0-0.989,0.436-0.999,0.982c-0.01,0.552,0.43,1.008,0.982,1.018l0.098,0.002h0.02c0.543,0,0.989-0.436,0.999-0.981
	C128.389,282.59,127.956,282.136,127.408,282.12z M120.872,284.166l0.099-0.003c0.552-0.019,0.985-0.48,0.967-1.033
	c-0.018-0.541-0.461-0.968-0.998-0.968c-0.011,0-0.022,0-0.033,0.001c-0.015,0-0.031,0.001-0.046,0.001h-0.01
	c-0.015,0.001-0.03,0.001-0.044,0.002c-0.552,0.018-0.985,0.479-0.967,1.031c0.018,0.542,0.463,0.969,1.001,0.969H120.872z
	 M121.911,530.065l-0.098-0.003h-0.026c-0.541,0-0.986,0.432-0.999,0.974c-0.014,0.548,0.415,1.003,0.959,1.024
	c0.041,0.001,0.086,0.003,0.128,0.004h0.013c0.54,0,0.985-0.432,0.998-0.975C122.9,530.537,122.464,530.078,121.911,530.065z
	 M177.152,518.634c-0.141,0-0.284,0.03-0.421,0.094l-0.089,0.041c-0.501,0.232-0.719,0.827-0.487,1.328
	c0.169,0.365,0.53,0.58,0.908,0.58c0.141,0,0.283-0.03,0.42-0.093c0.003-0.002,0.006-0.004,0.01-0.005
	c0.014-0.007,0.027-0.012,0.041-0.019c0.013-0.006,0.026-0.012,0.039-0.019c0.501-0.232,0.719-0.827,0.486-1.328
	C177.889,518.848,177.529,518.634,177.152,518.634z M139.665,282.948c-0.037-0.004-0.074-0.009-0.111-0.013
	c-0.035-0.004-0.071-0.006-0.106-0.006c-0.5,0-0.933,0.375-0.991,0.885c-0.064,0.548,0.329,1.045,0.878,1.109l0.098,0.012
	c0.039,0.005,0.078,0.007,0.117,0.007c0.5,0,0.933-0.375,0.992-0.885C140.605,283.509,140.213,283.013,139.665,282.948z
	 M117.879,529.899l-0.099-0.006c-0.02-0.001-0.039-0.001-0.058-0.001c-0.526,0-0.967,0.41-0.997,0.942
	c-0.032,0.547,0.383,1.017,0.929,1.055c0.017,0.001,0.038,0.002,0.055,0.003c0.019,0.001,0.038,0.003,0.057,0.004
	c0.02,0.001,0.039,0.001,0.058,0.001c0.526,0,0.967-0.41,0.998-0.942C118.851,530.403,118.43,529.93,117.879,529.899z
	 M138.132,529.416c-0.034,0-0.068,0.002-0.104,0.005l-0.099,0.01c-0.549,0.057-0.947,0.55-0.889,1.099
	c0.053,0.515,0.487,0.896,0.992,0.896c0.034,0,0.069-0.002,0.104-0.005l0.009-0.001c0.021-0.002,0.043-0.005,0.066-0.007
	c0.013-0.001,0.028-0.003,0.041-0.004c0.542-0.064,0.932-0.552,0.875-1.096C139.074,529.799,138.639,529.416,138.132,529.416z
	 M135.586,282.539c-0.006,0-0.012-0.001-0.017-0.001c-0.013-0.001-0.028-0.003-0.04-0.004c-0.015-0.001-0.029-0.002-0.043-0.003
	c-0.028-0.003-0.056-0.004-0.084-0.004c-0.515,0-0.952,0.396-0.996,0.918c-0.045,0.551,0.364,1.033,0.914,1.079l0.099,0.008
	c0.028,0.002,0.056,0.003,0.084,0.003c0.515,0,0.952-0.395,0.996-0.916C136.545,283.068,136.135,282.585,135.586,282.539z
	 M134.082,529.775c-0.024,0-0.048,0.001-0.072,0.003l-0.098,0.007c-0.551,0.04-0.965,0.519-0.926,1.069
	c0.037,0.527,0.477,0.929,0.996,0.929c0.021,0,0.04-0.001,0.061-0.002c0.033-0.003,0.061-0.005,0.094-0.007
	c0.006-0.001,0.012-0.001,0.018-0.003c0.551-0.039,0.965-0.518,0.926-1.068C135.041,530.178,134.601,529.775,134.082,529.775z
	 M112.824,284.694l0.098-0.01c0.549-0.054,0.951-0.543,0.898-1.093c-0.05-0.516-0.485-0.902-0.993-0.902
	c-0.033,0-0.065,0.002-0.099,0.005c-0.005,0.001-0.011,0.001-0.017,0.002c-0.017,0.001-0.035,0.003-0.052,0.005
	c-0.01,0.001-0.02,0.002-0.03,0.003c-0.55,0.054-0.952,0.542-0.897,1.092c0.051,0.517,0.486,0.903,0.994,0.903
	C112.758,284.698,112.79,284.696,112.824,284.694z M100.857,286.468l0.097-0.02c0.542-0.108,0.894-0.634,0.786-1.176
	c-0.094-0.475-0.512-0.806-0.979-0.804c-0.063,0-0.128,0.005-0.191,0.018c-0.04,0.007-0.076,0.014-0.115,0.022
	c-0.535,0.112-0.88,0.634-0.773,1.172c0.095,0.476,0.513,0.806,0.981,0.806C100.727,286.486,100.792,286.48,100.857,286.468z
	 M97.926,527.111l-0.096-0.021c-0.074-0.017-0.148-0.025-0.221-0.025c-0.457,0-0.87,0.315-0.974,0.78
	c-0.122,0.539,0.216,1.074,0.755,1.195c0.019,0.004,0.038,0.009,0.058,0.013c0.02,0.005,0.036,0.008,0.055,0.012
	c0.069,0.015,0.138,0.022,0.206,0.022c0.457,0,0.869-0.315,0.973-0.78C98.803,527.769,98.465,527.233,97.926,527.111z
	 M104.825,285.745l0.097-0.016c0.545-0.09,0.914-0.604,0.825-1.149c-0.08-0.49-0.504-0.838-0.985-0.838
	c-0.054,0-0.108,0.005-0.162,0.014c-0.036,0.006-0.078,0.013-0.114,0.019c-0.537,0.096-0.899,0.607-0.811,1.147
	c0.081,0.49,0.505,0.838,0.986,0.838C104.715,285.759,104.77,285.755,104.825,285.745z M101.875,527.93l-0.097-0.019
	c-0.063-0.012-0.126-0.017-0.188-0.017c-0.47,0-0.89,0.333-0.981,0.812c-0.103,0.54,0.248,1.061,0.786,1.168
	c0.016,0.003,0.035,0.007,0.051,0.01c0.019,0.004,0.037,0.007,0.056,0.01c0.063,0.012,0.127,0.018,0.189,0.018
	c0.47,0,0.889-0.333,0.98-0.812C102.773,528.558,102.417,528.034,101.875,527.93z M96.914,287.32l0.096-0.021
	c0.538-0.126,0.873-0.664,0.748-1.201c-0.108-0.462-0.519-0.773-0.973-0.773c-0.075,0-0.151,0.009-0.228,0.027
	c-0.021,0.004-0.041,0.009-0.062,0.014c-0.016,0.004-0.033,0.008-0.048,0.011c-0.53,0.132-0.857,0.665-0.733,1.198
	c0.108,0.461,0.519,0.772,0.974,0.772C96.761,287.347,96.837,287.339,96.914,287.32z M94.006,526.162l-0.096-0.025
	c-0.084-0.022-0.169-0.033-0.252-0.033c-0.444,0-0.85,0.299-0.967,0.749c-0.138,0.532,0.177,1.073,0.706,1.217
	c0.016,0.004,0.029,0.008,0.045,0.012c0.021,0.005,0.041,0.011,0.062,0.016c0.084,0.021,0.168,0.032,0.251,0.032
	c0.445,0,0.851-0.299,0.968-0.75C94.861,526.846,94.54,526.3,94.006,526.162z M108.814,285.154l0.098-0.013
	c0.548-0.072,0.933-0.574,0.862-1.122c-0.065-0.504-0.495-0.871-0.99-0.871c-0.04,0-0.08,0.002-0.12,0.007
	c-0.037,0.005-0.077,0.011-0.114,0.016c-0.546,0.073-0.93,0.574-0.858,1.121c0.066,0.503,0.496,0.87,0.991,0.87
	C108.726,285.163,108.77,285.16,108.814,285.154z M142.171,528.924c-0.045,0-0.092,0.004-0.138,0.01l-0.098,0.014
	c-0.547,0.075-0.93,0.58-0.854,1.127c0.069,0.501,0.498,0.864,0.989,0.864c0.041,0,0.083-0.003,0.125-0.007
	c0.04-0.006,0.086-0.012,0.126-0.018c0.54-0.082,0.914-0.584,0.84-1.126C143.092,529.286,142.663,528.924,142.171,528.924z
	 M113.855,529.603l-0.098-0.009c-0.03-0.002-0.061-0.004-0.091-0.004c-0.512,0-0.948,0.39-0.995,0.91
	c-0.05,0.55,0.355,1.036,0.906,1.086l0.071,0.006c0.012,0.002,0.026,0.003,0.038,0.004c0.027,0.002,0.054,0.003,0.08,0.003
	c0.512,0,0.949-0.392,0.996-0.911C114.811,530.137,114.405,529.652,113.855,529.603z M116.843,284.364l0.098-0.007
	c0.551-0.035,0.969-0.512,0.933-1.062c-0.034-0.53-0.474-0.935-0.996-0.935c-0.021,0-0.042,0-0.062,0.002
	c-0.042,0.002-0.076,0.005-0.117,0.007c-0.544,0.043-0.954,0.516-0.919,1.063c0.035,0.529,0.475,0.934,0.997,0.934
	C116.798,284.366,116.82,284.366,116.843,284.364z M109.845,529.178l-0.098-0.013c-0.042-0.005-0.083-0.007-0.124-0.007
	c-0.497,0-0.929,0.371-0.992,0.877c-0.067,0.548,0.322,1.048,0.87,1.115c0.016,0.002,0.033,0.004,0.049,0.006
	c0.021,0.003,0.043,0.005,0.064,0.008c0.037,0.004,0.073,0.006,0.109,0.006c0.498,0,0.929-0.371,0.992-0.878
	C110.783,529.744,110.393,529.245,109.845,529.178z M105.849,528.619l-0.097-0.015c-0.052-0.009-0.104-0.012-0.156-0.012
	c-0.484,0-0.909,0.352-0.987,0.846c-0.086,0.545,0.287,1.057,0.832,1.143l0.097,0.014l0.003,0.001
	c0.053,0.008,0.105,0.012,0.157,0.012c0.483,0,0.908-0.352,0.985-0.845C106.768,529.217,106.395,528.705,105.849,528.619z
	 M131.5,282.264c-0.013-0.001-0.019-0.001-0.031-0.003c-0.024-0.001-0.05-0.002-0.075-0.004c-0.018-0.001-0.035-0.001-0.053-0.001
	c-0.528,0-0.969,0.414-0.996,0.947c-0.027,0.552,0.396,1.023,0.948,1.052l0.099,0.005c0.018,0.001,0.034,0.001,0.052,0.001
	c0.529,0,0.971-0.415,0.998-0.949C132.47,282.763,132.049,282.294,131.5,282.264z M167.533,289.52
	c-0.023-0.008-0.046-0.017-0.068-0.025c-0.011-0.004-0.02-0.008-0.031-0.012c-0.11-0.039-0.223-0.057-0.334-0.057
	c-0.409,0-0.794,0.254-0.941,0.661c-0.188,0.52,0.082,1.093,0.601,1.28l0.093,0.033c0.112,0.04,0.227,0.059,0.34,0.059
	c0.409,0,0.794-0.253,0.94-0.66C168.321,290.28,168.052,289.707,167.533,289.52z M163.663,288.191
	c-0.008-0.002-0.017-0.005-0.024-0.007c-0.016-0.005-0.03-0.011-0.046-0.016c-0.016-0.004-0.03-0.009-0.046-0.014
	c-0.099-0.03-0.198-0.045-0.297-0.045c-0.421,0-0.812,0.268-0.949,0.691c-0.17,0.526,0.117,1.09,0.643,1.262l0.094,0.03
	c0.103,0.033,0.206,0.049,0.309,0.049c0.422,0,0.813-0.269,0.951-0.692C164.467,288.926,164.183,288.364,163.663,288.191z
	 M165.853,523.216c-0.109,0-0.222,0.018-0.331,0.056l-0.093,0.033c-0.521,0.182-0.797,0.751-0.615,1.274
	c0.144,0.412,0.53,0.671,0.943,0.671c0.109,0,0.221-0.018,0.329-0.056c0.008-0.003,0.015-0.005,0.022-0.008
	c0.026-0.009,0.055-0.018,0.081-0.028c0.516-0.185,0.787-0.753,0.606-1.272C166.651,523.474,166.266,523.216,165.853,523.216z
	 M151.803,284.977c-0.016-0.004-0.035-0.008-0.051-0.012c-0.021-0.004-0.04-0.009-0.061-0.012c-0.071-0.016-0.143-0.023-0.213-0.023
	c-0.461,0-0.875,0.319-0.977,0.788c-0.117,0.539,0.226,1.073,0.765,1.19l0.097,0.021c0.071,0.016,0.143,0.023,0.214,0.023
	c0.46,0,0.874-0.319,0.975-0.787C152.67,285.629,152.335,285.1,151.803,284.977z M143.726,283.491
	c-0.029-0.004-0.059-0.009-0.089-0.014c-0.004,0-0.01-0.001-0.014-0.002c-0.05-0.007-0.099-0.01-0.146-0.01
	c-0.486,0-0.912,0.356-0.986,0.851c-0.082,0.546,0.295,1.056,0.841,1.138l0.098,0.015c0.05,0.008,0.1,0.012,0.149,0.012
	c0.486,0,0.913-0.356,0.988-0.853C144.649,284.081,144.272,283.572,143.726,283.491z M158.09,525.639
	c-0.089,0-0.179,0.012-0.268,0.036l-0.095,0.027c-0.532,0.147-0.846,0.697-0.699,1.23c0.122,0.443,0.524,0.734,0.964,0.734
	c0.088,0,0.177-0.012,0.265-0.036c0.015-0.004,0.028-0.008,0.042-0.012c0.023-0.008,0.043-0.012,0.066-0.019
	c0.525-0.151,0.832-0.699,0.686-1.228C158.93,525.929,158.528,525.639,158.09,525.639z M161.992,524.492
	c-0.1,0-0.2,0.015-0.299,0.046l-0.095,0.03c-0.527,0.164-0.821,0.725-0.657,1.252c0.134,0.428,0.528,0.703,0.954,0.703
	c0.095,0,0.19-0.014,0.285-0.042c0.034-0.01,0.078-0.025,0.113-0.035c0.523-0.166,0.815-0.725,0.651-1.251
	C162.811,524.765,162.417,524.492,161.992,524.492z M159.741,286.988c-0.039-0.012-0.073-0.021-0.111-0.032
	c-0.089-0.024-0.178-0.036-0.266-0.036c-0.435,0-0.835,0.285-0.961,0.723c-0.153,0.531,0.153,1.085,0.684,1.238l0.094,0.027
	c0.093,0.026,0.186,0.039,0.277,0.039c0.434,0,0.835-0.285,0.961-0.723C160.573,287.695,160.268,287.143,159.741,286.988z
	 M171.365,290.978c-0.013-0.005-0.025-0.01-0.037-0.015c-0.007-0.003-0.019-0.007-0.025-0.01c-0.011-0.004-0.021-0.009-0.031-0.012
	c-0.121-0.048-0.247-0.072-0.37-0.072c-0.397,0-0.772,0.239-0.929,0.63c-0.205,0.513,0.046,1.095,0.559,1.3l0.091,0.036
	c0.122,0.049,0.247,0.071,0.371,0.071c0.397,0,0.772-0.238,0.929-0.629C172.126,291.765,171.878,291.182,171.365,290.978z
	 M154.153,526.657c-0.077,0-0.156,0.009-0.234,0.029l-0.096,0.022c-0.537,0.13-0.868,0.67-0.739,1.206
	c0.11,0.459,0.519,0.767,0.97,0.767c0.078,0,0.156-0.009,0.235-0.028l0.097-0.023c0.537-0.13,0.868-0.67,0.738-1.206
	C155.014,526.964,154.604,526.657,154.153,526.657z M169.668,521.814c-0.12,0-0.241,0.022-0.359,0.067l-0.093,0.035
	c-0.515,0.199-0.771,0.777-0.573,1.293c0.153,0.398,0.532,0.641,0.934,0.641c0.119,0,0.241-0.022,0.359-0.067
	c0.031-0.012,0.062-0.024,0.093-0.036c0.516-0.198,0.772-0.777,0.573-1.292C170.448,522.057,170.069,521.814,169.668,521.814z
	 M175.145,292.562c-0.011-0.005-0.021-0.009-0.031-0.014c-0.014-0.008-0.029-0.013-0.044-0.02c-0.006-0.002-0.011-0.005-0.016-0.007
	c-0.13-0.057-0.267-0.084-0.4-0.084c-0.385,0-0.752,0.224-0.916,0.599c-0.222,0.506,0.009,1.096,0.514,1.318l0.091,0.04
	c0.131,0.056,0.267,0.084,0.4,0.084c0.386,0,0.753-0.224,0.917-0.599C175.881,293.373,175.65,292.783,175.145,292.562z
	 M150.185,527.545c-0.066,0-0.135,0.007-0.203,0.02l-0.096,0.019c-0.541,0.111-0.89,0.641-0.778,1.182
	c0.097,0.473,0.513,0.798,0.978,0.798c0.067,0,0.135-0.006,0.202-0.02c0.036-0.007,0.075-0.016,0.111-0.023
	c0.533-0.117,0.875-0.641,0.765-1.178C151.065,527.87,150.649,527.545,150.185,527.545z M147.771,284.166
	c-0.032-0.006-0.065-0.012-0.099-0.018c-0.061-0.012-0.121-0.017-0.18-0.017c-0.475,0-0.895,0.338-0.984,0.821
	c-0.1,0.544,0.261,1.065,0.804,1.163l0.097,0.018c0.061,0.012,0.122,0.017,0.182,0.017c0.473,0,0.894-0.337,0.982-0.82
	C148.673,284.787,148.314,284.266,147.771,284.166z M173.436,520.287c-0.13,0-0.263,0.025-0.39,0.078l-0.091,0.038
	c-0.509,0.216-0.746,0.804-0.53,1.312c0.161,0.38,0.531,0.61,0.921,0.61c0.127,0,0.257-0.025,0.382-0.077
	c0.018-0.007,0.026-0.012,0.045-0.019c0.018-0.008,0.037-0.015,0.055-0.023c0.509-0.216,0.746-0.802,0.53-1.311
	C174.196,520.515,173.826,520.287,173.436,520.287z M146.187,528.3c-0.056,0-0.112,0.005-0.169,0.015l-0.098,0.017
	c-0.544,0.093-0.909,0.61-0.816,1.154c0.084,0.487,0.506,0.831,0.984,0.831c0.052,0,0.105-0.004,0.157-0.013
	c0.013-0.002,0.023-0.002,0.034-0.005c0.025-0.004,0.052-0.009,0.077-0.014c0.544-0.093,0.91-0.609,0.816-1.154
	C147.089,528.644,146.665,528.3,146.187,528.3z M223.523,50.971c0.093,0.027,0.186,0.04,0.277,0.04c0.435,0,0.835-0.286,0.96-0.725
	l0.027-0.095c0.151-0.531-0.155-1.084-0.685-1.238c-0.531-0.151-1.086,0.156-1.237,0.687l-0.028,0.096
	C222.686,50.267,222.994,50.82,223.523,50.971z M226.915,39.149c0.092,0.027,0.184,0.039,0.274,0.039
	c0.436,0,0.836-0.286,0.963-0.723l0.027-0.096c0.151-0.531-0.155-1.086-0.686-1.237c-0.531-0.153-1.084,0.155-1.238,0.685
	l-0.025,0.096C226.076,38.442,226.384,38.997,226.915,39.149z M213.35,86.444c0.092,0.026,0.185,0.039,0.275,0.039
	c0.436,0,0.835-0.286,0.96-0.726l0.028-0.095c0.153-0.531-0.153-1.086-0.685-1.237c-0.531-0.153-1.087,0.154-1.238,0.686
	l-0.027,0.095C212.512,85.737,212.819,86.29,213.35,86.444z M156.281,285.422c-0.456-0.132-0.914,0.09-1.134,0.486
	c-0.323,0.099-0.59,0.354-0.679,0.706c-0.135,0.536,0.189,1.08,0.725,1.216l0.096,0.025c0.082,0.02,0.164,0.03,0.245,0.03
	c0.358,0,0.683-0.198,0.86-0.509c0.253-0.118,0.461-0.331,0.544-0.619l0.028-0.096C157.117,286.128,156.81,285.574,156.281,285.422z
	 M224.654,47.033c0.092,0.026,0.184,0.039,0.274,0.039c0.436,0,0.836-0.286,0.963-0.726l0.027-0.097
	c0.151-0.531-0.155-1.083-0.687-1.237c-0.531-0.151-1.084,0.156-1.237,0.685l-0.026,0.098
	C223.815,46.327,224.122,46.879,224.654,47.033z M222.392,54.915c0.092,0.026,0.184,0.039,0.275,0.039
	c0.435,0,0.837-0.286,0.962-0.726l0.027-0.095c0.151-0.531-0.155-1.086-0.684-1.237c-0.531-0.153-1.086,0.153-1.237,0.686
	l-0.028,0.096C221.555,54.209,221.863,54.761,222.392,54.915z M217.871,70.678c0.092,0.026,0.185,0.039,0.275,0.039
	c0.436,0,0.835-0.286,0.962-0.723l0.028-0.096c0.151-0.532-0.156-1.086-0.686-1.237c-0.531-0.151-1.086,0.155-1.237,0.684
	l-0.029,0.096C217.032,69.972,217.34,70.526,217.871,70.678z M214.481,82.501c0.093,0.026,0.187,0.039,0.278,0.039
	c0.434,0,0.832-0.286,0.957-0.725l0.028-0.096c0.153-0.531-0.153-1.084-0.684-1.237c-0.532-0.152-1.087,0.155-1.238,0.687
	l-0.027,0.096C213.643,81.794,213.95,82.349,214.481,82.501z M219.002,66.737c0.093,0.027,0.186,0.04,0.276,0.04
	c0.435,0,0.834-0.287,0.961-0.724l0.025-0.097c0.154-0.531-0.153-1.086-0.684-1.237c-0.531-0.153-1.084,0.154-1.237,0.685
	l-0.027,0.096C218.163,66.031,218.471,66.586,219.002,66.737z M216.74,74.619c0.093,0.026,0.187,0.039,0.278,0.039
	c0.434,0,0.834-0.285,0.959-0.723l0.028-0.097c0.151-0.531-0.156-1.084-0.686-1.237c-0.531-0.151-1.086,0.156-1.237,0.688
	l-0.027,0.094C215.903,73.913,216.211,74.468,216.74,74.619z M220.133,62.796c0.092,0.027,0.185,0.038,0.275,0.038
	c0.434,0,0.835-0.286,0.962-0.724l0.025-0.095c0.154-0.532-0.153-1.086-0.684-1.238c-0.531-0.153-1.084,0.155-1.237,0.684
	l-0.027,0.097C219.294,62.09,219.602,62.643,220.133,62.796z M221.261,58.855c0.092,0.027,0.185,0.039,0.275,0.039
	c0.436,0,0.837-0.286,0.962-0.723l0.03-0.098c0.151-0.531-0.156-1.084-0.687-1.235c-0.531-0.155-1.084,0.153-1.237,0.684
	l-0.028,0.096C220.425,58.149,220.732,58.703,221.261,58.855z M215.61,78.561c0.092,0.027,0.185,0.039,0.275,0.039
	c0.435,0,0.837-0.286,0.962-0.725l0.028-0.096c0.151-0.531-0.156-1.086-0.686-1.239c-0.531-0.151-1.086,0.157-1.237,0.686
	l-0.027,0.098C214.772,77.855,215.081,78.408,215.61,78.561z M225.784,43.09c0.093,0.027,0.186,0.039,0.277,0.039
	c0.435,0,0.833-0.285,0.96-0.725l0.027-0.096c0.151-0.531-0.155-1.084-0.686-1.237c-0.531-0.152-1.084,0.155-1.237,0.687
	l-0.026,0.095C224.946,42.384,225.253,42.939,225.784,43.09z M184.065,192.168l0.028-0.096c0.153-0.531-0.153-1.086-0.685-1.237
	c-0.532-0.155-1.087,0.155-1.238,0.684l-0.027,0.096c-0.151,0.531,0.155,1.086,0.686,1.238c0.092,0.025,0.185,0.038,0.275,0.038
	C183.541,192.892,183.94,192.605,184.065,192.168z M169.374,243.401l0.025-0.095c0.153-0.532-0.154-1.084-0.686-1.238
	c-0.531-0.151-1.083,0.155-1.237,0.687l-0.027,0.096c-0.151,0.531,0.155,1.083,0.687,1.235c0.093,0.027,0.186,0.039,0.278,0.039
	C168.847,244.126,169.247,243.84,169.374,243.401z M167.583,246.011c-0.531-0.153-1.086,0.154-1.237,0.686l-0.027,0.096
	c-0.151,0.531,0.155,1.084,0.686,1.237c0.092,0.026,0.185,0.039,0.275,0.039c0.436,0,0.835-0.286,0.96-0.726l0.028-0.095
	C168.422,246.717,168.115,246.163,167.583,246.011z M178.886,206.598c-0.531-0.152-1.084,0.156-1.238,0.686l-0.025,0.098
	c-0.153,0.531,0.154,1.084,0.685,1.237c0.092,0.026,0.184,0.039,0.274,0.039c0.436,0,0.836-0.286,0.963-0.726l0.027-0.096
	C179.724,207.304,179.418,206.752,178.886,206.598z M164.878,259.072c0.151-0.531-0.155-1.087-0.686-1.238
	c-0.531-0.151-1.084,0.156-1.238,0.685l-0.025,0.096c-0.153,0.531,0.154,1.086,0.685,1.237c0.092,0.028,0.185,0.04,0.276,0.04
	c0.435,0,0.834-0.288,0.961-0.725L164.878,259.072z M228.046,35.208c0.092,0.026,0.185,0.039,0.276,0.039
	c0.435,0,0.833-0.287,0.959-0.723l0.027-0.097c0.153-0.531-0.156-1.086-0.685-1.237c-0.531-0.153-1.086,0.153-1.238,0.686
	l-0.027,0.096C227.207,34.502,227.515,35.057,228.046,35.208z M176.184,219.658c0.151-0.532-0.156-1.083-0.688-1.235
	c-0.531-0.153-1.084,0.154-1.237,0.685l-0.028,0.096c-0.151,0.531,0.156,1.086,0.685,1.237c0.092,0.027,0.185,0.04,0.275,0.04
	c0.436,0,0.837-0.286,0.962-0.724L176.184,219.658z M180.676,203.99l0.027-0.095c0.152-0.531-0.155-1.085-0.686-1.238
	c-0.531-0.151-1.084,0.156-1.238,0.687l-0.025,0.094c-0.153,0.531,0.154,1.087,0.686,1.238c0.092,0.027,0.185,0.039,0.277,0.039
	C180.151,204.715,180.549,204.429,180.676,203.99z M236.064,10.876l0.025-0.096c0.154-0.531-0.153-1.084-0.685-1.237
	c-0.531-0.151-1.084,0.155-1.237,0.686l-0.027,0.094c-0.152,0.531,0.155,1.087,0.687,1.238c0.093,0.027,0.186,0.04,0.278,0.04
	C235.539,11.6,235.938,11.314,236.064,10.876z M229.176,31.267c0.092,0.026,0.184,0.038,0.275,0.038c0.436,0,0.835-0.285,0.96-0.723
	l0.028-0.096c0.153-0.531-0.153-1.086-0.684-1.237c-0.531-0.153-1.087,0.155-1.238,0.684l-0.028,0.096
	C228.338,30.561,228.644,31.116,229.176,31.267z M231.435,23.386c0.092,0.026,0.185,0.038,0.275,0.038
	c0.436,0.001,0.837-0.286,0.962-0.726l0.028-0.096c0.151-0.531-0.156-1.084-0.686-1.237c-0.531-0.151-1.086,0.155-1.237,0.687
	l-0.027,0.097C230.597,22.679,230.906,23.232,231.435,23.386z M230.304,27.326c0.092,0.026,0.184,0.039,0.275,0.039
	c0.435,0,0.837-0.286,0.962-0.724l0.028-0.098c0.153-0.532-0.153-1.083-0.685-1.235c-0.531-0.153-1.087,0.154-1.238,0.686
	l-0.027,0.095C229.467,26.62,229.775,27.175,230.304,27.326z M161.459,270.99l0.027-0.096c0.154-0.531-0.155-1.086-0.685-1.238
	c-0.531-0.152-1.086,0.156-1.237,0.686l-0.028,0.098c-0.151,0.531,0.156,1.084,0.686,1.237c0.092,0.027,0.183,0.039,0.275,0.039
	C160.932,271.715,161.334,271.43,161.459,270.99z M232.566,19.445c0.092,0.025,0.185,0.038,0.275,0.038
	c0.435,0,0.837-0.286,0.962-0.725l0.028-0.096c0.151-0.531-0.156-1.084-0.685-1.237c-0.531-0.153-1.086,0.155-1.237,0.686
	l-0.027,0.096C231.728,18.738,232.037,19.291,232.566,19.445z M233.696,15.504c0.092,0.027,0.185,0.039,0.275,0.039
	c0.435,0,0.835-0.286,0.962-0.725l0.028-0.097c0.151-0.531-0.156-1.084-0.686-1.237c-0.531-0.151-1.086,0.156-1.237,0.684
	l-0.029,0.099C232.858,14.798,233.165,15.35,233.696,15.504z M172.657,228.323c0.093,0.026,0.186,0.039,0.276,0.039
	c0.434,0,0.834-0.287,0.961-0.723l0.025-0.097c0.154-0.531-0.153-1.086-0.685-1.237c-0.531-0.153-1.084,0.154-1.237,0.686
	l-0.028,0.095C171.818,227.617,172.125,228.172,172.657,228.323z M188.482,173.148c0.093,0.026,0.187,0.039,0.277,0.039
	c0.434,0,0.833-0.286,0.96-0.725l0.025-0.096c0.154-0.531-0.153-1.086-0.685-1.237c-0.531-0.155-1.084,0.155-1.237,0.684
	l-0.028,0.099C187.643,172.443,187.951,172.995,188.482,173.148z M171.526,232.264c0.092,0.027,0.185,0.039,0.275,0.039
	c0.434,0,0.835-0.286,0.962-0.723l0.028-0.096c0.151-0.531-0.156-1.086-0.685-1.237c-0.531-0.153-1.086,0.155-1.237,0.684
	l-0.029,0.096C170.687,231.558,170.995,232.112,171.526,232.264z M177.178,212.56c0.092,0.025,0.184,0.038,0.274,0.038
	c0.436,0,0.838-0.286,0.963-0.725l0.027-0.096c0.154-0.531-0.155-1.084-0.684-1.237c-0.531-0.153-1.086,0.155-1.237,0.686
	l-0.028,0.096C176.341,211.853,176.648,212.406,177.178,212.56z M176.047,216.501c0.092,0.027,0.184,0.039,0.275,0.039
	c0.435,0,0.837-0.287,0.962-0.727l0.027-0.096c0.154-0.531-0.155-1.084-0.685-1.237c-0.531-0.152-1.086,0.155-1.237,0.686
	l-0.028,0.097C175.21,215.795,175.518,216.347,176.047,216.501z M173.787,224.382c0.092,0.025,0.185,0.038,0.275,0.038
	c0.435,0,0.835-0.285,0.962-0.723l0.029-0.096c0.151-0.532-0.156-1.086-0.688-1.237c-0.531-0.154-1.084,0.155-1.237,0.685
	l-0.028,0.095C172.949,223.676,173.256,224.231,173.787,224.382z M181.7,196.794c0.093,0.027,0.186,0.039,0.277,0.039
	c0.434,0,0.833-0.287,0.958-0.723l0.028-0.097c0.153-0.531-0.153-1.086-0.684-1.237c-0.531-0.153-1.087,0.153-1.238,0.684
	l-0.027,0.097C180.862,196.088,181.168,196.643,181.7,196.794z M186.22,181.03c0.092,0.027,0.185,0.04,0.275,0.04
	c0.436,0,0.837-0.286,0.962-0.726l0.028-0.096c0.151-0.531-0.156-1.084-0.685-1.238c-0.531-0.151-1.086,0.156-1.237,0.688
	l-0.027,0.096C185.382,180.324,185.691,180.877,186.22,181.03z M187.351,177.09c0.092,0.027,0.185,0.039,0.275,0.039
	c0.434,0,0.835-0.286,0.962-0.725l0.028-0.097c0.151-0.531-0.156-1.084-0.686-1.237c-0.531-0.152-1.086,0.156-1.237,0.684
	l-0.029,0.099C186.512,176.384,186.82,176.936,187.351,177.09z M185.09,184.972c0.092,0.026,0.185,0.038,0.275,0.038
	c0.436,0,0.837-0.285,0.962-0.723l0.029-0.098c0.151-0.532-0.156-1.085-0.686-1.238c-0.531-0.151-1.086,0.156-1.237,0.687
	l-0.027,0.096C184.252,184.265,184.561,184.818,185.09,184.972z M183.959,188.912c0.092,0.027,0.185,0.039,0.275,0.039
	c0.435,0,0.837-0.286,0.962-0.726l0.028-0.093c0.153-0.531-0.154-1.087-0.685-1.238c-0.531-0.153-1.083,0.154-1.237,0.686
	l-0.027,0.096C183.121,188.206,183.43,188.759,183.959,188.912z M180.57,200.734c0.092,0.027,0.184,0.04,0.274,0.04
	c0.437,0,0.837-0.286,0.963-0.724l0.027-0.096c0.151-0.531-0.155-1.086-0.686-1.238c-0.531-0.152-1.084,0.156-1.235,0.685
	l-0.028,0.096C179.731,200.028,180.038,200.584,180.57,200.734z M161.352,267.734c0.093,0.026,0.186,0.039,0.277,0.039
	c0.434,0,0.835-0.285,0.96-0.724l0.027-0.096c0.154-0.531-0.155-1.084-0.684-1.237c-0.531-0.151-1.086,0.156-1.237,0.688
	l-0.028,0.093C160.516,267.028,160.823,267.583,161.352,267.734z M157.962,279.558c0.092,0.027,0.184,0.04,0.275,0.04
	c0.434,0,0.835-0.286,0.962-0.726l0.028-0.094c0.152-0.531-0.156-1.087-0.687-1.238c-0.531-0.153-1.084,0.154-1.237,0.685
	l-0.028,0.096C157.123,278.852,157.431,279.405,157.962,279.558z M159.091,275.618c0.092,0.027,0.184,0.038,0.275,0.038
	c0.436,0,0.837-0.286,0.962-0.724l0.03-0.098c0.151-0.531-0.156-1.084-0.687-1.237c-0.531-0.152-1.084,0.155-1.237,0.686
	l-0.029,0.097C158.254,274.912,158.562,275.465,159.091,275.618z M156.831,283.5c0.092,0.025,0.185,0.038,0.275,0.038
	c0.435,0,0.835-0.286,0.962-0.723l0.029-0.098c0.151-0.532-0.156-1.085-0.687-1.238c-0.531-0.152-1.084,0.155-1.237,0.687
	l-0.028,0.095C155.993,282.793,156.3,283.348,156.831,283.5z M169.264,240.148c0.092,0.026,0.184,0.039,0.275,0.039
	c0.436,0,0.837-0.286,0.962-0.726l0.028-0.096c0.152-0.532-0.156-1.087-0.685-1.238c-0.531-0.151-1.086,0.156-1.237,0.685
	l-0.027,0.098C168.426,239.441,168.735,239.994,169.264,240.148z M170.395,236.205c0.093,0.027,0.186,0.039,0.278,0.039
	c0.434,0,0.834-0.285,0.959-0.725l0.028-0.096c0.151-0.531-0.156-1.084-0.686-1.237c-0.531-0.151-1.086,0.155-1.237,0.686
	l-0.027,0.095C169.556,235.499,169.866,236.054,170.395,236.205z M162.483,263.793c0.092,0.027,0.185,0.039,0.277,0.039
	c0.435,0,0.833-0.286,0.96-0.725l0.027-0.095c0.153-0.532-0.155-1.086-0.685-1.238c-0.531-0.151-1.086,0.156-1.237,0.685
	l-0.028,0.098C161.644,263.09,161.952,263.641,162.483,263.793z M165.874,251.97c0.092,0.027,0.184,0.039,0.275,0.039
	c0.436,0,0.835-0.286,0.96-0.723l0.028-0.098c0.153-0.531-0.153-1.084-0.684-1.238c-0.531-0.152-1.087,0.156-1.238,0.688
	l-0.027,0.096C165.036,251.264,165.343,251.819,165.874,251.97z M164.743,255.912c0.092,0.027,0.185,0.038,0.275,0.038
	c0.437,0,0.837-0.286,0.963-0.724l0.027-0.096c0.151-0.531-0.155-1.086-0.686-1.237c-0.531-0.153-1.084,0.155-1.235,0.684
	l-0.028,0.097C163.906,255.205,164.212,255.757,164.743,255.912z M207.698,106.148c0.092,0.026,0.185,0.039,0.276,0.039
	c0.436,0,0.836-0.287,0.961-0.724l0.027-0.096c0.151-0.531-0.155-1.084-0.684-1.238c-0.531-0.151-1.086,0.156-1.237,0.685
	l-0.028,0.096C206.861,105.442,207.168,105.997,207.698,106.148z M206.567,110.091c0.092,0.025,0.184,0.038,0.275,0.038
	c0.436,0,0.837-0.286,0.962-0.726l0.027-0.095c0.151-0.532-0.155-1.086-0.685-1.238c-0.531-0.151-1.086,0.156-1.237,0.686
	l-0.028,0.098C205.73,109.384,206.038,109.937,206.567,110.091z M205.436,114.03c0.093,0.026,0.186,0.039,0.277,0.039
	c0.436,0,0.835-0.286,0.96-0.725l0.03-0.096c0.151-0.531-0.156-1.084-0.687-1.237c-0.531-0.152-1.084,0.155-1.237,0.686
	l-0.028,0.095C204.599,113.324,204.907,113.879,205.436,114.03z M204.307,117.972c0.092,0.027,0.185,0.039,0.275,0.039
	c0.434,0,0.835-0.286,0.962-0.725l0.025-0.097c0.154-0.528-0.153-1.083-0.685-1.235c-0.531-0.153-1.084,0.154-1.237,0.686
	l-0.027,0.096C203.469,117.266,203.776,117.819,204.307,117.972z M200.915,129.795c0.092,0.026,0.185,0.039,0.275,0.039
	c0.435,0,0.837-0.286,0.962-0.723l0.028-0.098c0.151-0.532-0.156-1.084-0.685-1.235c-0.531-0.155-1.086,0.153-1.237,0.684
	l-0.028,0.096C200.077,129.089,200.386,129.644,200.915,129.795z M202.046,125.854c0.092,0.026,0.184,0.039,0.275,0.039
	c0.436,0,0.837-0.286,0.962-0.727l0.028-0.093c0.151-0.531-0.156-1.086-0.686-1.237c-0.531-0.153-1.086,0.153-1.237,0.684
	l-0.027,0.097C201.207,125.148,201.517,125.701,202.046,125.854z M203.177,121.914c0.092,0.025,0.185,0.038,0.275,0.038
	c0.435,0,0.835-0.286,0.962-0.724l0.025-0.098c0.154-0.531-0.153-1.084-0.685-1.237c-0.531-0.152-1.084,0.155-1.237,0.686
	l-0.027,0.096C202.338,121.207,202.645,121.762,203.177,121.914z M212.22,90.385c0.092,0.026,0.184,0.038,0.274,0.038
	c0.436,0,0.835-0.286,0.961-0.723l0.029-0.098c0.151-0.532-0.155-1.085-0.686-1.238c-0.531-0.151-1.084,0.156-1.238,0.688
	l-0.028,0.096C211.382,89.678,211.688,90.233,212.22,90.385z M189.613,169.206c0.093,0.027,0.185,0.04,0.276,0.04
	c0.435,0,0.834-0.288,0.961-0.725l0.028-0.096c0.151-0.532-0.156-1.087-0.688-1.238c-0.531-0.151-1.084,0.156-1.237,0.686
	l-0.028,0.095C188.774,168.5,189.081,169.055,189.613,169.206z M209.959,98.266c0.092,0.027,0.185,0.04,0.276,0.04
	c0.434,0,0.834-0.287,0.961-0.725l0.027-0.099c0.151-0.528-0.155-1.083-0.686-1.235c-0.531-0.153-1.084,0.155-1.238,0.686
	l-0.025,0.096C209.12,97.56,209.428,98.114,209.959,98.266z M208.828,102.207c0.092,0.025,0.184,0.038,0.274,0.038
	c0.435,0,0.836-0.286,0.963-0.724l0.027-0.096c0.154-0.531-0.155-1.086-0.684-1.237c-0.531-0.154-1.086,0.155-1.237,0.684
	l-0.028,0.096C207.99,101.5,208.297,102.055,208.828,102.207z M211.09,94.326c0.092,0.026,0.184,0.038,0.274,0.038
	c0.435,0,0.836-0.285,0.963-0.722l0.027-0.097c0.151-0.531-0.155-1.086-0.686-1.237c-0.531-0.153-1.084,0.156-1.238,0.684
	l-0.025,0.097C210.251,93.62,210.559,94.172,211.09,94.326z M194.134,153.443c0.092,0.026,0.184,0.038,0.274,0.038
	c0.436,0,0.836-0.285,0.963-0.723l0.027-0.098c0.151-0.531-0.155-1.084-0.686-1.237c-0.531-0.152-1.084,0.155-1.238,0.686
	l-0.025,0.096C193.295,152.737,193.602,153.288,194.134,153.443z M193.003,157.383c0.092,0.027,0.184,0.039,0.274,0.039
	c0.436,0,0.838-0.286,0.963-0.725l0.027-0.095c0.154-0.531-0.155-1.086-0.685-1.237c-0.531-0.153-1.086,0.155-1.237,0.686
	l-0.028,0.096C192.166,156.677,192.474,157.23,193.003,157.383z M199.784,133.737c0.093,0.026,0.187,0.039,0.278,0.039
	c0.434,0,0.834-0.285,0.959-0.725l0.028-0.096c0.153-0.531-0.154-1.086-0.685-1.237c-0.531-0.153-1.083,0.155-1.237,0.685
	l-0.027,0.097C198.947,133.03,199.255,133.585,199.784,133.737z M190.742,165.265c0.093,0.027,0.185,0.04,0.277,0.04
	c0.435,0,0.835-0.286,0.96-0.724l0.027-0.096c0.151-0.531-0.155-1.086-0.684-1.238c-0.531-0.153-1.086,0.156-1.237,0.685
	l-0.028,0.096C189.905,164.559,190.212,165.114,190.742,165.265z M191.872,161.324c0.092,0.027,0.184,0.04,0.275,0.04
	c0.436,0,0.837-0.286,0.962-0.724l0.027-0.096c0.151-0.531-0.155-1.086-0.684-1.237c-0.531-0.151-1.086,0.155-1.237,0.684
	l-0.028,0.096C191.035,160.617,191.343,161.173,191.872,161.324z M197.525,141.617c0.093,0.028,0.186,0.04,0.278,0.04
	c0.434,0,0.832-0.286,0.957-0.725l0.028-0.096c0.153-0.531-0.153-1.086-0.684-1.237c-0.531-0.152-1.087,0.155-1.238,0.684
	l-0.027,0.098C196.687,140.914,196.994,141.466,197.525,141.617z M198.656,137.677c0.093,0.027,0.186,0.039,0.277,0.039
	c0.434,0,0.833-0.287,0.958-0.723l0.028-0.097c0.153-0.532-0.153-1.083-0.684-1.238c-0.532-0.152-1.087,0.156-1.238,0.686
	l-0.027,0.096C197.818,136.971,198.124,137.525,198.656,137.677z M196.395,145.559c0.092,0.027,0.185,0.04,0.277,0.04
	c0.434,0,0.832-0.286,0.958-0.725l0.029-0.096c0.151-0.532-0.155-1.084-0.686-1.238c-0.531-0.151-1.084,0.156-1.235,0.687
	l-0.03,0.095C195.556,144.853,195.863,145.408,196.395,145.559z M195.264,149.501c0.092,0.026,0.184,0.039,0.274,0.039
	c0.436,0,0.836-0.286,0.963-0.726l0.027-0.095c0.151-0.532-0.155-1.085-0.686-1.236c-0.531-0.154-1.084,0.154-1.238,0.685
	l-0.025,0.096C194.426,148.795,194.733,149.348,195.264,149.501z M235.259,6.837c0.066,0.361,0.322,0.676,0.699,0.783
	c0.093,0.028,0.186,0.04,0.276,0.04c0.287,0,0.552-0.134,0.739-0.346c1.759-0.023,3.179-1.452,3.179-3.217
	c0-1.778-1.442-3.221-3.22-3.221c-1.778,0-3.22,1.442-3.22,3.221C233.712,5.26,234.334,6.27,235.259,6.837z"/>
</svg>
