<svg version="1.1" id="Layer_1" xmlns="http://www.w3.org/2000/svg" xmlns:xlink="http://www.w3.org/1999/xlink" x="0px" y="0px"
	 width="100%" height="100%" viewBox="0 0 270 488" style="enable-background:new 0 0 270 488;" xml:space="preserve"
	>
<path id="path" d="M37.282,441.804c-0.198-0.238-0.483-0.362-0.771-0.362c-0.225,0-0.452,0.075-0.639,0.231
	c-0.421,0.35-0.482,0.973-0.139,1.397c0.008,0.009,0.013,0.016,0.02,0.025c0.018,0.02,0.035,0.042,0.053,0.064
	c0.197,0.238,0.482,0.361,0.769,0.361c0.224,0,0.451-0.076,0.638-0.231c0.425-0.352,0.483-0.984,0.131-1.41L37.282,441.804z
	 M39.287,282.45l0.064-0.075c0.363-0.415,0.32-1.047-0.095-1.411c-0.189-0.166-0.424-0.247-0.657-0.247
	c-0.279,0-0.556,0.116-0.754,0.342c-0.011,0.012-0.021,0.025-0.032,0.037c-0.008,0.009-0.014,0.016-0.021,0.025
	c-0.004,0.005-0.008,0.009-0.012,0.014c-0.364,0.415-0.322,1.047,0.094,1.41c0.19,0.165,0.425,0.247,0.658,0.247
	C38.812,282.792,39.089,282.675,39.287,282.45z M36.684,285.532l0.062-0.076c0.35-0.428,0.287-1.057-0.141-1.408
	c-0.186-0.151-0.409-0.226-0.632-0.226c-0.288,0-0.572,0.123-0.771,0.361c-0.024,0.03-0.047,0.059-0.072,0.089
	c-0.344,0.428-0.278,1.053,0.147,1.402c0.186,0.151,0.409,0.226,0.631,0.226C36.199,285.9,36.487,285.774,36.684,285.532z
	 M39.908,444.866c-0.197-0.223-0.472-0.337-0.748-0.337c-0.236,0-0.472,0.083-0.663,0.252c-0.41,0.363-0.451,0.988-0.095,1.402
	c0.027,0.029,0.053,0.058,0.078,0.088c0.197,0.221,0.471,0.333,0.746,0.333c0.235,0,0.473-0.083,0.663-0.252
	c0.413-0.367,0.451-0.999,0.084-1.412L39.908,444.866z M50.662,271.017l0.073-0.066c0.414-0.365,0.454-0.997,0.09-1.412
	c-0.198-0.223-0.474-0.339-0.751-0.339c-0.229,0-0.46,0.079-0.648,0.239c-0.032,0.029-0.065,0.057-0.098,0.086
	c-0.403,0.368-0.438,0.994-0.076,1.404c0.197,0.224,0.472,0.338,0.748,0.338C50.235,271.268,50.472,271.185,50.662,271.017z
	 M47.68,273.734l0.071-0.067c0.402-0.378,0.422-1.011,0.043-1.413c-0.196-0.21-0.462-0.316-0.729-0.316
	c-0.245,0-0.491,0.09-0.684,0.272c-0.012,0.01-0.024,0.022-0.035,0.033c-0.017,0.017-0.031,0.03-0.049,0.046
	c-0.392,0.38-0.406,1.003-0.032,1.402c0.197,0.209,0.463,0.314,0.729,0.314C47.241,274.005,47.487,273.916,47.68,273.734z
	 M45.453,450.725c-0.194-0.192-0.449-0.289-0.703-0.289c-0.258,0-0.516,0.1-0.711,0.297c-0.389,0.393-0.385,1.025,0.008,1.414
	c0.008,0.007,0.015,0.015,0.022,0.023l0.034,0.034c0.005,0.005,0.01,0.009,0.015,0.014c0.194,0.191,0.448,0.287,0.702,0.287
	c0.259,0,0.518-0.098,0.714-0.297c0.388-0.393,0.384-1.025-0.011-1.412L45.453,450.725z M41.989,279.454l0.067-0.072
	c0.377-0.404,0.354-1.036-0.049-1.413c-0.192-0.181-0.437-0.27-0.682-0.27c-0.267,0-0.534,0.106-0.731,0.318l-0.001,0.002
	c-0.022,0.023-0.045,0.048-0.067,0.072c-0.376,0.403-0.354,1.036,0.05,1.413c0.192,0.18,0.438,0.268,0.682,0.268
	C41.525,279.772,41.793,279.665,41.989,279.454z M48.366,453.517c-0.192-0.178-0.436-0.266-0.68-0.266
	c-0.268,0-0.537,0.108-0.734,0.32c-0.374,0.403-0.352,1.033,0.049,1.407c0.025,0.025,0.048,0.045,0.074,0.069
	c0.001,0.002,0.003,0.003,0.004,0.005c0.192,0.179,0.436,0.266,0.68,0.266c0.268,0,0.536-0.108,0.732-0.32
	c0.376-0.406,0.352-1.038-0.053-1.414L48.366,453.517z M34.756,438.657c-0.197-0.254-0.492-0.387-0.79-0.387
	c-0.215,0-0.431,0.069-0.613,0.21c-0.435,0.338-0.515,0.962-0.18,1.399c0.026,0.034,0.05,0.063,0.076,0.098
	c0.196,0.244,0.486,0.372,0.778,0.372c0.215,0,0.431-0.069,0.614-0.211c0.436-0.339,0.514-0.966,0.175-1.402L34.756,438.657z
	 M44.788,276.548l0.069-0.069c0.389-0.392,0.389-1.026-0.002-1.415c-0.195-0.194-0.451-0.291-0.706-0.291
	c-0.254,0-0.507,0.096-0.701,0.288l-0.063,0.063c-0.005,0.005-0.01,0.01-0.014,0.015c-0.39,0.392-0.389,1.025,0.003,1.413
	c0.195,0.194,0.45,0.292,0.705,0.292C44.336,276.842,44.592,276.744,44.788,276.548z M42.633,447.841
	c-0.196-0.207-0.461-0.313-0.726-0.313c-0.247,0-0.494,0.091-0.687,0.275c-0.401,0.38-0.418,1.013-0.038,1.413
	c0.022,0.024,0.046,0.048,0.068,0.072c0.196,0.208,0.461,0.313,0.726,0.313c0.247,0,0.494-0.091,0.687-0.275
	c0.401-0.38,0.418-1.013,0.038-1.414L42.633,447.841z M29.497,295.265l0.055-0.081c0.306-0.46,0.182-1.081-0.278-1.388
	c-0.17-0.113-0.363-0.168-0.554-0.168c-0.323,0-0.64,0.157-0.832,0.446c-0.008,0.012-0.016,0.023-0.023,0.035
	c-0.014,0.019-0.024,0.036-0.037,0.056c-0.3,0.459-0.174,1.075,0.283,1.38c0.17,0.113,0.363,0.167,0.553,0.167
	C28.988,295.711,29.305,295.555,29.497,295.265z M25.722,425.297c-0.185-0.317-0.519-0.495-0.863-0.495
	c-0.172,0-0.346,0.044-0.505,0.137c-0.477,0.279-0.637,0.892-0.358,1.368c0.009,0.015,0.018,0.03,0.026,0.045
	c0.006,0.011,0.014,0.024,0.019,0.035c0.002,0.002,0.003,0.004,0.004,0.005c0.186,0.318,0.52,0.495,0.864,0.495
	c0.172,0,0.346-0.045,0.505-0.138c0.476-0.279,0.636-0.892,0.356-1.368L25.722,425.297z M23.791,421.868l-0.047-0.086
	c-0.181-0.334-0.524-0.524-0.88-0.524c-0.161,0-0.324,0.039-0.475,0.121c-0.485,0.263-0.666,0.87-0.402,1.355l0.044,0.082
	c0.002,0.003,0.002,0.004,0.004,0.008c0.182,0.333,0.524,0.521,0.879,0.521c0.16,0,0.324-0.039,0.476-0.121
	C23.874,422.962,24.055,422.355,23.791,421.868z M21.927,418.291l-0.044-0.088c-0.176-0.35-0.529-0.553-0.896-0.553
	c-0.149,0-0.303,0.033-0.445,0.106c-0.494,0.246-0.694,0.846-0.447,1.341c0.003,0.005,0.006,0.012,0.008,0.017
	c0.015,0.028,0.026,0.052,0.041,0.081c0.176,0.345,0.526,0.544,0.891,0.544c0.15,0,0.303-0.034,0.446-0.106
	C21.974,419.386,22.174,418.786,21.927,418.291z M20.181,414.654l-0.042-0.088c-0.168-0.367-0.53-0.583-0.909-0.583
	c-0.14,0-0.281,0.029-0.417,0.091c-0.502,0.231-0.722,0.824-0.491,1.326c0.003,0.007,0.007,0.014,0.01,0.021
	c0.003,0.007,0.003,0.007,0.007,0.014c0.008,0.018,0.017,0.037,0.025,0.056c0.169,0.367,0.53,0.584,0.909,0.584
	c0.14,0,0.282-0.03,0.417-0.092C20.192,415.751,20.412,415.156,20.181,414.654z M18.556,410.963l-0.039-0.091
	c-0.16-0.383-0.532-0.613-0.923-0.613c-0.129,0-0.26,0.025-0.387,0.078c-0.504,0.212-0.744,0.79-0.54,1.296
	c0.017,0.04,0.032,0.077,0.049,0.116c0.164,0.376,0.532,0.602,0.919,0.602c0.129,0,0.261-0.025,0.388-0.079
	C18.532,412.058,18.771,411.472,18.556,410.963z M27.816,428.747c-0.19-0.302-0.515-0.467-0.847-0.467
	c-0.182,0-0.366,0.049-0.532,0.153c-0.467,0.295-0.607,0.912-0.312,1.379l0.038,0.062c0.003,0.004,0.005,0.007,0.007,0.01
	c0.001,0.001,0.001,0.002,0.002,0.003c0.002,0.002,0.005,0.007,0.007,0.009c0.19,0.302,0.515,0.467,0.846,0.467
	c0.183,0,0.367-0.049,0.532-0.154c0.468-0.295,0.607-0.912,0.312-1.38L27.816,428.747z M31.786,291.943l0.058-0.08
	c0.32-0.449,0.217-1.074-0.233-1.396c-0.176-0.126-0.379-0.186-0.58-0.186c-0.308,0-0.611,0.142-0.806,0.408
	c-0.009,0.012-0.023,0.032-0.031,0.044l-0.023,0.033c-0.005,0.007-0.012,0.017-0.017,0.022c-0.314,0.449-0.208,1.068,0.239,1.387
	c0.176,0.125,0.379,0.186,0.58,0.186C31.284,292.362,31.591,292.217,31.786,291.943z M32.335,435.429
	c-0.195-0.269-0.501-0.412-0.81-0.412c-0.203,0-0.409,0.061-0.586,0.19c-0.445,0.322-0.546,0.942-0.227,1.389
	c0.023,0.032,0.043,0.061,0.066,0.091c0.195,0.268,0.499,0.409,0.807,0.409c0.204,0,0.409-0.062,0.587-0.191
	c0.447-0.325,0.546-0.95,0.222-1.397L32.335,435.429z M30.021,432.126c-0.194-0.286-0.509-0.44-0.829-0.44
	c-0.193,0-0.388,0.056-0.559,0.172c-0.458,0.309-0.578,0.931-0.268,1.389c0.019,0.027,0.037,0.056,0.056,0.083
	c0.193,0.285,0.508,0.44,0.828,0.44c0.192,0,0.388-0.056,0.56-0.172c0.457-0.31,0.577-0.932,0.267-1.39L30.021,432.126z
	 M34.182,288.697l0.061-0.078c0.335-0.438,0.251-1.067-0.187-1.401c-0.181-0.14-0.395-0.207-0.606-0.207
	c-0.297,0-0.591,0.132-0.787,0.383c-0.013,0.015-0.023,0.029-0.035,0.044c-0.006,0.009-0.013,0.017-0.018,0.025
	c-0.008,0.009-0.016,0.02-0.023,0.03c-0.326,0.437-0.24,1.057,0.195,1.391c0.181,0.138,0.394,0.206,0.606,0.206
	C33.688,289.091,33.986,288.955,34.182,288.697z M27.318,298.66l0.052-0.083c0.291-0.47,0.146-1.086-0.323-1.377
	c-0.164-0.103-0.346-0.151-0.525-0.151c-0.333,0-0.659,0.166-0.849,0.469c-0.004,0.007-0.009,0.016-0.014,0.023
	c-0.014,0.022-0.027,0.044-0.041,0.066c-0.292,0.47-0.146,1.086,0.323,1.376c0.164,0.101,0.346,0.15,0.525,0.15
	C26.802,299.134,27.129,298.966,27.318,298.66z M54.458,458.808c-0.186-0.152-0.408-0.225-0.63-0.224
	c-0.291,0-0.58,0.126-0.777,0.369c-0.348,0.428-0.283,1.059,0.146,1.406c0,0,0.002,0.001,0.003,0.003
	c0.027,0.022,0.061,0.049,0.088,0.072c0.182,0.143,0.4,0.213,0.616,0.213c0.291,0,0.579-0.127,0.777-0.37
	c0.348-0.428,0.282-1.059-0.146-1.407L54.458,458.808z M81.955,475.711l-0.09-0.04c-0.133-0.059-0.27-0.088-0.407-0.086
	c-0.383,0-0.748,0.221-0.914,0.592c-0.225,0.503,0,1.093,0.501,1.319c0.008,0.004,0.007,0.004,0.015,0.007
	c0.022,0.009,0.045,0.02,0.068,0.03c0.007,0.003,0.014,0.006,0.021,0.009c0.13,0.057,0.266,0.083,0.398,0.083
	c0.383,0,0.749-0.221,0.915-0.593C82.687,476.527,82.459,475.936,81.955,475.711z M51.369,456.212
	c-0.189-0.164-0.423-0.245-0.655-0.245c-0.28,0-0.558,0.117-0.756,0.344c-0.36,0.415-0.318,1.043,0.094,1.405
	c0.026,0.023,0.053,0.046,0.079,0.069l0.002,0.002c0.189,0.164,0.423,0.244,0.655,0.244c0.279,0,0.558-0.116,0.755-0.344
	c0.362-0.417,0.317-1.049-0.1-1.412L51.369,456.212z M81.009,251.326l0.09-0.04c0.502-0.229,0.725-0.822,0.496-1.325
	c-0.168-0.368-0.531-0.586-0.911-0.586c-0.134,0-0.269,0.027-0.398,0.083c-0.04,0.019-0.081,0.037-0.12,0.055
	c-0.493,0.233-0.708,0.82-0.482,1.318c0.168,0.368,0.531,0.586,0.911,0.586C80.734,251.416,80.874,251.387,81.009,251.326z
	 M78.299,474.009l-0.088-0.043c-0.142-0.068-0.29-0.101-0.437-0.101c-0.37,0-0.727,0.207-0.899,0.563
	c-0.242,0.496-0.035,1.095,0.461,1.336c0.024,0.013,0.049,0.024,0.073,0.036c0.008,0.004,0.013,0.006,0.021,0.009
	c0.139,0.067,0.286,0.099,0.432,0.099c0.371,0,0.728-0.208,0.901-0.565C79.004,474.846,78.797,474.248,78.299,474.009z
	 M74.7,472.186l-0.087-0.046c-0.149-0.078-0.309-0.115-0.466-0.115c-0.359,0-0.706,0.193-0.886,0.533
	c-0.258,0.488-0.071,1.092,0.417,1.35c0.011,0.006,0.021,0.012,0.032,0.017c0.025,0.013,0.043,0.023,0.066,0.035
	c0.146,0.074,0.302,0.111,0.454,0.111c0.36,0,0.709-0.195,0.888-0.535C75.377,473.047,75.189,472.443,74.7,472.186z M73.784,254.911
	l0.087-0.046c0.486-0.262,0.669-0.869,0.407-1.355c-0.181-0.336-0.525-0.527-0.882-0.527c-0.157,0-0.317,0.038-0.466,0.116
	c-0.011,0.006-0.021,0.01-0.031,0.017c-0.021,0.012-0.042,0.022-0.064,0.034c-0.486,0.262-0.669,0.867-0.407,1.353
	c0.181,0.336,0.526,0.526,0.883,0.526C73.471,255.03,73.633,254.992,73.784,254.911z M88.455,248.223l0.092-0.035
	c0.516-0.195,0.777-0.772,0.583-1.289c-0.151-0.4-0.531-0.647-0.935-0.647c-0.117,0-0.237,0.022-0.354,0.066
	c-0.031,0.012-0.062,0.023-0.093,0.035c-0.517,0.196-0.777,0.773-0.581,1.29c0.15,0.399,0.531,0.645,0.934,0.645
	C88.218,248.288,88.339,248.267,88.455,248.223z M84.706,249.713l0.091-0.038c0.511-0.212,0.752-0.798,0.54-1.308
	c-0.16-0.383-0.532-0.616-0.924-0.616c-0.123,0-0.248,0.023-0.369,0.071c-0.036,0.016-0.072,0.03-0.108,0.045
	c-0.509,0.214-0.749,0.799-0.536,1.308c0.159,0.383,0.531,0.615,0.922,0.615C84.45,249.79,84.58,249.766,84.706,249.713z
	 M92.25,246.858l0.093-0.032c0.522-0.178,0.803-0.746,0.624-1.269c-0.141-0.416-0.529-0.678-0.945-0.678
	c-0.107,0-0.216,0.017-0.322,0.054c-0.013,0.004-0.025,0.007-0.038,0.012c-0.016,0.005-0.033,0.011-0.048,0.016
	c-0.003,0.001-0.006,0.002-0.01,0.004c-0.522,0.177-0.802,0.745-0.624,1.268c0.143,0.416,0.531,0.678,0.948,0.678
	C92.034,246.911,92.144,246.895,92.25,246.858z M89.426,478.749l-0.092-0.034c-0.114-0.042-0.232-0.062-0.347-0.062
	c-0.406,0-0.789,0.25-0.938,0.654c-0.189,0.514,0.068,1.083,0.578,1.279c0.037,0.014,0.075,0.029,0.113,0.042
	c0.112,0.041,0.228,0.061,0.342,0.061c0.406,0,0.787-0.249,0.936-0.652C90.208,479.518,89.944,478.942,89.426,478.749z
	 M85.666,477.292l-0.091-0.037c-0.123-0.051-0.251-0.074-0.377-0.074c-0.394,0-0.768,0.235-0.927,0.623
	c-0.208,0.512,0.038,1.095,0.549,1.303c0.013,0.005,0.024,0.01,0.036,0.016c0.008,0.002,0.019,0.007,0.027,0.01l0.029,0.012
	c0.124,0.051,0.252,0.074,0.378,0.074c0.394,0,0.767-0.234,0.925-0.623C86.424,478.084,86.177,477.502,85.666,477.292z
	 M71.164,470.246l-0.086-0.049c-0.156-0.088-0.326-0.132-0.495-0.132c-0.347,0-0.685,0.182-0.869,0.505
	c-0.273,0.477-0.108,1.086,0.368,1.361c0.02,0.012,0.043,0.024,0.063,0.036c0.009,0.005,0.018,0.011,0.027,0.015
	c0.156,0.089,0.326,0.131,0.494,0.131c0.347,0,0.685-0.182,0.87-0.505C71.811,471.13,71.643,470.52,71.164,470.246z M77.368,253.058
	l0.088-0.044c0.495-0.245,0.697-0.844,0.452-1.34c-0.175-0.352-0.528-0.556-0.896-0.556c-0.147,0-0.295,0.032-0.435,0.101
	c-0.032,0.015-0.058,0.028-0.09,0.044c-0.003,0.002-0.006,0.002-0.009,0.005c-0.495,0.245-0.696,0.845-0.451,1.34
	c0.175,0.352,0.528,0.555,0.896,0.555C77.073,253.163,77.224,253.13,77.368,253.058z M56.883,265.88l0.078-0.059
	c0.437-0.338,0.518-0.966,0.181-1.404c-0.196-0.255-0.492-0.39-0.792-0.39c-0.213,0-0.428,0.068-0.609,0.209
	c-0.023,0.016-0.045,0.034-0.067,0.051c-0.007,0.005-0.009,0.006-0.015,0.011c-0.436,0.337-0.515,0.965-0.179,1.4
	c0.197,0.255,0.493,0.389,0.793,0.389C56.487,266.089,56.701,266.021,56.883,265.88z M57.629,461.301
	c-0.181-0.138-0.394-0.204-0.604-0.204c-0.302,0-0.601,0.137-0.797,0.396c-0.334,0.439-0.249,1.066,0.191,1.4
	c0.012,0.009,0.023,0.019,0.036,0.027c0.016,0.012,0.036,0.028,0.052,0.04c0.179,0.132,0.388,0.198,0.596,0.198
	c0.302,0,0.599-0.137,0.796-0.396c0.334-0.44,0.248-1.068-0.191-1.402L57.629,461.301z M60.116,263.467l0.08-0.057
	c0.448-0.323,0.55-0.947,0.227-1.396c-0.195-0.272-0.502-0.416-0.812-0.416c-0.202,0-0.407,0.061-0.584,0.189
	c0,0-0.001,0.001-0.002,0.002c-0.028,0.02-0.056,0.04-0.084,0.061c-0.444,0.324-0.544,0.945-0.222,1.391
	c0.195,0.272,0.502,0.415,0.812,0.415C59.735,263.656,59.939,263.595,60.116,263.467z M53.73,268.398l0.076-0.062
	c0.426-0.352,0.487-0.983,0.136-1.408c-0.198-0.24-0.483-0.364-0.772-0.364c-0.224,0-0.449,0.075-0.636,0.229
	c-0.003,0.002-0.006,0.006-0.009,0.007c-0.021,0.018-0.042,0.035-0.062,0.052c-0.002,0.002-0.004,0.003-0.005,0.005
	c-0.427,0.351-0.488,0.979-0.136,1.406c0.197,0.239,0.484,0.364,0.773,0.364C53.319,268.626,53.544,268.551,53.73,268.398z
	 M70.264,256.881l0.085-0.049c0.478-0.278,0.64-0.89,0.362-1.368c-0.185-0.32-0.521-0.498-0.865-0.498
	c-0.17,0-0.343,0.043-0.501,0.135l-0.029,0.017c-0.014,0.008-0.023,0.013-0.037,0.022l-0.02,0.012
	c-0.477,0.277-0.639,0.89-0.361,1.367c0.186,0.32,0.52,0.497,0.865,0.497C69.933,257.017,70.106,256.973,70.264,256.881z
	 M17.054,407.219l-0.035-0.091c-0.152-0.399-0.532-0.644-0.935-0.644c-0.118,0-0.238,0.02-0.355,0.065
	c-0.517,0.197-0.775,0.775-0.578,1.292c0.006,0.014,0.011,0.027,0.016,0.041c0.005,0.01,0.009,0.023,0.014,0.034
	c0.002,0.006,0.004,0.012,0.007,0.018c0.151,0.399,0.53,0.644,0.934,0.644c0.118,0,0.239-0.021,0.356-0.065
	C16.991,408.314,17.25,407.736,17.054,407.219z M66.81,258.965l0.084-0.051c0.468-0.293,0.61-0.911,0.318-1.378
	c-0.19-0.304-0.516-0.47-0.849-0.47c-0.181,0-0.363,0.049-0.528,0.152c-0.004,0.003-0.008,0.005-0.012,0.008
	c-0.027,0.017-0.054,0.033-0.08,0.049c-0.462,0.295-0.601,0.909-0.309,1.375c0.189,0.303,0.515,0.469,0.848,0.469
	C66.461,259.118,66.645,259.069,66.81,258.965z M67.692,468.192l-0.084-0.052c-0.163-0.1-0.344-0.148-0.522-0.148
	c-0.336,0-0.664,0.169-0.853,0.477c-0.289,0.47-0.143,1.086,0.328,1.375l0.085,0.053c0.163,0.101,0.344,0.148,0.522,0.148
	c0.336,0,0.664-0.169,0.853-0.476C68.31,469.097,68.163,468.481,67.692,468.192z M63.426,261.162l0.082-0.055
	c0.458-0.307,0.58-0.93,0.272-1.387c-0.193-0.288-0.509-0.443-0.831-0.443c-0.188,0-0.377,0.053-0.545,0.162
	c-0.013,0.009-0.028,0.018-0.04,0.026c-0.012,0.008-0.022,0.016-0.034,0.023c-0.013,0.009-0.023,0.016-0.036,0.024
	c-0.446,0.311-0.562,0.922-0.258,1.375c0.193,0.288,0.511,0.443,0.833,0.443C63.062,261.331,63.255,261.275,63.426,261.162z
	 M64.289,466.024l-0.081-0.054c-0.17-0.112-0.361-0.166-0.551-0.166c-0.325,0-0.644,0.157-0.836,0.448
	c-0.304,0.459-0.179,1.078,0.279,1.384c0.021,0.013,0.049,0.031,0.068,0.045c0.006,0.004,0.013,0.008,0.019,0.012
	c0.17,0.113,0.361,0.167,0.551,0.167c0.324,0,0.642-0.158,0.834-0.448C64.876,466.95,64.75,466.329,64.289,466.024z M60.881,463.689
	c-0.176-0.124-0.378-0.185-0.578-0.185c-0.313,0-0.622,0.148-0.816,0.422c-0.318,0.449-0.215,1.07,0.232,1.39
	c0.006,0.005,0.014,0.011,0.021,0.015c0.021,0.016,0.044,0.031,0.065,0.046c0.176,0.124,0.378,0.185,0.577,0.185
	c0.313,0,0.622-0.147,0.816-0.422c0.319-0.451,0.213-1.075-0.237-1.395L60.881,463.689z M8.155,356.693
	c0.021,0.001,0.041,0.003,0.061,0.003c0.524,0,0.965-0.409,0.995-0.94l0.006-0.098c0.034-0.552-0.386-1.026-0.936-1.06
	c-0.022-0.001-0.042-0.002-0.062-0.002c-0.524,0-0.965,0.408-0.997,0.939l-0.006,0.1C7.184,356.186,7.604,356.66,8.155,356.693z
	 M239.745,304.003l0.048,0.086c0.182,0.331,0.524,0.519,0.877,0.519c0.163,0,0.329-0.04,0.481-0.125
	c0.482-0.265,0.659-0.869,0.396-1.353c-0.016-0.03-0.036-0.066-0.053-0.096c-0.184-0.328-0.523-0.512-0.875-0.512
	c-0.163,0-0.329,0.039-0.482,0.124C239.654,302.911,239.478,303.52,239.745,304.003z M241.634,307.568l0.045,0.086
	c0.177,0.348,0.528,0.548,0.893,0.548c0.152,0,0.307-0.035,0.452-0.109c0.488-0.248,0.686-0.843,0.443-1.333
	c-0.007-0.014-0.016-0.032-0.024-0.046c-0.009-0.018-0.018-0.036-0.027-0.054c-0.176-0.347-0.527-0.547-0.892-0.547
	c-0.152,0.001-0.307,0.035-0.452,0.109C241.581,306.473,241.384,307.074,241.634,307.568z M237.79,300.587
	c0.188,0.315,0.52,0.49,0.861,0.49c0.174,0,0.35-0.045,0.51-0.14c0.475-0.283,0.631-0.896,0.349-1.37
	c-0.003-0.005-0.005-0.01-0.008-0.014c-0.004-0.007-0.005-0.009-0.01-0.016c-0.011-0.019-0.023-0.038-0.033-0.057
	c-0.188-0.313-0.52-0.488-0.86-0.488c-0.174,0-0.351,0.045-0.511,0.141c-0.475,0.282-0.631,0.897-0.349,1.371L237.79,300.587z
	 M235.674,297.152c0.191,0.299,0.514,0.462,0.844,0.462c0.184,0,0.37-0.051,0.537-0.157c0.466-0.298,0.601-0.916,0.304-1.381
	c-0.002-0.004-0.005-0.009-0.008-0.012c-0.017-0.027-0.033-0.053-0.051-0.079c-0.19-0.294-0.511-0.454-0.838-0.454
	c-0.184,0-0.371,0.051-0.537,0.158c-0.466,0.297-0.602,0.916-0.305,1.381L235.674,297.152z M246.584,318.606l0.035,0.091
	c0.154,0.396,0.532,0.637,0.932,0.637c0.121,0,0.244-0.021,0.363-0.068c0.512-0.2,0.766-0.773,0.571-1.287
	c-0.016-0.041-0.029-0.076-0.045-0.117c-0.158-0.386-0.53-0.621-0.925-0.621c-0.121,0-0.244,0.022-0.363,0.069
	C246.639,317.511,246.384,318.091,246.584,318.606z M243.406,311.193l0.042,0.089c0.17,0.364,0.53,0.576,0.906,0.576
	c0.142,0,0.286-0.03,0.423-0.095c0.5-0.233,0.717-0.828,0.482-1.329c-0.004-0.007-0.007-0.015-0.011-0.023
	c-0.012-0.024-0.025-0.054-0.037-0.079c-0.172-0.356-0.528-0.564-0.9-0.564c-0.143,0-0.286,0.03-0.424,0.095
	C243.387,310.096,243.171,310.692,243.406,311.193z M245.056,314.872l0.039,0.091c0.162,0.379,0.531,0.606,0.92,0.606
	c0.131,0,0.265-0.027,0.393-0.081c0.507-0.217,0.742-0.802,0.527-1.308c-0.014-0.033-0.029-0.07-0.044-0.102
	c-0.164-0.376-0.531-0.6-0.917-0.6c-0.132,0-0.266,0.026-0.393,0.081C245.072,313.778,244.838,314.366,245.056,314.872z
	 M233.446,293.79c0.194,0.282,0.507,0.434,0.826,0.434c0.194,0,0.392-0.056,0.564-0.176c0.456-0.313,0.571-0.935,0.259-1.39
	c-0.009-0.012-0.018-0.024-0.025-0.037c-0.012-0.017-0.022-0.033-0.034-0.049c-0.193-0.28-0.505-0.43-0.821-0.43
	c-0.195,0-0.393,0.056-0.566,0.176c-0.455,0.312-0.571,0.936-0.259,1.391L233.446,293.79z M226.12,284.161
	c0.198,0.234,0.48,0.355,0.766,0.355c0.227,0,0.456-0.077,0.643-0.234c0.422-0.355,0.477-0.985,0.123-1.406
	c-0.023-0.027-0.046-0.054-0.068-0.081c-0.197-0.234-0.479-0.354-0.763-0.354c-0.226,0-0.455,0.077-0.642,0.235
	c-0.423,0.355-0.477,0.987-0.122,1.41L226.12,284.161z M13.031,331.892l0.025-0.095c0.141-0.534-0.178-1.082-0.712-1.223
	c-0.086-0.022-0.172-0.033-0.256-0.033c-0.442,0-0.848,0.296-0.966,0.744c-0.011,0.038-0.02,0.072-0.029,0.111
	c-0.132,0.53,0.186,1.069,0.717,1.209c0.085,0.023,0.171,0.033,0.255,0.033C12.508,332.638,12.913,332.342,13.031,331.892z
	 M228.666,287.29c0.197,0.251,0.49,0.381,0.787,0.381c0.216,0,0.435-0.07,0.617-0.215c0.434-0.341,0.51-0.97,0.167-1.404
	l-0.062-0.079c-0.197-0.251-0.489-0.382-0.785-0.382c-0.217,0-0.435,0.07-0.617,0.214c-0.434,0.343-0.509,0.972-0.168,1.407
	L228.666,287.29z M231.109,290.501c0.196,0.266,0.499,0.407,0.807,0.407c0.206,0,0.413-0.064,0.592-0.195
	c0.441-0.325,0.538-0.942,0.221-1.387c-0.011-0.016-0.021-0.03-0.033-0.046c-0.012-0.015-0.022-0.03-0.034-0.046
	c-0.196-0.267-0.499-0.408-0.805-0.408c-0.206,0-0.413,0.064-0.592,0.195c-0.445,0.328-0.54,0.954-0.213,1.398L231.109,290.501z
	 M255.839,356.866c-0.015,0-0.029,0.001-0.044,0.001c-0.552,0.023-0.979,0.49-0.955,1.042l0.004,0.099
	c0.023,0.537,0.467,0.958,0.999,0.958c0.015,0,0.028-0.001,0.043-0.001c0.552-0.023,0.98-0.49,0.956-1.042
	c0-0.016-0.001-0.03-0.001-0.046c-0.002-0.021-0.003-0.049-0.004-0.069C256.805,357.277,256.366,356.866,255.839,356.866z
	 M255.524,352.809c-0.55,0.042-0.964,0.522-0.924,1.073l0.008,0.098c0.039,0.526,0.478,0.926,0.996,0.926
	c0.025,0,0.051-0.001,0.076-0.003c0.551-0.041,0.963-0.522,0.922-1.072c-0.001-0.017-0.003-0.033-0.004-0.049
	c0-0.005,0-0.001,0-0.005c-0.001-0.015-0.003-0.031-0.004-0.047c-0.038-0.525-0.476-0.924-0.993-0.924
	C255.576,352.806,255.551,352.807,255.524,352.809z M255.116,348.761c-0.549,0.06-0.945,0.553-0.886,1.102l0.011,0.098
	c0.055,0.513,0.488,0.893,0.993,0.893c0.036,0,0.072-0.002,0.108-0.006c0.549-0.06,0.946-0.552,0.887-1.102
	c-0.001-0.004-0.001-0.009-0.002-0.014c-0.003-0.033-0.007-0.067-0.011-0.099c-0.061-0.506-0.492-0.879-0.991-0.879
	C255.189,348.755,255.153,348.757,255.116,348.761z M254.581,344.729c-0.547,0.077-0.928,0.584-0.852,1.131l0.013,0.098
	c0.071,0.499,0.499,0.86,0.99,0.86c0.046,0,0.093-0.004,0.141-0.009c0.542-0.077,0.921-0.576,0.852-1.117
	c-0.003-0.02-0.007-0.047-0.009-0.067c-0.003-0.015-0.005-0.03-0.007-0.045c-0.069-0.499-0.496-0.861-0.986-0.861
	C254.676,344.718,254.629,344.723,254.581,344.729z M255.951,360.931h-0.011c-0.553,0.006-0.996,0.459-0.992,1.011l0.001,0.098
	c0.006,0.549,0.453,0.99,1.001,0.99h0.01c0.547-0.006,0.986-0.449,0.99-0.993c-0.001-0.018-0.001-0.032-0.001-0.049
	c0-0.016,0-0.03-0.001-0.045v-0.033C256.938,361.367,256.495,360.931,255.951,360.931z M247.988,322.388l0.033,0.092
	c0.145,0.411,0.53,0.669,0.943,0.669c0.109,0,0.222-0.018,0.332-0.057c0.52-0.184,0.794-0.755,0.61-1.276l-0.015-0.044
	c-0.004-0.01-0.007-0.019-0.012-0.03c-0.002-0.007-0.004-0.014-0.007-0.019c-0.145-0.411-0.531-0.668-0.943-0.668
	c-0.11,0-0.222,0.019-0.333,0.058C248.077,321.297,247.804,321.867,247.988,322.388z M11.338,334.516
	c-0.075-0.017-0.15-0.025-0.224-0.025c-0.456,0-0.867,0.314-0.974,0.777c-0.006,0.028-0.013,0.056-0.019,0.084l-0.005,0.019
	c-0.12,0.537,0.215,1.068,0.752,1.191c0.074,0.017,0.149,0.026,0.223,0.026c0.457,0,0.87-0.315,0.976-0.778l0.022-0.096
	C12.213,335.176,11.877,334.639,11.338,334.516z M249.266,326.213l0.029,0.093c0.135,0.428,0.529,0.701,0.954,0.701
	c0.1,0,0.201-0.015,0.301-0.046c0.526-0.166,0.819-0.729,0.652-1.255c-0.002-0.009-0.005-0.017-0.008-0.027
	c-0.008-0.023-0.015-0.047-0.022-0.069c-0.135-0.426-0.528-0.697-0.953-0.697c-0.1,0-0.201,0.014-0.301,0.047
	C249.392,325.124,249.099,325.686,249.266,326.213z M250.417,330.08l0.026,0.095c0.123,0.441,0.525,0.731,0.963,0.731
	c0.089,0,0.18-0.012,0.27-0.037c0.532-0.148,0.843-0.701,0.694-1.233c-0.004-0.011-0.007-0.023-0.011-0.036
	c-0.007-0.027-0.013-0.045-0.021-0.072c-0.127-0.435-0.525-0.718-0.958-0.718c-0.09,0-0.181,0.012-0.27,0.038
	C250.58,328.996,250.269,329.548,250.417,330.08z M251.44,333.981l0.023,0.096c0.111,0.457,0.52,0.764,0.972,0.764
	c0.078,0,0.157-0.01,0.237-0.03c0.536-0.13,0.865-0.671,0.734-1.208c-0.003-0.012-0.006-0.024-0.009-0.037l-0.014-0.054
	c0-0.002-0.001-0.003-0.002-0.005c-0.111-0.457-0.519-0.763-0.97-0.763c-0.078,0-0.158,0.009-0.238,0.028
	C251.638,332.903,251.309,333.445,251.44,333.981z M253.909,340.719c-0.544,0.096-0.907,0.613-0.812,1.158l0.017,0.096
	c0.085,0.487,0.508,0.828,0.984,0.828c0.058,0,0.115-0.005,0.174-0.015c0.538-0.094,0.9-0.603,0.814-1.142
	c-0.008-0.044-0.015-0.088-0.023-0.132c-0.093-0.477-0.509-0.809-0.979-0.809C254.026,340.703,253.968,340.708,253.909,340.719z
	 M253.107,336.73c-0.54,0.113-0.887,0.644-0.773,1.185l0.021,0.096c0.099,0.472,0.514,0.796,0.977,0.796
	c0.068,0,0.137-0.007,0.206-0.022c0.54-0.113,0.887-0.642,0.773-1.183c-0.004-0.017-0.007-0.035-0.011-0.053
	c-0.004-0.02-0.008-0.036-0.012-0.057c-0.104-0.465-0.516-0.783-0.975-0.783C253.245,336.709,253.176,336.715,253.107,336.73z
	 M8.352,372.956c0.551-0.038,0.966-0.515,0.927-1.066l-0.007-0.098c-0.036-0.527-0.476-0.932-0.997-0.932
	c-0.022,0-0.046,0.001-0.068,0.002c-0.552,0.037-0.968,0.515-0.93,1.065c0.002,0.033,0.005,0.067,0.007,0.1
	c0.037,0.527,0.477,0.931,0.998,0.931C8.306,372.958,8.329,372.958,8.352,372.956z M15.676,403.429l-0.032-0.094
	c-0.143-0.414-0.53-0.675-0.945-0.675c-0.108,0-0.219,0.019-0.326,0.056c-0.522,0.179-0.8,0.748-0.62,1.271
	c0.004,0.01,0.008,0.02,0.011,0.031c0.003,0.008,0.006,0.018,0.009,0.025c0.005,0.012,0.009,0.025,0.014,0.038
	c0.142,0.415,0.529,0.675,0.944,0.675c0.107,0,0.218-0.018,0.325-0.055C15.577,404.521,15.855,403.95,15.676,403.429z
	 M8.065,368.897h0.037c0.552-0.02,0.983-0.484,0.965-1.036l-0.004-0.098c-0.019-0.539-0.463-0.964-0.999-0.964H8.028
	c-0.552,0.02-0.983,0.483-0.963,1.035v0.018c0.001,0.033,0.003,0.066,0.004,0.1C7.097,368.482,7.536,368.897,8.065,368.897z
	 M9.24,381.042c0.547-0.074,0.931-0.577,0.856-1.125l-0.014-0.098c-0.067-0.501-0.497-0.867-0.99-0.867
	c-0.044,0-0.089,0.003-0.134,0.01c-0.545,0.072-0.929,0.572-0.858,1.117c0.005,0.04,0.01,0.079,0.016,0.119
	c0.074,0.495,0.5,0.853,0.988,0.853C9.149,381.05,9.194,381.048,9.24,381.042z M8.729,377.005c0.55-0.056,0.949-0.547,0.893-1.095
	l-0.01-0.099c-0.052-0.516-0.487-0.9-0.994-0.9c-0.033,0-0.067,0.003-0.102,0.005c-0.55,0.056-0.95,0.546-0.894,1.096l0.006,0.052
	c0.002,0.02,0.003,0.031,0.005,0.052c0.056,0.512,0.489,0.894,0.994,0.894C8.661,377.011,8.695,377.009,8.729,377.005z
	 M7.984,364.83h0.004c0.553-0.003,0.999-0.453,0.997-1.004v-0.099c-0.002-0.551-0.45-0.997-1-0.997H7.982
	c-0.553,0.002-0.998,0.451-0.996,1.003v0.1C6.987,364.384,7.434,364.83,7.984,364.83z M8.005,360.759
	c0.01,0.001,0.02,0.001,0.028,0.001c0.54,0,0.984-0.43,1.001-0.973l0.003-0.098c0.015-0.551-0.42-1.012-0.971-1.028h-0.03
	c-0.537,0-0.98,0.428-0.998,0.968v0.018c0,0.008-0.001,0.015-0.001,0.022c-0.001,0.025-0.001,0.047-0.002,0.072
	C7.023,360.288,7.456,360.744,8.005,360.759z M10.655,389.05c0.542-0.109,0.892-0.637,0.782-1.178l-0.02-0.097
	c-0.096-0.474-0.514-0.801-0.979-0.801c-0.065,0-0.132,0.006-0.199,0.019c-0.536,0.108-0.885,0.628-0.784,1.164
	c0.009,0.044,0.016,0.082,0.025,0.126c0.101,0.467,0.514,0.788,0.975,0.788C10.521,389.07,10.589,389.063,10.655,389.05z
	 M13.299,395.72l-0.026-0.095c-0.121-0.445-0.523-0.738-0.964-0.738c-0.087,0-0.176,0.012-0.264,0.035
	c-0.532,0.144-0.847,0.694-0.702,1.227c0.002,0.008,0.005,0.016,0.007,0.023c0.001,0.004-0.001-0.003,0,0.001
	c0.007,0.023,0.013,0.048,0.02,0.071c0.121,0.445,0.524,0.737,0.964,0.737c0.088,0,0.176-0.011,0.264-0.035
	C13.13,396.802,13.445,396.253,13.299,395.72z M14.423,399.594l-0.028-0.094c-0.132-0.43-0.528-0.707-0.956-0.707
	c-0.097,0-0.196,0.015-0.294,0.045c-0.528,0.162-0.824,0.721-0.662,1.249c0.001,0.003,0.002,0.005,0.003,0.007
	c0.01,0.035,0.021,0.072,0.032,0.106c0.137,0.42,0.526,0.689,0.948,0.689c0.097,0,0.196-0.015,0.294-0.045
	C14.288,400.682,14.585,400.122,14.423,399.594z M93.234,480.082l-0.094-0.031C93.036,480.017,92.93,480,92.825,480
	c-0.419,0-0.81,0.266-0.949,0.685c-0.174,0.524,0.109,1.091,0.634,1.264l0.009,0.003c0.034,0.01,0.065,0.022,0.1,0.033
	c0.099,0.031,0.201,0.047,0.302,0.047c0.419,0,0.809-0.266,0.948-0.686C94.042,480.823,93.758,480.257,93.234,480.082z
	 M11.561,393.015c0.538-0.127,0.87-0.667,0.742-1.204l-0.023-0.096c-0.108-0.46-0.519-0.77-0.972-0.77
	c-0.076,0-0.153,0.009-0.231,0.027c-0.536,0.127-0.869,0.665-0.742,1.203c0.001,0.004,0.001,0.004,0.002,0.009
	c0.002,0.007,0.003,0.015,0.005,0.022c0.007,0.028,0.013,0.053,0.02,0.081c0.113,0.452,0.521,0.757,0.969,0.757
	C11.406,393.043,11.484,393.034,11.561,393.015z M9.879,385.057c0.545-0.092,0.913-0.607,0.822-1.153l-0.016-0.098
	c-0.083-0.488-0.506-0.834-0.985-0.834c-0.056,0-0.111,0.004-0.167,0.014c-0.545,0.091-0.911,0.607-0.82,1.151
	c0.004,0.025,0.007,0.045,0.011,0.069c0.002,0.01,0.004,0.022,0.006,0.031c0.081,0.489,0.503,0.834,0.982,0.834
	C9.767,385.071,9.823,385.067,9.879,385.057z M23.887,302.494c0.157,0.09,0.328,0.133,0.497,0.133c0.347,0,0.684-0.181,0.868-0.502
	l0.049-0.086c0.275-0.478,0.11-1.09-0.368-1.365c-0.157-0.091-0.328-0.134-0.497-0.134c-0.341,0-0.672,0.175-0.858,0.487
	c-0.01,0.017-0.019,0.032-0.029,0.05l-0.02,0.035c-0.004,0.007-0.007,0.012-0.011,0.018
	C23.243,301.608,23.408,302.219,23.887,302.494z M17.231,317.226c0.393,0,0.767-0.234,0.926-0.62l0.038-0.091
	c0.21-0.511-0.034-1.096-0.545-1.306c-0.124-0.051-0.253-0.076-0.38-0.076c-0.393,0.001-0.766,0.234-0.925,0.62
	c-0.006,0.015-0.012,0.03-0.018,0.043c-0.009,0.022-0.018,0.044-0.026,0.066c-0.198,0.507,0.046,1.08,0.552,1.288
	C16.976,317.201,17.105,317.226,17.231,317.226z M18.84,313.49c0.381,0,0.745-0.22,0.912-0.59l0.04-0.09
	c0.227-0.504,0.002-1.096-0.501-1.323c-0.134-0.059-0.273-0.088-0.41-0.088c-0.378,0-0.738,0.215-0.907,0.578
	c-0.004,0.008-0.009,0.02-0.012,0.027c-0.008,0.017-0.015,0.033-0.022,0.049c-0.005,0.011-0.014,0.03-0.019,0.041
	c-0.216,0.501,0.011,1.084,0.51,1.309C18.563,313.461,18.702,313.49,18.84,313.49z M20.567,309.808c0.369,0,0.726-0.205,0.899-0.56
	l0.043-0.088c0.243-0.496,0.039-1.096-0.457-1.339c-0.141-0.069-0.292-0.103-0.44-0.103c-0.369,0-0.723,0.207-0.897,0.56
	c-0.015,0.03-0.029,0.06-0.044,0.09c-0.244,0.496-0.04,1.095,0.456,1.337C20.268,309.776,20.418,309.808,20.567,309.808z
	 M15.341,324.164l0.031-0.093c0.176-0.524-0.106-1.091-0.629-1.267c-0.106-0.036-0.213-0.052-0.318-0.052
	c-0.414,0-0.801,0.26-0.944,0.671c-0.014,0.042-0.026,0.078-0.04,0.12c-0.166,0.52,0.115,1.078,0.634,1.252
	c0.106,0.035,0.213,0.052,0.318,0.052C14.811,324.846,15.2,324.583,15.341,324.164z M16.687,320.362l0.035-0.093
	c0.192-0.518-0.07-1.094-0.588-1.287c-0.115-0.043-0.233-0.062-0.35-0.062c-0.405,0-0.786,0.248-0.936,0.65
	c-0.009,0.024-0.019,0.049-0.028,0.074c-0.005,0.012-0.007,0.017-0.011,0.027c-0.187,0.516,0.074,1.086,0.589,1.277
	c0.115,0.043,0.233,0.064,0.349,0.064C16.154,321.012,16.536,320.763,16.687,320.362z M21.949,306.07
	c0.15,0.08,0.31,0.117,0.468,0.117c0.358,0,0.704-0.192,0.884-0.531l0.046-0.087c0.259-0.487,0.074-1.092-0.413-1.352
	c-0.149-0.08-0.31-0.118-0.469-0.118c-0.357,0-0.704,0.193-0.884,0.53c-0.001,0.002-0.001,0.003-0.002,0.005
	c-0.01,0.018-0.019,0.035-0.028,0.052l-0.017,0.032C21.276,305.205,21.462,305.811,21.949,306.07z M8.841,348.59
	c0.043,0.005,0.085,0.007,0.127,0.007c0.497,0,0.929-0.369,0.994-0.874l0.013-0.098c0.069-0.549-0.318-1.049-0.866-1.119
	c-0.043-0.005-0.086-0.008-0.128-0.008c-0.496,0-0.927,0.369-0.99,0.874c-0.004,0.033-0.009,0.066-0.013,0.099
	C7.907,348.021,8.293,348.521,8.841,348.59z M8.432,352.636c0.032,0.003,0.063,0.005,0.095,0.005c0.51,0,0.946-0.389,0.995-0.908
	l0.01-0.098c0.051-0.55-0.354-1.038-0.903-1.089c-0.031-0.003-0.062-0.004-0.094-0.004c-0.511,0-0.946,0.388-0.995,0.906
	c-0.002,0.027-0.005,0.054-0.008,0.082c0,0.007-0.001,0.017-0.002,0.025C7.482,352.102,7.885,352.585,8.432,352.636z M9.387,344.559
	c0.054,0.009,0.107,0.012,0.159,0.012c0.483,0,0.908-0.35,0.986-0.841l0.016-0.098c0.088-0.545-0.284-1.059-0.829-1.147
	c-0.054-0.007-0.107-0.012-0.16-0.012c-0.477,0-0.897,0.342-0.982,0.826c-0.004,0.02-0.007,0.041-0.01,0.061
	c-0.002,0.01-0.004,0.02-0.005,0.03c-0.002,0.012-0.004,0.024-0.006,0.037C8.477,343.967,8.848,344.472,9.387,344.559z
	 M14.122,328.009l0.027-0.094c0.159-0.529-0.142-1.087-0.671-1.245c-0.096-0.03-0.192-0.043-0.287-0.043
	c-0.43,0-0.827,0.28-0.957,0.714c-0.002,0.004-0.003,0.009-0.005,0.014c-0.009,0.031-0.016,0.054-0.024,0.085
	c-0.157,0.527,0.144,1.083,0.672,1.241c0.096,0.028,0.191,0.042,0.287,0.042C13.594,328.723,13.993,328.443,14.122,328.009z
	 M10.061,340.547c0.063,0.013,0.128,0.018,0.191,0.018c0.469,0,0.889-0.331,0.982-0.808l0.02-0.097
	c0.104-0.543-0.249-1.067-0.791-1.173c-0.065-0.012-0.129-0.019-0.192-0.019c-0.465,0-0.881,0.325-0.977,0.797l-0.014,0.069
	c-0.003,0.014-0.005,0.027-0.008,0.04v0.003C9.166,339.919,9.519,340.443,10.061,340.547z M150.69,239.695
	c-0.025-0.004-0.051-0.008-0.075-0.012c-0.013-0.002-0.025-0.002-0.037-0.005c-0.045-0.006-0.09-0.009-0.134-0.009
	c-0.487,0-0.916,0.357-0.989,0.854c-0.082,0.547,0.295,1.055,0.841,1.135l0.098,0.015c0.051,0.007,0.1,0.012,0.149,0.012
	c0.487,0,0.914-0.357,0.988-0.853C151.612,240.286,151.236,239.777,150.69,239.695z M174.51,245.729
	c-0.038-0.014-0.08-0.029-0.118-0.043c-0.108-0.037-0.22-0.056-0.329-0.056c-0.409,0-0.794,0.253-0.941,0.661
	c-0.188,0.519,0.082,1.092,0.601,1.28l0.093,0.033c0.112,0.04,0.227,0.06,0.34,0.06c0.409,0,0.794-0.253,0.94-0.66
	C175.283,246.491,175.02,245.922,174.51,245.729z M172.816,479.42c-0.109,0-0.222,0.018-0.331,0.057l-0.093,0.033
	c-0.521,0.181-0.797,0.751-0.615,1.272c0.144,0.413,0.53,0.671,0.943,0.671c0.109,0,0.221-0.017,0.329-0.056
	c0.031-0.011,0.063-0.022,0.095-0.033c0.521-0.183,0.796-0.754,0.614-1.276C173.614,479.678,173.229,479.42,172.816,479.42z
	 M170.618,244.393c-0.017-0.006-0.033-0.011-0.051-0.017c-0.02-0.006-0.038-0.012-0.057-0.019c-0.098-0.03-0.197-0.044-0.295-0.044
	c-0.422,0-0.814,0.27-0.952,0.693c-0.17,0.525,0.118,1.089,0.643,1.259l0.094,0.03c0.103,0.033,0.206,0.049,0.309,0.049
	c0.422,0,0.814-0.268,0.951-0.691C171.432,245.128,171.144,244.563,170.618,244.393z M176.631,478.019
	c-0.12,0-0.242,0.021-0.36,0.067l-0.092,0.035c-0.515,0.2-0.771,0.778-0.573,1.293c0.153,0.398,0.532,0.641,0.933,0.641
	c0.115,0,0.233-0.02,0.348-0.062c0.022-0.009,0.044-0.018,0.066-0.025c0.013-0.006,0.025-0.011,0.038-0.015
	c0.516-0.198,0.772-0.778,0.573-1.292C177.411,478.262,177.032,478.019,176.631,478.019z M168.954,480.697
	c-0.099,0-0.199,0.014-0.298,0.046l-0.095,0.029c-0.527,0.165-0.821,0.725-0.657,1.252c0.133,0.429,0.528,0.704,0.954,0.704
	c0.098,0,0.198-0.015,0.298-0.046c0.031-0.009,0.062-0.019,0.093-0.028l0.003-0.001c0.527-0.165,0.82-0.726,0.656-1.252
	C169.774,480.972,169.38,480.697,168.954,480.697z M185.838,250.477c-0.032-0.016-0.062-0.03-0.094-0.045
	c-0.139-0.066-0.284-0.098-0.429-0.098c-0.373,0-0.732,0.211-0.904,0.571c-0.238,0.499-0.027,1.095,0.473,1.332l0.089,0.043
	c0.139,0.066,0.286,0.098,0.431,0.098c0.373,0,0.73-0.21,0.902-0.568C186.544,251.311,186.335,250.715,185.838,250.477z
	 M184.116,474.839c-0.142,0-0.284,0.03-0.421,0.094l-0.089,0.041c-0.501,0.233-0.718,0.827-0.487,1.328
	c0.169,0.365,0.53,0.58,0.908,0.58c0.136,0,0.273-0.028,0.405-0.087c0.04-0.018,0.08-0.038,0.119-0.055
	c0.491-0.237,0.702-0.826,0.472-1.323C184.854,475.054,184.492,474.839,184.116,474.839z M166.7,243.191
	c-0.031-0.009-0.064-0.018-0.096-0.027c-0.093-0.027-0.187-0.04-0.278-0.04c-0.434,0-0.833,0.285-0.959,0.723
	c-0.152,0.531,0.153,1.085,0.685,1.238l0.095,0.027c0.092,0.027,0.186,0.04,0.277,0.04c0.434,0,0.834-0.286,0.96-0.723
	C167.536,243.899,167.231,243.345,166.7,243.191z M178.328,247.182c-0.031-0.012-0.062-0.024-0.094-0.037
	c-0.121-0.048-0.247-0.071-0.37-0.071c-0.397,0-0.772,0.238-0.929,0.63c-0.204,0.513,0.046,1.095,0.559,1.3l0.092,0.036
	c0.121,0.049,0.246,0.071,0.37,0.071c0.397,0,0.772-0.238,0.93-0.629C179.09,247.97,178.841,247.388,178.328,247.182z
	 M182.122,248.773c-0.025-0.01-0.044-0.02-0.069-0.03c-0.012-0.005-0.023-0.01-0.036-0.015c-0.131-0.058-0.267-0.085-0.401-0.085
	c-0.385,0-0.75,0.224-0.914,0.598c-0.222,0.506,0.009,1.096,0.514,1.319l0.091,0.04c0.131,0.056,0.267,0.083,0.4,0.083
	c0.386,0,0.753-0.223,0.917-0.598C182.842,249.582,182.619,248.999,182.122,248.773z M180.398,476.492
	c-0.13,0-0.262,0.025-0.389,0.079l-0.091,0.038c-0.509,0.216-0.746,0.802-0.53,1.311c0.161,0.381,0.531,0.61,0.921,0.61
	c0.126,0,0.254-0.024,0.378-0.075c0.011-0.005,0.022-0.01,0.033-0.014c0.016-0.007,0.031-0.014,0.046-0.02
	c0.011-0.005,0.017-0.007,0.027-0.012c0.507-0.216,0.743-0.801,0.528-1.308C181.16,476.721,180.789,476.492,180.398,476.492z
	 M161.116,482.862c-0.077,0-0.156,0.009-0.235,0.028l-0.095,0.023c-0.537,0.13-0.868,0.67-0.739,1.207
	c0.11,0.458,0.52,0.765,0.971,0.765c0.078,0,0.156-0.009,0.235-0.027l0.097-0.023c0.537-0.13,0.867-0.67,0.738-1.206
	C161.977,483.17,161.568,482.862,161.116,482.862z M146.628,239.153l-0.021-0.003c-0.012-0.001-0.027-0.003-0.039-0.004
	c-0.014-0.002-0.026-0.003-0.04-0.005c-0.039-0.005-0.077-0.007-0.115-0.007c-0.501,0-0.934,0.376-0.993,0.885
	c-0.063,0.549,0.329,1.045,0.878,1.107l0.098,0.012c0.039,0.005,0.078,0.007,0.117,0.007c0.5,0,0.933-0.375,0.992-0.885
	C147.569,239.714,147.175,239.216,146.628,239.153z M153.152,484.506c-0.057,0-0.114,0.004-0.171,0.015l-0.098,0.016
	c-0.544,0.093-0.909,0.611-0.816,1.154c0.084,0.488,0.506,0.832,0.984,0.832c0.056,0,0.113-0.005,0.17-0.015
	c0.017-0.003,0.033-0.005,0.05-0.008c0.008-0.002,0.023-0.005,0.032-0.006c0.005-0.001,0.011-0.003,0.017-0.003
	c0.544-0.094,0.909-0.612,0.815-1.156C154.053,484.848,153.63,484.504,153.152,484.506z M165.052,481.845
	c-0.088,0-0.178,0.012-0.267,0.036l-0.095,0.027c-0.532,0.147-0.846,0.697-0.699,1.23c0.123,0.443,0.524,0.734,0.963,0.734
	c0.088,0,0.178-0.012,0.266-0.036c0.013-0.004,0.025-0.007,0.036-0.01c0.023-0.006,0.043-0.01,0.066-0.017
	c0.528-0.149,0.839-0.697,0.692-1.228C165.893,482.135,165.491,481.845,165.052,481.845z M142.549,238.744
	c-0.01-0.001-0.021-0.002-0.03-0.003c-0.017-0.001-0.036-0.003-0.053-0.004c-0.005-0.001-0.011-0.001-0.017-0.002
	c-0.028-0.003-0.056-0.003-0.083-0.003c-0.516,0-0.953,0.396-0.997,0.918c-0.045,0.55,0.363,1.033,0.914,1.079l0.099,0.008
	c0.028,0.002,0.056,0.002,0.084,0.002c0.515,0,0.952-0.394,0.996-0.917C143.508,239.273,143.1,238.79,142.549,238.744z
	 M145.099,485.621c-0.035,0-0.071,0.002-0.107,0.005l-0.098,0.01c-0.549,0.058-0.947,0.55-0.889,1.099
	c0.053,0.514,0.487,0.896,0.992,0.896c0.035,0,0.07-0.002,0.105-0.006c0.004,0,0.007-0.001,0.011-0.001
	c0.036-0.004,0.065-0.007,0.103-0.011c0.542-0.064,0.934-0.553,0.877-1.097C146.037,486.003,145.603,485.621,145.099,485.621z
	 M149.135,485.129c-0.046,0-0.093,0.003-0.139,0.009l-0.098,0.014c-0.547,0.075-0.93,0.581-0.854,1.127
	c0.069,0.501,0.498,0.864,0.989,0.864c0.042,0,0.084-0.003,0.126-0.008c0.024-0.004,0.041-0.005,0.065-0.009
	c0.016-0.002,0.03-0.004,0.046-0.006c0.547-0.076,0.929-0.581,0.854-1.129C150.054,485.491,149.626,485.129,149.135,485.129z
	 M154.744,240.373c-0.04-0.007-0.083-0.016-0.123-0.022c-0.056-0.01-0.112-0.015-0.167-0.015c-0.473,0-0.893,0.338-0.981,0.82
	c-0.1,0.544,0.26,1.065,0.803,1.165l0.097,0.017c0.061,0.012,0.122,0.017,0.183,0.017c0.473,0,0.894-0.337,0.982-0.819
	C155.636,240.995,155.282,240.477,154.744,240.373z M162.749,242.121l-0.02-0.005c-0.027-0.007-0.056-0.014-0.084-0.02
	c-0.082-0.022-0.165-0.031-0.246-0.031c-0.446,0-0.853,0.302-0.968,0.755c-0.135,0.536,0.189,1.079,0.725,1.215l0.096,0.024
	c0.082,0.021,0.165,0.03,0.246,0.03c0.447,0,0.854-0.301,0.969-0.754C163.601,242.801,163.28,242.26,162.749,242.121z
	 M141.046,485.98c-0.024,0-0.049,0.001-0.073,0.003l-0.098,0.007c-0.551,0.04-0.965,0.518-0.926,1.069
	c0.038,0.527,0.476,0.929,0.995,0.929c0.021,0,0.043-0.001,0.064-0.002c0.025-0.002,0.047-0.004,0.071-0.006
	c0.01,0,0.02-0.001,0.03-0.002h0.008c0.551-0.041,0.964-0.521,0.924-1.072C142.004,486.382,141.566,485.98,141.046,485.98z
	 M158.766,241.181c-0.013-0.002-0.024-0.005-0.036-0.007c-0.011-0.003-0.023-0.005-0.033-0.007c-0.02-0.004-0.037-0.008-0.058-0.013
	c-0.066-0.014-0.133-0.02-0.198-0.02c-0.46,0-0.873,0.32-0.975,0.788c-0.117,0.538,0.225,1.072,0.764,1.19l0.097,0.02
	c0.071,0.015,0.143,0.023,0.214,0.023c0.46,0,0.874-0.319,0.977-0.787C159.633,241.834,159.297,241.306,158.766,241.181z
	 M157.148,483.749c-0.067,0-0.135,0.007-0.203,0.022l-0.096,0.019c-0.541,0.111-0.889,0.641-0.778,1.182
	c0.097,0.473,0.514,0.799,0.978,0.799c0.063,0,0.128-0.007,0.193-0.019c0.008-0.001,0.02-0.004,0.028-0.006
	c0.014-0.003,0.027-0.005,0.041-0.007c0.016-0.004,0.037-0.008,0.053-0.012c0.533-0.117,0.873-0.642,0.763-1.178
	C158.029,484.075,157.613,483.749,157.148,483.749z M187.776,473.066c-0.152,0-0.307,0.035-0.451,0.109l-0.088,0.044
	c-0.493,0.249-0.691,0.851-0.443,1.344c0.176,0.349,0.528,0.55,0.893,0.55c0.151,0,0.306-0.035,0.45-0.108
	c0.013-0.007,0.026-0.013,0.039-0.02c0.021-0.011,0.042-0.022,0.062-0.032c0.483-0.253,0.676-0.849,0.429-1.338
	C188.492,473.267,188.141,473.066,187.776,473.066z M217.561,452.02c-0.248,0-0.496,0.092-0.69,0.278l-0.07,0.067
	c-0.4,0.382-0.415,1.015-0.034,1.414c0.196,0.207,0.46,0.31,0.724,0.31c0.248,0,0.496-0.092,0.689-0.276
	c0.024-0.023,0.049-0.046,0.072-0.069c0.399-0.381,0.414-1.015,0.033-1.414C218.088,452.123,217.825,452.02,217.561,452.02z
	 M214.574,454.781c-0.237,0-0.475,0.083-0.666,0.253l-0.074,0.066c-0.411,0.368-0.447,1.001-0.079,1.413
	c0.197,0.221,0.471,0.333,0.746,0.333c0.236,0,0.474-0.083,0.665-0.253c0.028-0.027,0.057-0.051,0.086-0.077
	c0.402-0.368,0.434-0.992,0.069-1.4C215.123,454.894,214.849,454.781,214.574,454.781z M216.305,271.047
	c-0.006-0.006-0.012-0.012-0.019-0.017c-0.017-0.016-0.033-0.03-0.051-0.047l-0.005-0.004c-0.191-0.175-0.433-0.261-0.674-0.261
	c-0.271,0-0.542,0.109-0.739,0.325c-0.372,0.408-0.344,1.04,0.064,1.413l0.073,0.067c0.191,0.174,0.432,0.262,0.674,0.262
	c0.271,0,0.542-0.109,0.739-0.325C216.741,272.052,216.712,271.42,216.305,271.047z M211.498,457.442
	c-0.227,0-0.454,0.076-0.642,0.233l-0.075,0.063c-0.424,0.355-0.48,0.986-0.126,1.41c0.198,0.236,0.481,0.358,0.767,0.358
	c0.222,0,0.444-0.073,0.63-0.223c0.035-0.03,0.066-0.056,0.102-0.087c0.411-0.356,0.462-0.978,0.111-1.395
	C212.067,457.563,211.784,457.442,211.498,457.442z M213.235,268.329c-0.011-0.009-0.02-0.019-0.031-0.027
	c-0.003-0.002-0.004-0.003-0.007-0.006c-0.013-0.01-0.025-0.021-0.037-0.032c-0.189-0.161-0.42-0.24-0.65-0.24
	c-0.281,0-0.562,0.118-0.759,0.349c-0.359,0.42-0.311,1.052,0.108,1.411l0.075,0.063c0.188,0.163,0.42,0.24,0.649,0.24
	c0.282,0,0.562-0.118,0.761-0.35C213.704,269.32,213.655,268.689,213.235,268.329z M224.96,279.78
	c-0.008-0.009-0.018-0.02-0.025-0.029c-0.012-0.013-0.023-0.025-0.034-0.038c-0.003-0.003-0.006-0.005-0.008-0.009
	c-0.198-0.218-0.47-0.329-0.743-0.329c-0.238,0-0.477,0.085-0.669,0.257c-0.41,0.369-0.443,1.002-0.073,1.412l0.065,0.072
	c0.197,0.219,0.47,0.332,0.744,0.332c0.238,0,0.478-0.085,0.668-0.257C225.295,280.822,225.329,280.19,224.96,279.78z
	 M219.295,273.874c-0.031-0.03-0.062-0.061-0.093-0.091c-0.193-0.182-0.44-0.273-0.687-0.273c-0.26,0-0.52,0.101-0.716,0.302
	c-0.386,0.396-0.378,1.028,0.017,1.414l0.07,0.069c0.194,0.19,0.447,0.284,0.699,0.284c0.26,0,0.519-0.101,0.716-0.302
	C219.684,274.886,219.68,274.261,219.295,273.874z M223.258,446.216c-0.269,0-0.539,0.109-0.736,0.323l-0.066,0.072
	c-0.374,0.406-0.348,1.039,0.059,1.413c0.191,0.176,0.435,0.265,0.677,0.265c0.266,0,0.531-0.106,0.728-0.315
	c0.029-0.032,0.058-0.064,0.088-0.096c0.361-0.406,0.331-1.029-0.071-1.399C223.744,446.303,223.501,446.216,223.258,446.216z
	 M210.085,265.718c-0.031-0.025-0.061-0.049-0.092-0.074c-0.182-0.143-0.4-0.214-0.616-0.214c-0.293,0-0.584,0.129-0.781,0.375
	c-0.345,0.432-0.275,1.06,0.155,1.406l0.077,0.062c0.185,0.148,0.405,0.22,0.625,0.22c0.293,0,0.583-0.128,0.781-0.375
	C210.578,266.69,210.511,266.065,210.085,265.718z M220.457,449.165c-0.259,0-0.518,0.099-0.714,0.299l-0.068,0.07
	c-0.388,0.394-0.382,1.028,0.012,1.415c0.195,0.191,0.448,0.287,0.701,0.287c0.254,0,0.508-0.096,0.702-0.288
	c0.014-0.014,0.025-0.025,0.039-0.04c0.014-0.014,0.027-0.028,0.041-0.042l0.001-0.001c0.387-0.394,0.382-1.026-0.013-1.413
	C220.964,449.261,220.71,449.165,220.457,449.165z M222.178,276.783c-0.009-0.009-0.02-0.022-0.028-0.03l-0.035-0.035
	c-0.005-0.006-0.016-0.018-0.021-0.023c-0.195-0.198-0.454-0.299-0.713-0.299c-0.249,0-0.498,0.092-0.692,0.279
	c-0.398,0.383-0.411,1.016-0.028,1.414l0.068,0.072c0.196,0.204,0.459,0.307,0.722,0.307c0.249,0,0.498-0.093,0.692-0.278
	C222.537,277.808,222.553,277.181,222.178,276.783z M203.431,260.737c-0.173-0.121-0.37-0.177-0.566-0.177
	c-0.314,0-0.625,0.148-0.819,0.427c-0.316,0.453-0.206,1.077,0.247,1.394l0.08,0.057c0.175,0.121,0.374,0.179,0.572,0.179
	c0.315,0,0.626-0.148,0.82-0.427c0.315-0.45,0.208-1.068-0.237-1.387C203.495,260.781,203.463,260.759,203.431,260.737z
	 M196.65,256.321c-0.028-0.017-0.057-0.035-0.085-0.051c-0.162-0.098-0.341-0.145-0.516-0.145c-0.339,0-0.669,0.172-0.857,0.482
	c-0.285,0.473-0.135,1.088,0.339,1.373l0.084,0.051c0.162,0.099,0.341,0.145,0.517,0.145c0.339,0,0.669-0.171,0.857-0.482
	C197.274,257.222,197.123,256.607,196.65,256.321z M198.377,467.041c-0.184,0-0.369,0.049-0.535,0.155l-0.083,0.052
	c-0.466,0.296-0.604,0.914-0.309,1.38c0.19,0.301,0.515,0.465,0.846,0.465c0.179,0,0.359-0.048,0.522-0.148
	c0.026-0.017,0.055-0.034,0.081-0.051c0.005-0.004,0.01-0.007,0.016-0.011c0.466-0.295,0.604-0.912,0.309-1.379
	C199.032,467.204,198.708,467.041,198.377,467.041z M194.909,469.164c-0.173,0-0.348,0.045-0.507,0.139l-0.085,0.051
	c-0.475,0.28-0.634,0.893-0.353,1.369c0.186,0.317,0.519,0.492,0.861,0.492c0.173,0,0.348-0.044,0.508-0.138
	c0.004-0.003,0.008-0.005,0.012-0.007c0.026-0.017,0.049-0.029,0.076-0.045c0.474-0.281,0.631-0.893,0.351-1.368
	C195.585,469.341,195.252,469.164,194.909,469.164z M193.126,254.263c-0.02-0.012-0.037-0.02-0.057-0.032
	c-0.014-0.008-0.027-0.016-0.041-0.022l-0.007-0.004c-0.154-0.087-0.322-0.128-0.487-0.128c-0.35,0-0.687,0.184-0.871,0.51
	c-0.27,0.481-0.099,1.092,0.382,1.363l0.086,0.049c0.155,0.087,0.323,0.128,0.489,0.128c0.35,0,0.689-0.184,0.873-0.511
	C193.76,255.14,193.595,254.538,193.126,254.263z M208.336,460.001c-0.215,0-0.432,0.069-0.615,0.211l-0.077,0.061
	c-0.435,0.341-0.512,0.969-0.172,1.405c0.197,0.252,0.491,0.383,0.788,0.383c0.214,0,0.429-0.068,0.61-0.209
	c0.013-0.009,0.023-0.017,0.036-0.027c0.009-0.007,0.018-0.014,0.026-0.022c0.013-0.009,0.02-0.015,0.033-0.025
	c0.425-0.342,0.497-0.963,0.16-1.394C208.928,460.133,208.634,460.001,208.336,460.001z M191.374,471.174
	c-0.162,0-0.327,0.039-0.479,0.123l-0.086,0.047c-0.484,0.265-0.663,0.872-0.398,1.357c0.182,0.332,0.524,0.521,0.878,0.521
	c0.162,0,0.327-0.039,0.48-0.122c0.01-0.006,0.021-0.013,0.032-0.018c0.02-0.011,0.049-0.027,0.069-0.038
	c0.474-0.268,0.645-0.869,0.383-1.348C192.071,471.363,191.728,471.174,191.374,471.174z M206.816,263.185
	c-0.016-0.012-0.026-0.019-0.042-0.031c-0.005-0.004-0.01-0.008-0.016-0.012c-0.18-0.135-0.39-0.199-0.598-0.199
	c-0.305,0-0.605,0.138-0.802,0.4c-0.331,0.443-0.24,1.07,0.202,1.4l0.078,0.059c0.18,0.135,0.391,0.2,0.6,0.2
	c0.304,0,0.604-0.139,0.801-0.401c0.331-0.441,0.241-1.068-0.201-1.4C206.831,263.196,206.824,263.191,206.816,263.185z
	 M205.094,462.455c-0.204,0-0.411,0.062-0.589,0.192l-0.079,0.059c-0.446,0.325-0.544,0.951-0.218,1.397
	c0.195,0.268,0.5,0.411,0.809,0.411c0.201,0,0.404-0.061,0.581-0.188c0.006-0.005,0.017-0.012,0.022-0.017
	c0.023-0.015,0.044-0.032,0.066-0.048c0.446-0.325,0.544-0.95,0.218-1.397C205.707,462.598,205.403,462.455,205.094,462.455z
	 M189.513,252.31c-0.035-0.019-0.075-0.039-0.11-0.058c-0.144-0.072-0.297-0.106-0.447-0.106c-0.361,0-0.711,0.197-0.889,0.54
	c-0.254,0.49-0.062,1.094,0.428,1.347l0.087,0.045c0.147,0.076,0.305,0.113,0.46,0.113c0.361,0,0.711-0.197,0.889-0.54
	C190.183,253.165,189.997,252.566,189.513,252.31z M201.773,464.802c-0.193,0-0.39,0.056-0.562,0.174l-0.081,0.055
	c-0.456,0.312-0.574,0.934-0.264,1.391c0.193,0.283,0.508,0.436,0.827,0.436c0.194,0,0.39-0.057,0.562-0.174l0.035-0.023
	c0.023-0.016,0.041-0.029,0.064-0.044c0.442-0.315,0.553-0.928,0.246-1.379C202.406,464.955,202.092,464.802,201.773,464.802z
	 M200.072,258.471c-0.005-0.004-0.011-0.007-0.016-0.011c-0.01-0.006-0.021-0.013-0.03-0.02c-0.166-0.105-0.35-0.154-0.533-0.154
	c-0.327,0-0.648,0.16-0.839,0.454c-0.301,0.463-0.17,1.083,0.293,1.384l0.082,0.055c0.169,0.109,0.357,0.162,0.545,0.162
	c0.327,0,0.647-0.16,0.839-0.455c0.299-0.458,0.174-1.07-0.279-1.375C200.111,258.496,200.095,258.486,200.072,258.471z
	 M252.337,393.183c-0.083-0.022-0.166-0.032-0.248-0.032c-0.446,0-0.852,0.3-0.969,0.752l-0.024,0.096
	c-0.137,0.535,0.186,1.08,0.721,1.217c0.083,0.022,0.167,0.032,0.249,0.032c0.445,0,0.851-0.3,0.968-0.752
	c0.005-0.019,0.01-0.037,0.015-0.054c0.005-0.02,0.009-0.036,0.014-0.056C253.19,393.855,252.868,393.318,252.337,393.183z
	 M111.788,241.95l0.097-0.015c0.545-0.09,0.914-0.605,0.825-1.149c-0.045-0.273-0.202-0.493-0.41-0.642
	c0.024-0.171,0.021-0.346-0.049-0.516l-0.041-0.094c-0.211-0.51-0.797-0.752-1.306-0.541c-0.512,0.211-0.752,0.797-0.541,1.306
	l0.038,0.094c0.058,0.138,0.148,0.247,0.252,0.342c-0.029,0.125-0.036,0.258-0.014,0.393c0.081,0.49,0.504,0.837,0.984,0.837
	C111.678,241.964,111.732,241.96,111.788,241.95z M248.826,404.863c-0.113-0.041-0.228-0.061-0.343-0.061
	c-0.408,0-0.791,0.252-0.939,0.657l-0.033,0.093c-0.189,0.518,0.077,1.092,0.596,1.282c0.113,0.042,0.23,0.061,0.344,0.061
	c0.408,0,0.791-0.252,0.938-0.657c0.007-0.017,0.014-0.036,0.02-0.054c0.007-0.019,0.012-0.033,0.019-0.053
	C249.608,405.616,249.341,405.05,248.826,404.863z M250.125,401.008c-0.103-0.034-0.208-0.049-0.311-0.049
	c-0.421,0-0.811,0.267-0.95,0.688l-0.03,0.094c-0.173,0.524,0.113,1.09,0.637,1.262c0.104,0.034,0.209,0.051,0.312,0.051
	c0.419,0,0.809-0.266,0.948-0.684c0.002-0.008,0.003-0.011,0.006-0.017l0.006-0.02c0.008-0.023,0.018-0.054,0.025-0.077
	C250.931,401.734,250.646,401.179,250.125,401.008z M247.399,408.67c-0.122-0.049-0.249-0.072-0.373-0.072
	c-0.395,0-0.77,0.237-0.927,0.627l-0.036,0.092c-0.207,0.511,0.041,1.094,0.553,1.302c0.123,0.05,0.249,0.074,0.374,0.074
	c0.392,0,0.763-0.233,0.923-0.615c0.007-0.019,0.014-0.035,0.021-0.054c0.001-0.004,0.003-0.007,0.004-0.009
	c0.007-0.019,0.015-0.036,0.022-0.055C248.156,409.45,247.907,408.875,247.399,408.67z M253.249,389.218
	c-0.072-0.016-0.145-0.024-0.217-0.024c-0.459,0-0.873,0.318-0.975,0.784l-0.022,0.097c-0.119,0.539,0.221,1.073,0.76,1.192
	c0.073,0.017,0.146,0.025,0.218,0.025c0.454,0,0.863-0.312,0.971-0.77c0.009-0.04,0.019-0.085,0.028-0.125
	C254.123,389.863,253.784,389.336,253.249,389.218z M103.878,243.525l0.096-0.022c0.537-0.126,0.872-0.664,0.747-1.201
	c-0.107-0.462-0.519-0.773-0.972-0.773c-0.075,0-0.152,0.009-0.229,0.026c-0.032,0.008-0.064,0.015-0.097,0.023
	c-0.538,0.126-0.872,0.664-0.746,1.202c0.107,0.461,0.518,0.772,0.972,0.772C103.723,243.552,103.8,243.544,103.878,243.525z
	 M245.853,412.432c-0.132-0.058-0.27-0.086-0.404-0.086c-0.384,0-0.751,0.223-0.917,0.596l-0.04,0.09
	c-0.223,0.506,0.006,1.096,0.511,1.319c0.132,0.059,0.268,0.086,0.404,0.086c0.384,0,0.749-0.221,0.914-0.595
	c0.01-0.023,0.02-0.044,0.029-0.067c0.005-0.01,0.01-0.022,0.015-0.033C246.583,413.238,246.355,412.654,245.853,412.432z
	 M244.175,416.137c-0.14-0.067-0.287-0.098-0.432-0.098c-0.372,0-0.729,0.209-0.901,0.566l-0.042,0.088
	c-0.24,0.497-0.031,1.096,0.466,1.336c0.141,0.068,0.288,0.099,0.435,0.099c0.371,0,0.728-0.208,0.9-0.566
	c0.003-0.007,0.006-0.012,0.01-0.019c0.008-0.018,0.016-0.033,0.025-0.051c0.003-0.007,0.006-0.014,0.01-0.019
	C244.883,416.975,244.673,416.378,244.175,416.137z M242.381,419.787c-0.147-0.078-0.306-0.114-0.462-0.114
	c-0.36,0-0.709,0.195-0.888,0.537l-0.045,0.087c-0.256,0.489-0.067,1.094,0.422,1.35c0.148,0.077,0.307,0.114,0.463,0.114
	c0.355,0,0.699-0.191,0.88-0.524c0.011-0.022,0.019-0.036,0.029-0.057h0.001c0.009-0.017,0.02-0.039,0.029-0.056
	C243.057,420.638,242.868,420.041,242.381,419.787z M107.821,242.673l0.097-0.019c0.542-0.108,0.894-0.634,0.786-1.176
	c-0.095-0.476-0.512-0.806-0.979-0.806c-0.06,0-0.121,0.006-0.182,0.017c-0.017,0.003-0.035,0.007-0.051,0.01
	c-0.018,0.003-0.034,0.007-0.052,0.01c-0.004,0.001-0.01,0.002-0.014,0.003c-0.539,0.11-0.889,0.636-0.781,1.175
	c0.095,0.475,0.512,0.805,0.978,0.805C107.689,242.692,107.754,242.686,107.821,242.673z M108.838,484.135l-0.096-0.019
	c-0.064-0.012-0.126-0.017-0.189-0.017c-0.471,0-0.89,0.334-0.981,0.812c-0.103,0.541,0.25,1.062,0.789,1.169
	c0.036,0.007,0.071,0.014,0.107,0.02c0.062,0.01,0.124,0.017,0.185,0.017c0.471,0,0.89-0.335,0.98-0.813
	C109.736,484.762,109.381,484.239,108.838,484.135z M104.889,483.316l-0.096-0.022c-0.074-0.017-0.148-0.024-0.221-0.024
	c-0.457,0-0.87,0.315-0.975,0.78c-0.121,0.537,0.214,1.07,0.749,1.194c0.021,0.004,0.044,0.009,0.064,0.014
	c0.013,0.002,0.026,0.005,0.039,0.009c0.074,0.017,0.148,0.024,0.221,0.024c0.457,0,0.87-0.315,0.975-0.78
	C105.767,483.972,105.428,483.437,104.889,483.316z M97.083,481.289l-0.095-0.027c-0.095-0.028-0.191-0.042-0.284-0.042
	c-0.432,0-0.83,0.282-0.958,0.717c-0.157,0.529,0.145,1.086,0.675,1.242c0.008,0.003,0.017,0.005,0.025,0.008
	c0.026,0.008,0.059,0.017,0.085,0.025c0.09,0.024,0.181,0.037,0.27,0.037c0.432,0,0.829-0.282,0.958-0.716
	C97.914,482.002,97.612,481.446,97.083,481.289z M96.089,245.619l0.095-0.028c0.528-0.161,0.826-0.72,0.666-1.248
	c-0.132-0.432-0.527-0.709-0.956-0.709c-0.093,0-0.187,0.013-0.279,0.04c-0.019,0.005-0.028,0.008-0.047,0.014
	c-0.021,0.006-0.041,0.013-0.062,0.019c-0.527,0.163-0.825,0.721-0.664,1.25c0.131,0.43,0.526,0.708,0.954,0.708
	C95.893,245.663,95.991,245.65,96.089,245.619z M255.947,365.002h-0.021c-0.542,0-0.987,0.433-0.998,0.979l-0.002,0.098
	c-0.013,0.552,0.426,1.009,0.977,1.022h0.022c0.538,0,0.979-0.426,0.999-0.965c0-0.025,0.001-0.051,0.002-0.075v-0.038
	C256.938,365.471,256.5,365.014,255.947,365.002z M255.578,373.13c-0.029-0.003-0.058-0.004-0.087-0.004
	c-0.514,0-0.951,0.393-0.997,0.914l-0.009,0.098c-0.047,0.55,0.359,1.035,0.91,1.083c0.029,0.002,0.058,0.004,0.088,0.004
	c0.508,0,0.941-0.386,0.993-0.898c0.004-0.042,0.008-0.088,0.012-0.13C256.528,373.652,256.124,373.176,255.578,373.13z
	 M255.827,369.069c-0.018-0.001-0.036-0.002-0.055-0.002c-0.527,0-0.968,0.413-0.996,0.947l-0.006,0.098
	c-0.029,0.552,0.393,1.024,0.945,1.053c0.019,0.001,0.037,0.002,0.056,0.002c0.526,0,0.968-0.413,0.996-0.945
	c0.001-0.017,0.002-0.034,0.003-0.051c0.001-0.022,0.002-0.033,0.003-0.054C256.801,369.567,256.378,369.098,255.827,369.069z
	 M100.969,482.367l-0.096-0.025c-0.084-0.022-0.169-0.032-0.252-0.032c-0.444,0-0.851,0.298-0.968,0.748
	c-0.139,0.532,0.179,1.076,0.71,1.218c0.012,0.003,0.023,0.006,0.034,0.009c0.023,0.006,0.046,0.012,0.068,0.017
	c0.085,0.023,0.169,0.032,0.252,0.032c0.444,0,0.851-0.297,0.968-0.747C101.824,483.051,101.503,482.506,100.969,482.367z
	 M255.191,377.177c-0.04-0.005-0.08-0.007-0.12-0.007c-0.499,0-0.93,0.373-0.99,0.881l-0.012,0.097
	c-0.066,0.549,0.326,1.047,0.874,1.113c0.041,0.004,0.081,0.008,0.121,0.008c0.499,0,0.93-0.373,0.991-0.881
	c0.002-0.023,0.005-0.047,0.008-0.07c0.002-0.013,0.004-0.027,0.005-0.04C256.127,377.734,255.736,377.242,255.191,377.177z
	 M254.029,385.227c-0.062-0.011-0.124-0.017-0.184-0.017c-0.473,0-0.892,0.336-0.982,0.817l-0.019,0.096
	c-0.102,0.543,0.256,1.065,0.799,1.167c0.062,0.012,0.124,0.018,0.186,0.018c0.472,0,0.892-0.336,0.981-0.816
	c0.001-0.007,0.002-0.013,0.004-0.018c0.003-0.02,0.006-0.035,0.01-0.056c0.002-0.008,0.003-0.017,0.005-0.025
	C254.93,385.851,254.572,385.329,254.029,385.227z M99.965,244.508l0.096-0.025c0.533-0.143,0.85-0.691,0.707-1.225
	c-0.12-0.447-0.523-0.741-0.965-0.741c-0.084,0-0.17,0.011-0.255,0.033c-0.039,0.01-0.076,0.021-0.115,0.03
	c-0.525,0.148-0.835,0.691-0.693,1.22c0.12,0.447,0.525,0.742,0.968,0.742C99.792,244.542,99.879,244.531,99.965,244.508z
	 M254.677,381.212c-0.051-0.008-0.102-0.012-0.152-0.012c-0.485,0-0.911,0.354-0.987,0.85l-0.015,0.098
	c-0.084,0.546,0.291,1.055,0.837,1.139c0.051,0.008,0.103,0.012,0.152,0.012c0.485,0,0.911-0.354,0.987-0.848
	c0.002-0.012,0.004-0.022,0.005-0.033c0.003-0.017,0.006-0.038,0.009-0.055c0-0.004,0.001-0.007,0.002-0.012
	C255.598,381.805,255.224,381.296,254.677,381.212z M251.297,397.114c-0.094-0.028-0.187-0.04-0.28-0.04
	c-0.434,0-0.833,0.283-0.961,0.72l-0.027,0.095c-0.155,0.53,0.149,1.085,0.68,1.24c0.094,0.028,0.188,0.041,0.281,0.041
	c0.432,0,0.831-0.284,0.959-0.72c0.008-0.027,0.015-0.053,0.022-0.08c0.003-0.008,0.006-0.02,0.009-0.027
	C252.127,397.816,251.824,397.268,251.297,397.114z M134.361,238.325c-0.033-0.001-0.066-0.001-0.1-0.002h-0.019
	c-0.544,0-0.989,0.437-1,0.982c-0.01,0.552,0.43,1.008,0.982,1.018l0.099,0.001c0.006,0.001,0.013,0.001,0.018,0.001
	c0.544,0,0.989-0.436,1-0.981C135.353,238.791,134.913,238.335,134.361,238.325z M138.472,238.468
	c-0.025-0.001-0.039-0.002-0.064-0.003c-0.017-0.001-0.033-0.003-0.051-0.003c-0.018-0.001-0.035-0.001-0.053-0.001
	c-0.528,0-0.969,0.413-0.996,0.947c-0.027,0.552,0.396,1.023,0.948,1.051l0.099,0.006c0.018,0.001,0.034,0.001,0.052,0.001
	c0.529,0,0.971-0.415,0.998-0.949C139.433,238.97,139.016,238.505,138.472,238.468z M136.984,486.208c-0.013,0-0.025,0-0.038,0.001
	l-0.099,0.004c-0.552,0.022-0.981,0.486-0.96,1.038c0.021,0.539,0.464,0.961,0.998,0.961h0.026c0.038-0.002,0.075-0.003,0.112-0.005
	h0.001c0.552-0.02,0.981-0.485,0.959-1.037C137.964,486.631,137.519,486.208,136.984,486.208z M228.565,440.051
	c-0.292,0-0.582,0.128-0.779,0.373l-0.062,0.077c-0.347,0.43-0.279,1.06,0.15,1.406c0.185,0.15,0.406,0.221,0.627,0.221
	c0.291,0,0.58-0.127,0.777-0.371l0.038-0.046l0.026-0.033c0.346-0.43,0.278-1.059-0.151-1.406
	C229.007,440.125,228.785,440.051,228.565,440.051z M225.962,443.177c-0.281,0-0.56,0.117-0.759,0.347l-0.063,0.076
	c-0.36,0.418-0.314,1.05,0.104,1.41c0.188,0.163,0.421,0.244,0.652,0.244c0.28,0,0.559-0.118,0.758-0.348
	c0.009-0.009,0.018-0.019,0.025-0.03c0.016-0.017,0.03-0.034,0.046-0.052c0.353-0.418,0.305-1.045-0.111-1.402
	C226.425,443.257,226.194,443.177,225.962,443.177z M132.921,486.304h-0.01l-0.098,0.001c-0.553,0.004-0.998,0.455-0.994,1.007
	c0.004,0.55,0.451,0.993,1,0.993c0.001,0,0.003,0,0.003,0h0.076c0.013,0,0.031-0.001,0.044-0.001
	c0.545-0.013,0.98-0.461,0.976-1.009C133.915,486.746,133.469,486.304,132.921,486.304z M124.842,486.105l-0.098-0.006
	c-0.02-0.001-0.039-0.001-0.059-0.001c-0.525,0-0.967,0.41-0.997,0.943c-0.032,0.546,0.381,1.015,0.925,1.055
	c0.042,0.002,0.089,0.005,0.13,0.007c0.015,0,0.028,0.001,0.042,0.001c0.526,0,0.969-0.413,0.999-0.945
	C125.815,486.607,125.394,486.135,124.842,486.105z M128.875,486.269l-0.099-0.002h-0.025c-0.54,0-0.985,0.431-1,0.976
	c-0.014,0.552,0.423,1.01,0.975,1.025c0.033,0.001,0.067,0.002,0.101,0.002c0.009,0.001,0.018,0.001,0.026,0.001
	c0.54,0,0.984-0.43,0.997-0.973C129.863,486.743,129.427,486.284,128.875,486.269z M131.97,240.303c0.553,0,1-0.448,1-1.001
	c0-0.552-0.447-0.999-0.999-0.999c-0.001,0-0.001,0-0.001,0h-0.107c-0.549,0.004-0.992,0.45-0.992,1c0.001,0.552,0.449,1,1.001,1
	H131.97z M240.467,423.375c-0.156-0.088-0.324-0.13-0.491-0.13c-0.349,0-0.687,0.183-0.871,0.509l-0.048,0.085
	c-0.272,0.481-0.103,1.092,0.377,1.363c0.156,0.088,0.325,0.13,0.492,0.13c0.348,0,0.686-0.182,0.869-0.505
	c0.004-0.007,0.005-0.007,0.009-0.014c0.014-0.025,0.028-0.05,0.042-0.075C241.117,424.257,240.947,423.647,240.467,423.375z
	 M112.812,484.824l-0.097-0.015c-0.052-0.009-0.105-0.013-0.156-0.013c-0.483,0-0.909,0.353-0.986,0.846
	c-0.086,0.543,0.283,1.052,0.824,1.142c0.04,0.005,0.078,0.012,0.118,0.018c0.049,0.007,0.098,0.01,0.146,0.01
	c0.483,0,0.908-0.352,0.986-0.845C113.731,485.421,113.358,484.91,112.812,484.824z M236.292,430.355
	c-0.169-0.11-0.359-0.164-0.548-0.164c-0.326,0-0.645,0.159-0.838,0.452l-0.054,0.082c-0.304,0.462-0.175,1.082,0.287,1.385
	c0.169,0.111,0.359,0.164,0.548,0.164c0.325,0,0.644-0.159,0.837-0.451c0.01-0.017,0.02-0.032,0.031-0.048
	c0.011-0.017,0.022-0.035,0.033-0.052C236.88,431.263,236.749,430.655,236.292,430.355z M116.809,485.382l-0.098-0.012
	c-0.042-0.005-0.083-0.007-0.124-0.007c-0.497,0-0.929,0.371-0.991,0.877c-0.067,0.545,0.316,1.041,0.858,1.114
	c0.017,0.002,0.035,0.004,0.051,0.006c0.019,0.002,0.04,0.005,0.06,0.007c0.042,0.006,0.083,0.008,0.124,0.008
	c0.498,0,0.928-0.37,0.99-0.877C117.746,485.95,117.357,485.45,116.809,485.382z M123.806,240.569l0.098-0.007
	c0.552-0.035,0.97-0.512,0.934-1.063c-0.034-0.529-0.474-0.936-0.997-0.936c-0.017,0-0.034,0.001-0.052,0.002
	c-0.037,0.002-0.072,0.005-0.109,0.007c0,0-0.003,0-0.004,0c-0.552,0.037-0.968,0.515-0.932,1.066
	c0.035,0.528,0.474,0.932,0.995,0.932C123.76,240.571,123.783,240.571,123.806,240.569z M127.836,240.371l0.098-0.004
	c0.553-0.017,0.985-0.48,0.968-1.031c-0.018-0.541-0.462-0.968-0.999-0.968h-0.016c-0.033,0.001-0.06,0.002-0.094,0.003
	c-0.008,0-0.016,0.001-0.024,0.001c-0.552,0.02-0.984,0.482-0.967,1.034c0.019,0.54,0.461,0.964,0.997,0.964H127.836z
	 M115.778,241.359l0.098-0.013c0.548-0.072,0.934-0.574,0.862-1.122c-0.066-0.504-0.496-0.87-0.99-0.87
	c-0.043,0-0.087,0.003-0.131,0.009c-0.027,0.003-0.054,0.007-0.08,0.01c-0.008,0.002-0.017,0.003-0.024,0.004
	c-0.545,0.074-0.928,0.573-0.856,1.119c0.066,0.504,0.497,0.871,0.992,0.871C115.691,241.367,115.734,241.364,115.778,241.359z
	 M238.438,426.901c-0.162-0.1-0.343-0.147-0.52-0.147c-0.337,0-0.667,0.169-0.855,0.479l-0.052,0.083
	c-0.288,0.472-0.138,1.087,0.333,1.375c0.162,0.099,0.343,0.147,0.52,0.147c0.337,0,0.666-0.171,0.854-0.479
	c0.009-0.015,0.018-0.029,0.026-0.043c0.01-0.017,0.022-0.037,0.032-0.054C239.056,427.793,238.906,427.186,238.438,426.901z
	 M119.787,240.898l0.098-0.01c0.55-0.053,0.951-0.543,0.897-1.092c-0.05-0.517-0.484-0.903-0.993-0.903
	c-0.032,0-0.063,0.001-0.096,0.005c-0.017,0.001-0.025,0.002-0.042,0.004c-0.02,0.002-0.04,0.004-0.061,0.006
	c-0.55,0.054-0.951,0.542-0.897,1.092c0.051,0.517,0.487,0.903,0.995,0.903C119.722,240.903,119.754,240.901,119.787,240.898z
	 M231.065,436.844c-0.303,0-0.602,0.137-0.8,0.398l-0.059,0.079c-0.333,0.44-0.245,1.067,0.196,1.4
	c0.181,0.136,0.391,0.202,0.602,0.202c0.303,0,0.602-0.138,0.799-0.399c0.02-0.026,0.04-0.053,0.06-0.08
	c0.333-0.44,0.245-1.067-0.196-1.4C231.486,436.91,231.275,436.844,231.065,436.844z M120.818,485.809l-0.098-0.009
	c-0.03-0.002-0.061-0.004-0.091-0.004c-0.512,0-0.948,0.391-0.995,0.91c-0.05,0.549,0.353,1.034,0.902,1.086
	c0.004,0,0.009,0.001,0.013,0.001c0.029,0.003,0.06,0.006,0.09,0.008c0.031,0.003,0.062,0.004,0.092,0.004
	c0.512,0,0.947-0.39,0.993-0.908C121.774,486.346,121.368,485.859,120.818,485.809z M233.459,433.555
	c-0.314,0-0.624,0.148-0.818,0.425l-0.057,0.082c-0.318,0.451-0.21,1.075,0.242,1.393c0.175,0.124,0.376,0.183,0.574,0.183
	c0.314,0,0.621-0.147,0.816-0.421c0.016-0.022,0.029-0.043,0.045-0.064c0.005-0.008,0.01-0.015,0.015-0.022
	c0.317-0.451,0.209-1.075-0.242-1.392C233.859,433.615,233.658,433.555,233.459,433.555z M41.37,73.612l0.038,0.094
	c0.16,0.385,0.533,0.617,0.926,0.617c0.127,0,0.257-0.024,0.381-0.076c0.51-0.211,0.753-0.797,0.542-1.306l-0.039-0.094
	c-0.211-0.509-0.797-0.752-1.306-0.541C41.4,72.518,41.159,73.102,41.37,73.612z M66.457,134.225l0.039,0.093
	c0.159,0.386,0.531,0.617,0.924,0.617c0.128,0,0.257-0.024,0.382-0.076c0.512-0.211,0.753-0.797,0.542-1.307l-0.038-0.092
	c-0.212-0.511-0.796-0.754-1.306-0.543C66.489,133.131,66.246,133.715,66.457,134.225z M49.21,92.554l0.037,0.092
	c0.16,0.386,0.533,0.62,0.927,0.62c0.127,0,0.256-0.025,0.382-0.077c0.509-0.213,0.752-0.797,0.541-1.306l-0.038-0.092
	c-0.211-0.511-0.798-0.754-1.306-0.543C49.24,91.46,48.999,92.044,49.21,92.554z M46.074,84.978l0.038,0.092
	c0.161,0.385,0.533,0.617,0.926,0.617c0.127,0,0.256-0.024,0.381-0.076c0.512-0.211,0.755-0.797,0.543-1.306l-0.038-0.091
	c-0.213-0.512-0.797-0.753-1.306-0.542C46.106,83.883,45.863,84.469,46.074,84.978z M50.777,96.343l0.038,0.092
	c0.161,0.386,0.534,0.619,0.927,0.619c0.127,0,0.255-0.024,0.38-0.076c0.511-0.214,0.754-0.798,0.543-1.308l-0.038-0.092
	c-0.213-0.511-0.797-0.752-1.307-0.542C50.809,95.247,50.565,95.834,50.777,96.343z M72.732,149.378l0.036,0.094
	c0.16,0.385,0.533,0.617,0.925,0.617c0.128,0,0.257-0.025,0.381-0.076c0.512-0.211,0.755-0.797,0.544-1.306l-0.038-0.095
	c-0.214-0.509-0.798-0.753-1.306-0.541C72.761,148.284,72.52,148.868,72.732,149.378z M55.482,107.707l0.039,0.091
	c0.159,0.386,0.531,0.618,0.924,0.618c0.128,0,0.258-0.025,0.383-0.077c0.511-0.211,0.752-0.795,0.541-1.305l-0.038-0.092
	c-0.211-0.511-0.798-0.753-1.307-0.542C55.514,106.612,55.271,107.195,55.482,107.707z M63.323,126.649l0.038,0.092
	c0.159,0.386,0.533,0.619,0.926,0.619c0.127,0,0.256-0.024,0.381-0.076c0.51-0.213,0.752-0.797,0.541-1.306l-0.038-0.094
	c-0.211-0.511-0.797-0.752-1.306-0.541C63.355,125.553,63.112,126.139,63.323,126.649z M52.346,100.13l0.038,0.095
	c0.161,0.384,0.533,0.617,0.926,0.617c0.127,0,0.256-0.024,0.381-0.076c0.512-0.213,0.752-0.797,0.544-1.307l-0.039-0.093
	c-0.213-0.51-0.797-0.752-1.306-0.541C52.378,99.035,52.135,99.621,52.346,100.13z M69.594,141.803l0.038,0.091
	c0.159,0.385,0.533,0.618,0.926,0.618c0.127,0,0.256-0.025,0.381-0.076c0.51-0.211,0.752-0.798,0.541-1.307l-0.038-0.091
	c-0.211-0.512-0.797-0.752-1.307-0.541C69.624,140.708,69.384,141.292,69.594,141.803z M39.802,69.825l0.038,0.092
	c0.161,0.385,0.533,0.619,0.926,0.619c0.127,0,0.256-0.025,0.381-0.076c0.512-0.213,0.754-0.797,0.543-1.307l-0.04-0.093
	c-0.211-0.509-0.797-0.752-1.306-0.541C39.833,68.729,39.591,69.315,39.802,69.825z M96.25,206.202l0.039,0.094
	c0.159,0.385,0.532,0.618,0.925,0.618c0.128,0,0.257-0.025,0.382-0.077c0.511-0.214,0.752-0.798,0.541-1.307l-0.038-0.094
	c-0.211-0.51-0.798-0.753-1.306-0.542C96.282,205.107,96.039,205.693,96.25,206.202z M99.387,213.78l0.038,0.092
	c0.16,0.387,0.532,0.619,0.925,0.619c0.128,0,0.257-0.025,0.382-0.077c0.51-0.213,0.753-0.797,0.542-1.305l-0.039-0.094
	c-0.211-0.51-0.797-0.753-1.306-0.542C99.417,212.686,99.176,213.27,99.387,213.78z M95.002,197.954l-0.039-0.092
	c-0.213-0.512-0.797-0.754-1.307-0.543c-0.511,0.213-0.754,0.797-0.543,1.306l0.038,0.094c0.161,0.386,0.533,0.617,0.925,0.617
	c0.127,0,0.257-0.024,0.382-0.076C94.969,199.05,95.213,198.464,95.002,197.954z M107.227,232.721l0.037,0.091
	c0.16,0.386,0.533,0.62,0.927,0.62c0.127,0,0.256-0.025,0.382-0.076c0.509-0.213,0.752-0.797,0.541-1.307l-0.038-0.091
	c-0.211-0.511-0.798-0.754-1.306-0.543C107.257,231.628,107.016,232.212,107.227,232.721z M77.434,160.744l0.039,0.092
	c0.159,0.385,0.531,0.618,0.924,0.618c0.128,0,0.257-0.025,0.382-0.077c0.51-0.211,0.753-0.796,0.542-1.305l-0.039-0.092
	c-0.211-0.511-0.797-0.753-1.306-0.542C77.465,159.649,77.224,160.233,77.434,160.744z M83.706,175.897l0.039,0.093
	c0.159,0.384,0.532,0.618,0.925,0.618c0.127,0,0.257-0.025,0.381-0.077c0.512-0.213,0.753-0.796,0.542-1.306l-0.038-0.094
	c-0.212-0.51-0.798-0.752-1.306-0.541C83.736,174.801,83.495,175.387,83.706,175.897z M80.57,168.32l0.038,0.092
	c0.161,0.386,0.533,0.619,0.926,0.619c0.127,0,0.256-0.024,0.381-0.076c0.512-0.213,0.754-0.797,0.543-1.307l-0.038-0.092
	c-0.213-0.511-0.797-0.754-1.307-0.543C80.601,167.226,80.359,167.81,80.57,168.32z M88.41,187.261l0.038,0.094
	c0.16,0.384,0.533,0.617,0.925,0.617c0.127,0,0.257-0.024,0.381-0.076c0.512-0.213,0.753-0.797,0.542-1.307l-0.037-0.092
	c-0.213-0.511-0.797-0.754-1.308-0.543C88.442,186.168,88.199,186.752,88.41,187.261z M91.545,194.838l0.04,0.094
	c0.159,0.384,0.532,0.618,0.925,0.618c0.128,0,0.257-0.025,0.382-0.076c0.509-0.212,0.752-0.798,0.541-1.307l-0.038-0.093
	c-0.213-0.51-0.797-0.753-1.307-0.542C91.576,193.742,91.333,194.329,91.545,194.838z M104.091,225.145l0.038,0.093
	c0.159,0.385,0.533,0.617,0.926,0.617c0.127,0,0.256-0.024,0.381-0.076c0.51-0.211,0.752-0.797,0.541-1.306l-0.038-0.093
	c-0.211-0.51-0.797-0.753-1.306-0.542C104.123,224.05,103.88,224.634,104.091,225.145z M73.049,144.919l-0.039-0.094
	c-0.211-0.511-0.797-0.752-1.306-0.541c-0.512,0.211-0.753,0.797-0.542,1.307l0.038,0.092c0.16,0.386,0.532,0.62,0.925,0.62
	c0.128,0,0.257-0.025,0.382-0.077C73.017,146.013,73.26,145.428,73.049,144.919z M69.371,138.648
	c0.512-0.213,0.752-0.797,0.541-1.306l-0.038-0.095c-0.211-0.509-0.797-0.752-1.307-0.541c-0.51,0.213-0.752,0.797-0.541,1.306
	l0.038,0.092c0.159,0.385,0.532,0.619,0.926,0.619C69.117,138.725,69.246,138.7,69.371,138.648z M76.83,157.666
	c0.127,0,0.257-0.024,0.381-0.076c0.51-0.213,0.753-0.797,0.541-1.306l-0.038-0.094c-0.211-0.512-0.797-0.752-1.306-0.541
	c-0.511,0.211-0.752,0.797-0.541,1.306l0.038,0.092C76.063,157.433,76.437,157.666,76.83,157.666z M107.545,228.261l-0.039-0.092
	c-0.211-0.511-0.797-0.752-1.307-0.544c-0.511,0.214-0.752,0.798-0.541,1.309l0.038,0.092c0.159,0.386,0.531,0.618,0.924,0.618
	c0.128,0,0.258-0.024,0.383-0.076C107.513,229.356,107.756,228.769,107.545,228.261z M76.186,152.494l-0.04-0.092
	c-0.211-0.512-0.797-0.752-1.306-0.544c-0.51,0.214-0.752,0.798-0.541,1.308l0.038,0.092c0.161,0.386,0.532,0.618,0.924,0.618
	c0.128,0,0.258-0.025,0.383-0.076C76.154,153.59,76.396,153.003,76.186,152.494z M110.682,235.838l-0.038-0.092
	c-0.213-0.512-0.797-0.753-1.306-0.542c-0.512,0.211-0.755,0.795-0.543,1.306l0.038,0.092c0.161,0.385,0.533,0.617,0.926,0.617
	c0.127,0,0.256-0.024,0.381-0.076C110.65,236.933,110.892,236.346,110.682,235.838z M62.072,118.399l-0.039-0.092
	c-0.211-0.51-0.795-0.753-1.306-0.542c-0.51,0.211-0.753,0.798-0.542,1.307l0.039,0.091c0.159,0.386,0.531,0.618,0.924,0.618
	c0.127,0,0.257-0.025,0.382-0.077C62.042,119.494,62.283,118.91,62.072,118.399z M58.655,115.376
	c0.161,0.384,0.533,0.617,0.926,0.617c0.127,0,0.256-0.024,0.381-0.076c0.512-0.211,0.752-0.797,0.541-1.306l-0.036-0.092
	c-0.213-0.511-0.797-0.752-1.307-0.541c-0.511,0.211-0.754,0.797-0.543,1.307L58.655,115.376z M66.235,131.072
	c0.51-0.211,0.753-0.798,0.542-1.307l-0.039-0.093c-0.211-0.51-0.797-0.753-1.305-0.542c-0.512,0.211-0.753,0.798-0.542,1.307
	l0.038,0.093c0.16,0.385,0.532,0.618,0.925,0.618C65.981,131.148,66.11,131.124,66.235,131.072z M62.716,123.571
	c0.128,0,0.258-0.025,0.383-0.077c0.511-0.211,0.752-0.797,0.541-1.307l-0.038-0.091c-0.211-0.512-0.797-0.754-1.306-0.543
	c-0.51,0.213-0.753,0.797-0.541,1.307l0.038,0.093C61.952,123.339,62.324,123.571,62.716,123.571z M84.024,171.436l-0.037-0.091
	c-0.213-0.512-0.797-0.753-1.305-0.542c-0.512,0.211-0.755,0.795-0.544,1.307l0.038,0.091c0.161,0.386,0.533,0.618,0.925,0.618
	c0.127,0,0.257-0.025,0.382-0.077C83.994,172.531,84.235,171.947,84.024,171.436z M91.323,191.684
	c0.511-0.211,0.752-0.797,0.541-1.307l-0.038-0.092c-0.211-0.511-0.795-0.753-1.307-0.541c-0.51,0.211-0.753,0.796-0.542,1.306
	l0.039,0.092c0.159,0.385,0.532,0.618,0.925,0.618C91.069,191.76,91.198,191.735,91.323,191.684z M87.161,179.012l-0.038-0.091
	c-0.213-0.511-0.797-0.754-1.307-0.543c-0.512,0.213-0.752,0.796-0.544,1.306l0.039,0.094c0.161,0.385,0.533,0.617,0.926,0.617
	c0.127,0,0.256-0.025,0.381-0.076C87.129,180.108,87.372,179.522,87.161,179.012z M88.186,184.106
	c0.512-0.211,0.755-0.795,0.543-1.306l-0.038-0.092c-0.213-0.512-0.797-0.753-1.306-0.542c-0.511,0.211-0.754,0.795-0.543,1.307
	l0.038,0.092c0.161,0.386,0.533,0.618,0.925,0.618C87.931,184.184,88.061,184.159,88.186,184.106z M103.486,222.068
	c0.127,0,0.256-0.024,0.381-0.076c0.511-0.213,0.752-0.797,0.541-1.307l-0.038-0.093c-0.211-0.512-0.798-0.752-1.306-0.541
	c-0.51,0.211-0.753,0.797-0.541,1.306l0.038,0.092C102.72,221.835,103.092,222.068,103.486,222.068z M95.645,203.126
	c0.127,0,0.257-0.025,0.381-0.077c0.512-0.213,0.753-0.796,0.542-1.305l-0.036-0.095c-0.214-0.511-0.798-0.752-1.309-0.541
	c-0.509,0.211-0.752,0.797-0.541,1.307l0.038,0.091C94.88,202.894,95.253,203.126,95.645,203.126z M80.346,165.165
	c0.511-0.211,0.754-0.798,0.543-1.306l-0.038-0.091c-0.213-0.51-0.797-0.752-1.306-0.542c-0.512,0.211-0.752,0.797-0.541,1.306
	l0.036,0.092c0.16,0.386,0.532,0.618,0.924,0.618C80.091,165.242,80.22,165.217,80.346,165.165z M99.163,210.625
	c0.51-0.211,0.752-0.797,0.541-1.307l-0.038-0.091c-0.211-0.512-0.797-0.752-1.306-0.541c-0.51,0.211-0.752,0.797-0.541,1.306
	l0.038,0.092c0.159,0.386,0.532,0.617,0.924,0.617C98.909,210.701,99.038,210.677,99.163,210.625z M102.842,216.896l-0.038-0.092
	c-0.214-0.511-0.798-0.752-1.308-0.544c-0.51,0.214-0.753,0.798-0.542,1.308l0.038,0.092c0.161,0.386,0.533,0.618,0.926,0.618
	c0.128,0,0.258-0.024,0.384-0.076C102.809,217.992,103.053,217.405,102.842,216.896z M58.937,110.823l-0.038-0.091
	c-0.213-0.512-0.797-0.754-1.306-0.543c-0.512,0.213-0.754,0.797-0.543,1.306l0.04,0.095c0.159,0.383,0.533,0.617,0.926,0.617
	c0.127,0,0.256-0.025,0.381-0.076C58.905,111.917,59.147,111.333,58.937,110.823z M16.281,13l0.038,0.094
	c0.161,0.384,0.533,0.618,0.926,0.618c0.127,0,0.256-0.025,0.381-0.077c0.512-0.213,0.754-0.797,0.543-1.306l-0.038-0.094
	c-0.213-0.509-0.797-0.752-1.307-0.541C16.312,11.904,16.07,12.49,16.281,13z M27.258,39.519l0.038,0.091
	c0.159,0.386,0.532,0.618,0.924,0.618c0.128,0,0.258-0.024,0.383-0.076c0.512-0.211,0.752-0.794,0.541-1.306l-0.038-0.092
	c-0.211-0.509-0.797-0.753-1.307-0.541C27.29,38.423,27.048,39.009,27.258,39.519z M28.827,43.306l0.038,0.094
	c0.159,0.385,0.533,0.617,0.926,0.618c0.127,0,0.256-0.025,0.381-0.076c0.51-0.211,0.753-0.798,0.541-1.307l-0.038-0.093
	c-0.211-0.509-0.797-0.753-1.307-0.542C28.856,42.211,28.616,42.797,28.827,43.306z M24.121,31.942l0.038,0.094
	c0.161,0.385,0.534,0.617,0.926,0.617c0.127,0.001,0.256-0.024,0.381-0.075c0.512-0.211,0.753-0.798,0.542-1.307l-0.037-0.093
	c-0.213-0.51-0.797-0.753-1.306-0.542C24.153,30.846,23.91,31.433,24.121,31.942z M25.689,35.732l0.039,0.091
	c0.159,0.385,0.532,0.618,0.925,0.618c0.127,0,0.257-0.024,0.381-0.076c0.512-0.211,0.753-0.797,0.542-1.306l-0.038-0.091
	c-0.212-0.512-0.796-0.752-1.307-0.542C25.722,34.635,25.479,35.22,25.689,35.732z M22.553,28.154l0.04,0.091
	c0.159,0.386,0.532,0.618,0.924,0.618c0.128,0,0.258-0.025,0.383-0.077c0.51-0.211,0.752-0.795,0.541-1.306l-0.038-0.091
	c-0.213-0.511-0.797-0.753-1.306-0.542C22.584,27.059,22.342,27.643,22.553,28.154z M30.395,47.096l0.039,0.092
	c0.159,0.386,0.53,0.618,0.923,0.618c0.128,0,0.258-0.025,0.383-0.077c0.51-0.211,0.753-0.795,0.542-1.306l-0.039-0.091
	c-0.211-0.509-0.797-0.752-1.305-0.542C30.425,46,30.184,46.587,30.395,47.096z M31.961,50.883L32,50.976
	c0.159,0.385,0.532,0.618,0.925,0.618c0.127,0,0.257-0.024,0.382-0.076c0.511-0.213,0.752-0.797,0.541-1.306l-0.038-0.094
	c-0.211-0.509-0.795-0.752-1.306-0.541C31.993,49.788,31.75,50.374,31.961,50.883z M36.667,62.248l0.036,0.093
	c0.161,0.385,0.534,0.617,0.927,0.617c0.128,0,0.257-0.024,0.382-0.076c0.51-0.211,0.753-0.796,0.542-1.306l-0.038-0.094
	c-0.212-0.509-0.798-0.752-1.307-0.541C36.697,61.154,36.456,61.738,36.667,62.248z M35.098,58.46l0.038,0.092
	c0.16,0.386,0.533,0.618,0.926,0.618c0.127,0,0.256-0.024,0.38-0.075c0.51-0.213,0.753-0.798,0.541-1.309l-0.038-0.091
	c-0.211-0.51-0.797-0.753-1.306-0.542C35.129,57.365,34.888,57.951,35.098,58.46z M55.8,103.246l-0.036-0.092
	c-0.214-0.511-0.798-0.754-1.308-0.543c-0.51,0.213-0.753,0.797-0.542,1.306l0.038,0.094c0.159,0.386,0.532,0.617,0.925,0.617
	c0.127,0,0.257-0.024,0.382-0.076C55.77,104.342,56.011,103.756,55.8,103.246z M33.53,54.673l0.038,0.091
	c0.159,0.385,0.532,0.618,0.925,0.618c0.128,0,0.257-0.025,0.382-0.077c0.509-0.211,0.752-0.797,0.541-1.306l-0.038-0.091
	c-0.211-0.511-0.797-0.753-1.306-0.542C33.562,53.578,33.319,54.161,33.53,54.673z M49.528,88.092l-0.036-0.091
	c-0.214-0.51-0.798-0.752-1.309-0.541c-0.509,0.211-0.752,0.797-0.541,1.306l0.038,0.091c0.159,0.386,0.532,0.618,0.925,0.618
	c0.127,0,0.257-0.025,0.382-0.076C49.498,89.189,49.739,88.604,49.528,88.092z M43.9,78.111c0.128,0,0.258-0.024,0.384-0.076
	c0.509-0.211,0.752-0.795,0.541-1.306l-0.038-0.092c-0.211-0.511-0.798-0.752-1.306-0.541c-0.512,0.211-0.753,0.795-0.542,1.306
	l0.036,0.091C43.136,77.878,43.508,78.111,43.9,78.111z M46.393,80.517l-0.038-0.094c-0.213-0.511-0.797-0.752-1.306-0.541
	c-0.512,0.211-0.755,0.797-0.544,1.307l0.039,0.092c0.161,0.386,0.533,0.619,0.926,0.619c0.127,0,0.256-0.025,0.381-0.076
	C46.361,81.611,46.604,81.027,46.393,80.517z M15.256,7.906c-0.512,0.211-0.753,0.798-0.541,1.307l0.036,0.092
	c0.16,0.386,0.532,0.618,0.924,0.618c0.128,0,0.257-0.025,0.382-0.077c0.512-0.211,0.755-0.795,0.544-1.306l-0.038-0.092
	C16.349,7.938,15.765,7.695,15.256,7.906z M20.987,24.365l0.038,0.093c0.159,0.385,0.532,0.618,0.925,0.618
	c0.128,0,0.257-0.024,0.382-0.076c0.512-0.211,0.752-0.797,0.541-1.306l-0.038-0.094c-0.211-0.509-0.797-0.752-1.306-0.541
	C21.018,23.271,20.776,23.855,20.987,24.365z M19.418,20.577l0.039,0.092c0.159,0.386,0.533,0.618,0.926,0.618
	c0.127,0,0.256-0.024,0.38-0.075c0.512-0.213,0.753-0.798,0.542-1.309l-0.039-0.092c-0.211-0.509-0.795-0.752-1.305-0.542
	C19.45,19.481,19.207,20.068,19.418,20.577z M17.849,16.789l0.038,0.092c0.161,0.385,0.534,0.617,0.926,0.618
	c0.127,0,0.256-0.025,0.381-0.076c0.512-0.211,0.753-0.798,0.541-1.307l-0.036-0.092c-0.213-0.511-0.797-0.752-1.306-0.541
	C17.882,15.694,17.639,16.278,17.849,16.789z M38.233,66.037l0.039,0.092c0.161,0.385,0.533,0.618,0.926,0.618
	c0.127,0,0.256-0.024,0.381-0.076c0.511-0.211,0.754-0.798,0.543-1.306l-0.038-0.092c-0.213-0.511-0.797-0.753-1.306-0.541
	C38.265,64.942,38.025,65.526,38.233,66.037z M13.318,6.442c1.778,0,3.22-1.443,3.22-3.221c0-1.778-1.442-3.221-3.22-3.221
	s-3.22,1.442-3.22,3.221C10.097,4.999,11.54,6.442,13.318,6.442z"/>
</svg>
