<svg version="1.1" id="Layer_1" xmlns="http://www.w3.org/2000/svg" xmlns:xlink="http://www.w3.org/1999/xlink" x="0px" y="0px"
	 width="100%" height="100%" viewBox="0 0 338 396" style="enable-background:new 0 0 338 396;" xml:space="preserve">

<image xlink:href="http://themetf-html.dev/AND/demo/content/svg/img1.png" width="90%" height="90%"/>
<path id="path" d="M56.735,173.81l0.074-0.066c0.414-0.365,0.454-0.997,0.089-1.412c-0.198-0.223-0.473-0.339-0.75-0.339
	c-0.235,0-0.471,0.083-0.661,0.25c-0.014,0.013-0.028,0.025-0.042,0.037c-0.015,0.013-0.024,0.022-0.039,0.035
	c-0.409,0.365-0.447,0.993-0.083,1.405c0.198,0.225,0.474,0.339,0.751,0.339C56.309,174.059,56.544,173.977,56.735,173.81z
	 M54.44,356.31c-0.193-0.179-0.437-0.266-0.68-0.266c-0.269,0-0.537,0.108-0.734,0.32c-0.375,0.404-0.351,1.036,0.053,1.412
	c0.026,0.023,0.055,0.051,0.081,0.074c0.192,0.174,0.432,0.261,0.672,0.261c0.269,0,0.537-0.108,0.734-0.322
	c0.375-0.405,0.351-1.038-0.054-1.413L54.44,356.31z M53.753,176.526l0.072-0.067c0.402-0.378,0.421-1.011,0.043-1.413
	c-0.197-0.21-0.462-0.316-0.728-0.316c-0.243,0-0.487,0.088-0.679,0.266c-0.008,0.009-0.017,0.017-0.026,0.025
	c-0.018,0.017-0.035,0.033-0.053,0.049c-0.402,0.379-0.421,1.012-0.043,1.413c0.197,0.209,0.462,0.315,0.729,0.315
	C53.313,176.799,53.56,176.708,53.753,176.526z M57.442,359.004c-0.19-0.164-0.423-0.245-0.655-0.245
	c-0.28,0.001-0.558,0.117-0.756,0.344c-0.362,0.417-0.317,1.049,0.1,1.41c0.003,0.004,0.007,0.007,0.011,0.01
	c0.012,0.01,0.023,0.02,0.035,0.03c0.01,0.009,0.02,0.017,0.03,0.026c0.189,0.163,0.422,0.244,0.655,0.244
	c0.28,0,0.558-0.116,0.756-0.345c0.362-0.417,0.317-1.049-0.101-1.41L57.442,359.004z M50.861,179.34l0.069-0.069
	c0.39-0.392,0.389-1.025-0.003-1.415c-0.195-0.194-0.45-0.291-0.705-0.291c-0.257,0-0.513,0.098-0.708,0.294
	c-0.012,0.012-0.023,0.023-0.035,0.035c-0.003,0.003,0.002-0.003,0,0.001l-0.035,0.035c-0.39,0.391-0.389,1.023,0.003,1.413
	c0.195,0.194,0.451,0.292,0.706,0.292C50.409,179.635,50.666,179.536,50.861,179.34z M69.499,163.954l0.082-0.055
	c0.458-0.307,0.58-0.93,0.272-1.387c-0.193-0.288-0.509-0.443-0.83-0.443c-0.19,0-0.383,0.054-0.553,0.167
	c-0.033,0.023-0.061,0.041-0.093,0.064c-0.452,0.31-0.572,0.927-0.265,1.383c0.193,0.287,0.509,0.442,0.831,0.442
	C69.134,164.125,69.328,164.069,69.499,163.954z M62.956,168.673l0.078-0.059c0.438-0.338,0.518-0.966,0.182-1.404
	c-0.197-0.255-0.493-0.39-0.792-0.389c-0.21,0-0.421,0.065-0.601,0.201c-0.028,0.022-0.052,0.04-0.08,0.062
	c-0.002,0.002-0.005,0.004-0.008,0.006c-0.438,0.338-0.518,0.965-0.181,1.403c0.197,0.255,0.493,0.388,0.793,0.388
	C62.559,168.881,62.774,168.813,62.956,168.673z M63.702,364.094c-0.181-0.138-0.394-0.204-0.604-0.204
	c-0.302,0-0.601,0.137-0.797,0.396c-0.334,0.439-0.249,1.066,0.191,1.4l0.038,0.029c0.015,0.012,0.036,0.027,0.051,0.039
	c0.179,0.133,0.387,0.197,0.594,0.197c0.301,0,0.6-0.136,0.796-0.396c0.333-0.44,0.248-1.067-0.192-1.402L63.702,364.094z
	 M66.189,166.26l0.08-0.057c0.448-0.323,0.55-0.948,0.227-1.396c-0.195-0.272-0.501-0.416-0.812-0.416
	c-0.202,0-0.407,0.061-0.583,0.189c-0.01,0.007-0.021,0.014-0.031,0.022c-0.019,0.014-0.041,0.029-0.06,0.043
	c-0.44,0.325-0.538,0.945-0.217,1.39c0.195,0.271,0.501,0.415,0.812,0.415C65.808,166.449,66.013,166.388,66.189,166.26z
	 M66.953,366.481c-0.175-0.124-0.377-0.184-0.578-0.184c-0.313,0-0.621,0.147-0.817,0.421c-0.318,0.448-0.214,1.069,0.231,1.389
	c0.01,0.007,0.016,0.011,0.025,0.018c0.021,0.014,0.042,0.03,0.063,0.044c0.176,0.124,0.377,0.185,0.577,0.185
	c0.313,0,0.621-0.147,0.816-0.422c0.319-0.451,0.213-1.075-0.237-1.395L66.953,366.481z M60.53,361.601
	c-0.185-0.151-0.408-0.224-0.63-0.224c-0.291,0-0.579,0.126-0.777,0.369c-0.348,0.428-0.283,1.059,0.146,1.406
	c0.024,0.02,0.048,0.04,0.072,0.059c0.003,0.003,0.004,0.003,0.007,0.006c0.185,0.149,0.407,0.221,0.628,0.221
	c0.291,0,0.58-0.126,0.777-0.37c0.348-0.428,0.282-1.059-0.146-1.406L60.53,361.601z M48.706,350.634
	c-0.197-0.207-0.461-0.312-0.726-0.312c-0.247,0-0.494,0.09-0.687,0.273c-0.398,0.377-0.418,1.005-0.045,1.406
	c0.019,0.02,0.037,0.04,0.056,0.059c0.007,0.007,0.013,0.014,0.02,0.022c0.197,0.207,0.461,0.312,0.726,0.312
	c0.247,0,0.494-0.091,0.687-0.273c0.401-0.38,0.418-1.014,0.038-1.415L48.706,350.634z M59.803,171.191l0.076-0.062
	c0.426-0.352,0.487-0.982,0.136-1.408c-0.198-0.24-0.484-0.364-0.772-0.364c-0.224,0-0.45,0.075-0.636,0.229
	c-0.004,0.004-0.008,0.007-0.013,0.01c-0.024,0.019-0.045,0.037-0.069,0.056c-0.422,0.353-0.481,0.98-0.13,1.405
	c0.198,0.239,0.484,0.363,0.772,0.363C59.392,171.419,59.617,171.344,59.803,171.191z M51.526,353.518
	c-0.195-0.192-0.449-0.289-0.704-0.289c-0.258,0-0.515,0.1-0.711,0.297c-0.389,0.393-0.385,1.025,0.008,1.414
	c0.009,0.009,0.019,0.018,0.028,0.027l0.049,0.049c0.194,0.189,0.446,0.283,0.697,0.283c0.257,0,0.515-0.1,0.711-0.297
	c0.388-0.393,0.384-1.026-0.008-1.415L51.526,353.518z M36.094,334.918c-0.193-0.286-0.509-0.44-0.829-0.44
	c-0.193,0-0.388,0.056-0.56,0.172c-0.455,0.307-0.576,0.922-0.274,1.379c0.025,0.035,0.044,0.065,0.068,0.101
	c0.193,0.279,0.505,0.431,0.822,0.431c0.193,0,0.388-0.056,0.56-0.173c0.457-0.31,0.577-0.931,0.267-1.389L36.094,334.918z
	 M37.86,194.736l0.057-0.08c0.321-0.449,0.217-1.074-0.232-1.395c-0.176-0.126-0.379-0.186-0.58-0.186
	c-0.309,0-0.614,0.143-0.81,0.412c-0.011,0.016-0.022,0.032-0.033,0.047l-0.029,0.041c-0.321,0.45-0.216,1.075,0.233,1.395
	c0.176,0.126,0.379,0.186,0.58,0.186C37.357,195.155,37.664,195.009,37.86,194.736z M38.408,338.222
	c-0.196-0.269-0.501-0.412-0.81-0.412c-0.204,0-0.409,0.061-0.586,0.19c-0.447,0.324-0.547,0.949-0.222,1.397
	c0.009,0.011,0.018,0.024,0.027,0.037c0.012,0.015,0.022,0.031,0.034,0.046c0.196,0.268,0.5,0.409,0.808,0.409
	c0.204,0,0.409-0.062,0.586-0.191c0.447-0.325,0.546-0.95,0.222-1.397L38.408,338.222z M48.062,182.247l0.067-0.072
	c0.376-0.404,0.355-1.036-0.049-1.413c-0.193-0.18-0.437-0.27-0.682-0.27c-0.268,0-0.534,0.108-0.731,0.318
	c-0.023,0.025-0.046,0.049-0.069,0.074c-0.377,0.403-0.354,1.036,0.049,1.413c0.193,0.18,0.438,0.268,0.682,0.268
	C47.599,182.564,47.866,182.457,48.062,182.247z M40.256,191.49l0.06-0.078c0.335-0.438,0.252-1.067-0.187-1.401
	c-0.181-0.14-0.395-0.206-0.606-0.206c-0.301,0-0.598,0.135-0.795,0.393c-0.012,0.015-0.023,0.03-0.035,0.045
	c-0.012,0.015-0.021,0.028-0.033,0.044c-0.327,0.438-0.242,1.059,0.194,1.392c0.182,0.139,0.395,0.205,0.607,0.205
	C39.762,191.883,40.059,191.748,40.256,191.49z M35.571,198.057l0.054-0.081c0.306-0.46,0.182-1.081-0.278-1.388
	c-0.17-0.113-0.363-0.168-0.553-0.168c-0.321,0-0.636,0.154-0.829,0.439c-0.017,0.027-0.036,0.054-0.053,0.08
	c-0.002,0.003-0.004,0.007-0.006,0.01c-0.306,0.46-0.182,1.08,0.278,1.387c0.17,0.113,0.363,0.167,0.553,0.167
	C35.061,198.504,35.378,198.347,35.571,198.057z M33.889,331.539c-0.19-0.302-0.515-0.467-0.848-0.467
	c-0.182,0-0.366,0.049-0.532,0.153c-0.464,0.293-0.605,0.902-0.32,1.369c0.017,0.027,0.035,0.056,0.052,0.082
	c0.003,0.004,0.005,0.009,0.008,0.012c0.19,0.302,0.515,0.467,0.847,0.467c0.182,0,0.367-0.049,0.532-0.154
	c0.467-0.295,0.607-0.912,0.312-1.379L33.889,331.539z M45.36,185.243l0.065-0.075c0.363-0.415,0.321-1.047-0.095-1.411
	c-0.19-0.166-0.424-0.247-0.658-0.247c-0.278,0-0.556,0.116-0.753,0.342c-0.021,0.025-0.043,0.05-0.065,0.075
	c-0.363,0.416-0.321,1.048,0.095,1.411c0.189,0.165,0.424,0.246,0.658,0.246C44.885,185.584,45.162,185.469,45.36,185.243z
	 M45.981,347.659c-0.198-0.223-0.472-0.337-0.749-0.337c-0.236,0-0.472,0.083-0.663,0.252c-0.413,0.366-0.451,0.998-0.084,1.411
	c0.007,0.009,0.015,0.018,0.022,0.025c0.015,0.018,0.03,0.035,0.046,0.053c0.197,0.221,0.471,0.334,0.745,0.334
	c0.236,0,0.473-0.083,0.663-0.253c0.413-0.367,0.451-0.998,0.084-1.412L45.981,347.659z M43.355,344.596
	c-0.198-0.238-0.483-0.362-0.77-0.362c-0.225,0-0.452,0.075-0.639,0.231c-0.425,0.352-0.483,0.984-0.13,1.408
	c0.01,0.012,0.021,0.024,0.031,0.037c0.002,0.003,0.002,0.004,0.005,0.007c0.009,0.01,0.019,0.022,0.028,0.033
	c0.198,0.237,0.482,0.361,0.769,0.361c0.225,0,0.452-0.076,0.638-0.231c0.425-0.354,0.483-0.984,0.13-1.41L43.355,344.596z
	 M40.829,341.45c-0.197-0.254-0.493-0.387-0.791-0.387c-0.214,0-0.43,0.069-0.613,0.21c-0.436,0.339-0.515,0.967-0.176,1.404
	c0.006,0.007,0.013,0.016,0.019,0.024c0.017,0.022,0.033,0.042,0.049,0.064c0.197,0.248,0.488,0.378,0.783,0.378
	c0.215,0,0.431-0.069,0.613-0.211c0.436-0.339,0.515-0.968,0.176-1.404L40.829,341.45z M42.757,188.324l0.062-0.076
	c0.35-0.428,0.287-1.057-0.141-1.407c-0.185-0.152-0.41-0.226-0.632-0.226c-0.286,0-0.57,0.122-0.768,0.358
	c-0.022,0.028-0.043,0.054-0.066,0.081c-0.001,0.002-0.003,0.003-0.004,0.005c-0.35,0.428-0.286,1.058,0.142,1.407
	c0.186,0.151,0.41,0.226,0.632,0.226C42.272,188.691,42.56,188.567,42.757,188.324z M118.885,387.617l-0.097-0.015
	c-0.052-0.009-0.104-0.013-0.156-0.013c-0.484,0-0.91,0.353-0.987,0.846c-0.085,0.543,0.283,1.052,0.825,1.142
	c0.037,0.005,0.065,0.01,0.102,0.015c0.001,0,0.003,0,0.004,0.001c0.053,0.007,0.105,0.012,0.157,0.012
	c0.483,0,0.908-0.352,0.985-0.844C119.804,388.215,119.431,387.703,118.885,387.617z M103.156,384.081l-0.094-0.028
	c-0.095-0.027-0.191-0.041-0.284-0.041c-0.432,0-0.83,0.282-0.959,0.717c-0.156,0.526,0.141,1.078,0.664,1.239
	c0.035,0.01,0.073,0.022,0.107,0.031c0.094,0.028,0.19,0.042,0.284,0.042c0.432,0,0.83-0.282,0.958-0.716
	C103.988,384.794,103.685,384.238,103.156,384.081z M102.162,148.412l0.094-0.028c0.528-0.161,0.827-0.72,0.666-1.248
	c-0.131-0.432-0.527-0.709-0.956-0.709c-0.095,0-0.191,0.014-0.286,0.042c-0.035,0.011-0.069,0.02-0.103,0.032
	c-0.527,0.162-0.823,0.721-0.662,1.248c0.131,0.43,0.527,0.708,0.955,0.708C101.966,148.456,102.065,148.442,102.162,148.412z
	 M106.039,147.3l0.095-0.025c0.534-0.143,0.85-0.691,0.707-1.225c-0.12-0.447-0.523-0.741-0.965-0.741
	c-0.085,0-0.173,0.011-0.26,0.035c-0.017,0.005-0.034,0.009-0.05,0.014c-0.02,0.005-0.033,0.009-0.053,0.014
	c-0.529,0.146-0.842,0.693-0.7,1.224c0.12,0.446,0.524,0.741,0.966,0.741C105.864,147.336,105.952,147.324,106.039,147.3z
	 M98.323,149.651l0.093-0.032c0.523-0.178,0.802-0.746,0.624-1.269c-0.142-0.416-0.53-0.678-0.946-0.678
	c-0.104,0-0.209,0.016-0.312,0.049c-0.03,0.01-0.056,0.02-0.086,0.03c-0.006,0.002-0.012,0.004-0.019,0.007
	c-0.523,0.177-0.802,0.745-0.624,1.269c0.142,0.416,0.531,0.678,0.947,0.678C98.108,149.705,98.216,149.687,98.323,149.651z
	 M99.307,382.875l-0.093-0.031c-0.105-0.035-0.211-0.051-0.315-0.051c-0.419,0-0.81,0.266-0.949,0.685
	c-0.173,0.521,0.105,1.082,0.621,1.261c0.03,0.01,0.059,0.02,0.089,0.029c0.006,0.002,0.012,0.004,0.018,0.006
	c0.104,0.035,0.211,0.052,0.315,0.052c0.419,0,0.809-0.266,0.948-0.686C100.115,383.615,99.831,383.05,99.307,382.875z
	 M107.042,385.16l-0.096-0.025c-0.084-0.022-0.169-0.033-0.252-0.033c-0.444,0-0.851,0.299-0.968,0.749
	c-0.139,0.531,0.178,1.075,0.707,1.217c0.02,0.005,0.034,0.009,0.054,0.015c0.018,0.004,0.035,0.009,0.052,0.012
	c0.084,0.023,0.169,0.033,0.253,0.033c0.444,0,0.849-0.299,0.966-0.749C107.897,385.845,107.576,385.299,107.042,385.16z
	 M113.893,145.465l0.097-0.019c0.542-0.108,0.894-0.634,0.787-1.176c-0.094-0.476-0.512-0.805-0.979-0.805
	c-0.061,0-0.122,0.005-0.184,0.017c-0.044,0.009-0.078,0.016-0.122,0.025c-0.535,0.112-0.881,0.636-0.774,1.174
	c0.095,0.475,0.512,0.805,0.979,0.805C113.762,145.485,113.827,145.478,113.893,145.465z M114.911,386.928l-0.097-0.019
	c-0.063-0.012-0.126-0.017-0.188-0.017c-0.47,0-0.89,0.333-0.981,0.812c-0.103,0.539,0.248,1.06,0.785,1.168
	c0.012,0.002,0.025,0.005,0.037,0.007c0.023,0.005,0.047,0.009,0.071,0.014c0.064,0.012,0.127,0.018,0.19,0.018
	c0.47,0,0.888-0.333,0.979-0.812C115.81,387.556,115.454,387.032,114.911,386.928z M109.95,146.319l0.096-0.023
	c0.538-0.126,0.872-0.663,0.747-1.201c-0.107-0.462-0.519-0.773-0.973-0.773c-0.073,0-0.147,0.007-0.22,0.024
	c-0.012,0.003-0.022,0.005-0.034,0.008c-0.012,0.003-0.025,0.006-0.037,0.009c-0.016,0.004-0.029,0.007-0.045,0.01
	c-0.531,0.131-0.86,0.665-0.735,1.199c0.107,0.461,0.518,0.772,0.972,0.772C109.797,146.345,109.874,146.336,109.95,146.319z
	 M33.391,201.453l0.052-0.083c0.291-0.47,0.146-1.086-0.323-1.377c-0.164-0.103-0.346-0.151-0.526-0.151
	c-0.334,0-0.661,0.167-0.851,0.473c-0.006,0.01-0.013,0.02-0.019,0.03c-0.008,0.012-0.015,0.025-0.023,0.037
	c-0.004,0.007-0.011,0.019-0.016,0.025c-0.285,0.469-0.139,1.08,0.328,1.369c0.164,0.102,0.346,0.15,0.525,0.15
	C32.875,201.927,33.202,201.758,33.391,201.453z M117.861,144.744l0.097-0.017c0.545-0.09,0.914-0.605,0.825-1.149
	c-0.081-0.49-0.504-0.838-0.985-0.838c-0.05,0-0.102,0.004-0.153,0.012c-0.02,0.004-0.038,0.007-0.058,0.01l-0.051,0.009
	c-0.545,0.09-0.914,0.605-0.824,1.149c0.081,0.489,0.505,0.837,0.986,0.837C117.751,144.756,117.806,144.752,117.861,144.744z
	 M110.963,386.109l-0.096-0.022c-0.074-0.017-0.148-0.024-0.221-0.024c-0.457,0-0.87,0.315-0.975,0.78
	c-0.121,0.536,0.214,1.069,0.748,1.193c0.028,0.007,0.054,0.012,0.082,0.019c0.008,0.002,0.016,0.004,0.023,0.005
	c0.074,0.017,0.147,0.024,0.22,0.024c0.458,0,0.871-0.315,0.975-0.781C111.84,386.765,111.502,386.23,110.963,386.109z
	 M70.363,368.817l-0.082-0.054c-0.17-0.112-0.361-0.166-0.551-0.166c-0.324,0-0.643,0.157-0.835,0.448
	c-0.304,0.461-0.178,1.08,0.282,1.385l0.001,0.001c0.027,0.019,0.055,0.037,0.083,0.055c0.17,0.113,0.361,0.166,0.551,0.166
	c0.324,0,0.642-0.157,0.834-0.448C70.951,369.742,70.824,369.121,70.363,368.817z M95.5,381.542l-0.092-0.034
	c-0.114-0.042-0.232-0.062-0.346-0.062c-0.407,0-0.79,0.25-0.938,0.654c-0.191,0.516,0.071,1.089,0.585,1.282
	c0.033,0.013,0.068,0.025,0.101,0.037c0.114,0.042,0.23,0.062,0.345,0.062c0.407,0,0.788-0.25,0.937-0.654
	C96.283,382.309,96.018,381.734,95.5,381.542z M76.337,159.674l0.085-0.049c0.477-0.278,0.64-0.89,0.363-1.368
	c-0.186-0.32-0.521-0.498-0.866-0.498c-0.17,0-0.343,0.043-0.501,0.135c-0.005,0.003-0.011,0.007-0.016,0.01
	c-0.017,0.009-0.035,0.02-0.052,0.03c-0.006,0.003-0.012,0.007-0.018,0.011c-0.478,0.277-0.64,0.89-0.362,1.367
	c0.186,0.32,0.521,0.497,0.866,0.497C76.006,159.809,76.179,159.765,76.337,159.674z M94.528,151.016l0.092-0.035
	c0.517-0.195,0.777-0.772,0.582-1.289c-0.151-0.4-0.531-0.647-0.935-0.647c-0.115,0.001-0.232,0.02-0.346,0.062
	c-0.015,0.006-0.033,0.013-0.048,0.019c-0.018,0.006-0.035,0.013-0.053,0.02c-0.517,0.195-0.777,0.772-0.581,1.289
	c0.151,0.4,0.532,0.646,0.936,0.646C94.292,151.08,94.412,151.06,94.528,151.016z M79.857,157.705l0.087-0.046
	c0.486-0.262,0.669-0.869,0.408-1.355c-0.181-0.336-0.525-0.527-0.881-0.527c-0.16,0.001-0.322,0.039-0.473,0.12
	c-0.013,0.007-0.026,0.014-0.039,0.02c-0.018,0.01-0.039,0.02-0.056,0.03c-0.481,0.264-0.66,0.866-0.4,1.351
	c0.181,0.336,0.525,0.526,0.882,0.526C79.544,157.824,79.706,157.786,79.857,157.705z M80.774,374.978l-0.087-0.046
	c-0.149-0.078-0.309-0.115-0.466-0.115c-0.359,0-0.706,0.193-0.886,0.533c-0.258,0.488-0.071,1.093,0.417,1.35
	c0.011,0.006,0.021,0.012,0.032,0.017c0.007,0.004,0.008,0.005,0.015,0.009l0.012,0.005c0.004,0.002,0.004,0.002,0.008,0.004
	c0.007,0.004,0.014,0.008,0.022,0.012c0.149,0.078,0.308,0.116,0.465,0.116c0.359,0,0.706-0.195,0.886-0.534
	C81.449,375.841,81.262,375.236,80.774,374.978z M73.766,370.984l-0.084-0.052c-0.163-0.1-0.344-0.148-0.523-0.148
	c-0.336,0-0.664,0.17-0.853,0.477c-0.287,0.468-0.144,1.079,0.32,1.371c0.03,0.019,0.069,0.042,0.099,0.061
	c0.162,0.098,0.34,0.144,0.517,0.144c0.335,0,0.663-0.169,0.852-0.476C74.383,371.889,74.236,371.274,73.766,370.984z
	 M121.851,144.152l0.098-0.013c0.547-0.072,0.933-0.574,0.862-1.122c-0.066-0.503-0.496-0.87-0.99-0.87
	c-0.041,0-0.083,0.003-0.125,0.008c-0.033,0.005-0.059,0.007-0.091,0.012c-0.005,0.001-0.009,0.002-0.014,0.002
	c-0.548,0.072-0.933,0.574-0.861,1.122c0.066,0.503,0.496,0.87,0.991,0.87C121.763,144.161,121.807,144.158,121.851,144.152z
	 M77.236,373.039l-0.085-0.049c-0.156-0.088-0.327-0.132-0.495-0.132c-0.347,0-0.685,0.182-0.87,0.505
	c-0.274,0.479-0.107,1.089,0.373,1.363c0.004,0.003,0.008,0.005,0.012,0.007c0.027,0.016,0.048,0.029,0.075,0.044
	c0.156,0.089,0.327,0.131,0.494,0.131c0.347,0,0.685-0.181,0.869-0.505C77.883,373.924,77.716,373.313,77.236,373.039z
	 M90.779,152.506l0.091-0.038c0.51-0.212,0.752-0.796,0.54-1.308c-0.16-0.383-0.531-0.616-0.923-0.616
	c-0.125,0-0.252,0.024-0.375,0.074c-0.025,0.01-0.059,0.024-0.084,0.035c-0.005,0.002-0.011,0.004-0.016,0.007
	c-0.51,0.211-0.751,0.797-0.538,1.306c0.16,0.384,0.532,0.616,0.924,0.616C90.524,152.583,90.654,152.558,90.779,152.506z
	 M88.029,378.504l-0.09-0.041c-0.132-0.059-0.271-0.087-0.407-0.087c-0.382,0-0.747,0.221-0.914,0.593
	c-0.224,0.501-0.002,1.087,0.494,1.316c0.025,0.012,0.057,0.025,0.082,0.037l0.021,0.009c0.133,0.059,0.271,0.088,0.408,0.088
	c0.382,0,0.747-0.221,0.912-0.593C88.759,379.321,88.532,378.729,88.029,378.504z M91.74,380.085l-0.091-0.037
	c-0.124-0.051-0.251-0.074-0.376-0.074c-0.395,0-0.769,0.236-0.927,0.623c-0.209,0.512,0.037,1.095,0.548,1.303
	c0.004,0.002,0.008,0.004,0.013,0.005c0.029,0.013,0.062,0.025,0.091,0.037c0.12,0.048,0.244,0.07,0.365,0.07
	c0.395,0,0.769-0.236,0.927-0.624C92.497,380.876,92.251,380.293,91.74,380.085z M87.082,154.118l0.089-0.04
	c0.503-0.229,0.724-0.822,0.496-1.325c-0.167-0.368-0.531-0.586-0.91-0.586c-0.136,0-0.274,0.029-0.406,0.087
	c-0.033,0.015-0.073,0.033-0.105,0.048c-0.498,0.231-0.716,0.821-0.488,1.321c0.168,0.368,0.531,0.586,0.91,0.586
	C86.807,154.209,86.948,154.179,87.082,154.118z M84.372,376.801l-0.089-0.043c-0.14-0.068-0.289-0.101-0.436-0.101
	c-0.371,0-0.727,0.207-0.9,0.563c-0.24,0.492-0.039,1.085,0.449,1.331c0.028,0.014,0.057,0.028,0.086,0.042
	c0.006,0.003,0.011,0.004,0.017,0.007c0.141,0.069,0.29,0.101,0.437,0.101c0.37,0,0.726-0.207,0.899-0.563
	C85.075,377.642,84.868,377.043,84.372,376.801z M83.441,155.851l0.088-0.043c0.495-0.246,0.697-0.846,0.452-1.341
	c-0.174-0.352-0.528-0.556-0.896-0.556c-0.15,0-0.301,0.033-0.443,0.104c-0.03,0.015-0.06,0.03-0.09,0.045
	c-0.495,0.245-0.697,0.845-0.452,1.34c0.175,0.351,0.529,0.555,0.897,0.555C83.146,155.956,83.298,155.923,83.441,155.851z
	 M72.883,161.759l0.083-0.053c0.468-0.293,0.61-0.911,0.318-1.378c-0.19-0.304-0.516-0.47-0.849-0.47
	c-0.181,0-0.364,0.049-0.529,0.152c-0.028,0.017-0.057,0.035-0.085,0.054c-0.469,0.292-0.611,0.909-0.317,1.377
	c0.189,0.304,0.516,0.47,0.849,0.47C72.535,161.91,72.718,161.861,72.883,161.759z M243.406,198.828
	c-0.001-0.002-0.002-0.004-0.004-0.006c-0.011-0.017-0.02-0.03-0.03-0.047c-0.191-0.292-0.511-0.453-0.837-0.453
	c-0.185,0-0.372,0.052-0.539,0.158c-0.465,0.298-0.601,0.916-0.303,1.382l0.053,0.082c0.191,0.299,0.514,0.462,0.844,0.462
	c0.184,0,0.371-0.051,0.538-0.157c0.463-0.297,0.6-0.911,0.307-1.376C243.427,198.861,243.415,198.841,243.406,198.828z
	 M234.74,190.083c0.197,0.251,0.49,0.381,0.786,0.381c0.217,0,0.435-0.07,0.618-0.215c0.434-0.341,0.509-0.97,0.167-1.404
	c-0.02-0.027-0.041-0.052-0.062-0.079c-0.197-0.25-0.49-0.381-0.786-0.381c-0.217,0-0.435,0.07-0.618,0.215
	c-0.434,0.342-0.508,0.971-0.166,1.405L234.74,190.083z M238.734,192.028c-0.196-0.266-0.499-0.408-0.805-0.408
	c-0.206,0-0.413,0.064-0.592,0.195c-0.445,0.327-0.54,0.953-0.212,1.399l0.058,0.079c0.196,0.266,0.5,0.407,0.807,0.407
	c0.206,0,0.413-0.064,0.592-0.195c0.445-0.327,0.54-0.953,0.213-1.399C238.774,192.082,238.754,192.054,238.734,192.028z
	 M241.107,195.362c-0.195-0.278-0.505-0.427-0.821-0.427c-0.195,0-0.393,0.057-0.565,0.176c-0.455,0.313-0.57,0.935-0.258,1.39
	l0.056,0.082c0.194,0.282,0.507,0.433,0.825,0.433c0.195,0,0.393-0.056,0.565-0.176c0.453-0.312,0.57-0.93,0.262-1.385
	C241.15,195.423,241.129,195.394,241.107,195.362z M243.863,203.379c0.188,0.315,0.52,0.49,0.861,0.49c0.173,0,0.35-0.045,0.51-0.14
	c0.474-0.283,0.631-0.896,0.349-1.37c-0.002-0.003-0.001-0.001-0.003-0.005l-0.019-0.032c-0.012-0.02-0.023-0.039-0.036-0.06
	c-0.188-0.307-0.517-0.479-0.854-0.479c-0.174,0-0.35,0.045-0.51,0.141c-0.475,0.282-0.63,0.895-0.349,1.371L243.863,203.379z
	 M247.708,210.36l0.045,0.087c0.176,0.348,0.528,0.548,0.893,0.548c0.152,0,0.307-0.035,0.452-0.109
	c0.492-0.25,0.688-0.851,0.438-1.343c-0.005-0.012-0.011-0.022-0.017-0.034c-0.005-0.011-0.013-0.027-0.018-0.036l-0.01-0.019
	c-0.176-0.347-0.527-0.546-0.891-0.546c-0.152,0-0.308,0.035-0.453,0.108C247.653,209.265,247.457,209.868,247.708,210.36z
	 M245.819,206.795l0.047,0.086c0.183,0.331,0.524,0.519,0.877,0.519c0.163,0,0.329-0.04,0.481-0.124
	c0.484-0.267,0.66-0.875,0.394-1.359c-0.003-0.006-0.006-0.012-0.01-0.017c-0.013-0.024-0.027-0.05-0.04-0.074
	c-0.183-0.329-0.523-0.514-0.874-0.514c-0.163,0-0.328,0.04-0.482,0.125C245.728,205.704,245.553,206.312,245.819,206.795z
	 M26.201,212.499c0.142,0.069,0.292,0.103,0.439,0.103c0.37,0,0.725-0.206,0.899-0.561l0.043-0.088
	c0.243-0.497,0.038-1.096-0.457-1.339c-0.142-0.069-0.292-0.103-0.44-0.103c-0.37,0-0.725,0.206-0.898,0.56
	c-0.004,0.009-0.009,0.018-0.013,0.027c-0.012,0.024-0.024,0.048-0.036,0.073C25.503,211.665,25.709,212.258,26.201,212.499z
	 M24.502,216.193c0.133,0.061,0.272,0.089,0.41,0.089c0.382,0,0.746-0.22,0.913-0.59l0.041-0.09
	c0.226-0.504,0.002-1.096-0.501-1.323c-0.133-0.059-0.273-0.088-0.41-0.088c-0.381,0-0.745,0.219-0.912,0.589l0,0.001
	c-0.008,0.017-0.015,0.034-0.023,0.051c-0.008,0.019-0.013,0.028-0.021,0.047C23.776,215.381,24,215.967,24.502,216.193z
	 M22.926,219.943c0.125,0.052,0.253,0.075,0.38,0.075c0.394,0,0.766-0.233,0.925-0.62l0.038-0.091
	c0.21-0.511-0.034-1.096-0.544-1.306c-0.124-0.051-0.253-0.076-0.38-0.076c-0.393,0-0.766,0.234-0.925,0.62l-0.001,0.001
	c-0.012,0.03-0.025,0.061-0.037,0.092C22.171,219.149,22.415,219.734,22.926,219.943z M232.13,186.878l0.064,0.075
	c0.198,0.236,0.48,0.356,0.766,0.356c0.227,0,0.456-0.077,0.643-0.235c0.42-0.354,0.476-0.979,0.128-1.4
	c-0.025-0.03-0.051-0.062-0.077-0.091c-0.197-0.232-0.477-0.35-0.76-0.35c-0.227,0-0.456,0.077-0.643,0.236
	C231.828,185.825,231.774,186.455,232.13,186.878z M31.796,328.09c-0.186-0.317-0.521-0.495-0.865-0.495
	c-0.171,0-0.345,0.044-0.504,0.137c-0.474,0.278-0.635,0.886-0.362,1.361c0.004,0.007,0.009,0.016,0.013,0.022
	c0.007,0.013,0.014,0.025,0.021,0.036c0.008,0.014,0.016,0.029,0.024,0.042c0.187,0.314,0.518,0.488,0.859,0.488
	c0.171,0,0.345-0.044,0.504-0.138c0.476-0.279,0.637-0.892,0.358-1.369L31.796,328.09z M28.021,208.862
	c0.15,0.079,0.311,0.117,0.469,0.117c0.358,0,0.704-0.194,0.884-0.531l0.046-0.087c0.26-0.487,0.075-1.092-0.413-1.352
	c-0.15-0.08-0.31-0.117-0.469-0.117c-0.354,0-0.697,0.189-0.878,0.519c-0.007,0.015-0.012,0.023-0.019,0.036
	c-0.011,0.022-0.022,0.042-0.033,0.062C27.348,207.997,27.534,208.602,28.021,208.862z M259.482,236.404
	c-0.01-0.039-0.018-0.074-0.028-0.113c-0.114-0.452-0.52-0.755-0.967-0.755c-0.079,0-0.158,0.01-0.238,0.029
	c-0.536,0.131-0.865,0.673-0.735,1.209l0.023,0.096c0.112,0.457,0.52,0.764,0.971,0.764c0.079,0,0.158-0.01,0.238-0.03
	C259.279,237.474,259.607,236.938,259.482,236.404z M258.427,240.803c0.099,0.472,0.514,0.796,0.978,0.796
	c0.068,0,0.137-0.007,0.206-0.022c0.539-0.112,0.885-0.639,0.775-1.178c-0.004-0.015-0.005-0.025-0.008-0.04
	c-0.005-0.02-0.009-0.041-0.013-0.06v-0.002c-0.099-0.472-0.514-0.795-0.977-0.795c-0.068,0-0.137,0.007-0.207,0.022
	c-0.54,0.113-0.887,0.644-0.774,1.185L258.427,240.803z M21.473,223.741c0.115,0.043,0.233,0.064,0.349,0.064
	c0.406,0,0.788-0.248,0.938-0.65l0.034-0.093c0.193-0.518-0.07-1.094-0.587-1.286c-0.116-0.043-0.234-0.064-0.35-0.064
	c-0.404,0-0.785,0.247-0.935,0.647c-0.014,0.037-0.026,0.069-0.04,0.106C20.696,222.981,20.959,223.55,21.473,223.741z
	 M261.87,259.659c-0.552,0.025-0.98,0.49-0.956,1.042l0.004,0.099c0.023,0.537,0.466,0.958,0.998,0.958
	c0.014,0,0.029-0.001,0.043-0.001c0.552-0.023,0.98-0.49,0.956-1.042c0-0.012-0.001-0.023-0.001-0.036
	c-0.001-0.025-0.002-0.051-0.003-0.075c-0.029-0.531-0.469-0.945-0.997-0.945C261.899,259.658,261.884,259.659,261.87,259.659z
	 M262.668,256.523c-0.039-0.524-0.477-0.924-0.995-0.924c-0.025,0-0.051,0.001-0.077,0.003c-0.551,0.042-0.964,0.522-0.923,1.073
	l0.007,0.099c0.039,0.524,0.478,0.925,0.996,0.925c0.025,0,0.05-0.001,0.076-0.003c0.548-0.041,0.96-0.517,0.923-1.065
	c0-0.008-0.001-0.02-0.002-0.027C262.672,256.576,262.67,256.549,262.668,256.523z M249.479,213.984l0.041,0.09
	c0.171,0.363,0.531,0.576,0.907,0.576c0.142,0,0.285-0.03,0.423-0.093c0.5-0.234,0.716-0.829,0.482-1.329
	c-0.011-0.024-0.022-0.049-0.034-0.073c-0.003-0.007-0.007-0.017-0.011-0.023c-0.171-0.36-0.529-0.571-0.903-0.571
	c-0.142,0-0.286,0.03-0.423,0.094C249.461,212.889,249.245,213.484,249.479,213.984z M261.299,251.548
	c-0.036,0-0.073,0.002-0.109,0.006c-0.549,0.06-0.946,0.553-0.886,1.102l0.011,0.098c0.056,0.513,0.489,0.893,0.993,0.893
	c0.036,0,0.072-0.002,0.108-0.006c0.549-0.059,0.945-0.552,0.887-1.1c-0.002-0.016-0.003-0.03-0.005-0.046
	c-0.002-0.017-0.004-0.035-0.006-0.054v-0.001C262.236,251.927,261.802,251.548,261.299,251.548z M260.171,245.594
	c0.057,0,0.115-0.005,0.173-0.015c0.542-0.096,0.905-0.609,0.813-1.151c-0.006-0.036-0.014-0.078-0.02-0.114
	c-0.089-0.48-0.509-0.817-0.982-0.817c-0.057,0-0.116,0.005-0.174,0.015c-0.544,0.096-0.907,0.614-0.811,1.158l0.017,0.096
	C259.272,245.252,259.694,245.594,260.171,245.594z M254.56,220.773c-0.007-0.019-0.014-0.037-0.021-0.056
	c-0.006-0.016-0.012-0.032-0.018-0.047c-0.154-0.395-0.532-0.637-0.932-0.637c-0.121,0-0.244,0.023-0.363,0.069
	c-0.514,0.2-0.769,0.78-0.568,1.295l0.036,0.092c0.154,0.396,0.532,0.637,0.933,0.637c0.121,0,0.243-0.021,0.363-0.068
	C254.5,221.859,254.754,221.285,254.56,220.773z M254.061,225.181l0.033,0.093c0.145,0.411,0.531,0.668,0.944,0.668
	c0.11,0,0.222-0.018,0.332-0.057c0.518-0.182,0.792-0.749,0.614-1.269c-0.012-0.033-0.026-0.072-0.037-0.106
	c-0.147-0.408-0.531-0.662-0.941-0.662c-0.11,0-0.223,0.019-0.332,0.057C254.151,224.089,253.878,224.659,254.061,225.181z
	 M251.653,216.352c-0.507,0.218-0.742,0.806-0.524,1.313l0.039,0.091c0.162,0.379,0.532,0.607,0.92,0.607
	c0.131,0,0.265-0.025,0.393-0.081c0.505-0.216,0.741-0.799,0.529-1.304c-0.005-0.011-0.006-0.014-0.011-0.025
	c-0.011-0.025-0.021-0.049-0.032-0.075c-0.163-0.379-0.532-0.606-0.92-0.606C251.916,216.271,251.782,216.297,251.653,216.352z
	 M260.805,249.611c0.046,0,0.094-0.004,0.141-0.011c0.543-0.076,0.922-0.576,0.852-1.118c-0.003-0.025-0.007-0.048-0.01-0.072
	c-0.002-0.013-0.004-0.025-0.005-0.038c-0.07-0.499-0.497-0.859-0.987-0.859c-0.047,0-0.094,0.003-0.142,0.01
	c-0.546,0.078-0.928,0.584-0.85,1.131l0.014,0.098C259.887,249.249,260.315,249.611,260.805,249.611z M256.293,227.704
	c-0.1,0-0.201,0.014-0.301,0.047c-0.527,0.166-0.818,0.727-0.652,1.255l0.029,0.094c0.135,0.427,0.529,0.699,0.954,0.699
	c0.1,0,0.201-0.015,0.301-0.046c0.524-0.166,0.816-0.723,0.655-1.247c-0.008-0.027-0.019-0.062-0.028-0.089
	c-0.002-0.005-0.003-0.009-0.004-0.014C257.111,227.977,256.717,227.704,256.293,227.704z M256.491,232.872l0.026,0.095
	c0.124,0.441,0.525,0.731,0.963,0.731c0.089,0,0.18-0.012,0.269-0.037c0.532-0.148,0.843-0.701,0.694-1.233
	c-0.002-0.007-0.003-0.014-0.005-0.019c-0.008-0.027-0.014-0.051-0.022-0.078c-0.123-0.441-0.524-0.729-0.961-0.729
	c-0.089,0-0.18,0.012-0.27,0.037C256.653,231.788,256.342,232.34,256.491,232.872z M29.96,205.286
	c0.157,0.091,0.328,0.134,0.497,0.134c0.346,0,0.683-0.18,0.868-0.502l0.049-0.085c0.275-0.48,0.111-1.091-0.368-1.366
	c-0.157-0.091-0.328-0.134-0.497-0.134c-0.342,0-0.675,0.176-0.861,0.492c-0.02,0.034-0.042,0.072-0.061,0.106
	C29.318,204.407,29.483,205.012,29.96,205.286z M16.728,291.842c0.541-0.109,0.891-0.637,0.782-1.178l-0.019-0.097
	c-0.096-0.474-0.513-0.801-0.979-0.801c-0.065,0-0.132,0.006-0.199,0.019c-0.541,0.109-0.891,0.635-0.783,1.176
	c0.005,0.023,0.009,0.046,0.014,0.07c0.002,0.009,0.004,0.02,0.006,0.03c0.096,0.474,0.512,0.801,0.978,0.801
	C16.594,291.862,16.661,291.856,16.728,291.842z M17.634,295.808c0.537-0.127,0.87-0.667,0.742-1.204l-0.022-0.096
	c-0.109-0.46-0.52-0.77-0.973-0.77c-0.076,0-0.154,0.009-0.231,0.027c-0.537,0.127-0.87,0.666-0.742,1.203
	c0.002,0.008,0.004,0.016,0.006,0.025c0.003,0.012,0.004,0.016,0.007,0.028c0.003,0.016,0.007,0.03,0.01,0.045
	c0.109,0.46,0.519,0.77,0.972,0.77C17.479,295.836,17.557,295.827,17.634,295.808z M19.372,298.512l-0.026-0.095
	c-0.121-0.445-0.524-0.738-0.965-0.738c-0.087,0-0.175,0.012-0.263,0.035c-0.53,0.144-0.844,0.688-0.705,1.219
	c0.01,0.039,0.021,0.076,0.031,0.115c0.124,0.44,0.524,0.728,0.96,0.728c0.087,0,0.175-0.012,0.263-0.036
	C19.202,299.595,19.517,299.046,19.372,298.512z M20.497,302.386l-0.029-0.094c-0.132-0.43-0.528-0.707-0.956-0.706
	c-0.097,0-0.196,0.014-0.294,0.044c-0.528,0.162-0.824,0.721-0.662,1.25c0.003,0.011,0.007,0.023,0.011,0.035
	c0.007,0.023,0.012,0.04,0.019,0.062c0.132,0.43,0.527,0.705,0.954,0.705c0.098,0,0.197-0.015,0.295-0.045
	C20.363,303.474,20.659,302.915,20.497,302.386z M15.953,287.85c0.544-0.092,0.912-0.607,0.821-1.153l-0.016-0.096
	c-0.082-0.49-0.506-0.835-0.985-0.835c-0.055,0-0.111,0.004-0.167,0.014c-0.541,0.091-0.908,0.602-0.822,1.143
	c0.006,0.036,0.013,0.073,0.019,0.109c0.083,0.488,0.505,0.832,0.983,0.832C15.841,287.863,15.897,287.86,15.953,287.85z
	 M15.312,283.834c0.547-0.074,0.931-0.577,0.857-1.125l-0.014-0.098c-0.067-0.501-0.496-0.867-0.99-0.867
	c-0.044,0-0.089,0.003-0.134,0.01c-0.546,0.073-0.93,0.574-0.858,1.12c0.005,0.037,0.01,0.074,0.015,0.111
	c0.071,0.498,0.498,0.858,0.989,0.858C15.222,283.843,15.267,283.84,15.312,283.834z M21.749,306.221l-0.032-0.093
	c-0.143-0.415-0.531-0.675-0.946-0.675c-0.108,0-0.218,0.018-0.326,0.054c-0.522,0.181-0.8,0.749-0.62,1.272l0.001,0.003
	c0.009,0.027,0.018,0.051,0.026,0.077c0.002,0.005,0.003,0.01,0.005,0.015c0.142,0.414,0.53,0.674,0.944,0.674
	c0.108,0,0.218-0.018,0.326-0.055C21.65,307.313,21.928,306.744,21.749,306.221z M14.801,279.798c0.55-0.056,0.95-0.547,0.894-1.095
	l-0.01-0.099c-0.052-0.514-0.487-0.9-0.994-0.9c-0.034,0-0.067,0.003-0.102,0.005c-0.55,0.056-0.95,0.546-0.894,1.096
	c0,0.003,0,0.006,0,0.009c0.002,0.017,0.003,0.03,0.005,0.047l0.004,0.044c0.052,0.516,0.486,0.899,0.993,0.899
	C14.732,279.804,14.767,279.802,14.801,279.798z M28,321.084l-0.044-0.088c-0.175-0.35-0.529-0.553-0.895-0.553
	c-0.15,0-0.303,0.035-0.446,0.106c-0.494,0.247-0.694,0.848-0.447,1.341l0.018,0.035c0.009,0.018,0.017,0.035,0.025,0.052
	c0.001,0.001,0.002,0.002,0.002,0.003c0.175,0.351,0.528,0.553,0.895,0.553c0.15,0,0.303-0.034,0.447-0.106
	C28.047,322.179,28.247,321.578,28,321.084z M29.865,324.661l-0.047-0.086c-0.181-0.334-0.525-0.524-0.88-0.524
	c-0.161,0-0.324,0.039-0.476,0.121c-0.483,0.262-0.664,0.864-0.407,1.348c0.011,0.02,0.018,0.033,0.029,0.054l0.022,0.041
	c0.181,0.334,0.525,0.523,0.88,0.523c0.161,0,0.324-0.039,0.476-0.121C29.947,325.754,30.128,325.148,29.865,324.661z
	 M26.254,317.448l-0.041-0.09c-0.168-0.367-0.531-0.583-0.91-0.583c-0.14,0-0.282,0.029-0.417,0.091
	c-0.502,0.231-0.722,0.824-0.491,1.326c0.002,0.007,0.005,0.012,0.008,0.019c0.011,0.025,0.024,0.053,0.036,0.078
	c0.169,0.363,0.53,0.577,0.906,0.577c0.14,0,0.282-0.03,0.417-0.092C26.265,318.544,26.485,317.949,26.254,317.448z M24.629,313.756
	l-0.038-0.091c-0.161-0.383-0.532-0.613-0.923-0.613c-0.129,0-0.26,0.025-0.387,0.079c-0.509,0.213-0.748,0.8-0.535,1.308
	c0.002,0.003,0.003,0.006,0.004,0.009c0.012,0.029,0.026,0.062,0.038,0.091c0.163,0.377,0.531,0.605,0.919,0.605
	c0.129,0,0.26-0.025,0.387-0.079C24.604,314.851,24.843,314.265,24.629,313.756z M20.148,227.587
	c0.106,0.035,0.213,0.052,0.318,0.052c0.418,0,0.808-0.263,0.948-0.682l0.031-0.093c0.176-0.524-0.106-1.091-0.629-1.267
	c-0.106-0.035-0.213-0.053-0.319-0.053c-0.414,0-0.801,0.26-0.944,0.672c-0.011,0.034-0.026,0.077-0.037,0.111
	C19.346,226.85,19.627,227.413,20.148,227.587z M23.126,310.012l-0.035-0.091c-0.152-0.399-0.532-0.644-0.935-0.644
	c-0.119,0-0.239,0.021-0.356,0.065c-0.514,0.197-0.772,0.77-0.58,1.283c0.014,0.037,0.025,0.066,0.039,0.103
	c0.153,0.398,0.532,0.642,0.934,0.642c0.119,0,0.24-0.022,0.357-0.067C23.066,311.105,23.324,310.527,23.126,310.012z
	 M16.137,243.341c0.064,0.013,0.128,0.019,0.191,0.019c0.469,0,0.888-0.332,0.98-0.811l0.018-0.096
	c0.105-0.542-0.248-1.067-0.791-1.173c-0.064-0.012-0.129-0.018-0.192-0.018c-0.468,0-0.885,0.329-0.979,0.805
	c-0.005,0.024-0.008,0.04-0.012,0.063c-0.002,0.012-0.004,0.023-0.006,0.033c-0.001,0.004-0.001,0.002-0.002,0.006
	C15.241,242.711,15.595,243.236,16.137,243.341z M15.46,247.351c0.054,0.009,0.107,0.012,0.159,0.012
	c0.483,0,0.908-0.351,0.987-0.841l0.016-0.098c0.087-0.545-0.284-1.059-0.829-1.146c-0.054-0.009-0.107-0.014-0.16-0.014
	c-0.482,0-0.907,0.351-0.986,0.841c-0.002,0.017-0.005,0.032-0.008,0.049c0,0.004,0,0.003-0.001,0.007
	c-0.003,0.015-0.005,0.029-0.007,0.043C14.544,246.752,14.915,247.264,15.46,247.351z M16.944,239.355
	c0.075,0.018,0.15,0.026,0.224,0.026c0.456,0,0.868-0.315,0.973-0.778l0.022-0.096c0.123-0.538-0.213-1.075-0.751-1.198
	c-0.075-0.017-0.15-0.026-0.225-0.026c-0.452,0-0.861,0.309-0.971,0.767c-0.009,0.039-0.018,0.076-0.027,0.116
	C16.072,238.702,16.409,239.233,16.944,239.355z M18.951,231.474c0.096,0.028,0.192,0.042,0.287,0.042
	c0.43,0,0.828-0.281,0.957-0.714l0.028-0.094c0.158-0.529-0.142-1.087-0.671-1.245c-0.096-0.03-0.192-0.043-0.288-0.043
	c-0.428,0.001-0.823,0.278-0.955,0.707c-0.01,0.034-0.022,0.075-0.033,0.109C18.124,230.764,18.424,231.316,18.951,231.474z
	 M14.917,251.383c0.043,0.006,0.084,0.007,0.126,0.007c0.497,0,0.927-0.369,0.992-0.874l0.012-0.098
	c0.069-0.548-0.318-1.049-0.866-1.118c-0.043-0.006-0.085-0.009-0.127-0.009c-0.493,0-0.921,0.365-0.989,0.866
	c-0.002,0.02-0.004,0.03-0.006,0.051c-0.002,0.02-0.005,0.038-0.007,0.057C13.981,250.813,14.368,251.313,14.917,251.383z
	 M17.883,235.398c0.085,0.023,0.171,0.033,0.255,0.033c0.443,0,0.848-0.297,0.966-0.746l0.025-0.095
	c0.141-0.534-0.178-1.082-0.711-1.223c-0.086-0.022-0.172-0.033-0.256-0.033c-0.442,0-0.846,0.295-0.965,0.743l-0.003,0.014
	c-0.007,0.028-0.015,0.057-0.022,0.085C17.03,234.71,17.349,235.257,17.883,235.398z M14.057,267.622h0.005
	c0.552-0.003,0.998-0.453,0.997-1.004v-0.099c-0.003-0.551-0.45-0.997-1-0.997h-0.003c-0.552,0.002-0.998,0.451-0.996,1.003v0.101
	C13.06,267.177,13.507,267.622,14.057,267.622z M14.506,255.429c0.031,0.003,0.062,0.005,0.094,0.005
	c0.51,0,0.946-0.389,0.994-0.908l0.009-0.098c0.051-0.55-0.353-1.038-0.902-1.089c-0.032-0.003-0.064-0.004-0.095-0.004
	c-0.506,0-0.939,0.383-0.993,0.896c-0.003,0.032-0.006,0.063-0.009,0.096c0,0.005-0.001,0.009-0.001,0.014
	C13.552,254.89,13.957,255.378,14.506,255.429z M14.423,275.749c0.551-0.038,0.967-0.516,0.929-1.066l-0.007-0.098
	c-0.036-0.527-0.476-0.932-0.997-0.932c-0.023,0-0.046,0.001-0.069,0.002c-0.551,0.038-0.967,0.515-0.929,1.065l0.002,0.023
	c0.002,0.03,0.004,0.058,0.006,0.087c0.041,0.522,0.478,0.921,0.995,0.921C14.376,275.751,14.4,275.75,14.423,275.749z
	 M14.14,271.689h0.037c0.552-0.02,0.983-0.484,0.963-1.036l-0.004-0.098c-0.02-0.54-0.463-0.964-0.999-0.964
	c-0.012,0-0.024,0-0.036,0.001c-0.549,0.02-0.979,0.479-0.964,1.028c0,0.008,0.001,0.015,0.001,0.023
	c0.001,0.028,0.002,0.056,0.003,0.084C13.161,271.266,13.605,271.689,14.14,271.689z M14.226,259.486
	c0.021,0.001,0.041,0.002,0.062,0.002c0.525,0,0.965-0.409,0.997-0.94l0.006-0.098c0.034-0.551-0.386-1.026-0.938-1.06
	c-0.02-0.001-0.042-0.002-0.062-0.002c-0.522,0-0.961,0.405-0.997,0.932c-0.002,0.037-0.004,0.075-0.007,0.113
	C13.259,258.982,13.678,259.453,14.226,259.486z M14.079,263.553h0.029c0.539,0,0.984-0.43,0.999-0.972l0.003-0.099
	c0.016-0.552-0.419-1.013-0.971-1.029h-0.029c-0.539,0-0.983,0.428-0.998,0.971c-0.001,0.028-0.002,0.055-0.002,0.082
	c0,0.008,0,0.017-0.001,0.025C13.096,263.081,13.529,263.537,14.079,263.553z M232.036,345.97c-0.281,0-0.56,0.117-0.758,0.347
	l-0.064,0.076c-0.36,0.418-0.314,1.05,0.105,1.41c0.189,0.163,0.421,0.244,0.652,0.244c0.278,0,0.554-0.116,0.751-0.341
	c0.018-0.02,0.036-0.039,0.053-0.061c0.002-0.002,0.004-0.005,0.006-0.007c0.005-0.006,0.008-0.01,0.013-0.015
	c0.359-0.418,0.312-1.048-0.106-1.408C232.499,346.05,232.267,345.97,232.036,345.97z M226.531,351.957
	c-0.259,0-0.518,0.1-0.714,0.3l-0.069,0.07c-0.387,0.394-0.382,1.028,0.012,1.415c0.195,0.191,0.448,0.287,0.701,0.287
	c0.257,0,0.513-0.099,0.708-0.294c0.014-0.014,0.029-0.03,0.043-0.044c0.005-0.005,0.011-0.01,0.016-0.016
	c0.006-0.005,0.015-0.015,0.02-0.02c0.383-0.394,0.376-1.024-0.016-1.41C227.037,352.053,226.783,351.957,226.531,351.957z
	 M239.532,336.349c-0.314,0-0.624,0.147-0.819,0.424l-0.057,0.082c-0.318,0.451-0.21,1.075,0.242,1.393
	c0.175,0.124,0.375,0.183,0.575,0.183c0.311,0,0.618-0.146,0.812-0.417c0.022-0.031,0.046-0.065,0.069-0.096
	c0.311-0.451,0.201-1.07-0.248-1.386C239.932,336.408,239.731,336.349,239.532,336.349z M222.378,173.84l-0.009-0.009
	c-0.02-0.019-0.045-0.041-0.065-0.059c-0.192-0.175-0.433-0.261-0.674-0.261c-0.271,0-0.541,0.109-0.739,0.325
	c-0.372,0.408-0.344,1.04,0.064,1.413l0.072,0.067c0.192,0.174,0.434,0.262,0.675,0.262c0.271,0,0.541-0.109,0.738-0.325
	C222.814,174.845,222.786,174.212,222.378,173.84z M223.635,354.813c-0.248,0-0.497,0.091-0.69,0.276l-0.071,0.067
	c-0.399,0.382-0.415,1.015-0.034,1.415c0.197,0.207,0.46,0.31,0.724,0.31c0.247,0,0.493-0.091,0.686-0.273
	c0.006-0.005,0.017-0.016,0.023-0.02c0.009-0.009,0.018-0.017,0.026-0.025c0.011-0.011,0.024-0.023,0.036-0.033
	c0.392-0.383,0.404-1.01,0.025-1.406C224.162,354.917,223.898,354.813,223.635,354.813z M228.243,179.568
	c-0.005-0.005-0.01-0.011-0.015-0.016c-0.008-0.009-0.017-0.018-0.024-0.026c-0.01-0.01-0.02-0.02-0.03-0.031
	c-0.196-0.204-0.458-0.307-0.721-0.307c-0.249,0-0.498,0.093-0.692,0.278c-0.398,0.383-0.411,1.017-0.028,1.414l0.068,0.072
	c0.196,0.204,0.458,0.307,0.722,0.307c0.249,0,0.498-0.093,0.692-0.278C228.613,180.599,228.626,179.966,228.243,179.568z
	 M237.139,339.636c-0.304,0-0.603,0.137-0.8,0.398l-0.059,0.079c-0.333,0.44-0.245,1.067,0.196,1.4
	c0.18,0.136,0.392,0.202,0.601,0.202c0.299,0,0.595-0.133,0.792-0.389c0.017-0.021,0.028-0.037,0.045-0.059
	c0.007-0.01,0.015-0.02,0.023-0.029c0.332-0.441,0.244-1.068-0.197-1.402C237.559,339.701,237.348,339.636,237.139,339.636z
	 M202.731,159.118c-0.01-0.006-0.019-0.012-0.029-0.018l-0.063-0.038c-0.162-0.099-0.341-0.145-0.517-0.145
	c-0.338,0-0.668,0.171-0.856,0.482c-0.286,0.472-0.135,1.088,0.338,1.374l0.084,0.051c0.162,0.099,0.341,0.145,0.517,0.145
	c0.338,0,0.668-0.171,0.856-0.482C203.346,160.016,203.198,159.406,202.731,159.118z M220.647,357.573
	c-0.237,0-0.475,0.083-0.666,0.253l-0.073,0.067c-0.412,0.367-0.448,1-0.08,1.412c0.197,0.221,0.471,0.334,0.746,0.334
	c0.233,0,0.467-0.082,0.657-0.246c0.015-0.014,0.023-0.022,0.038-0.035l0.045-0.041c0.411-0.367,0.447-1,0.079-1.411
	C221.196,357.685,220.922,357.573,220.647,357.573z M229.332,349.008c-0.269,0-0.539,0.109-0.736,0.323l-0.066,0.072
	c-0.374,0.406-0.348,1.039,0.059,1.413c0.192,0.176,0.434,0.265,0.677,0.265c0.268,0,0.534-0.107,0.73-0.318
	c0.027-0.028,0.053-0.057,0.08-0.087c0.367-0.406,0.338-1.034-0.066-1.405C229.817,349.095,229.574,349.008,229.332,349.008z
	 M231.033,182.572c-0.003-0.003-0.004-0.005-0.007-0.008l-0.06-0.067c-0.198-0.218-0.47-0.331-0.744-0.331
	c-0.238,0-0.477,0.085-0.668,0.257c-0.411,0.37-0.444,1.002-0.074,1.413l0.065,0.072c0.198,0.219,0.47,0.332,0.744,0.332
	c0.238,0,0.478-0.085,0.668-0.257C231.369,183.614,231.402,182.982,231.033,182.572z M225.363,176.661
	c-0.016-0.017-0.033-0.032-0.05-0.049c-0.009-0.009-0.018-0.017-0.027-0.026h-0.001c-0.194-0.19-0.446-0.284-0.698-0.284
	c-0.26,0-0.52,0.101-0.716,0.302c-0.385,0.396-0.378,1.029,0.018,1.414l0.071,0.069c0.194,0.19,0.446,0.284,0.698,0.284
	c0.26,0,0.52-0.101,0.716-0.302C225.759,177.676,225.753,177.047,225.363,176.661z M219.315,171.127
	c-0.012-0.01-0.022-0.019-0.034-0.029c-0.016-0.014-0.032-0.028-0.048-0.042c-0.189-0.161-0.419-0.24-0.649-0.24
	c-0.282,0-0.562,0.119-0.76,0.35c-0.359,0.42-0.309,1.05,0.11,1.41l0.075,0.063c0.189,0.163,0.42,0.24,0.65,0.24
	c0.282,0,0.562-0.118,0.76-0.349C219.776,172.114,219.729,171.487,219.315,171.127z M206.197,161.298
	c-0.02-0.012-0.037-0.024-0.057-0.037c-0.007-0.005-0.015-0.009-0.023-0.014c-0.003-0.002-0.005-0.004-0.008-0.006
	c-0.168-0.108-0.356-0.161-0.543-0.161c-0.327,0-0.648,0.161-0.84,0.455c-0.301,0.462-0.17,1.082,0.293,1.384l0.083,0.053
	c0.169,0.11,0.358,0.163,0.545,0.163c0.327,0,0.647-0.16,0.839-0.455C206.788,162.217,206.658,161.599,206.197,161.298z
	 M207.846,367.595c-0.194,0-0.39,0.056-0.563,0.174l-0.081,0.055c-0.457,0.312-0.574,0.934-0.263,1.391
	c0.193,0.283,0.507,0.436,0.827,0.436c0.193,0,0.388-0.056,0.56-0.173c0.032-0.021,0.061-0.042,0.094-0.063
	c0.448-0.315,0.561-0.931,0.252-1.384C208.479,367.747,208.166,367.595,207.846,367.595z M204.45,369.832
	c-0.184,0-0.369,0.051-0.535,0.157l-0.083,0.052c-0.466,0.296-0.604,0.914-0.309,1.381c0.19,0.299,0.514,0.464,0.845,0.464
	c0.181,0,0.364-0.049,0.529-0.151c0.033-0.022,0.062-0.04,0.095-0.061c0.463-0.297,0.599-0.913,0.304-1.378
	C205.105,369.996,204.781,369.832,204.45,369.832z M209.51,163.533c-0.174-0.122-0.373-0.18-0.571-0.18
	c-0.316,0-0.627,0.148-0.821,0.428c-0.316,0.453-0.206,1.076,0.247,1.392l0.081,0.057c0.174,0.121,0.374,0.179,0.572,0.179
	c0.316,0,0.626-0.148,0.821-0.427c0.316-0.453,0.206-1.076-0.247-1.393C209.565,163.571,209.537,163.552,209.51,163.533z
	 M214.41,362.793c-0.215,0-0.433,0.069-0.616,0.213l-0.077,0.061c-0.435,0.341-0.512,0.969-0.172,1.405
	c0.197,0.252,0.491,0.383,0.788,0.383c0.215,0,0.432-0.069,0.614-0.211c0.003-0.002,0.01-0.007,0.013-0.01
	c0.022-0.018,0.045-0.035,0.067-0.052c0.434-0.341,0.511-0.969,0.171-1.404C215.001,362.924,214.707,362.793,214.41,362.793z
	 M217.571,360.234c-0.227,0-0.454,0.076-0.641,0.232l-0.076,0.063c-0.424,0.355-0.48,0.986-0.126,1.41
	c0.198,0.236,0.482,0.358,0.768,0.358c0.223,0,0.447-0.074,0.632-0.226c0.015-0.012,0.034-0.028,0.049-0.041
	c0.012-0.01,0.025-0.02,0.036-0.03c0.424-0.354,0.48-0.984,0.126-1.408C218.141,360.356,217.857,360.234,217.571,360.234z
	 M211.168,365.248c-0.205,0-0.412,0.062-0.59,0.192l-0.079,0.059c-0.446,0.325-0.543,0.951-0.218,1.397
	c0.196,0.268,0.5,0.411,0.808,0.411c0.202,0,0.407-0.062,0.584-0.19c0.006-0.004,0.015-0.01,0.021-0.016
	c0.021-0.015,0.043-0.031,0.064-0.047c0.446-0.326,0.543-0.951,0.217-1.397C211.78,365.389,211.476,365.248,211.168,365.248z
	 M212.902,165.987c-0.023-0.017-0.046-0.035-0.07-0.053c-0.18-0.135-0.39-0.199-0.598-0.199c-0.304,0-0.605,0.137-0.801,0.4
	c-0.33,0.443-0.241,1.07,0.202,1.4l0.079,0.059c0.18,0.135,0.39,0.2,0.599,0.2c0.304,0,0.605-0.139,0.802-0.401
	c0.329-0.441,0.242-1.064-0.197-1.396C212.91,165.993,212.908,165.991,212.902,165.987z M234.639,342.845
	c-0.292,0-0.582,0.128-0.78,0.372l-0.061,0.077c-0.347,0.43-0.279,1.06,0.15,1.406c0.185,0.15,0.407,0.221,0.627,0.221
	c0.289,0,0.575-0.124,0.772-0.364c0.01-0.012,0.023-0.028,0.033-0.039c0.012-0.016,0.025-0.03,0.037-0.046
	c0.347-0.43,0.28-1.059-0.15-1.405C235.082,342.918,234.86,342.845,234.639,342.845z M261.267,279.97
	c-0.04-0.005-0.081-0.007-0.12-0.007c-0.499,0-0.931,0.373-0.992,0.881l-0.012,0.097c-0.066,0.549,0.325,1.047,0.873,1.113
	c0.04,0.004,0.081,0.008,0.121,0.008c0.499,0,0.931-0.373,0.992-0.881c0.002-0.017,0.004-0.035,0.006-0.051
	c0.002-0.016,0.005-0.039,0.007-0.056C262.202,280.528,261.812,280.035,261.267,279.97z M261.65,275.922
	c-0.029-0.003-0.059-0.004-0.087-0.004c-0.513,0-0.95,0.393-0.995,0.914l-0.008,0.098c-0.048,0.551,0.359,1.035,0.91,1.083
	c0.03,0.002,0.059,0.004,0.088,0.004c0.513,0,0.949-0.392,0.995-0.912c0.002-0.028,0.005-0.057,0.008-0.086
	c0-0.005,0-0.01,0.001-0.015C262.608,276.454,262.201,275.969,261.65,275.922z M260.751,284.004c-0.051-0.008-0.102-0.01-0.152-0.01
	c-0.486,0-0.912,0.353-0.988,0.848l-0.015,0.098c-0.084,0.546,0.291,1.055,0.837,1.139c0.051,0.008,0.103,0.012,0.153,0.012
	c0.485,0,0.911-0.354,0.987-0.848c0.004-0.024,0.008-0.049,0.011-0.073c0.002-0.013,0.003-0.02,0.005-0.032
	C261.669,284.595,261.295,284.088,260.751,284.004z M259.323,292.011c-0.073-0.016-0.145-0.023-0.217-0.023
	c-0.459,0-0.873,0.318-0.976,0.785l-0.021,0.096c-0.119,0.539,0.221,1.073,0.76,1.192c0.073,0.017,0.146,0.025,0.217,0.025
	c0.458,0,0.872-0.318,0.975-0.783l0.004-0.02c0.006-0.027,0.013-0.06,0.02-0.088C260.198,292.658,259.859,292.129,259.323,292.011z
	 M260.103,288.021c-0.062-0.012-0.124-0.017-0.185-0.017c-0.472,0-0.892,0.336-0.982,0.817l-0.019,0.096
	c-0.102,0.543,0.256,1.065,0.799,1.167c0.062,0.012,0.124,0.018,0.185,0.018c0.469,0,0.887-0.332,0.98-0.807
	c0.007-0.036,0.014-0.076,0.021-0.111C261.001,288.641,260.644,288.121,260.103,288.021z M262.022,267.795h-0.022
	c-0.542,0-0.988,0.433-1,0.979l-0.003,0.098c-0.012,0.552,0.426,1.01,0.978,1.022h0.023c0.542,0,0.987-0.433,0.999-0.978
	c0-0.012,0.001-0.026,0.001-0.039c0-0.009,0-0.017,0-0.024c0-0.013,0-0.025,0.001-0.036
	C263.013,268.263,262.574,267.806,262.022,267.795z M122.882,388.175l-0.098-0.012c-0.042-0.005-0.083-0.007-0.124-0.007
	c-0.497,0-0.929,0.371-0.991,0.877c-0.068,0.548,0.321,1.048,0.869,1.115c0.005,0,0.009,0.001,0.014,0.002
	c0.029,0.003,0.062,0.007,0.09,0.01c0.04,0.005,0.08,0.007,0.119,0.007c0.498,0,0.929-0.371,0.991-0.879
	C123.819,388.741,123.43,388.242,122.882,388.175z M261.902,271.861c-0.018-0.001-0.036-0.002-0.055-0.002
	c-0.528,0-0.969,0.413-0.998,0.947l-0.005,0.098c-0.03,0.552,0.393,1.024,0.944,1.054c0.018,0.001,0.037,0.001,0.055,0.001
	c0.527,0,0.969-0.412,0.997-0.945c0-0.004,0.001-0.007,0.001-0.01c0.002-0.034,0.003-0.063,0.005-0.096
	C262.873,272.358,262.452,271.891,261.902,271.861z M263.021,264.704c-0.01-0.544-0.454-0.981-0.999-0.981h-0.011
	c-0.552,0.007-0.995,0.459-0.99,1.011l0.001,0.098c0.006,0.549,0.453,0.99,1,0.99h0.01c0.551-0.006,0.994-0.456,0.99-1.007
	c0-0.009,0-0.006,0-0.015c-0.001-0.009-0.001-0.018-0.001-0.027C263.022,264.755,263.022,264.726,263.021,264.704z M258.411,295.975
	c-0.083-0.022-0.167-0.031-0.249-0.031c-0.446,0-0.852,0.301-0.969,0.752l-0.025,0.096c-0.137,0.535,0.185,1.08,0.72,1.217
	c0.083,0.022,0.167,0.032,0.249,0.032c0.442,0,0.846-0.296,0.965-0.742c0.01-0.039,0.021-0.079,0.03-0.118
	C259.264,296.649,258.943,296.111,258.411,295.975z M248.456,322.58c-0.148-0.077-0.307-0.114-0.463-0.114
	c-0.36,0-0.709,0.195-0.888,0.537l-0.045,0.087c-0.256,0.489-0.067,1.094,0.422,1.35c0.148,0.078,0.307,0.114,0.463,0.114
	c0.357,0,0.702-0.192,0.882-0.527c0.011-0.02,0.023-0.043,0.033-0.064c0.006-0.01,0.012-0.022,0.018-0.034
	C249.134,323.44,248.945,322.836,248.456,322.58z M246.541,326.169c-0.155-0.088-0.324-0.13-0.491-0.13
	c-0.349,0-0.687,0.182-0.871,0.508l-0.048,0.085c-0.272,0.481-0.103,1.092,0.377,1.363c0.156,0.088,0.325,0.13,0.492,0.13
	c0.349,0,0.687-0.182,0.871-0.508c0.01-0.017,0.02-0.036,0.03-0.054c0.008-0.014,0.016-0.028,0.024-0.042
	C247.189,327.043,247.019,326.439,246.541,326.169z M242.364,333.147c-0.169-0.111-0.359-0.163-0.547-0.163
	c-0.326,0-0.645,0.159-0.837,0.452l-0.054,0.082c-0.303,0.462-0.174,1.082,0.288,1.385c0.169,0.111,0.359,0.164,0.548,0.164
	c0.325,0,0.644-0.158,0.836-0.451c0.001-0.001,0.001-0.002,0.003-0.003c0.017-0.026,0.035-0.054,0.052-0.08l0.001-0.001
	C242.955,334.069,242.826,333.45,242.364,333.147z M244.51,329.691c-0.162-0.098-0.342-0.145-0.519-0.145
	c-0.337,0-0.666,0.17-0.855,0.48l-0.051,0.084c-0.287,0.472-0.139,1.087,0.333,1.375c0.162,0.099,0.342,0.146,0.52,0.146
	c0.335,0,0.662-0.168,0.851-0.474c0.014-0.023,0.029-0.048,0.044-0.071c0.004-0.007,0.008-0.013,0.012-0.02
	C245.13,330.595,244.981,329.979,244.51,329.691z M257.371,299.907c-0.094-0.028-0.188-0.04-0.28-0.04
	c-0.433,0-0.833,0.283-0.961,0.72l-0.027,0.095c-0.155,0.53,0.149,1.086,0.68,1.24c0.093,0.028,0.188,0.041,0.281,0.041
	c0.433,0,0.831-0.284,0.959-0.72c0-0.001,0.001-0.002,0.001-0.002c0.007-0.023,0.011-0.037,0.018-0.06
	c0.003-0.012,0.006-0.022,0.01-0.034C258.204,300.617,257.901,300.061,257.371,299.907z M250.25,318.931
	c-0.14-0.067-0.288-0.099-0.434-0.099c-0.372,0-0.729,0.208-0.902,0.566l-0.042,0.088c-0.24,0.497-0.031,1.096,0.466,1.336
	c0.14,0.068,0.288,0.099,0.434,0.099c0.371,0,0.728-0.207,0.9-0.564c0.007-0.014,0.016-0.033,0.023-0.047
	c0.007-0.015,0.014-0.029,0.021-0.044C250.956,319.767,250.748,319.171,250.25,318.931z M254.901,307.656
	c-0.113-0.042-0.229-0.061-0.343-0.061c-0.408,0-0.792,0.252-0.941,0.657l-0.034,0.093c-0.189,0.518,0.078,1.092,0.596,1.283
	c0.113,0.042,0.229,0.061,0.343,0.061c0.408,0,0.791-0.252,0.939-0.657c0.011-0.031,0.023-0.062,0.034-0.094
	C255.686,308.419,255.42,307.846,254.901,307.656z M256.199,303.8c-0.103-0.034-0.208-0.049-0.312-0.049
	c-0.42,0-0.811,0.267-0.95,0.688l-0.031,0.094c-0.172,0.524,0.114,1.09,0.638,1.263c0.104,0.034,0.209,0.05,0.312,0.05
	c0.42,0,0.81-0.267,0.949-0.687c0.001-0.004,0.002-0.007,0.004-0.012c0.009-0.028,0.018-0.056,0.027-0.085
	C257.009,304.538,256.723,303.972,256.199,303.8z M253.474,311.464c-0.122-0.049-0.248-0.073-0.373-0.073
	c-0.396,0-0.771,0.237-0.929,0.627l-0.036,0.091c-0.207,0.513,0.041,1.094,0.554,1.301c0.123,0.05,0.249,0.074,0.374,0.074
	c0.393,0,0.766-0.234,0.924-0.618c0.003-0.008,0.009-0.022,0.012-0.029c0.007-0.016,0.013-0.031,0.019-0.048
	c0.005-0.01,0.01-0.024,0.015-0.035C254.231,312.244,253.983,311.668,253.474,311.464z M251.924,315.224
	c-0.131-0.057-0.269-0.085-0.403-0.085c-0.384,0-0.75,0.223-0.915,0.596l-0.04,0.09c-0.223,0.506,0.005,1.097,0.51,1.319
	c0.131,0.059,0.269,0.086,0.404,0.086c0.382,0,0.747-0.22,0.913-0.591c0.015-0.033,0.029-0.065,0.043-0.098
	C252.657,316.036,252.429,315.447,251.924,315.224z M191.909,153.267c-0.03-0.014-0.06-0.028-0.09-0.043
	c-0.139-0.066-0.286-0.098-0.431-0.098c-0.373,0-0.73,0.21-0.902,0.569c-0.238,0.499-0.027,1.096,0.471,1.334l0.089,0.043
	c0.139,0.066,0.286,0.098,0.431,0.098c0.373,0,0.731-0.21,0.903-0.568C192.618,154.102,192.407,153.505,191.909,153.267z
	 M148.622,141.537c-0.03-0.002-0.059-0.005-0.089-0.007c-0.008-0.001-0.005-0.001-0.013-0.002c-0.028-0.002-0.055-0.003-0.082-0.003
	c-0.515,0-0.951,0.395-0.994,0.916c-0.046,0.551,0.363,1.034,0.913,1.081l0.098,0.008c0.028,0.002,0.056,0.004,0.084,0.004
	c0.515,0,0.952-0.396,0.996-0.917C149.581,142.066,149.173,141.582,148.622,141.537z M151.171,388.414
	c-0.035,0-0.07,0.002-0.105,0.005l-0.098,0.01c-0.549,0.058-0.948,0.55-0.891,1.099c0.054,0.514,0.487,0.896,0.993,0.896
	c0.035,0,0.07-0.002,0.105-0.006c0.008-0.001,0.015-0.002,0.023-0.002c0.004-0.001,0,0,0.004-0.001
	c0.011-0.001,0.022-0.002,0.033-0.003c0.012-0.002,0.035-0.004,0.048-0.006c0.545-0.061,0.939-0.55,0.881-1.097
	C152.11,388.795,151.676,388.414,151.171,388.414z M152.701,141.946c-0.024-0.003-0.046-0.006-0.069-0.008
	c-0.012-0.002-0.027-0.004-0.039-0.005c-0.036-0.004-0.072-0.006-0.108-0.006c-0.5,0-0.932,0.375-0.991,0.883
	c-0.063,0.549,0.33,1.046,0.878,1.109l0.098,0.012c0.039,0.005,0.078,0.007,0.117,0.007c0.5,0,0.933-0.375,0.992-0.885
	C153.642,142.506,153.249,142.009,152.701,141.946z M144.531,141.261c-0.034-0.002-0.067-0.004-0.1-0.006
	c-0.017,0-0.034-0.001-0.051-0.001c-0.529,0-0.971,0.415-0.998,0.95c-0.027,0.552,0.397,1.021,0.949,1.049l0.099,0.005
	c0.017,0.001,0.034,0.001,0.051,0.001c0.529,0,0.971-0.415,0.998-0.949C145.506,141.758,145.082,141.289,144.531,141.261z
	 M147.118,388.773c-0.024,0-0.048,0.001-0.072,0.003l-0.098,0.007c-0.551,0.04-0.965,0.518-0.926,1.069
	c0.038,0.527,0.476,0.929,0.996,0.929c0.023,0,0.047-0.001,0.07-0.003c0.004,0,0.012-0.001,0.017-0.001
	c0.028-0.002,0.057-0.004,0.086-0.007c0.551-0.039,0.965-0.517,0.925-1.068C148.077,389.175,147.638,388.773,147.118,388.773z
	 M143.059,389c-0.013,0-0.026,0-0.04,0.001l-0.098,0.004c-0.552,0.022-0.982,0.486-0.96,1.038c0.021,0.539,0.464,0.961,0.998,0.961
	c0.014,0,0.027,0,0.041-0.001h0.006c0.034-0.001,0.057-0.003,0.09-0.004h0.003c0.552-0.022,0.981-0.485,0.959-1.037
	C144.036,389.423,143.593,389,143.059,389z M159.225,387.298c-0.056,0-0.113,0.005-0.17,0.015l-0.097,0.016
	c-0.544,0.093-0.91,0.611-0.817,1.154c0.083,0.488,0.506,0.832,0.984,0.832c0.054,0,0.108-0.004,0.163-0.014
	c0.008-0.001,0.023-0.004,0.031-0.004c0.025-0.004,0.05-0.009,0.075-0.013c0.544-0.094,0.91-0.61,0.816-1.154
	C160.126,387.642,159.702,387.298,159.225,387.298z M160.816,143.165c-0.012-0.003-0.025-0.004-0.037-0.007
	c-0.024-0.004-0.047-0.009-0.07-0.012c-0.062-0.012-0.123-0.018-0.183-0.018c-0.473,0-0.892,0.337-0.981,0.82
	c-0.1,0.543,0.26,1.064,0.803,1.165l0.097,0.017c0.061,0.012,0.122,0.017,0.182,0.017c0.474,0,0.894-0.337,0.983-0.819
	C161.71,143.788,161.355,143.269,160.816,143.165z M156.775,142.489c-0.04-0.006-0.08-0.012-0.12-0.019
	c-0.047-0.006-0.093-0.009-0.139-0.009c-0.487,0-0.913,0.355-0.988,0.852c-0.081,0.547,0.295,1.055,0.841,1.136l0.097,0.015
	c0.05,0.007,0.101,0.012,0.15,0.012c0.486,0,0.913-0.357,0.988-0.853C157.685,143.082,157.315,142.577,156.775,142.489z
	 M155.207,387.921c-0.045,0-0.091,0.004-0.138,0.009l-0.098,0.014c-0.547,0.075-0.93,0.581-0.854,1.127
	c0.069,0.501,0.497,0.864,0.989,0.864c0.043,0,0.085-0.003,0.129-0.009c0.041-0.006,0.075-0.01,0.115-0.015
	c0.543-0.079,0.922-0.582,0.847-1.127C156.128,388.284,155.699,387.921,155.207,387.921z M138.043,143.095c0.552,0,1-0.448,1-1
	c0-0.553-0.447-1-0.999-1c-0.001,0-0.001,0-0.001,0h-0.11c-0.548,0.005-0.99,0.451-0.99,1c0.001,0.553,0.449,1,1.001,1H138.043z
	 M140.435,141.117h-0.006c-0.033-0.001-0.072-0.001-0.105-0.002h-0.007c-0.544,0-0.99,0.435-0.999,0.981
	c-0.01,0.553,0.43,1.009,0.982,1.019l0.099,0.002h0.018c0.544,0,0.989-0.435,1-0.981
	C141.426,141.584,140.987,141.127,140.435,141.117z M129.879,143.362l0.098-0.006c0.551-0.036,0.969-0.511,0.933-1.063
	c-0.034-0.529-0.474-0.934-0.996-0.934c-0.019,0-0.038,0-0.058,0.001c-0.037,0.003-0.081,0.006-0.119,0.008
	c-0.546,0.042-0.957,0.516-0.922,1.063c0.035,0.529,0.474,0.934,0.996,0.934C129.834,143.364,129.857,143.364,129.879,143.362z
	 M126.892,388.601l-0.098-0.009c-0.03-0.002-0.061-0.004-0.091-0.004c-0.512,0-0.948,0.391-0.995,0.91
	c-0.05,0.55,0.355,1.036,0.905,1.086c0.017,0.001,0.033,0.003,0.049,0.004c0.013,0.002,0.02,0.002,0.032,0.003
	c0.006,0.001,0.012,0.002,0.019,0.002c0.031,0.003,0.062,0.004,0.091,0.004c0.512,0,0.948-0.389,0.994-0.909
	C127.847,389.138,127.442,388.651,126.892,388.601z M125.86,143.691l0.098-0.01c0.55-0.053,0.952-0.543,0.898-1.092
	c-0.05-0.517-0.485-0.903-0.993-0.903c-0.029,0-0.058,0.001-0.087,0.004c-0.016,0.002-0.039,0.004-0.055,0.005
	c-0.011,0.002-0.022,0.003-0.034,0.004c-0.008,0.001-0.022,0.002-0.03,0.003c-0.545,0.057-0.943,0.544-0.888,1.091
	c0.05,0.517,0.486,0.903,0.994,0.903C125.794,143.696,125.827,143.694,125.86,143.691z M130.915,388.897l-0.098-0.006
	c-0.02-0.001-0.039-0.001-0.058-0.001c-0.526,0-0.967,0.41-0.997,0.943c-0.032,0.548,0.384,1.018,0.931,1.055
	c0.037,0.003,0.071,0.005,0.108,0.007h0.001c0.02,0.001,0.04,0.001,0.059,0.001c0.525,0,0.966-0.41,0.996-0.941
	C131.888,389.402,131.467,388.929,130.915,388.897z M138.993,389.096h-0.008l-0.099,0.001c-0.552,0.004-0.997,0.455-0.993,1.007
	c0.004,0.55,0.45,0.993,0.999,0.993h0.022c0.029,0,0.065,0,0.094-0.001c0.548-0.009,0.988-0.458,0.983-1.008
	C139.988,389.539,139.542,389.096,138.993,389.096z M163.222,386.541c-0.067,0-0.135,0.007-0.203,0.022l-0.097,0.019
	c-0.54,0.111-0.889,0.641-0.778,1.182c0.097,0.473,0.513,0.798,0.977,0.798c0.067,0,0.135-0.006,0.203-0.02
	c0.033-0.008,0.065-0.014,0.098-0.02c0.541-0.112,0.889-0.641,0.777-1.181C164.102,386.867,163.686,386.541,163.222,386.541z
	 M133.909,143.163l0.099-0.002c0.552-0.019,0.985-0.481,0.967-1.033c-0.018-0.541-0.462-0.968-0.999-0.968
	c-0.011,0-0.022,0-0.033,0.001c-0.033,0.001-0.067,0.002-0.1,0.003c-0.552,0.017-0.985,0.48-0.966,1.031
	c0.018,0.541,0.462,0.968,0.999,0.968H133.909z M134.948,389.061l-0.098-0.002h-0.026c-0.54,0-0.986,0.431-0.999,0.974
	c-0.014,0.553,0.422,1.012,0.974,1.026c0.03,0.001,0.06,0.001,0.09,0.002h0.014c0.008,0.001,0.016,0.001,0.023,0.001
	c0.54,0,0.985-0.432,0.998-0.974C135.937,389.535,135.5,389.076,134.948,389.061z M178.887,382.214c-0.109,0-0.22,0.018-0.329,0.056
	l-0.093,0.033c-0.522,0.181-0.797,0.751-0.616,1.273c0.144,0.412,0.53,0.671,0.944,0.671c0.109,0,0.22-0.017,0.329-0.056
	c0.002-0.001,0.003-0.001,0.005-0.002c0.034-0.012,0.065-0.022,0.1-0.035c0.514-0.184,0.786-0.751,0.605-1.268
	C179.689,382.473,179.301,382.214,178.887,382.214z M188.182,151.559c-0.015-0.005-0.029-0.012-0.044-0.018
	c-0.011-0.005-0.021-0.009-0.032-0.014c-0.005-0.002-0.011-0.005-0.016-0.007c-0.13-0.058-0.267-0.084-0.401-0.084
	c-0.385,0-0.751,0.224-0.916,0.599c-0.221,0.506,0.009,1.096,0.515,1.317l0.09,0.04c0.131,0.056,0.267,0.083,0.401,0.083
	c0.385,0,0.752-0.223,0.917-0.598C188.918,152.371,188.688,151.781,188.182,151.559z M186.472,379.284
	c-0.13,0-0.262,0.025-0.39,0.079l-0.091,0.038c-0.508,0.216-0.745,0.802-0.53,1.311c0.162,0.381,0.531,0.61,0.921,0.61
	c0.13,0,0.262-0.026,0.39-0.08c0.031-0.013,0.061-0.027,0.092-0.039c0.508-0.216,0.745-0.802,0.53-1.311
	C187.233,379.513,186.862,379.284,186.472,379.284z M184.401,149.975c0,0-0.001,0-0.002-0.001c-0.026-0.01-0.044-0.018-0.07-0.027
	c-0.007-0.003-0.013-0.006-0.02-0.009c-0.121-0.048-0.247-0.07-0.37-0.07c-0.398,0-0.773,0.238-0.93,0.629
	c-0.205,0.513,0.045,1.095,0.559,1.299l0.091,0.036c0.122,0.049,0.247,0.071,0.371,0.071c0.397,0,0.773-0.238,0.929-0.629
	C185.164,150.763,184.914,150.18,184.401,149.975z M190.188,377.633c-0.141,0-0.284,0.03-0.42,0.093l-0.089,0.041
	c-0.501,0.232-0.719,0.827-0.487,1.328c0.169,0.365,0.53,0.58,0.907,0.58c0.139,0,0.281-0.029,0.415-0.091
	c0.032-0.015,0.07-0.032,0.102-0.048c0.497-0.234,0.711-0.825,0.479-1.323C190.927,377.848,190.566,377.633,190.188,377.633z
	 M193.848,375.859c-0.151,0-0.305,0.034-0.45,0.108l-0.088,0.044c-0.493,0.249-0.691,0.851-0.443,1.344
	c0.176,0.349,0.528,0.55,0.893,0.55c0.15,0,0.303-0.035,0.447-0.106c0.004-0.002,0.007-0.004,0.01-0.006
	c0.027-0.014,0.055-0.027,0.081-0.041c0.493-0.249,0.691-0.851,0.442-1.344C194.566,376.06,194.214,375.859,193.848,375.859z
	 M199.192,157.052c-0.017-0.01-0.037-0.021-0.054-0.03l-0.042-0.023c-0.154-0.087-0.322-0.128-0.488-0.128
	c-0.35,0-0.69,0.184-0.874,0.511c-0.27,0.482-0.099,1.092,0.383,1.361l0.086,0.049c0.155,0.087,0.323,0.128,0.489,0.128
	c0.35,0,0.689-0.184,0.873-0.511C199.835,157.93,199.667,157.324,199.192,157.052z M182.704,380.812
	c-0.12,0-0.241,0.021-0.359,0.067l-0.092,0.035c-0.515,0.2-0.772,0.778-0.573,1.293c0.153,0.398,0.531,0.641,0.933,0.641
	c0.12,0,0.241-0.022,0.36-0.067c0.014-0.005,0.027-0.01,0.041-0.015c0.019-0.007,0.042-0.016,0.06-0.024
	c0.51-0.202,0.763-0.777,0.565-1.289C183.484,381.056,183.106,380.812,182.704,380.812z M164.826,143.972
	c-0.03-0.007-0.059-0.014-0.089-0.019l-0.01-0.003c-0.071-0.016-0.142-0.023-0.212-0.023c-0.46,0-0.874,0.321-0.976,0.788
	c-0.117,0.539,0.225,1.073,0.765,1.19l0.096,0.022c0.072,0.016,0.143,0.022,0.214,0.022c0.46,0,0.874-0.319,0.976-0.787
	C165.708,144.623,165.366,144.09,164.826,143.972z M195.577,155.097c-0.016-0.009-0.032-0.017-0.048-0.025
	c-0.018-0.009-0.033-0.017-0.051-0.027c-0.144-0.072-0.298-0.106-0.449-0.106c-0.361,0-0.711,0.197-0.889,0.54
	c-0.254,0.49-0.063,1.094,0.428,1.347l0.087,0.045c0.148,0.077,0.305,0.113,0.46,0.113c0.362,0,0.711-0.197,0.889-0.54
	C196.258,155.955,196.067,155.352,195.577,155.097z M197.447,373.967c-0.161,0-0.326,0.04-0.479,0.123l-0.086,0.047
	c-0.484,0.265-0.663,0.872-0.398,1.357c0.182,0.332,0.524,0.521,0.878,0.521c0.162,0,0.326-0.039,0.478-0.122
	c0.024-0.014,0.049-0.028,0.074-0.041c0.003-0.002,0.012-0.007,0.016-0.009c0.482-0.266,0.66-0.871,0.395-1.355
	C198.144,374.155,197.801,373.967,197.447,373.967z M171.125,384.637c-0.088,0-0.178,0.012-0.266,0.036l-0.095,0.027
	c-0.532,0.147-0.845,0.697-0.698,1.23c0.122,0.443,0.524,0.734,0.963,0.734c0.085,0,0.172-0.012,0.259-0.034
	c0.012-0.003,0.023-0.008,0.035-0.01c0.016-0.004,0.031-0.009,0.046-0.013c0.008-0.002,0.018-0.005,0.026-0.007
	c0.531-0.148,0.842-0.698,0.695-1.229C171.966,384.928,171.564,384.637,171.125,384.637z M167.19,385.655
	c-0.078,0-0.156,0.009-0.235,0.028l-0.095,0.023c-0.537,0.13-0.868,0.67-0.739,1.206c0.11,0.459,0.52,0.767,0.971,0.767
	c0.076,0,0.152-0.007,0.229-0.026c0.008-0.002,0.019-0.004,0.026-0.006c0.025-0.007,0.051-0.012,0.077-0.019
	c0.537-0.13,0.867-0.67,0.738-1.207C168.051,385.962,167.642,385.655,167.19,385.655z M172.785,145.988
	c-0.011-0.004-0.029-0.009-0.04-0.012c-0.017-0.005-0.034-0.009-0.051-0.014c-0.004-0.001-0.015-0.005-0.019-0.006
	c-0.091-0.025-0.183-0.038-0.274-0.038c-0.434,0-0.835,0.286-0.961,0.725c-0.153,0.53,0.154,1.084,0.684,1.236l0.095,0.027
	c0.093,0.027,0.186,0.04,0.278,0.04c0.434,0,0.834-0.286,0.96-0.723C173.609,146.695,173.308,146.145,172.785,145.988z
	 M180.578,148.52c-0.038-0.014-0.07-0.025-0.108-0.039c-0.11-0.039-0.224-0.057-0.334-0.057c-0.409,0-0.793,0.253-0.94,0.66
	c-0.187,0.52,0.082,1.093,0.601,1.282l0.092,0.033c0.112,0.04,0.227,0.06,0.34,0.06c0.41,0,0.794-0.253,0.941-0.66
	C181.357,149.281,181.092,148.712,180.578,148.52z M176.698,147.188c-0.034-0.011-0.071-0.023-0.105-0.035
	c-0.102-0.032-0.204-0.048-0.305-0.048c-0.422,0-0.814,0.27-0.951,0.692c-0.17,0.525,0.117,1.089,0.642,1.259l0.094,0.03
	c0.103,0.033,0.207,0.049,0.309,0.049c0.422,0,0.814-0.268,0.951-0.691C177.504,147.922,177.22,147.361,176.698,147.188z
	 M175.027,383.49c-0.099,0-0.199,0.014-0.298,0.046l-0.094,0.029c-0.527,0.165-0.822,0.725-0.658,1.252
	c0.133,0.429,0.528,0.704,0.954,0.704c0.099,0,0.199-0.015,0.298-0.046l0.019-0.006c0.019-0.006,0.037-0.012,0.056-0.018l0.02-0.006
	c0.527-0.165,0.821-0.725,0.657-1.252C175.848,383.764,175.453,383.49,175.027,383.49z M200.983,371.957
	c-0.173,0-0.348,0.045-0.507,0.139l-0.085,0.051c-0.476,0.28-0.634,0.893-0.354,1.369c0.186,0.317,0.52,0.492,0.862,0.492
	c0.172,0,0.348-0.044,0.507-0.138c0.006-0.004,0.012-0.007,0.018-0.01c0.014-0.008,0.035-0.021,0.048-0.029
	c0.006-0.004,0.013-0.008,0.02-0.012c0.475-0.281,0.633-0.893,0.352-1.37C201.658,372.133,201.325,371.957,200.983,371.957z
	 M168.827,144.916c-0.031-0.009-0.061-0.015-0.092-0.023c-0.005-0.002-0.011-0.003-0.016-0.004
	c-0.082-0.022-0.166-0.031-0.247-0.031c-0.447,0-0.853,0.302-0.967,0.755c-0.135,0.535,0.189,1.079,0.724,1.215l0.095,0.024
	c0.083,0.021,0.165,0.032,0.246,0.032c0.447,0,0.854-0.302,0.969-0.756C169.675,145.595,169.356,145.055,168.827,144.916z
	 M251.607,119.383c0.321,0,0.638-0.155,0.831-0.441l0.055-0.083c0.31-0.457,0.189-1.079-0.268-1.389
	c-0.458-0.31-1.079-0.187-1.389,0.27l-0.057,0.083c-0.308,0.457-0.188,1.079,0.269,1.389
	C251.221,119.327,251.415,119.383,251.607,119.383z M294.436,53.187l-0.055,0.082c-0.31,0.459-0.19,1.079,0.268,1.389
	c0.172,0.116,0.367,0.172,0.56,0.172c0.321,0,0.636-0.153,0.829-0.44l0.057-0.084c0.31-0.458,0.187-1.079-0.27-1.389
	C295.367,52.609,294.746,52.73,294.436,53.187z M299.025,46.392l-0.055,0.082c-0.31,0.458-0.189,1.079,0.268,1.389
	c0.172,0.116,0.367,0.171,0.559,0.171c0.321,0,0.636-0.154,0.829-0.44l0.057-0.084c0.308-0.457,0.188-1.079-0.27-1.389
	C299.956,45.813,299.335,45.935,299.025,46.392z M253.902,115.985c0.322,0,0.638-0.154,0.831-0.44l0.055-0.082
	c0.31-0.458,0.19-1.079-0.268-1.389c-0.458-0.31-1.079-0.188-1.389,0.268l-0.057,0.085c-0.309,0.457-0.188,1.079,0.27,1.389
	C253.516,115.931,253.71,115.985,253.902,115.985z M296.73,49.79l-0.055,0.082c-0.31,0.457-0.189,1.079,0.268,1.389
	c0.173,0.116,0.368,0.172,0.561,0.173c0.321,0,0.636-0.154,0.828-0.44l0.057-0.084c0.308-0.457,0.188-1.079-0.27-1.389
	C297.662,49.21,297.04,49.333,296.73,49.79z M289.846,59.981l-0.055,0.083c-0.31,0.459-0.189,1.079,0.268,1.389
	c0.172,0.116,0.367,0.172,0.56,0.172c0.321,0,0.635-0.154,0.829-0.44l0.057-0.082c0.31-0.46,0.188-1.079-0.27-1.39
	C290.777,59.404,290.156,59.524,289.846,59.981z M244.725,129.575c0.321,0,0.636-0.153,0.829-0.44l0.055-0.084
	c0.31-0.458,0.189-1.079-0.267-1.389c-0.458-0.307-1.079-0.187-1.389,0.27l-0.057,0.082c-0.308,0.459-0.188,1.079,0.27,1.389
	C244.337,129.52,244.532,129.575,244.725,129.575z M301.32,42.995l-0.055,0.083c-0.31,0.457-0.19,1.078,0.268,1.389
	c0.171,0.116,0.365,0.171,0.558,0.171c0.321,0,0.637-0.155,0.831-0.441l0.057-0.082c0.31-0.457,0.188-1.079-0.27-1.389
	C302.252,42.415,301.63,42.538,301.32,42.995z M249.313,122.781c0.321,0,0.637-0.155,0.83-0.44l0.055-0.084
	c0.309-0.457,0.189-1.079-0.268-1.389c-0.457-0.31-1.079-0.187-1.389,0.27l-0.057,0.082c-0.308,0.457-0.188,1.079,0.27,1.389
	C248.926,122.725,249.121,122.781,249.313,122.781z M292.141,56.585l-0.055,0.082c-0.31,0.459-0.19,1.079,0.268,1.389
	c0.171,0.116,0.367,0.172,0.56,0.172c0.321,0,0.636-0.154,0.829-0.44l0.057-0.084c0.31-0.458,0.188-1.079-0.27-1.386
	C293.073,56.006,292.451,56.127,292.141,56.585z M247.018,126.178c0.321,0,0.637-0.155,0.83-0.44l0.055-0.084
	c0.31-0.457,0.19-1.079-0.268-1.389c-0.457-0.31-1.079-0.187-1.389,0.27l-0.057,0.082c-0.307,0.457-0.188,1.079,0.27,1.389
	C246.632,126.122,246.826,126.178,247.018,126.178z M260.787,105.793c0.321,0,0.637-0.155,0.831-0.44l0.055-0.082
	c0.309-0.459,0.189-1.079-0.268-1.389c-0.457-0.31-1.079-0.19-1.389,0.268l-0.056,0.084c-0.31,0.458-0.188,1.079,0.269,1.39
	C260.4,105.738,260.594,105.793,260.787,105.793z M315.089,22.608l-0.055,0.083c-0.31,0.457-0.189,1.079,0.268,1.389
	c0.171,0.115,0.365,0.171,0.557,0.171c0.322,0,0.638-0.154,0.832-0.44l0.057-0.081c0.308-0.459,0.188-1.078-0.269-1.389
	C316.02,22.031,315.399,22.151,315.089,22.608z M317.384,19.212l-0.055,0.082c-0.31,0.458-0.19,1.08,0.267,1.389
	c0.171,0.116,0.365,0.171,0.557,0.171c0.321,0,0.637-0.155,0.831-0.44l0.057-0.082c0.308-0.458,0.188-1.079-0.27-1.387
	C318.315,18.634,317.693,18.754,317.384,19.212z M287.554,63.379l-0.057,0.085c-0.31,0.458-0.189,1.078,0.27,1.387
	c0.171,0.116,0.366,0.172,0.559,0.172c0.321,0,0.635-0.154,0.828-0.44l0.057-0.082c0.31-0.459,0.19-1.079-0.27-1.389
	C288.483,62.802,287.861,62.922,287.554,63.379z M312.794,26.006l-0.055,0.082c-0.31,0.458-0.189,1.08,0.268,1.39
	c0.171,0.115,0.366,0.171,0.558,0.171c0.321,0,0.637-0.154,0.831-0.439l0.057-0.082c0.31-0.459,0.187-1.079-0.27-1.389
	C313.725,25.429,313.104,25.549,312.794,26.006z M256.197,112.589c0.321,0,0.637-0.155,0.831-0.441l0.055-0.082
	c0.31-0.458,0.19-1.079-0.267-1.389c-0.457-0.31-1.079-0.187-1.389,0.268l-0.057,0.084c-0.308,0.457-0.188,1.079,0.27,1.389
	C255.81,112.533,256.005,112.589,256.197,112.589z M319.678,15.815l-0.057,0.082c-0.308,0.458-0.188,1.08,0.27,1.389
	c0.171,0.116,0.365,0.171,0.557,0.171c0.321,0,0.637-0.155,0.831-0.441l0.057-0.082c0.307-0.458,0.187-1.079-0.27-1.389
	C320.61,15.237,319.988,15.356,319.678,15.815z M305.91,36.199l-0.055,0.084c-0.31,0.457-0.19,1.079,0.267,1.389
	c0.171,0.116,0.366,0.172,0.558,0.172c0.322,0,0.638-0.155,0.831-0.441l0.057-0.082c0.308-0.458,0.188-1.079-0.269-1.389
	C306.841,35.621,306.219,35.742,305.91,36.199z M303.615,39.595l-0.055,0.085c-0.31,0.457-0.189,1.079,0.268,1.389
	c0.171,0.116,0.365,0.171,0.557,0.171c0.321,0,0.637-0.154,0.831-0.44l0.057-0.082c0.31-0.458,0.188-1.079-0.27-1.389
	C304.546,39.018,303.925,39.14,303.615,39.595z M258.491,109.191c0.321,0,0.637-0.155,0.831-0.441l0.055-0.082
	c0.31-0.46,0.189-1.079-0.268-1.389c-0.459-0.31-1.078-0.189-1.389,0.268l-0.057,0.084c-0.308,0.457-0.188,1.079,0.269,1.389
	C258.105,109.136,258.299,109.191,258.491,109.191z M310.499,29.404l-0.055,0.082c-0.31,0.458-0.19,1.08,0.268,1.389
	c0.172,0.116,0.367,0.173,0.559,0.173c0.321,0,0.636-0.155,0.829-0.44l0.057-0.082c0.308-0.459,0.188-1.079-0.27-1.389
	C311.431,28.826,310.809,28.946,310.499,29.404z M308.205,32.801l-0.055,0.084c-0.31,0.457-0.19,1.079,0.268,1.389
	c0.172,0.116,0.366,0.172,0.558,0.172c0.322,0,0.637-0.155,0.83-0.441l0.057-0.082c0.308-0.46,0.188-1.079-0.27-1.389
	C309.136,32.224,308.514,32.344,308.205,32.801z M235.544,143.165c0.321,0,0.637-0.154,0.831-0.44l0.057-0.082
	c0.307-0.459,0.187-1.079-0.27-1.389c-0.457-0.309-1.079-0.189-1.389,0.268l-0.057,0.084c-0.308,0.458-0.187,1.079,0.27,1.39
	C235.157,143.111,235.352,143.165,235.544,143.165z M271.488,87.162l-0.055,0.082c-0.31,0.457-0.188,1.079,0.27,1.389
	c0.171,0.116,0.367,0.173,0.56,0.173c0.32,0,0.636-0.155,0.829-0.44l0.055-0.084c0.31-0.457,0.188-1.079-0.27-1.389
	C272.419,86.583,271.798,86.705,271.488,87.162z M219.482,166.948c0.321,0,0.636-0.153,0.829-0.439l0.057-0.082
	c0.308-0.46,0.188-1.079-0.27-1.389c-0.458-0.31-1.079-0.19-1.389,0.268l-0.055,0.082c-0.31,0.459-0.189,1.079,0.267,1.389
	C219.094,166.892,219.289,166.948,219.482,166.948z M273.785,83.765l-0.057,0.082c-0.31,0.458-0.187,1.079,0.27,1.39
	c0.171,0.115,0.366,0.171,0.558,0.171c0.321,0,0.637-0.154,0.83-0.44l0.055-0.083c0.31-0.458,0.189-1.08-0.268-1.389
	C274.714,83.186,274.094,83.308,273.785,83.765z M226.364,156.756c0.321,0,0.638-0.155,0.831-0.44l0.057-0.08
	c0.308-0.46,0.188-1.082-0.27-1.389c-0.457-0.31-1.079-0.19-1.389,0.267l-0.057,0.083c-0.308,0.457-0.188,1.079,0.27,1.389
	C225.978,156.7,226.172,156.756,226.364,156.756z M224.07,160.153c0.321,0,0.637-0.154,0.831-0.44l0.057-0.082
	c0.308-0.459,0.188-1.079-0.27-1.389c-0.457-0.31-1.078-0.19-1.388,0.267l-0.057,0.082c-0.308,0.458-0.188,1.079,0.27,1.39
	C223.684,160.097,223.878,160.153,224.07,160.153z M221.776,163.551c0.321,0,0.637-0.154,0.83-0.44l0.057-0.082
	c0.307-0.459,0.187-1.08-0.27-1.389c-0.457-0.31-1.079-0.19-1.388,0.268l-0.055,0.082c-0.31,0.458-0.19,1.08,0.268,1.389
	C221.389,163.495,221.583,163.551,221.776,163.551z M217.185,170.348c0.321,0,0.637-0.155,0.831-0.441l0.057-0.082
	c0.307-0.458,0.188-1.079-0.27-1.389c-0.457-0.31-1.079-0.187-1.389,0.268l-0.043,0.066c-0.057-0.093-0.122-0.184-0.212-0.258
	c-0.009-0.007-0.019-0.015-0.028-0.022c-0.01-0.009-0.021-0.017-0.031-0.025c-0.009-0.007-0.02-0.015-0.029-0.023
	c-0.184-0.147-0.404-0.217-0.622-0.217c-0.293,0-0.584,0.128-0.782,0.375c-0.345,0.431-0.275,1.061,0.156,1.405l0.077,0.062
	c0.185,0.148,0.405,0.219,0.625,0.219c0.293,0,0.584-0.128,0.781-0.375c0.013-0.017,0.016-0.036,0.028-0.054
	c0.073,0.122,0.166,0.233,0.292,0.318C216.799,170.292,216.993,170.348,217.185,170.348z M262.311,100.752l-0.057,0.085
	c-0.309,0.457-0.187,1.078,0.27,1.387c0.171,0.116,0.366,0.172,0.559,0.172c0.321,0,0.636-0.155,0.83-0.441l0.055-0.082
	c0.31-0.459,0.19-1.08-0.267-1.389C263.242,100.174,262.62,100.294,262.311,100.752z M269.195,90.56l-0.056,0.082
	c-0.31,0.459-0.188,1.079,0.269,1.389c0.172,0.116,0.367,0.172,0.559,0.172c0.321,0,0.636-0.153,0.83-0.439l0.054-0.084
	c0.31-0.458,0.19-1.079-0.27-1.389C270.124,89.983,269.503,90.103,269.195,90.56z M266.9,93.958l-0.057,0.082
	c-0.31,0.459-0.188,1.079,0.27,1.389c0.172,0.116,0.367,0.172,0.559,0.172c0.321,0,0.636-0.155,0.829-0.44l0.055-0.084
	c0.31-0.458,0.19-1.079-0.268-1.387C267.83,93.38,267.208,93.5,266.9,93.958z M264.606,97.354l-0.057,0.084
	c-0.31,0.459-0.188,1.079,0.27,1.389c0.172,0.116,0.367,0.172,0.559,0.172c0.321,0,0.636-0.155,0.829-0.44l0.055-0.082
	c0.31-0.46,0.19-1.082-0.268-1.389C265.535,96.777,264.915,96.897,264.606,97.354z M282.962,70.174l-0.055,0.084
	c-0.31,0.457-0.188,1.079,0.269,1.389c0.171,0.116,0.365,0.172,0.557,0.172c0.321,0,0.637-0.155,0.831-0.441l0.055-0.082
	c0.31-0.46,0.188-1.08-0.27-1.389C283.893,69.597,283.271,69.717,282.962,70.174z M242.43,132.973c0.321,0,0.636-0.155,0.829-0.44
	l0.055-0.084c0.31-0.458,0.189-1.079-0.268-1.386c-0.458-0.311-1.079-0.191-1.389,0.267l-0.057,0.082
	c-0.307,0.459-0.188,1.079,0.27,1.389C242.042,132.917,242.237,132.973,242.43,132.973z M237.84,139.768
	c0.321,0,0.636-0.154,0.829-0.439l0.057-0.084c0.308-0.459,0.188-1.079-0.269-1.389c-0.457-0.31-1.079-0.189-1.389,0.268
	l-0.057,0.085c-0.308,0.458-0.188,1.078,0.27,1.387C237.452,139.712,237.647,139.768,237.84,139.768z M240.135,136.37
	c0.321,0,0.636-0.154,0.829-0.44l0.055-0.082c0.31-0.46,0.19-1.082-0.268-1.39c-0.457-0.31-1.079-0.189-1.388,0.268l-0.057,0.083
	c-0.307,0.459-0.188,1.079,0.27,1.389C239.748,136.315,239.942,136.37,240.135,136.37z M280.667,73.571l-0.055,0.084
	c-0.31,0.457-0.189,1.08,0.267,1.389c0.172,0.116,0.367,0.172,0.559,0.172c0.322,0,0.637-0.155,0.83-0.441l0.057-0.082
	c0.31-0.458,0.187-1.08-0.27-1.389C281.598,72.993,280.977,73.115,280.667,73.571z M228.659,153.358
	c0.322,0,0.638-0.154,0.831-0.441l0.057-0.082c0.308-0.458,0.188-1.079-0.27-1.387c-0.457-0.31-1.079-0.19-1.388,0.268l-0.057,0.082
	c-0.308,0.458-0.187,1.079,0.27,1.389C228.273,153.303,228.467,153.358,228.659,153.358z M285.257,66.776l-0.055,0.084
	c-0.31,0.458-0.19,1.079,0.27,1.39c0.171,0.114,0.366,0.169,0.558,0.169c0.321,0,0.637-0.154,0.831-0.44l0.055-0.082
	c0.309-0.459,0.188-1.079-0.27-1.389C286.188,66.199,285.567,66.319,285.257,66.776z M230.954,149.961
	c0.321,0,0.637-0.155,0.831-0.441l0.055-0.082c0.31-0.458,0.19-1.079-0.268-1.389c-0.457-0.311-1.079-0.188-1.389,0.267
	l-0.055,0.084c-0.31,0.457-0.19,1.079,0.268,1.389C230.568,149.906,230.762,149.961,230.954,149.961z M276.079,80.367l-0.057,0.083
	c-0.31,0.457-0.188,1.078,0.269,1.389c0.171,0.115,0.365,0.171,0.558,0.171c0.321,0,0.638-0.155,0.832-0.44l0.055-0.084
	c0.31-0.457,0.189-1.079-0.268-1.389C277.009,79.789,276.387,79.91,276.079,80.367z M233.249,146.564
	c0.321,0,0.637-0.155,0.831-0.441l0.055-0.082c0.31-0.46,0.189-1.079-0.268-1.389c-0.457-0.309-1.078-0.189-1.389,0.268
	l-0.057,0.084c-0.308,0.457-0.188,1.079,0.27,1.389C232.863,146.508,233.056,146.564,233.249,146.564z M278.375,76.968l-0.057,0.085
	c-0.309,0.458-0.189,1.08,0.27,1.389c0.171,0.116,0.366,0.171,0.558,0.171c0.321,0,0.637-0.155,0.829-0.44l0.057-0.082
	c0.31-0.458,0.19-1.079-0.27-1.39C279.304,76.391,278.682,76.513,278.375,76.968z M323.728,8.075c-1.778,0-3.22,1.443-3.22,3.221
	c0,1.779,1.442,3.221,3.22,3.221c1.778,0,3.22-1.443,3.22-3.221C326.949,9.517,325.506,8.075,323.728,8.075z"/>
</svg>
