<svg width="100%" version="1.1" id="Layer_1" xmlns="http://www.w3.org/2000/svg" xmlns:xlink="http://www.w3.org/1999/xlink" x="0px" y="0px"
	 viewBox="0 0 846 254" style="enable-background:new 0 0 846 254;" xml:space="preserve">
<path id="path" d="M330.316,160.312c-1.24-0.498-2.48-0.991-3.718-1.48c-0.385-0.153-0.82,0.037-0.971,0.422
	c-0.154,0.383,0.034,0.82,0.42,0.973c1.236,0.488,2.473,0.982,3.714,1.478c0.091,0.037,0.185,0.054,0.278,0.054
	c0.297,0,0.579-0.178,0.696-0.472C330.887,160.901,330.701,160.465,330.316,160.312z M338.661,163.693
	c-1.238-0.506-2.471-1.011-3.705-1.511c-0.383-0.156-0.822,0.028-0.978,0.411c-0.153,0.386,0.03,0.823,0.413,0.979h0.003
	c1.229,0.5,2.463,1.002,3.698,1.509c0.093,0.039,0.19,0.057,0.285,0.057c0.295,0,0.576-0.176,0.693-0.466
	C339.228,164.288,339.044,163.851,338.661,163.693z M321.942,157.002c-1.249-0.485-2.493-0.968-3.733-1.443
	c-0.388-0.15-0.823,0.043-0.97,0.43c-0.149,0.385,0.043,0.82,0.431,0.97v-0.002c1.24,0.478,2.483,0.959,3.727,1.444
	c0.089,0.035,0.181,0.051,0.271,0.051c0.3,0,0.583-0.181,0.698-0.477C322.518,157.587,322.327,157.153,321.942,157.002z
	 M494.726,233.388c-1.24-0.464-2.484-0.937-3.726-1.423c-0.388-0.149-0.823,0.044-0.973,0.429c-0.149,0.385,0.041,0.82,0.429,0.969
	h-0.002c1.251,0.487,2.5,0.963,3.747,1.428c0.086,0.033,0.175,0.048,0.262,0.048c0.305,0,0.591-0.186,0.703-0.488
	C495.31,233.966,495.113,233.533,494.726,233.388z M355.272,170.65c-1.231-0.526-2.458-1.048-3.683-1.567
	c-0.381-0.16-0.821,0.017-0.983,0.398c-0.162,0.383,0.017,0.823,0.398,0.986c1.223,0.517,2.45,1.039,3.677,1.562
	c0.096,0.042,0.196,0.06,0.294,0.06c0.291,0,0.569-0.171,0.691-0.456C355.828,171.251,355.653,170.812,355.272,170.65z
	 M363.542,174.21c-1.227-0.532-2.452-1.062-3.673-1.589c-0.381-0.164-0.822,0.01-0.987,0.392c-0.165,0.378,0.013,0.82,0.391,0.985
	c1.221,0.526,2.444,1.054,3.671,1.587c0.097,0.042,0.198,0.061,0.298,0.061c0.289,0,0.565-0.167,0.687-0.451
	C364.094,174.817,363.921,174.375,363.542,174.21z M313.531,153.775c-1.251-0.472-2.5-0.939-3.746-1.404
	c-0.389-0.146-0.821,0.054-0.966,0.441c-0.145,0.39,0.052,0.82,0.442,0.965c1.244,0.463,2.491,0.93,3.742,1.403
	c0.086,0.032,0.175,0.048,0.263,0.048c0.303,0,0.589-0.184,0.703-0.485C314.114,154.354,313.919,153.922,313.531,153.775z
	 M305.089,150.64c-1.258-0.459-2.511-0.913-3.764-1.361c-0.39-0.142-0.82,0.062-0.959,0.452c-0.141,0.39,0.061,0.818,0.453,0.959
	c1.249,0.448,2.502,0.902,3.757,1.36c0.085,0.031,0.171,0.046,0.257,0.046c0.305,0,0.593-0.19,0.705-0.494
	C305.677,151.212,305.478,150.783,305.089,150.64z M270.923,139.205c-1.281-0.385-2.563-0.766-3.839-1.141
	c-0.398-0.117-0.814,0.111-0.931,0.509c-0.117,0.396,0.11,0.814,0.508,0.931c1.275,0.372,2.549,0.752,3.827,1.138
	c0.072,0.022,0.145,0.032,0.216,0.032c0.324,0,0.621-0.21,0.719-0.534C271.542,139.744,271.319,139.326,270.923,139.205z
	 M371.79,177.814c-1.225-0.537-2.445-1.074-3.664-1.608c-0.381-0.165-0.823,0.009-0.987,0.387c-0.167,0.381,0.006,0.822,0.385,0.989
	v-0.003c1.218,0.535,2.439,1.069,3.662,1.608c0.098,0.043,0.2,0.064,0.3,0.064c0.289,0,0.563-0.168,0.687-0.449
	C372.34,178.425,372.169,177.981,371.79,177.814z M279.526,141.876c-1.275-0.407-2.548-0.807-3.818-1.203
	c-0.396-0.124-0.816,0.097-0.939,0.493c-0.123,0.396,0.098,0.816,0.494,0.939c1.266,0.394,2.537,0.795,3.807,1.201
	c0.076,0.025,0.152,0.037,0.228,0.037c0.319,0,0.614-0.204,0.715-0.523C280.139,142.425,279.92,142.002,279.526,141.876z
	 M262.272,136.679c-1.288-0.366-2.573-0.723-3.859-1.074c-0.398-0.11-0.812,0.126-0.92,0.524c-0.11,0.4,0.125,0.812,0.524,0.922
	h0.003c1.279,0.351,2.562,0.708,3.846,1.071c0.067,0.019,0.135,0.027,0.202,0.027c0.328,0,0.631-0.216,0.723-0.547
	C262.902,137.205,262.671,136.789,262.272,136.679z M296.609,147.605c-1.264-0.443-2.524-0.881-3.783-1.313
	c-0.392-0.137-0.818,0.073-0.953,0.465c-0.134,0.392,0.074,0.818,0.465,0.953c1.255,0.433,2.513,0.87,3.773,1.312
	c0.082,0.028,0.165,0.041,0.248,0.041c0.309,0,0.599-0.193,0.708-0.501C297.204,148.171,296.998,147.742,296.609,147.605z
	 M288.088,144.682c-1.268-0.427-2.534-0.846-3.8-1.262c-0.394-0.13-0.816,0.084-0.946,0.479c-0.13,0.394,0.084,0.816,0.479,0.945
	c1.261,0.415,2.526,0.834,3.792,1.26c0.079,0.027,0.159,0.039,0.238,0.039c0.313,0,0.604-0.198,0.71-0.511
	C288.692,145.238,288.482,144.813,288.088,144.682z M469.921,222.903c-1.21-0.565-2.418-1.126-3.623-1.686
	c-0.375-0.176-0.823-0.014-0.996,0.364c-0.175,0.374-0.013,0.82,0.364,0.995c1.203,0.561,2.411,1.124,3.621,1.686
	c0.103,0.048,0.21,0.071,0.315,0.071c0.283,0,0.555-0.161,0.682-0.433C470.458,223.522,470.296,223.076,469.921,222.903z
	 M453.613,215.303c-1.212-0.565-2.422-1.128-3.626-1.69c-0.376-0.176-0.822-0.013-0.998,0.361c-0.175,0.377-0.013,0.822,0.362,0.998
	h0.002c1.205,0.563,2.413,1.126,3.625,1.69c0.103,0.048,0.21,0.071,0.316,0.071c0.282,0,0.553-0.16,0.68-0.434
	C454.15,215.924,453.987,215.478,453.613,215.303z M461.766,219.104c-1.21-0.563-2.417-1.127-3.623-1.688
	c-0.377-0.174-0.822-0.012-0.996,0.364c-0.175,0.374-0.013,0.82,0.362,0.995c1.205,0.561,2.413,1.126,3.625,1.69
	c0.102,0.048,0.209,0.069,0.314,0.069c0.283,0,0.556-0.16,0.682-0.432C462.304,219.725,462.142,219.28,461.766,219.104z
	 M445.456,211.5c-1.212-0.565-2.42-1.128-3.626-1.691c-0.376-0.173-0.822-0.01-0.997,0.364c-0.174,0.376-0.012,0.822,0.365,0.998
	h-0.002c1.205,0.561,2.415,1.123,3.626,1.688c0.102,0.048,0.211,0.071,0.316,0.071c0.283,0,0.554-0.161,0.681-0.435
	C445.993,212.122,445.83,211.675,445.456,211.5z M478.095,226.624c-1.212-0.532-2.426-1.075-3.643-1.628
	c-0.378-0.171-0.822-0.004-0.993,0.373c-0.171,0.376-0.007,0.822,0.372,0.993h0.003c1.218,0.555,2.439,1.1,3.657,1.635
	c0.1,0.043,0.202,0.064,0.304,0.064c0.288,0,0.562-0.167,0.685-0.447C478.647,227.232,478.474,226.791,478.095,226.624z
	 M437.298,207.699c-1.212-0.563-2.42-1.125-3.625-1.686c-0.376-0.176-0.822-0.013-0.997,0.363c-0.176,0.375-0.012,0.821,0.363,0.997
	c1.206,0.56,2.416,1.123,3.626,1.689c0.102,0.046,0.209,0.069,0.315,0.069c0.283,0,0.555-0.161,0.682-0.434
	C437.836,208.32,437.672,207.874,437.298,207.699z M486.363,230.124c-1.228-0.5-2.457-1.008-3.686-1.528
	c-0.383-0.16-0.822,0.02-0.982,0.401c-0.162,0.383,0.018,0.823,0.4,0.983c1.236,0.521,2.469,1.032,3.703,1.534
	c0.092,0.038,0.188,0.056,0.281,0.056c0.296,0,0.577-0.177,0.695-0.469C486.93,230.717,486.746,230.28,486.363,230.124z
	 M380.021,181.462c-1.223-0.546-2.442-1.087-3.658-1.626c-0.379-0.167-0.82,0.004-0.989,0.383c-0.167,0.376,0.004,0.82,0.383,0.989
	c1.214,0.537,2.432,1.08,3.653,1.624c0.098,0.045,0.202,0.065,0.303,0.065c0.287,0,0.561-0.166,0.685-0.446
	C380.568,182.075,380.397,181.63,380.021,181.462z M396.434,188.854c-1.216-0.555-2.43-1.105-3.642-1.654
	c-0.379-0.171-0.822-0.002-0.993,0.375c-0.171,0.377-0.005,0.822,0.374,0.993c1.212,0.548,2.424,1.098,3.643,1.652
	c0.1,0.046,0.204,0.067,0.307,0.067c0.286,0,0.559-0.165,0.684-0.441C396.978,189.468,396.811,189.025,396.434,188.854z
	 M388.234,185.144c-1.219-0.55-2.435-1.097-3.649-1.641c-0.379-0.169-0.823-0.003-0.992,0.376c-0.168,0.379,0,0.823,0.377,0.992
	h0.002c1.212,0.545,2.428,1.091,3.645,1.638c0.1,0.046,0.206,0.067,0.309,0.067c0.286,0,0.559-0.165,0.683-0.442
	C388.78,185.757,388.611,185.313,388.234,185.144z M253.578,134.306c-1.294-0.339-2.586-0.673-3.878-1
	c-0.4-0.101-0.809,0.143-0.911,0.543c-0.102,0.402,0.143,0.809,0.543,0.911c1.287,0.326,2.575,0.658,3.865,0.998
	c0.063,0.016,0.127,0.024,0.189,0.024c0.333,0,0.639-0.223,0.727-0.559C254.219,134.822,253.979,134.413,253.578,134.306z
	 M404.624,192.59c-1.217-0.556-2.428-1.11-3.638-1.664c-0.377-0.171-0.823-0.004-0.994,0.372c-0.173,0.377-0.006,0.82,0.37,0.994
	c1.21,0.552,2.423,1.106,3.636,1.663c0.102,0.046,0.207,0.069,0.311,0.069c0.285,0,0.556-0.163,0.681-0.439
	C405.165,193.207,405,192.764,404.624,192.59z M420.973,200.118c-1.214-0.561-2.423-1.121-3.629-1.677
	c-0.377-0.175-0.822-0.01-0.996,0.366c-0.175,0.377-0.011,0.822,0.366,0.996c1.208,0.555,2.418,1.117,3.629,1.677
	c0.102,0.047,0.209,0.069,0.314,0.069c0.283,0,0.555-0.161,0.682-0.435C421.512,200.737,421.347,200.294,420.973,200.118z
	 M412.801,196.346c-1.213-0.558-2.424-1.117-3.632-1.671c-0.376-0.174-0.822-0.009-0.995,0.368
	c-0.174,0.376-0.009,0.822,0.367,0.995c1.21,0.555,2.421,1.11,3.634,1.671c0.101,0.046,0.206,0.069,0.311,0.069
	c0.284,0,0.557-0.163,0.683-0.436C413.342,196.965,413.177,196.519,412.801,196.346z M346.978,167.141
	c-1.233-0.515-2.463-1.031-3.692-1.539c-0.383-0.161-0.823,0.021-0.98,0.405c-0.161,0.381,0.021,0.821,0.404,0.981
	c1.227,0.508,2.457,1.021,3.69,1.539c0.094,0.039,0.191,0.057,0.287,0.057c0.293,0.001,0.573-0.173,0.694-0.459
	C347.541,167.741,347.36,167.301,346.978,167.141z M75.987,137.352c-1.259,0.43-2.522,0.872-3.783,1.322
	c-0.392,0.139-0.595,0.567-0.455,0.959c0.109,0.307,0.398,0.498,0.706,0.498c0.083,0,0.168-0.014,0.251-0.043
	c1.258-0.45,2.513-0.887,3.766-1.316c0.392-0.135,0.602-0.561,0.467-0.953C76.805,137.425,76.379,137.218,75.987,137.352z
	 M67.499,140.396c-1.247,0.467-2.496,0.943-3.747,1.431c-0.385,0.152-0.576,0.587-0.426,0.972c0.116,0.296,0.4,0.478,0.7,0.478
	c0.091,0,0.183-0.017,0.272-0.052c1.244-0.485,2.485-0.959,3.727-1.423c0.387-0.146,0.584-0.578,0.437-0.966
	C68.317,140.447,67.886,140.251,67.499,140.396z M50.792,147.192c-1.218,0.535-2.439,1.078-3.66,1.63
	c-0.378,0.171-0.545,0.615-0.375,0.993c0.126,0.277,0.399,0.442,0.684,0.442c0.103,0,0.208-0.022,0.307-0.067
	c1.218-0.552,2.432-1.093,3.645-1.624c0.379-0.166,0.552-0.611,0.385-0.989C51.613,147.199,51.171,147.025,50.792,147.192z
	 M59.099,143.682c-1.234,0.5-2.467,1.011-3.703,1.532c-0.383,0.16-0.562,0.6-0.4,0.982c0.121,0.287,0.399,0.459,0.692,0.459
	c0.097,0,0.195-0.019,0.29-0.059c1.229-0.519,2.459-1.028,3.686-1.528c0.383-0.155,0.567-0.593,0.412-0.976
	C59.919,143.71,59.482,143.523,59.099,143.682z M101.956,129.772c-1.296,0.312-2.593,0.634-3.891,0.968
	c-0.4,0.104-0.643,0.513-0.541,0.914c0.088,0.338,0.393,0.563,0.726,0.563c0.062,0,0.125-0.008,0.188-0.023v0.002
	c1.292-0.334,2.582-0.654,3.87-0.966c0.403-0.098,0.652-0.502,0.554-0.904C102.764,129.921,102.359,129.675,101.956,129.772z
	 M84.564,134.56c-1.273,0.392-2.548,0.796-3.822,1.208c-0.396,0.128-0.61,0.553-0.482,0.947c0.103,0.317,0.396,0.519,0.712,0.519
	c0.077,0,0.154-0.012,0.231-0.037c1.27-0.411,2.537-0.814,3.803-1.203c0.396-0.124,0.617-0.543,0.495-0.939
	C85.38,134.659,84.96,134.436,84.564,134.56z M93.222,132.03c-1.284,0.353-2.569,0.716-3.857,1.091
	c-0.398,0.115-0.628,0.533-0.511,0.929c0.094,0.328,0.393,0.542,0.717,0.542c0.07,0,0.141-0.01,0.211-0.031
	c1.281-0.37,2.56-0.734,3.837-1.085c0.4-0.11,0.634-0.523,0.524-0.922C94.033,132.153,93.619,131.919,93.222,132.03z
	 M18.529,163.275c-1.162,0.647-2.324,1.303-3.491,1.967c-0.359,0.206-0.485,0.665-0.279,1.024c0.139,0.242,0.391,0.378,0.652,0.378
	c0.126,0,0.254-0.032,0.372-0.099c1.16-0.663,2.32-1.314,3.476-1.959c0.364-0.204,0.493-0.658,0.292-1.022
	C19.348,163.203,18.891,163.073,18.529,163.275z M110.759,127.794c-1.307,0.272-2.613,0.552-3.922,0.843
	c-0.405,0.089-0.658,0.492-0.569,0.896c0.078,0.348,0.388,0.585,0.731,0.585c0.055,0,0.11-0.006,0.165-0.018
	c1.301-0.287,2.601-0.57,3.898-0.837c0.407-0.085,0.666-0.48,0.582-0.888C111.559,127.971,111.163,127.709,110.759,127.794z
	 M10.703,167.748c-1.147,0.671-2.296,1.35-3.447,2.039c-0.357,0.211-0.472,0.673-0.26,1.028c0.14,0.235,0.389,0.366,0.644,0.366
	c0.131,0,0.263-0.035,0.384-0.106c1.147-0.686,2.294-1.363,3.437-2.032c0.357-0.208,0.478-0.669,0.269-1.026
	C11.519,167.659,11.061,167.537,10.703,167.748z M2.97,172.377c-1.134,0.694-2.268,1.396-3.406,2.106
	c-0.353,0.221-0.459,0.685-0.24,1.035c0.143,0.228,0.388,0.352,0.638,0.352c0.136,0,0.273-0.037,0.396-0.114
	c1.134-0.708,2.266-1.407,3.396-2.1c0.353-0.216,0.463-0.678,0.247-1.03C3.786,172.273,3.323,172.161,2.97,172.377z M26.451,158.972
	c-1.175,0.624-2.353,1.254-3.532,1.892c-0.364,0.197-0.5,0.654-0.303,1.018c0.136,0.25,0.394,0.391,0.66,0.391
	c0.121,0,0.244-0.029,0.357-0.091c1.175-0.636,2.348-1.264,3.519-1.883c0.366-0.193,0.506-0.647,0.311-1.013
	C27.271,158.92,26.817,158.779,26.451,158.972z M34.47,154.851c-1.19,0.595-2.383,1.196-3.575,1.81
	c-0.37,0.188-0.515,0.641-0.327,1.008c0.134,0.259,0.397,0.409,0.67,0.409c0.115,0,0.231-0.026,0.34-0.082
	c1.188-0.61,2.377-1.212,3.561-1.803c0.37-0.186,0.521-0.636,0.335-1.007C35.29,154.816,34.84,154.667,34.47,154.851z
	 M42.582,150.92c-1.204,0.564-2.409,1.138-3.617,1.723c-0.375,0.18-0.53,0.628-0.348,1c0.129,0.269,0.396,0.425,0.675,0.425
	c0.109,0,0.22-0.024,0.325-0.075c1.203-0.583,2.404-1.154,3.603-1.716c0.375-0.176,0.537-0.624,0.359-0.998
	C43.403,150.904,42.956,150.744,42.582,150.92z M236.056,130.088c-1.308-0.285-2.615-0.564-3.92-0.835
	c-0.404-0.085-0.803,0.175-0.887,0.582c-0.085,0.404,0.177,0.801,0.582,0.885c1.301,0.27,2.602,0.547,3.905,0.833
	c0.054,0.012,0.107,0.017,0.161,0.017c0.345,0,0.654-0.24,0.731-0.591C236.716,130.575,236.461,130.177,236.056,130.088z
	 M119.621,126.107c-1.316,0.228-2.63,0.466-3.948,0.714c-0.407,0.076-0.673,0.467-0.597,0.875c0.067,0.36,0.382,0.612,0.738,0.612
	c0.046,0,0.092-0.004,0.138-0.013c1.31-0.247,2.617-0.485,3.924-0.71c0.407-0.071,0.682-0.459,0.61-0.868
	C120.416,126.311,120.029,126.035,119.621,126.107z M182.568,122.572c-1.331-0.074-2.662-0.141-3.993-0.197
	c-0.415-0.017-0.764,0.303-0.781,0.717c-0.018,0.415,0.303,0.764,0.716,0.782c1.325,0.056,2.649,0.123,3.974,0.197
	c0.015,0,0.029,0.001,0.044,0.001c0.394,0,0.723-0.308,0.746-0.707C183.297,122.951,182.981,122.596,182.568,122.572z
	 M209.449,125.265c-1.325-0.19-2.647-0.37-3.97-0.543c-0.411-0.054-0.787,0.236-0.84,0.647c-0.054,0.411,0.236,0.788,0.646,0.84
	c1.318,0.173,2.633,0.353,3.954,0.542c0.035,0.004,0.069,0.007,0.104,0.007c0.368,0,0.691-0.27,0.743-0.646
	C210.143,125.702,209.857,125.321,209.449,125.265z M191.535,123.211c-1.327-0.115-2.656-0.219-3.98-0.316
	c-0.416-0.03-0.775,0.279-0.803,0.692c-0.03,0.414,0.279,0.773,0.692,0.803c1.321,0.097,2.641,0.201,3.963,0.314
	c0.022,0.002,0.045,0.002,0.067,0.002c0.383,0,0.709-0.294,0.745-0.685C192.253,123.609,191.948,123.246,191.535,123.211z
	 M244.839,132.105c-1.301-0.314-2.599-0.619-3.898-0.92c-0.405-0.093-0.808,0.158-0.9,0.563c-0.093,0.403,0.158,0.806,0.562,0.898
	c1.294,0.299,2.589,0.607,3.885,0.918c0.059,0.014,0.118,0.021,0.176,0.021c0.339,0,0.645-0.232,0.729-0.575
	C245.49,132.607,245.241,132.203,244.839,132.105z M227.228,128.265c-1.313-0.255-2.625-0.504-3.939-0.744
	c-0.407-0.074-0.796,0.197-0.872,0.604c-0.074,0.407,0.197,0.796,0.604,0.872c1.305,0.24,2.612,0.487,3.922,0.74
	c0.049,0.01,0.097,0.015,0.144,0.015c0.351,0,0.664-0.25,0.734-0.608C227.899,128.737,227.632,128.343,227.228,128.265z
	 M218.357,126.653c-1.318-0.224-2.636-0.438-3.954-0.646c-0.409-0.065-0.792,0.214-0.857,0.623
	c-0.065,0.409,0.214,0.794,0.624,0.857c1.314,0.208,2.625,0.422,3.939,0.643c0.042,0.007,0.084,0.011,0.126,0.011
	c0.358,0,0.676-0.259,0.738-0.626C219.041,127.109,218.766,126.722,218.357,126.653z M200.505,124.114
	c-1.329-0.155-2.656-0.299-3.984-0.433c-0.411-0.044-0.779,0.257-0.82,0.668c-0.043,0.414,0.258,0.782,0.669,0.822
	c1.323,0.137,2.643,0.279,3.967,0.431c0.029,0.003,0.058,0.005,0.086,0.005c0.374,0,0.699-0.283,0.743-0.665
	C201.213,124.531,200.917,124.159,200.505,124.114z M146.528,122.817c-1.333,0.095-2.669,0.202-4.004,0.317
	c-0.411,0.036-0.716,0.401-0.682,0.814c0.033,0.39,0.363,0.685,0.748,0.685c0.021,0,0.042-0.001,0.063-0.003
	c1.326-0.114,2.656-0.221,3.98-0.315c0.414-0.029,0.725-0.388,0.695-0.801C147.298,123.098,146.941,122.786,146.528,122.817z
	 M137.529,123.614c-1.331,0.141-2.66,0.29-3.993,0.45c-0.411,0.05-0.704,0.424-0.654,0.835c0.044,0.381,0.368,0.659,0.742,0.659
	c0.03,0,0.061-0.001,0.091-0.005c1.324-0.16,2.647-0.31,3.969-0.448c0.413-0.043,0.712-0.411,0.669-0.825
	C138.31,123.868,137.94,123.57,137.529,123.614z M128.555,124.711c-1.325,0.184-2.649,0.378-3.978,0.582
	c-0.409,0.064-0.688,0.448-0.625,0.857c0.057,0.37,0.376,0.634,0.74,0.634c0.038,0,0.076-0.003,0.115-0.009
	c1.32-0.203,2.638-0.396,3.956-0.58c0.409-0.059,0.697-0.435,0.639-0.847C129.346,124.938,128.967,124.652,128.555,124.711z
	 M164.565,122.117c-1.337,0.009-2.673,0.027-4.01,0.054c-0.415,0.009-0.742,0.35-0.736,0.764c0.008,0.41,0.342,0.736,0.75,0.736
	c0.005,0,0.011,0,0.016-0.001c1.329-0.028,2.66-0.045,3.989-0.054c0.413-0.003,0.747-0.34,0.745-0.753
	C165.316,122.449,164.979,122.116,164.565,122.117z M155.542,122.319c-1.335,0.052-2.671,0.115-4.008,0.187
	c-0.413,0.021-0.731,0.374-0.71,0.788c0.023,0.399,0.354,0.711,0.75,0.711c0.013,0,0.026-0.001,0.04-0.001
	c1.329-0.072,2.658-0.132,3.987-0.184c0.413-0.017,0.736-0.364,0.72-0.78C156.304,122.626,155.956,122.304,155.542,122.319z
	 M173.575,122.205c-1.335-0.033-2.669-0.059-4.002-0.074c-0.415-0.004-0.755,0.326-0.76,0.743c-0.004,0.413,0.327,0.753,0.743,0.757
	c1.327,0.015,2.654,0.038,3.98,0.074h0.02c0.407,0,0.738-0.323,0.748-0.73C174.315,122.559,173.989,122.215,173.575,122.205z
	 M429.137,203.904c-1.21-0.563-2.42-1.123-3.628-1.684c-0.375-0.174-0.823-0.011-0.996,0.365c-0.175,0.375-0.011,0.82,0.366,0.997
	c1.205,0.558,2.415,1.121,3.628,1.683c0.102,0.047,0.208,0.07,0.314,0.07c0.282,0,0.554-0.161,0.682-0.435
	C429.676,204.525,429.513,204.079,429.137,203.904z M767.174,174.598c-0.902,0.972-1.814,1.94-2.738,2.9
	c-0.286,0.299-0.277,0.773,0.022,1.061c0.145,0.139,0.333,0.208,0.52,0.208c0.197,0,0.393-0.077,0.54-0.23
	c0.929-0.968,1.846-1.94,2.756-2.92c0.281-0.303,0.264-0.777-0.041-1.059C767.929,174.276,767.455,174.295,767.174,174.598z
	 M760.947,181.057c-0.939,0.937-1.887,1.868-2.846,2.792c-0.299,0.288-0.307,0.762-0.02,1.06c0.147,0.153,0.343,0.229,0.539,0.229
	c0.187,0,0.376-0.07,0.521-0.21c0.966-0.931,1.92-1.868,2.866-2.812c0.292-0.292,0.292-0.768,0-1.06
	C761.714,180.765,761.239,180.765,760.947,181.057z M754.478,187.272c-0.974,0.901-1.957,1.795-2.95,2.682
	c-0.31,0.277-0.336,0.751-0.061,1.061c0.148,0.165,0.354,0.249,0.56,0.249c0.178,0,0.356-0.062,0.5-0.19
	c0.998-0.895,1.987-1.794,2.968-2.699c0.305-0.282,0.322-0.756,0.043-1.061C755.257,187.009,754.783,186.99,754.478,187.272z
	 M773.143,167.903c-0.864,1.007-1.736,2.009-2.621,3.005c-0.275,0.31-0.247,0.783,0.062,1.058c0.143,0.127,0.32,0.189,0.497,0.189
	c0.207,0,0.413-0.085,0.561-0.252c0.89-1.002,1.77-2.011,2.638-3.024c0.268-0.316,0.231-0.788-0.082-1.059
	C773.885,167.55,773.411,167.588,773.143,167.903z M778.844,160.976c-0.824,1.042-1.656,2.076-2.5,3.106
	c-0.264,0.32-0.217,0.793,0.103,1.057c0.14,0.113,0.308,0.169,0.474,0.169c0.218,0,0.434-0.093,0.583-0.275
	c0.848-1.037,1.688-2.08,2.515-3.128c0.255-0.324,0.201-0.794-0.124-1.052C779.571,160.595,779.099,160.652,778.844,160.976z
	 M784.259,153.827c-0.779,1.072-1.571,2.141-2.373,3.203c-0.248,0.331-0.184,0.801,0.148,1.052c0.136,0.102,0.294,0.15,0.45,0.15
	c0.227,0,0.452-0.102,0.599-0.297c0.807-1.072,1.604-2.148,2.387-3.228c0.244-0.335,0.169-0.805-0.164-1.047
	C784.971,153.418,784.501,153.491,784.259,153.827z M733.727,204.392c-1.069,0.785-2.144,1.564-3.231,2.335
	c-0.34,0.238-0.418,0.705-0.18,1.046c0.146,0.206,0.378,0.315,0.612,0.315c0.149,0,0.302-0.044,0.433-0.138h0.002
	c1.091-0.775,2.177-1.558,3.253-2.348c0.333-0.247,0.405-0.717,0.16-1.05C734.529,204.218,734.06,204.146,733.727,204.392z
	 M747.778,193.237c-1.009,0.864-2.024,1.719-3.049,2.569c-0.32,0.265-0.364,0.736-0.1,1.057c0.148,0.179,0.362,0.272,0.579,0.272
	c0.168,0,0.338-0.057,0.477-0.173c1.033-0.855,2.054-1.718,3.069-2.587c0.315-0.268,0.351-0.742,0.082-1.057
	C748.565,193.005,748.093,192.967,747.778,193.237z M718.886,214.47c-1.126,0.704-2.257,1.4-3.398,2.086
	c-0.355,0.215-0.468,0.676-0.254,1.031c0.141,0.234,0.388,0.364,0.642,0.364c0.132,0,0.267-0.035,0.389-0.108
	c1.144-0.693,2.285-1.394,3.417-2.102c0.35-0.219,0.457-0.683,0.238-1.033C719.7,214.357,719.237,214.249,718.886,214.47z
	 M726.4,209.569c-1.096,0.744-2.203,1.483-3.318,2.212c-0.346,0.227-0.443,0.691-0.216,1.039c0.143,0.219,0.384,0.338,0.628,0.338
	c0.142,0,0.284-0.039,0.411-0.122c1.121-0.736,2.233-1.476,3.337-2.227c0.342-0.232,0.431-0.699,0.198-1.041
	C727.21,209.426,726.743,209.335,726.4,209.569z M740.856,198.945c-1.039,0.825-2.086,1.643-3.142,2.455
	c-0.329,0.251-0.392,0.723-0.139,1.052c0.147,0.192,0.369,0.293,0.595,0.293c0.16,0,0.321-0.051,0.457-0.155v-0.003
	c1.063-0.814,2.117-1.636,3.163-2.467c0.324-0.257,0.378-0.73,0.121-1.054C741.652,198.742,741.181,198.688,740.856,198.945z
	 M790.411,146.248c-0.344-0.227-0.81-0.134-1.039,0.213c-0.733,1.104-1.478,2.203-2.235,3.299c-0.236,0.342-0.151,0.809,0.19,1.042
	c0.13,0.091,0.278,0.134,0.426,0.134c0.237,0,0.472-0.113,0.617-0.324c0.765-1.104,1.513-2.21,2.253-3.323
	C790.851,146.943,790.758,146.478,790.411,146.248z M711.196,219.089c-1.151,0.66-2.309,1.313-3.473,1.958
	c-0.363,0.201-0.493,0.658-0.292,1.022c0.137,0.246,0.393,0.386,0.658,0.386c0.123,0,0.248-0.03,0.363-0.095h-0.002
	c1.173-0.649,2.338-1.307,3.493-1.974c0.359-0.206,0.482-0.665,0.275-1.024C712.012,219.004,711.553,218.881,711.196,219.089z
	 M807.456,114.594c-0.381-0.163-0.82,0.013-0.984,0.394c-0.522,1.217-1.058,2.433-1.608,3.645c-0.174,0.377-0.005,0.82,0.372,0.994
	c0.101,0.046,0.206,0.067,0.31,0.067c0.284,0,0.556-0.163,0.683-0.44c0.555-1.223,1.096-2.448,1.622-3.676
	C808.014,115.198,807.836,114.758,807.456,114.594z M817.979,80.242c-0.407-0.08-0.801,0.186-0.879,0.593
	c-0.251,1.298-0.519,2.597-0.807,3.896c-0.089,0.404,0.167,0.805,0.571,0.893c0.055,0.013,0.11,0.019,0.164,0.019
	c0.343,0,0.651-0.238,0.73-0.588c0.287-1.311,0.56-2.623,0.815-3.935C818.651,80.714,818.385,80.32,817.979,80.242z M503.18,236.408
	c-1.256-0.427-2.51-0.864-3.768-1.312c-0.392-0.139-0.82,0.067-0.959,0.456c-0.139,0.389,0.066,0.819,0.457,0.959h-0.002
	c1.265,0.448,2.527,0.888,3.787,1.316c0.081,0.028,0.163,0.041,0.244,0.041c0.312,0,0.603-0.195,0.709-0.508
	C503.779,236.968,503.571,236.542,503.18,236.408z M813.639,97.699c-0.396-0.126-0.816,0.095-0.939,0.492
	c-0.396,1.261-0.807,2.524-1.234,3.786c-0.134,0.392,0.076,0.818,0.468,0.95c0.08,0.028,0.162,0.04,0.242,0.04
	c0.312,0,0.603-0.196,0.71-0.508v-0.002c0.431-1.271,0.846-2.544,1.245-3.819C814.253,98.242,814.035,97.822,813.639,97.699z
	 M810.763,106.226c-0.388-0.145-0.82,0.054-0.963,0.441c-0.462,1.24-0.938,2.48-1.429,3.719c-0.151,0.385,0.036,0.82,0.42,0.973
	c0.091,0.036,0.185,0.053,0.276,0.053c0.3,0,0.582-0.179,0.699-0.473h-0.002c0.496-1.249,0.976-2.498,1.441-3.751
	C811.349,106.801,811.15,106.369,810.763,106.226z M820.224,62.397c-0.411-0.028-0.767,0.286-0.796,0.699
	c-0.089,1.319-0.197,2.641-0.325,3.964c-0.041,0.414,0.262,0.779,0.674,0.818c0.024,0.003,0.05,0.004,0.074,0.004
	c0.382,0,0.707-0.291,0.746-0.677h-0.003c0.13-1.338,0.24-2.673,0.329-4.009C820.952,62.782,820.638,62.425,820.224,62.397z
	 M803.744,122.793c-0.372-0.182-0.82-0.026-1.002,0.346c-0.58,1.19-1.174,2.379-1.782,3.565c-0.188,0.368-0.043,0.82,0.327,1.009
	c0.109,0.056,0.227,0.082,0.342,0.082c0.271,0,0.535-0.148,0.669-0.407l-0.002-0.002c0.612-1.193,1.21-2.392,1.794-3.591
	C804.269,123.423,804.116,122.975,803.744,122.793z M819.381,71.354c-0.411-0.054-0.788,0.233-0.842,0.645
	c-0.174,1.312-0.364,2.623-0.571,3.937c-0.067,0.409,0.212,0.793,0.621,0.86c0.039,0.007,0.079,0.009,0.117,0.009
	c0.361,0,0.681-0.263,0.739-0.633c0.213-1.327,0.407-2.651,0.58-3.977C820.08,71.785,819.792,71.408,819.381,71.354z
	 M799.651,130.806c-0.363-0.197-0.82-0.062-1.016,0.301c-0.633,1.165-1.281,2.325-1.942,3.48c-0.205,0.36-0.08,0.819,0.279,1.025
	c0.118,0.067,0.246,0.099,0.372,0.099c0.261,0,0.514-0.136,0.652-0.378c0.667-1.167,1.318-2.336,1.957-3.507
	C800.149,131.46,800.015,131.006,799.651,130.806z M820.482,53.403c-0.415,0-0.749,0.335-0.749,0.751
	c0,1.323-0.022,2.647-0.062,3.976c-0.013,0.414,0.313,0.76,0.727,0.773h0.02c0.405,0,0.74-0.32,0.753-0.727
	c0.041-1.345,0.062-2.685,0.062-4.022C821.233,53.738,820.896,53.403,820.482,53.403z M795.201,138.629
	c-0.354-0.215-0.815-0.1-1.027,0.255c-0.686,1.134-1.384,2.264-2.095,3.392c-0.221,0.351-0.115,0.814,0.236,1.035
	c0.123,0.078,0.26,0.116,0.396,0.116c0.249,0,0.493-0.126,0.638-0.352c0.714-1.134,1.418-2.273,2.106-3.415
	C795.669,139.304,795.554,138.844,795.201,138.629z M695.328,227.455c-1.197,0.576-2.398,1.14-3.608,1.697
	c-0.376,0.173-0.541,0.619-0.368,0.996c0.127,0.273,0.399,0.437,0.683,0.437c0.106,0,0.211-0.022,0.312-0.069
	c1.217-0.561,2.427-1.13,3.629-1.708c0.375-0.18,0.53-0.63,0.351-1.002C696.148,227.431,695.7,227.275,695.328,227.455z
	 M573.322,250.725c-1.324-0.089-2.649-0.189-3.978-0.297c-0.413-0.035-0.774,0.271-0.81,0.684c-0.034,0.414,0.273,0.775,0.685,0.809
	h0.002c1.336,0.111,2.669,0.212,4,0.301c0.018,0.001,0.034,0.001,0.052,0.001c0.391,0,0.72-0.305,0.747-0.698
	C574.045,251.112,573.736,250.752,573.322,250.725z M564.38,249.967c-1.318-0.134-2.638-0.279-3.963-0.435
	c-0.411-0.049-0.785,0.245-0.833,0.656c-0.048,0.411,0.247,0.785,0.658,0.833c1.331,0.158,2.66,0.304,3.986,0.44
	c0.026,0.003,0.051,0.004,0.076,0.004c0.38,0,0.706-0.287,0.747-0.674C565.091,250.378,564.793,250.01,564.38,249.967z
	 M591.268,251.293c-0.346,0-0.691,0.002-1.036,0.002c-0.98,0-1.965-0.007-2.953-0.017c-0.415-0.006-0.755,0.327-0.757,0.74
	c-0.007,0.414,0.324,0.754,0.74,0.76c0.991,0.011,1.98,0.018,2.969,0.018c0.348,0,0.694-0.003,1.041-0.003
	c0.415-0.003,0.749-0.339,0.746-0.754C592.019,251.625,591.682,251.291,591.268,251.293z M582.289,251.168
	c-1.327-0.042-2.658-0.093-3.993-0.158c-0.414-0.02-0.764,0.301-0.784,0.715c-0.02,0.413,0.301,0.765,0.715,0.785h-0.002
	c1.344,0.063,2.681,0.117,4.019,0.158c0.008,0,0.016,0,0.023,0c0.4,0,0.736-0.32,0.747-0.725
	C583.027,251.527,582.702,251.181,582.289,251.168z M555.473,248.902c-1.314-0.182-2.63-0.372-3.948-0.572
	c-0.411-0.062-0.795,0.217-0.855,0.628c-0.062,0.409,0.219,0.792,0.628,0.855v-0.003c1.327,0.204,2.649,0.395,3.969,0.576
	c0.035,0.005,0.069,0.007,0.104,0.007c0.369,0,0.689-0.271,0.741-0.647C556.17,249.337,555.883,248.958,555.473,248.902z
	 M546.604,247.531c-1.305-0.224-2.615-0.458-3.926-0.703c-0.407-0.075-0.799,0.192-0.875,0.6c-0.075,0.407,0.193,0.799,0.6,0.874
	c1.318,0.247,2.634,0.484,3.948,0.708c0.043,0.008,0.085,0.011,0.127,0.011c0.357,0,0.675-0.257,0.739-0.623
	C547.286,247.988,547.013,247.601,546.604,247.531z M703.337,223.419c-1.173,0.618-2.352,1.229-3.541,1.831
	c-0.37,0.186-0.518,0.639-0.331,1.009c0.133,0.26,0.396,0.41,0.67,0.41c0.114,0,0.23-0.026,0.339-0.082
	c1.194-0.604,2.383-1.218,3.565-1.842c0.365-0.193,0.504-0.647,0.311-1.013C704.158,223.366,703.706,223.225,703.337,223.419z
	 M511.716,239.177c-1.265-0.389-2.533-0.79-3.803-1.199c-0.395-0.126-0.817,0.091-0.945,0.485c-0.128,0.395,0.089,0.816,0.484,0.944
	c1.277,0.411,2.552,0.811,3.825,1.203c0.073,0.022,0.147,0.033,0.22,0.033c0.321,0,0.618-0.208,0.718-0.529
	C512.335,239.718,512.111,239.298,511.716,239.177z M529.027,243.912c-1.287-0.307-2.58-0.627-3.872-0.956
	c-0.402-0.105-0.81,0.138-0.913,0.541c-0.102,0.401,0.141,0.81,0.543,0.911c1.299,0.331,2.598,0.653,3.891,0.963
	c0.06,0.015,0.118,0.022,0.177,0.022c0.338,0,0.645-0.231,0.728-0.575C529.677,244.414,529.431,244.01,529.027,243.912z
	 M537.787,245.867c-1.299-0.268-2.599-0.546-3.9-0.833c-0.407-0.088-0.806,0.166-0.894,0.572c-0.089,0.404,0.165,0.802,0.571,0.892
	l-0.002,0.002c1.31,0.288,2.617,0.568,3.922,0.836c0.052,0.01,0.102,0.016,0.153,0.016c0.347,0,0.658-0.244,0.732-0.598
	C538.453,246.348,538.191,245.949,537.787,245.867z M600.235,251.095c-1.324,0.052-2.653,0.095-3.987,0.127
	c-0.413,0.011-0.74,0.355-0.728,0.769c0.008,0.408,0.344,0.732,0.752,0.732c0.005,0,0.011-0.001,0.016-0.001h-0.002
	c1.342-0.033,2.677-0.075,4.01-0.13c0.411-0.017,0.734-0.365,0.719-0.779C600.997,251.4,600.649,251.077,600.235,251.095z
	 M520.334,241.681c-1.277-0.351-2.556-0.71-3.837-1.08c-0.398-0.114-0.816,0.114-0.929,0.513c-0.117,0.396,0.112,0.814,0.513,0.928
	c1.288,0.37,2.574,0.735,3.859,1.085c0.066,0.017,0.133,0.027,0.198,0.027c0.33,0,0.632-0.219,0.722-0.553
	C520.97,242.2,520.734,241.789,520.334,241.681z M670.475,237.741c-1.255,0.437-2.513,0.866-3.777,1.286
	c-0.392,0.13-0.605,0.554-0.474,0.948c0.104,0.313,0.396,0.513,0.71,0.513c0.079,0,0.159-0.013,0.238-0.039h-0.002
	c1.272-0.42,2.539-0.851,3.798-1.292c0.39-0.137,0.597-0.566,0.461-0.955C671.293,237.81,670.865,237.605,670.475,237.741z
	 M661.952,240.544c-1.266,0.392-2.541,0.773-3.818,1.145c-0.398,0.114-0.628,0.53-0.514,0.929c0.097,0.328,0.396,0.54,0.722,0.54
	c0.069,0,0.14-0.01,0.21-0.03c1.287-0.375,2.569-0.758,3.843-1.151c0.393-0.121,0.617-0.541,0.493-0.938
	C662.768,240.644,662.348,240.423,661.952,240.544z M653.334,243.029c-1.282,0.344-2.567,0.678-3.859,1
	c-0.403,0.102-0.647,0.509-0.546,0.911c0.087,0.34,0.393,0.568,0.729,0.568c0.06,0,0.121-0.007,0.182-0.022h-0.002
	c1.301-0.327,2.596-0.663,3.885-1.009c0.397-0.106,0.636-0.518,0.527-0.918C654.144,243.159,653.732,242.92,653.334,243.029z
	 M609.189,250.568c-1.322,0.101-2.647,0.192-3.978,0.275c-0.413,0.024-0.727,0.379-0.703,0.793c0.022,0.398,0.352,0.705,0.746,0.705
	c0.016,0,0.032-0.001,0.048-0.002c1.338-0.08,2.673-0.173,4.002-0.274c0.411-0.033,0.721-0.393,0.69-0.806
	C609.961,250.846,609.6,250.536,609.189,250.568z M678.883,234.622c-1.235,0.483-2.475,0.959-3.722,1.424
	c-0.39,0.145-0.587,0.576-0.441,0.965c0.112,0.301,0.397,0.487,0.702,0.487c0.087,0,0.176-0.015,0.263-0.048
	c1.256-0.467,2.505-0.946,3.747-1.432c0.386-0.152,0.576-0.589,0.424-0.974C679.703,234.659,679.267,234.469,678.883,234.622z
	 M635.849,247.027c-1.302,0.247-2.61,0.485-3.922,0.712c-0.406,0.069-0.682,0.457-0.61,0.866c0.062,0.365,0.379,0.621,0.736,0.621
	c0.043,0,0.086-0.004,0.13-0.011c1.32-0.227,2.636-0.465,3.948-0.715c0.406-0.078,0.673-0.472,0.595-0.879
	C636.647,247.216,636.255,246.949,635.849,247.027z M816.054,89.03c-0.4-0.101-0.809,0.14-0.911,0.543
	c-0.324,1.281-0.669,2.565-1.028,3.847c-0.112,0.398,0.121,0.811,0.52,0.924c0.067,0.019,0.135,0.028,0.201,0.028
	c0.328,0,0.63-0.216,0.724-0.547c0.363-1.294,0.707-2.589,1.039-3.883C816.698,89.541,816.456,89.133,816.054,89.03z
	 M687.172,231.191c-1.216,0.531-2.439,1.05-3.668,1.562c-0.383,0.158-0.562,0.598-0.404,0.981c0.119,0.287,0.399,0.461,0.694,0.461
	c0.095,0,0.192-0.018,0.286-0.056c1.238-0.516,2.468-1.041,3.692-1.574c0.379-0.165,0.553-0.608,0.388-0.987
	C687.992,231.198,687.551,231.025,687.172,231.191z M644.627,245.191c-1.293,0.295-2.589,0.58-3.892,0.856
	c-0.406,0.086-0.664,0.484-0.58,0.89c0.076,0.352,0.387,0.594,0.734,0.594c0.052,0,0.104-0.005,0.158-0.017h-0.003
	c1.312-0.277,2.617-0.563,3.919-0.861c0.403-0.093,0.654-0.496,0.561-0.899C645.434,245.35,645.032,245.099,644.627,245.191z
	 M627.009,248.536c-1.311,0.199-2.627,0.387-3.947,0.564c-0.412,0.056-0.699,0.433-0.643,0.845c0.05,0.376,0.372,0.649,0.741,0.649
	c0.034,0,0.068-0.002,0.104-0.007h-0.003c1.329-0.179,2.654-0.368,3.972-0.569c0.409-0.062,0.69-0.443,0.63-0.852
	C627.799,248.757,627.418,248.473,627.009,248.536z M618.117,249.716c-1.316,0.152-2.638,0.29-3.963,0.42
	c-0.413,0.041-0.716,0.407-0.675,0.818c0.037,0.389,0.363,0.679,0.746,0.679c0.023,0,0.048-0.001,0.072-0.004h0.002
	c1.333-0.13,2.662-0.271,3.989-0.422c0.411-0.048,0.706-0.418,0.66-0.831C618.9,249.965,618.528,249.67,618.117,249.716z
	 M162.342,60.998c1.195,0.288,2.367,0.701,3.482,1.224c0.103,0.048,0.211,0.07,0.318,0.07c0.282,0,0.553-0.16,0.68-0.432
	c0.176-0.374,0.014-0.821-0.361-0.996c-1.195-0.561-2.456-1.006-3.767-1.322c-0.059-0.015-0.119-0.022-0.177-0.022
	c-0.338,0-0.645,0.231-0.727,0.574C161.691,60.495,161.938,60.9,162.342,60.998z M154.137,60.858c0.049,0,0.099-0.004,0.148-0.015
	c1.202-0.242,2.44-0.363,3.678-0.363c0.413,0,0.749-0.336,0.749-0.75c0-0.414-0.336-0.75-0.749-0.75c-0.043,0-0.086,0-0.128,0.001
	c-0.018,0-0.036,0-0.054,0c-0.025,0-0.049,0-0.075,0.001c-0.023,0.001-0.047,0.001-0.07,0.001c-0.019,0.001-0.038,0.001-0.057,0.002
	c-0.029,0-0.059,0.001-0.088,0.001c-0.013,0.002-0.026,0.002-0.039,0.002c-0.036,0.001-0.072,0.002-0.107,0.002
	c-0.006,0-0.013,0.001-0.019,0.001c-0.04,0.001-0.08,0.003-0.12,0.003c-0.002,0.001-0.004,0.001-0.006,0.001
	c-0.968,0.036-1.918,0.141-2.846,0.309c-0.001,0-0.003,0.002-0.005,0.002c-0.036,0.006-0.072,0.013-0.108,0.02
	c-0.007,0.001-0.015,0.002-0.022,0.003c-0.03,0.006-0.061,0.012-0.092,0.018c-0.013,0.002-0.025,0.005-0.039,0.008
	c-0.024,0.004-0.049,0.009-0.074,0.014c-0.011,0.002-0.022,0.004-0.033,0.007c-0.402,0.085-0.661,0.479-0.581,0.882
	C153.475,60.612,153.787,60.858,154.137,60.858z M172.335,67.301c0.148,0.182,0.364,0.276,0.581,0.276
	c0.167,0,0.335-0.056,0.474-0.169c0.321-0.262,0.369-0.734,0.107-1.054c-0.052-0.064-0.105-0.128-0.158-0.191
	c-0.01-0.012-0.02-0.024-0.029-0.035c-0.017-0.02-0.033-0.038-0.05-0.058c-0.014-0.017-0.027-0.034-0.041-0.049
	c-0.013-0.015-0.025-0.029-0.037-0.044c-0.015-0.017-0.03-0.035-0.044-0.051c-0.012-0.015-0.024-0.028-0.036-0.042
	c-0.015-0.017-0.03-0.034-0.044-0.051c-0.012-0.014-0.024-0.028-0.036-0.041c-0.015-0.017-0.028-0.032-0.042-0.048
	c-0.014-0.016-0.027-0.031-0.04-0.046c-0.014-0.015-0.028-0.03-0.042-0.045c-0.013-0.016-0.026-0.03-0.039-0.045
	c-0.014-0.015-0.027-0.032-0.042-0.046c-0.015-0.016-0.029-0.031-0.043-0.048l-0.036-0.04c-0.016-0.016-0.031-0.034-0.047-0.05
	c-0.011-0.012-0.023-0.026-0.035-0.038c-0.017-0.019-0.034-0.038-0.051-0.054c-0.01-0.012-0.021-0.022-0.03-0.033
	c-0.018-0.019-0.037-0.039-0.055-0.058c-0.009-0.01-0.019-0.02-0.027-0.03c-0.021-0.02-0.041-0.043-0.062-0.064
	c-0.007-0.007-0.014-0.014-0.021-0.022c-0.022-0.023-0.044-0.045-0.066-0.069l-0.018-0.018c-0.024-0.024-0.048-0.048-0.072-0.073
	c-0.004-0.004-0.008-0.009-0.012-0.014c-0.026-0.027-0.053-0.053-0.08-0.079c-0.002-0.003-0.003-0.004-0.005-0.006
	c-0.47-0.471-0.963-0.919-1.477-1.342c0,0-0.001,0-0.001-0.001c-0.139-0.114-0.308-0.171-0.475-0.171
	c-0.217,0-0.432,0.094-0.58,0.275c-0.263,0.32-0.216,0.793,0.104,1.056C170.678,65.466,171.555,66.347,172.335,67.301z
	 M142.941,90.296c-0.165,0-0.331,0.054-0.47,0.166c-0.323,0.259-0.373,0.733-0.113,1.055c0.55,0.681,1.143,1.326,1.776,1.929
	l0,0.001l0.082,0.078c0.004,0.004,0.007,0.006,0.01,0.009c0.019,0.017,0.038,0.035,0.056,0.053c0.292,0.272,0.592,0.537,0.899,0.791
	c0.136,0.106,0.298,0.157,0.459,0.157c0.215,0,0.429-0.093,0.576-0.271c0.265-0.317,0.221-0.791-0.097-1.056
	c-0.948-0.788-1.821-1.674-2.595-2.633C143.378,90.391,143.161,90.296,142.941,90.296z M138.673,79.301
	c0.005,0.001,0.01,0.001,0.016,0.001c0.407,0,0.741-0.325,0.75-0.734c0.026-1.236,0.177-2.471,0.447-3.667
	c0.091-0.405-0.163-0.806-0.567-0.896c-0.056-0.012-0.111-0.019-0.167-0.019c-0.342,0-0.651,0.236-0.729,0.585
	c-0.107,0.475-0.198,0.957-0.27,1.444c-0.001,0.006-0.002,0.013-0.003,0.018c-0.004,0.03-0.009,0.059-0.013,0.09l-0.006,0.04
	c-0.003,0.025-0.007,0.049-0.01,0.072c-0.002,0.018-0.005,0.037-0.007,0.055c-0.003,0.02-0.005,0.04-0.008,0.06
	c-0.003,0.023-0.006,0.046-0.009,0.069c-0.002,0.016-0.004,0.032-0.006,0.049c-0.003,0.025-0.006,0.051-0.01,0.077
	c-0.001,0.014-0.003,0.029-0.005,0.043c-0.003,0.027-0.007,0.056-0.01,0.083c-0.002,0.013-0.003,0.025-0.004,0.038
	c-0.003,0.029-0.007,0.058-0.01,0.087c-0.002,0.014-0.003,0.026-0.005,0.04c-0.003,0.028-0.006,0.057-0.009,0.087
	c-0.001,0.013-0.003,0.027-0.005,0.04c-0.002,0.027-0.005,0.055-0.008,0.083c-0.002,0.015-0.003,0.031-0.005,0.047
	c-0.002,0.025-0.005,0.051-0.007,0.076c-0.001,0.019-0.003,0.038-0.005,0.058c-0.002,0.021-0.004,0.043-0.005,0.064
	c-0.003,0.024-0.005,0.048-0.006,0.072c-0.001,0.017-0.003,0.033-0.003,0.049c-0.002,0.032-0.005,0.062-0.007,0.093
	c0,0.008-0.001,0.017-0.001,0.024c-0.003,0.039-0.006,0.079-0.008,0.117c0,0.002,0,0.002,0,0.002
	c-0.02,0.294-0.032,0.59-0.039,0.886C137.931,78.949,138.258,79.292,138.673,79.301z M146.311,64.392
	c0.158,0,0.317-0.049,0.453-0.151c0.983-0.747,2.042-1.395,3.15-1.93c0.373-0.18,0.529-0.627,0.35-1.002
	c-0.129-0.268-0.396-0.424-0.675-0.424c-0.109,0-0.22,0.023-0.326,0.075c-0.113,0.055-0.225,0.111-0.337,0.166
	c-0.001,0.002-0.001,0.002-0.003,0.002c-0.035,0.018-0.071,0.035-0.106,0.054c-0.004,0.002-0.008,0.004-0.013,0.007
	c-0.032,0.016-0.064,0.033-0.096,0.049c-0.006,0.004-0.013,0.007-0.019,0.01c-0.03,0.015-0.06,0.031-0.089,0.048
	c-0.009,0.005-0.017,0.009-0.025,0.014c-0.028,0.014-0.055,0.028-0.083,0.044c-0.01,0.004-0.02,0.009-0.031,0.015
	c-0.025,0.014-0.051,0.028-0.077,0.043c-0.012,0.006-0.023,0.012-0.035,0.019c-0.023,0.013-0.047,0.026-0.071,0.039
	c-0.013,0.007-0.026,0.015-0.039,0.022c-0.023,0.013-0.044,0.025-0.067,0.037c-0.014,0.007-0.028,0.016-0.043,0.025
	c-0.021,0.011-0.042,0.023-0.062,0.035c-0.017,0.009-0.031,0.017-0.048,0.027c-0.019,0.011-0.037,0.022-0.056,0.032
	c-0.018,0.011-0.036,0.021-0.054,0.032c-0.017,0.01-0.034,0.02-0.05,0.03c-0.019,0.011-0.038,0.022-0.057,0.033
	c-0.016,0.009-0.031,0.018-0.047,0.027c-0.02,0.012-0.041,0.024-0.061,0.036c-0.014,0.009-0.028,0.016-0.043,0.025
	c-0.02,0.012-0.042,0.025-0.062,0.038c-0.014,0.008-0.028,0.017-0.042,0.025c-0.021,0.013-0.042,0.025-0.063,0.038
	c-0.013,0.009-0.026,0.018-0.04,0.025l-0.064,0.04c-0.014,0.009-0.027,0.017-0.041,0.026c-0.021,0.012-0.041,0.025-0.062,0.038
	c-0.014,0.011-0.028,0.018-0.043,0.028c-0.02,0.012-0.04,0.025-0.061,0.038c-0.014,0.009-0.029,0.02-0.043,0.028
	c-0.02,0.012-0.04,0.025-0.059,0.038c-0.018,0.01-0.035,0.022-0.053,0.034c-0.016,0.01-0.033,0.021-0.048,0.032
	c-0.024,0.015-0.048,0.031-0.072,0.048c-0.01,0.006-0.019,0.012-0.029,0.018c-0.346,0.23-0.684,0.472-1.013,0.722
	c-0.331,0.25-0.395,0.72-0.145,1.049C145.861,64.29,146.085,64.392,146.311,64.392z M139.908,83.159
	c-0.08-0.347-0.388-0.582-0.729-0.582c-0.056,0-0.113,0.007-0.171,0.02c-0.403,0.093-0.654,0.496-0.561,0.899
	c0.237,1.028,0.554,2.024,0.942,2.984c0.001,0,0.001,0,0.001,0c0.015,0.036,0.029,0.072,0.044,0.108
	c0.002,0.004,0.004,0.01,0.007,0.016c0.012,0.03,0.024,0.059,0.037,0.089c0.005,0.012,0.01,0.023,0.015,0.035
	c0.01,0.024,0.02,0.046,0.029,0.07c0.008,0.017,0.015,0.036,0.023,0.052c0.007,0.017,0.014,0.035,0.021,0.051
	c0.011,0.025,0.022,0.049,0.032,0.073c0.004,0.01,0.008,0.019,0.012,0.028c0.014,0.032,0.028,0.064,0.042,0.095
	c0.001,0.001,0.001,0.003,0.002,0.004c0.028,0.062,0.056,0.125,0.085,0.187c0.128,0.269,0.396,0.427,0.677,0.427
	c0.104,0,0.211-0.022,0.312-0.069c0.376-0.171,0.542-0.617,0.37-0.992C140.586,85.533,140.186,84.357,139.908,83.159z
	 M175.525,86.969c-0.108-0.055-0.224-0.082-0.338-0.082c-0.273,0-0.537,0.151-0.669,0.412c-0.555,1.097-1.224,2.145-1.988,3.114
	c-0.255,0.325-0.2,0.797,0.125,1.053c0.138,0.109,0.302,0.161,0.464,0.161c0.214,0,0.426-0.091,0.574-0.265
	c0.835-1.058,1.566-2.201,2.177-3.414C176.035,87.584,175.885,87.15,175.525,86.969z M159.923,98.885
	c0.021-0.002,0.042-0.004,0.063-0.006c0.024-0.002,0.049-0.005,0.074-0.007c0.014-0.003,0.03-0.004,0.044-0.006
	c0.031-0.003,0.061-0.007,0.092-0.01c0.009-0.001,0.018-0.002,0.028-0.003c0.035-0.005,0.07-0.009,0.104-0.013
	c0.005,0,0.009,0,0.015-0.001c0.039-0.005,0.077-0.009,0.116-0.014c0.001,0,0.002-0.001,0.004-0.001
	c0.535-0.066,1.063-0.154,1.583-0.261c0.405-0.085,0.667-0.482,0.583-0.888c-0.074-0.354-0.386-0.597-0.733-0.597
	c-0.05,0-0.102,0.006-0.153,0.016c-1.201,0.248-2.438,0.378-3.675,0.384c-0.415,0.002-0.749,0.34-0.747,0.754
	c0.002,0.406,0.327,0.736,0.729,0.746c0.53-0.001,1.056-0.025,1.575-0.068c0.006,0.001,0.013-0.001,0.019-0.002
	c0.034-0.002,0.069-0.004,0.102-0.007c0.013-0.001,0.025-0.003,0.037-0.004c0.027-0.002,0.055-0.006,0.082-0.008
	C159.885,98.889,159.904,98.887,159.923,98.885z M176.722,75.276c0.058,0,0.116-0.006,0.175-0.022
	c0.403-0.096,0.652-0.5,0.556-0.902c-0.145-0.615-0.32-1.218-0.521-1.811l-0.001-0.003c-0.013-0.037-0.025-0.074-0.039-0.111
	c-0.002-0.007-0.004-0.013-0.007-0.019c-0.011-0.033-0.022-0.066-0.034-0.098c-0.003-0.009-0.006-0.017-0.009-0.026
	c-0.01-0.03-0.021-0.059-0.031-0.088c-0.005-0.012-0.009-0.023-0.014-0.036c-0.009-0.026-0.019-0.053-0.029-0.08
	c-0.005-0.014-0.01-0.028-0.015-0.041c-0.009-0.024-0.018-0.047-0.026-0.071c-0.006-0.017-0.013-0.035-0.02-0.051
	c-0.008-0.021-0.016-0.042-0.024-0.064c-0.007-0.018-0.014-0.036-0.021-0.055c-0.007-0.019-0.015-0.038-0.022-0.058
	c-0.008-0.02-0.016-0.041-0.024-0.062c-0.006-0.017-0.013-0.034-0.02-0.051c-0.009-0.024-0.019-0.048-0.028-0.072
	c-0.005-0.012-0.01-0.023-0.015-0.037c-0.011-0.027-0.022-0.053-0.033-0.081c-0.004-0.009-0.008-0.02-0.012-0.03
	c-0.012-0.029-0.024-0.059-0.036-0.088c-0.003-0.007-0.007-0.016-0.009-0.023c-0.013-0.031-0.026-0.062-0.039-0.095
	c-0.002-0.005-0.005-0.011-0.007-0.016c-0.089-0.209-0.181-0.417-0.277-0.623c-0.13-0.265-0.396-0.419-0.674-0.419
	c-0.106,0-0.213,0.022-0.315,0.069c-0.376,0.174-0.539,0.622-0.365,0.998c0.518,1.115,0.925,2.289,1.208,3.486
	C176.075,75.044,176.382,75.276,176.722,75.276z M177.81,81.684c0.004-0.029,0.008-0.056,0.012-0.086
	c0.002-0.014,0.004-0.027,0.005-0.043c0.003-0.025,0.007-0.051,0.01-0.077c0.002-0.017,0.004-0.032,0.006-0.049
	c0.003-0.024,0.005-0.046,0.008-0.07c0.002-0.018,0.004-0.038,0.006-0.057c0.003-0.021,0.005-0.043,0.008-0.066
	c0.002-0.019,0.004-0.04,0.007-0.059c0.002-0.022,0.005-0.044,0.007-0.065c0.002-0.019,0.004-0.039,0.006-0.058
	c0.003-0.024,0.005-0.047,0.007-0.071c0.002-0.018,0.004-0.035,0.005-0.053c0.002-0.024,0.004-0.049,0.007-0.074
	c0.002-0.017,0.003-0.033,0.005-0.051c0.002-0.026,0.004-0.053,0.007-0.079c0.001-0.015,0.002-0.028,0.003-0.043
	c0.002-0.029,0.005-0.059,0.007-0.09c0.001-0.01,0.002-0.02,0.002-0.03c0.003-0.035,0.005-0.07,0.008-0.104
	c0-0.004,0-0.009,0.001-0.014c0.027-0.376,0.044-0.752,0.05-1.134c0.006-0.414-0.323-0.755-0.737-0.762
	c-0.004,0-0.008-0.001-0.012-0.001c-0.409,0-0.744,0.328-0.75,0.738c-0.02,1.238-0.163,2.473-0.427,3.671
	c-0.088,0.404,0.168,0.804,0.572,0.893c0.054,0.012,0.108,0.018,0.162,0.018c0.344,0,0.654-0.239,0.731-0.59
	c0.097-0.44,0.179-0.885,0.246-1.335v-0.001c0.006-0.036,0.011-0.073,0.016-0.11c0.001-0.006,0.002-0.013,0.003-0.02
	c0.004-0.031,0.009-0.064,0.014-0.096C177.807,81.705,177.809,81.694,177.81,81.684z M143.343,66.409
	c-0.138-0.11-0.303-0.164-0.467-0.164c-0.22,0-0.439,0.096-0.587,0.283c-0.103,0.129-0.204,0.258-0.303,0.39
	c-0.019,0.026-0.039,0.051-0.059,0.077c-0.004,0.006-0.009,0.013-0.013,0.018c-0.022,0.03-0.045,0.06-0.066,0.089
	c-0.002,0.003-0.004,0.006-0.005,0.007c-0.023,0.031-0.046,0.062-0.069,0.094c-0.001,0.001-0.001,0.002-0.002,0.002
	c-0.023,0.032-0.046,0.063-0.068,0.095c-0.001,0.001-0.001,0.002-0.002,0.003c-0.023,0.032-0.046,0.063-0.069,0.095
	c0,0.001-0.001,0.002-0.001,0.002c-0.023,0.032-0.045,0.062-0.067,0.094c-0.001,0.002-0.002,0.004-0.003,0.006
	c-0.021,0.032-0.043,0.061-0.064,0.092c-0.001,0.003-0.003,0.004-0.005,0.007c-0.021,0.03-0.042,0.06-0.063,0.091
	c-0.001,0.002-0.003,0.005-0.005,0.009c-0.02,0.029-0.042,0.06-0.061,0.09c-0.002,0.003-0.005,0.007-0.007,0.01
	c-0.02,0.03-0.039,0.058-0.059,0.088c-0.003,0.005-0.006,0.01-0.009,0.015c-0.019,0.028-0.038,0.057-0.057,0.085
	c-0.003,0.005-0.007,0.011-0.011,0.016c-0.018,0.027-0.036,0.055-0.053,0.082c-0.005,0.007-0.01,0.015-0.015,0.023
	c-0.017,0.026-0.033,0.05-0.05,0.077c-0.006,0.009-0.012,0.019-0.018,0.028c-0.015,0.024-0.031,0.049-0.046,0.072
	c-0.007,0.012-0.015,0.023-0.022,0.035c-0.014,0.022-0.028,0.044-0.042,0.066c-0.009,0.014-0.017,0.027-0.025,0.041
	c-0.013,0.02-0.025,0.041-0.038,0.061c-0.01,0.016-0.02,0.032-0.03,0.049c-0.011,0.017-0.021,0.034-0.032,0.053
	c-0.012,0.019-0.024,0.038-0.036,0.058c-0.008,0.013-0.017,0.028-0.025,0.043c-0.015,0.024-0.029,0.049-0.044,0.072
	c-0.006,0.011-0.011,0.02-0.017,0.029c-0.018,0.03-0.036,0.061-0.054,0.092c-0.002,0.004-0.004,0.007-0.006,0.011
	c-0.189,0.323-0.37,0.652-0.541,0.987c-0.189,0.369-0.042,0.819,0.325,1.008c0.11,0.058,0.227,0.083,0.342,0.083
	c0.272,0,0.534-0.148,0.667-0.407c0.56-1.095,1.235-2.139,2.005-3.103C143.719,67.139,143.666,66.668,143.343,66.409z
	 M151.804,98.016c0.035,0.011,0.07,0.022,0.105,0.033c0.005,0.002,0.011,0.004,0.016,0.005c0.034,0.011,0.069,0.022,0.103,0.033
	c0.006,0.002,0.012,0.004,0.018,0.005c0.035,0.011,0.07,0.021,0.104,0.032c0.004,0.001,0.007,0.003,0.011,0.003
	c0.036,0.011,0.073,0.022,0.109,0.033c0.004,0.001,0.009,0.002,0.013,0.004c0.036,0.011,0.072,0.021,0.108,0.032
	c0.004,0.001,0.007,0.002,0.011,0.003c0.037,0.01,0.074,0.02,0.11,0.032c0.003,0,0.006,0.001,0.01,0.002
	c0.2,0.056,0.401,0.109,0.603,0.159c0.061,0.015,0.122,0.022,0.181,0.022c0.336,0,0.642-0.228,0.727-0.569
	c0.1-0.402-0.146-0.81-0.547-0.91c-1.194-0.296-2.364-0.714-3.476-1.243c-0.104-0.05-0.214-0.073-0.322-0.073
	c-0.28,0-0.549,0.158-0.678,0.428c-0.177,0.374-0.018,0.822,0.356,1c0.782,0.372,1.592,0.694,2.426,0.965
	C151.795,98.013,151.799,98.014,151.804,98.016z M170.298,93.795c-0.148-0.192-0.371-0.293-0.597-0.293
	c-0.159,0-0.32,0.05-0.455,0.154c-0.979,0.751-2.035,1.407-3.14,1.946c-0.372,0.182-0.526,0.631-0.344,1.003
	c0.131,0.266,0.397,0.421,0.675,0.421c0.11,0,0.222-0.025,0.328-0.076c0.009-0.004,0.019-0.009,0.028-0.014
	c0.027-0.014,0.054-0.028,0.081-0.04c0.011-0.005,0.021-0.011,0.032-0.016l0.079-0.039c0.011-0.006,0.022-0.012,0.033-0.016
	c0.025-0.014,0.051-0.027,0.077-0.041c0.013-0.005,0.026-0.012,0.038-0.019c0.024-0.012,0.048-0.024,0.072-0.038
	c0.013-0.007,0.025-0.013,0.038-0.02c0.024-0.012,0.048-0.024,0.071-0.038c0.014-0.007,0.026-0.014,0.04-0.02
	c0.023-0.013,0.046-0.025,0.069-0.038c0.015-0.007,0.028-0.015,0.042-0.022c0.022-0.012,0.044-0.024,0.066-0.035
	c0.015-0.009,0.03-0.017,0.045-0.025c0.021-0.011,0.042-0.023,0.063-0.034c0.015-0.009,0.03-0.017,0.045-0.026
	c0.021-0.012,0.041-0.023,0.062-0.034c0.016-0.009,0.033-0.018,0.049-0.027c0.019-0.012,0.037-0.022,0.056-0.032
	c0.018-0.01,0.038-0.021,0.056-0.032c0.016-0.009,0.033-0.019,0.049-0.028c0.02-0.011,0.039-0.022,0.059-0.033
	c0.015-0.009,0.03-0.018,0.045-0.027c0.021-0.012,0.043-0.023,0.064-0.037c0.013-0.007,0.025-0.015,0.038-0.022
	c0.024-0.015,0.047-0.028,0.071-0.042c0.01-0.006,0.02-0.012,0.03-0.017c0.026-0.016,0.052-0.032,0.077-0.046
	c0.008-0.006,0.015-0.009,0.023-0.015c0.028-0.017,0.058-0.034,0.086-0.052c0.004-0.002,0.007-0.005,0.011-0.007
	c0.032-0.02,0.064-0.039,0.096-0.059c0.563-0.351,1.107-0.73,1.63-1.132C170.49,94.569,170.542,94.115,170.298,93.795z
	 M794.445,25.986c0,0.04,0.001,0.079,0.001,0.119c0.001,0.04,0.001,0.082,0.002,0.122v0.022c0.002,0.087,0.004,0.174,0.006,0.26
	c0.011,0.408,0.344,0.731,0.749,0.731c0.007,0,0.014,0,0.019-0.002c0.414-0.012,0.742-0.356,0.731-0.77
	c-0.005-0.217-0.008-0.435-0.008-0.653c0-1.037,0.068-2.081,0.202-3.101c0.055-0.41-0.235-0.788-0.645-0.841
	c-0.033-0.006-0.066-0.007-0.1-0.007c-0.367,0-0.689,0.272-0.741,0.646c-0.004,0.03-0.008,0.062-0.012,0.092
	c-0.004,0.026-0.007,0.052-0.01,0.077c-0.003,0.02-0.005,0.039-0.007,0.059c-0.004,0.027-0.007,0.054-0.011,0.081v0.005
	c-0.008,0.063-0.015,0.127-0.022,0.189c0,0.006-0.001,0.013-0.002,0.018c-0.051,0.465-0.09,0.933-0.115,1.404
	c-0.001,0.013-0.002,0.027-0.002,0.04c-0.002,0.028-0.004,0.056-0.005,0.083c-0.001,0.023-0.002,0.045-0.003,0.067
	c-0.002,0.037-0.004,0.072-0.005,0.109c-0.001,0.021-0.002,0.045-0.003,0.067c-0.001,0.022-0.002,0.045-0.003,0.066
	c-0.001,0.038-0.003,0.078-0.004,0.116c-0.001,0.02-0.001,0.039-0.002,0.059c-0.001,0.03-0.001,0.06-0.002,0.091
	c-0.001,0.015-0.001,0.03-0.002,0.046c-0.001,0.043-0.002,0.087-0.003,0.131v0.042c-0.001,0.04-0.002,0.082-0.002,0.122
	c0,0.006,0,0.012-0.001,0.018c0,0.046-0.001,0.095-0.001,0.141v0.035c0,0.049-0.001,0.095-0.001,0.144
	c0,0.048,0.001,0.095,0.001,0.143V25.986z M796.272,18.613c0.081,0.027,0.163,0.041,0.245,0.041c0.311,0,0.601-0.195,0.707-0.504
	c0.407-1.181,0.914-2.337,1.507-3.439c0.196-0.365,0.06-0.82-0.304-1.015c-0.113-0.061-0.235-0.09-0.355-0.09
	c-0.268,0-0.525,0.143-0.661,0.394c-0.135,0.251-0.266,0.504-0.392,0.76c-0.005,0.009-0.011,0.02-0.015,0.03
	c-0.014,0.028-0.027,0.055-0.041,0.083c-0.008,0.015-0.017,0.033-0.024,0.049c-0.011,0.024-0.022,0.046-0.033,0.07
	c-0.017,0.033-0.032,0.067-0.048,0.1c-0.007,0.014-0.014,0.028-0.02,0.043c-0.017,0.035-0.033,0.07-0.05,0.106
	c-0.005,0.011-0.011,0.023-0.017,0.036c-0.015,0.031-0.029,0.062-0.044,0.093c-0.006,0.014-0.011,0.026-0.017,0.039
	c-0.016,0.032-0.031,0.067-0.046,0.1c-0.005,0.009-0.009,0.019-0.014,0.029c-0.018,0.039-0.037,0.082-0.055,0.122
	c-0.001,0.002-0.002,0.004-0.003,0.007c-0.021,0.046-0.041,0.092-0.06,0.137c-0.001,0.002-0.002,0.006-0.004,0.009
	c-0.018,0.04-0.034,0.079-0.052,0.119c-0.005,0.012-0.011,0.024-0.016,0.036c-0.014,0.031-0.026,0.063-0.04,0.094
	c-0.006,0.014-0.012,0.029-0.019,0.043c-0.012,0.03-0.023,0.057-0.036,0.087c-0.007,0.017-0.014,0.032-0.021,0.049
	c-0.011,0.028-0.022,0.054-0.033,0.082c-0.018,0.042-0.035,0.085-0.053,0.128c-0.005,0.012-0.01,0.024-0.015,0.037
	c-0.013,0.031-0.025,0.062-0.038,0.095c-0.003,0.009-0.007,0.018-0.011,0.027c-0.014,0.034-0.027,0.068-0.04,0.103
	c-0.002,0.004-0.004,0.007-0.005,0.012c-0.121,0.31-0.236,0.622-0.345,0.937C795.673,18.052,795.88,18.478,796.272,18.613z
	 M815.615,2.62c0.04,0,0.079-0.003,0.119-0.009c1.23-0.196,2.491-0.296,3.747-0.296c0.035,0,0.069-0.003,0.102-0.009
	c0.034,0.006,0.068,0.009,0.104,0.009c1.256,0.009,2.515,0.121,3.743,0.327c0.043,0.007,0.085,0.011,0.126,0.011
	c0.359,0,0.677-0.259,0.739-0.625c0.068-0.408-0.207-0.796-0.616-0.864c-0.04-0.007-0.08-0.014-0.121-0.02
	c-0.06-0.011-0.122-0.02-0.183-0.029c-0.022-0.004-0.043-0.008-0.065-0.011c-0.02-0.003-0.038-0.006-0.057-0.009
	c-0.031-0.004-0.063-0.009-0.095-0.014c-0.015-0.002-0.028-0.004-0.042-0.007c-0.039-0.005-0.078-0.01-0.117-0.017
	c-0.008-0.001-0.017-0.002-0.024-0.002c-0.102-0.015-0.201-0.028-0.302-0.042c-0.004,0-0.008,0-0.011-0.001
	c-0.046-0.006-0.091-0.011-0.137-0.017c-0.009-0.001-0.017-0.002-0.024-0.002c-0.044-0.006-0.088-0.011-0.132-0.016
	c-0.007,0-0.013-0.001-0.018-0.002c-0.05-0.006-0.102-0.011-0.151-0.017c-0.003-0.001-0.006-0.001-0.009-0.001
	c-0.043-0.005-0.086-0.009-0.129-0.014l-0.059-0.006c-0.026-0.003-0.053-0.006-0.08-0.007c-0.023-0.003-0.047-0.004-0.07-0.007
	c-0.02-0.001-0.041-0.004-0.061-0.006c-0.109-0.011-0.218-0.019-0.327-0.027c-0.001,0-0.001-0.001-0.001-0.001
	c-0.583-0.045-1.171-0.07-1.765-0.076h-0.006c-0.034,0-0.068,0.002-0.102,0.007c-0.036-0.005-0.072-0.007-0.11-0.007h-0.19
	c-0.036,0-0.072,0-0.108,0.001c-0.015,0-0.03,0.001-0.046,0.001c-0.04,0-0.078,0.001-0.119,0.001c-0.009,0-0.019,0-0.027,0.001
	c-0.051,0.001-0.102,0.001-0.152,0.002h-0.012c-0.047,0.002-0.094,0.002-0.141,0.005h-0.026c-0.045,0.002-0.09,0.003-0.135,0.006
	h-0.017c-1.027,0.04-2.039,0.14-3.032,0.3c-0.396,0.075-0.663,0.453-0.6,0.855C814.934,2.357,815.253,2.62,815.615,2.62z
	 M812.945,49.954c0.258,0.069,0.517,0.135,0.779,0.196c0.027,0.006,0.056,0.013,0.083,0.02c0.017,0.004,0.032,0.007,0.048,0.011
	c0.034,0.008,0.066,0.015,0.101,0.022c0.013,0.004,0.025,0.006,0.037,0.009c0.045,0.009,0.089,0.019,0.133,0.03h0.006
	c0.1,0.022,0.199,0.043,0.3,0.062c0.003,0.001,0.007,0.002,0.011,0.004c0.045,0.009,0.091,0.017,0.136,0.027
	c0.006,0.001,0.012,0.002,0.018,0.003c0.148,0.029,0.296,0.057,0.445,0.084c0.007,0.001,0.015,0.002,0.022,0.004
	c0.041,0.007,0.084,0.015,0.125,0.022c0.009,0.001,0.018,0.002,0.025,0.004c0.047,0.008,0.092,0.015,0.139,0.024
	c0.003,0,0.005,0,0.007,0c0.102,0.017,0.203,0.033,0.305,0.048c0.004,0.001,0.007,0.001,0.011,0.003
	c0.049,0.007,0.098,0.014,0.146,0.022c0.001,0,0.003,0,0.005,0.001c0.355,0.052,0.716,0.097,1.076,0.134
	c0.016,0.001,0.033,0.001,0.05,0.001c0.38,0,0.706-0.286,0.745-0.673c0.043-0.413-0.257-0.781-0.669-0.824
	c-1.245-0.129-2.487-0.359-3.692-0.683c-0.065-0.017-0.131-0.026-0.195-0.026c-0.331,0-0.634,0.221-0.724,0.555
	C812.308,49.434,812.545,49.846,812.945,49.954z M807.429,5.506c0.126,0,0.255-0.032,0.372-0.099
	c1.086-0.621,2.229-1.159,3.398-1.599c0.388-0.144,0.584-0.577,0.438-0.965c-0.112-0.3-0.397-0.487-0.701-0.487
	c-0.088,0-0.178,0.016-0.265,0.049c-0.585,0.219-1.16,0.46-1.723,0.721c-0.004,0.002-0.01,0.004-0.014,0.007
	c-0.029,0.013-0.058,0.026-0.086,0.039c-0.015,0.008-0.03,0.015-0.046,0.022c-0.023,0.011-0.047,0.022-0.07,0.033
	c-0.023,0.012-0.046,0.022-0.069,0.033c-0.017,0.008-0.033,0.015-0.05,0.023c-0.536,0.259-1.063,0.537-1.577,0.832
	c-0.345,0.211-0.461,0.659-0.259,1.013C806.916,5.37,807.169,5.506,807.429,5.506z M798.638,39.671
	c0.051,0.077,0.103,0.153,0.154,0.229c0.014,0.019,0.026,0.038,0.039,0.056c0.011,0.015,0.023,0.033,0.033,0.049
	c0.018,0.026,0.037,0.052,0.055,0.079c0.003,0.004,0.007,0.01,0.011,0.014c0.667,0.955,1.398,1.861,2.189,2.712
	c0.147,0.159,0.349,0.241,0.55,0.241c0.183,0,0.366-0.067,0.51-0.201c0.304-0.282,0.321-0.756,0.039-1.06
	c-0.852-0.916-1.635-1.909-2.33-2.947c-0.144-0.216-0.382-0.333-0.624-0.333c-0.143,0-0.288,0.041-0.416,0.127
	C798.505,38.864,798.412,39.326,798.638,39.671z M797.275,35.678c0.383-0.157,0.566-0.595,0.409-0.978
	c-0.473-1.157-0.856-2.36-1.136-3.577c-0.08-0.347-0.39-0.581-0.73-0.581c-0.056,0-0.112,0.006-0.169,0.02
	c-0.396,0.091-0.645,0.476-0.569,0.871c0.306,1.327,0.717,2.617,1.225,3.854c0.123,0.279,0.397,0.447,0.686,0.447
	C797.084,35.734,797.181,35.715,797.275,35.678z M837.735,10.981c0.147,0.181,0.363,0.276,0.58,0.276
	c0.167,0,0.335-0.056,0.474-0.17c0.319-0.26,0.368-0.73,0.11-1.052c-0.509-0.623-1.046-1.22-1.612-1.793
	c0-0.001,0-0.001-0.001-0.001c-0.032-0.033-0.065-0.067-0.099-0.099c-0.005-0.005-0.01-0.01-0.015-0.014
	c-0.03-0.03-0.062-0.062-0.092-0.092c-0.003-0.004-0.007-0.007-0.01-0.01c-0.311-0.307-0.63-0.605-0.957-0.896
	c-0.14-0.117-0.31-0.174-0.48-0.174c-0.207,0-0.413,0.085-0.561,0.252c-0.275,0.309-0.248,0.782,0.061,1.059
	C836.07,9.098,836.944,10.012,837.735,10.981z M825.613,48.535c-0.062,0-0.126,0.008-0.188,0.024c-1.208,0.314-2.453,0.532-3.7,0.65
	c-0.413,0.04-0.715,0.405-0.676,0.818c0.036,0.388,0.362,0.681,0.745,0.681c0.016,0,0.03-0.001,0.046-0.002
	c0.269-0.025,0.538-0.054,0.806-0.088c0.022-0.002,0.042-0.004,0.064-0.008c0.021-0.002,0.043-0.006,0.063-0.008
	c0.031-0.004,0.062-0.008,0.093-0.012c0.004-0.001,0.009-0.001,0.013-0.002c0.533-0.073,1.061-0.161,1.583-0.266
	c0.006-0.001,0.012-0.002,0.018-0.003c0.032-0.007,0.064-0.014,0.097-0.02c0.015-0.003,0.03-0.006,0.045-0.01
	c0.027-0.005,0.055-0.011,0.082-0.017c0.029-0.006,0.06-0.012,0.089-0.018c0.015-0.004,0.028-0.006,0.043-0.01
	c0.049-0.01,0.096-0.021,0.143-0.032c0.004-0.001,0.008-0.001,0.011-0.002c0.28-0.062,0.559-0.13,0.835-0.202
	c0.387-0.116,0.616-0.517,0.514-0.909C826.251,48.759,825.947,48.535,825.613,48.535z M831.714,5.612
	c0.258,0,0.51-0.134,0.649-0.373c0.208-0.356,0.088-0.815-0.268-1.024c-0.003-0.001-0.005-0.003-0.008-0.004
	c-0.021-0.012-0.042-0.024-0.063-0.036c-0.019-0.011-0.038-0.022-0.058-0.035c-0.019-0.011-0.039-0.022-0.058-0.033
	c-0.023-0.012-0.047-0.027-0.07-0.039c-0.016-0.01-0.031-0.019-0.048-0.028c-0.029-0.017-0.061-0.034-0.09-0.049
	c-0.01-0.006-0.02-0.012-0.029-0.018c-0.042-0.023-0.084-0.046-0.126-0.07c-0.001-0.001-0.002-0.001-0.003-0.001
	c-0.041-0.022-0.081-0.045-0.122-0.067c-0.009-0.005-0.018-0.01-0.027-0.015c-0.033-0.017-0.067-0.036-0.102-0.054
	c-0.009-0.005-0.018-0.009-0.025-0.014c-0.037-0.02-0.073-0.04-0.109-0.058c-0.006-0.003-0.012-0.007-0.018-0.009
	c-0.13-0.069-0.262-0.137-0.393-0.202c-0.006-0.002-0.011-0.005-0.016-0.009c-0.038-0.019-0.076-0.038-0.113-0.056
	c-0.008-0.004-0.016-0.008-0.023-0.011c-0.038-0.019-0.077-0.039-0.115-0.057c-0.005-0.003-0.01-0.004-0.014-0.006
	c-0.088-0.043-0.176-0.085-0.264-0.127c-0.009-0.004-0.018-0.008-0.026-0.012c-0.033-0.016-0.066-0.032-0.1-0.047
	c-0.014-0.007-0.028-0.013-0.042-0.02c-0.028-0.013-0.057-0.026-0.086-0.04c-0.016-0.007-0.03-0.014-0.046-0.021
	c-0.027-0.012-0.055-0.025-0.082-0.036c-0.017-0.008-0.033-0.015-0.05-0.023c-0.034-0.014-0.068-0.03-0.102-0.045
	c-0.029-0.013-0.059-0.026-0.088-0.038c-0.018-0.009-0.034-0.014-0.053-0.023c-0.026-0.011-0.054-0.023-0.08-0.035
	c-0.014-0.006-0.028-0.011-0.042-0.018c-0.03-0.013-0.06-0.025-0.09-0.038c-0.007-0.003-0.016-0.006-0.023-0.011
	c-0.265-0.113-0.531-0.221-0.801-0.325c-0.089-0.033-0.18-0.05-0.27-0.05c-0.302,0-0.585,0.182-0.7,0.48
	c-0.148,0.386,0.043,0.821,0.43,0.969c1.166,0.449,2.303,0.996,3.384,1.627C831.456,5.58,831.585,5.612,831.714,5.612z
	 M833.486,44.878c-0.149,0-0.301,0.045-0.432,0.137c-1.023,0.723-2.11,1.367-3.231,1.915c-0.373,0.182-0.526,0.631-0.345,1.004
	c0.131,0.266,0.397,0.42,0.675,0.42c0.103,0,0.205-0.021,0.304-0.065c0.549-0.267,1.088-0.555,1.613-0.861
	c0.002,0,0.004-0.002,0.005-0.003c0.04-0.023,0.081-0.047,0.121-0.071c0.004-0.001,0.008-0.004,0.011-0.007
	c0.171-0.1,0.34-0.202,0.509-0.307c0.002-0.002,0.005-0.003,0.007-0.005c0.042-0.026,0.082-0.051,0.123-0.077
	c0.001,0,0.001-0.001,0.001-0.001c0.341-0.215,0.674-0.436,1.003-0.667c0,0,0.001-0.001,0.001-0.001
	c0.027-0.019,0.054-0.038,0.08-0.057c0.329-0.239,0.406-0.702,0.169-1.036C833.953,44.988,833.721,44.878,833.486,44.878z
	 M844.514,25.642c0-0.048,0-0.092-0.001-0.14v-0.027c-0.001-0.046-0.002-0.093-0.003-0.139v-0.009c0-0.046-0.002-0.092-0.003-0.139
	c0-0.011,0-0.023-0.001-0.035c-0.001-0.045-0.002-0.09-0.004-0.133c0-0.012,0-0.022-0.001-0.033
	c-0.001-0.042-0.003-0.082-0.004-0.124c0-0.006-0.001-0.014-0.001-0.02c-0.002-0.046-0.004-0.09-0.006-0.135
	c0-0.012-0.001-0.024-0.001-0.037c-0.002-0.044-0.004-0.087-0.007-0.131c0-0.012-0.001-0.024-0.002-0.036
	c-0.002-0.042-0.004-0.082-0.006-0.123c-0.001-0.006-0.001-0.012-0.001-0.019l-0.009-0.139c-0.001-0.01-0.001-0.019-0.002-0.028
	c-0.003-0.048-0.006-0.095-0.01-0.142v-0.012c-0.031-0.446-0.074-0.889-0.129-1.329c-0.058-0.368-0.375-0.636-0.742-0.636
	c-0.03,0-0.061,0.001-0.092,0.005c-0.41,0.051-0.703,0.425-0.652,0.836c0.117,0.954,0.177,1.927,0.177,2.896
	c0,0.288-0.006,0.576-0.016,0.861c-0.015,0.414,0.309,0.762,0.724,0.775h0.027c0.395,0,0.723-0.306,0.748-0.702
	c0.009-0.25,0.015-0.505,0.016-0.756c0-0.01,0.001-0.021,0.001-0.03v-0.294C844.515,25.66,844.514,25.65,844.514,25.642z
	 M803.485,6.815c-0.176,0-0.352,0.061-0.493,0.186c-0.404,0.354-0.797,0.719-1.178,1.097c-0.005,0.005-0.01,0.01-0.014,0.014
	c-0.023,0.024-0.044,0.044-0.065,0.066c-0.012,0.011-0.023,0.022-0.035,0.035c-0.018,0.019-0.037,0.038-0.056,0.057
	c-0.016,0.015-0.031,0.032-0.046,0.047c-0.016,0.016-0.031,0.031-0.047,0.047c-0.021,0.023-0.045,0.046-0.066,0.069
	c-0.01,0.009-0.019,0.019-0.028,0.029c-0.032,0.033-0.065,0.067-0.098,0.101c-0.004,0.004-0.008,0.009-0.012,0.012
	c-0.029,0.033-0.058,0.062-0.087,0.093c-0.006,0.007-0.013,0.014-0.02,0.021c-0.027,0.028-0.053,0.056-0.08,0.085
	c-0.006,0.007-0.013,0.014-0.019,0.02c-0.029,0.031-0.057,0.062-0.087,0.093c-0.003,0.003-0.006,0.007-0.01,0.01
	c-0.134,0.145-0.267,0.294-0.396,0.442c-0.001,0-0.002,0.002-0.002,0.002c-0.154,0.176-0.307,0.355-0.457,0.535
	c-0.252,0.318-0.205,0.782,0.109,1.043c0.14,0.115,0.31,0.172,0.479,0.172c0.216,0,0.43-0.092,0.578-0.271
	c0.799-0.962,1.681-1.866,2.623-2.691c0.311-0.272,0.343-0.746,0.07-1.058C803.901,6.902,803.694,6.815,803.485,6.815z
	 M809.286,47.846c0.185-0.372,0.035-0.822-0.335-1.008c-1.117-0.558-2.198-1.213-3.215-1.943c-0.132-0.095-0.285-0.141-0.437-0.141
	c-0.232,0-0.463,0.108-0.609,0.313c-0.241,0.336-0.164,0.803,0.172,1.045c0.265,0.191,0.533,0.376,0.806,0.556l0.026,0.018
	c0.024,0.017,0.049,0.032,0.073,0.048c0.018,0.012,0.036,0.023,0.054,0.035c0.019,0.012,0.037,0.024,0.056,0.036
	c0.033,0.022,0.066,0.043,0.101,0.065c0.003,0.003,0.007,0.005,0.011,0.007c0.55,0.352,1.114,0.684,1.692,0.992
	c0.042,0.022,0.083,0.045,0.125,0.067c0.004,0.002,0.008,0.004,0.012,0.006c0.037,0.02,0.076,0.04,0.113,0.059
	c0.116,0.061,0.232,0.119,0.35,0.178c0.108,0.054,0.223,0.08,0.336,0.08C808.891,48.259,809.154,48.108,809.286,47.846z
	 M842.512,18.857c0.079,0,0.16-0.013,0.239-0.04c0.385-0.128,0.596-0.539,0.479-0.926c-0.429-1.283-0.958-2.518-1.58-3.699
	c-0.135-0.253-0.394-0.397-0.663-0.397c-0.118,0-0.237,0.027-0.349,0.087c-0.366,0.192-0.508,0.645-0.314,1.011
	c0.583,1.107,1.08,2.269,1.477,3.452C841.907,18.658,842.199,18.857,842.512,18.857z M843.269,30.77
	c-0.06-0.014-0.118-0.021-0.176-0.021c-0.339,0-0.646,0.23-0.728,0.575c-0.292,1.214-0.686,2.414-1.169,3.566
	c-0.16,0.383,0.02,0.822,0.401,0.983c0.095,0.04,0.193,0.058,0.29,0.058c0.285,0,0.557-0.163,0.682-0.437
	c0.19-0.451,0.366-0.907,0.53-1.37c0-0.002,0.001-0.002,0.001-0.002c0.033-0.097,0.065-0.191,0.099-0.286
	c0.003-0.009,0.005-0.016,0.008-0.024c0.012-0.035,0.023-0.071,0.035-0.106c0.007-0.019,0.014-0.04,0.02-0.059
	c0.008-0.023,0.016-0.046,0.022-0.069c0.008-0.025,0.017-0.049,0.024-0.074c0.005-0.015,0.011-0.033,0.016-0.048
	c0.009-0.03,0.019-0.058,0.028-0.088c0-0.001,0-0.002,0.001-0.003c0.037-0.117,0.073-0.234,0.108-0.352
	c0.001-0.002,0.001-0.004,0.002-0.006c0.012-0.038,0.023-0.077,0.034-0.116c0.001-0.002,0.001-0.004,0.002-0.006
	c0.047-0.159,0.092-0.318,0.136-0.478v-0.002c0.011-0.036,0.021-0.073,0.03-0.109c0.002-0.008,0.004-0.017,0.007-0.025
	c0.008-0.032,0.017-0.065,0.025-0.099c0.004-0.012,0.007-0.025,0.01-0.037c0.008-0.031,0.017-0.062,0.024-0.093
	c0.011-0.042,0.021-0.083,0.031-0.124c0.003-0.011,0.006-0.024,0.009-0.036c0.01-0.038,0.019-0.074,0.027-0.111
	c0.003-0.009,0.005-0.018,0.007-0.027c0.007-0.027,0.014-0.054,0.021-0.082C843.915,31.263,843.668,30.866,843.269,30.77z
	 M839.576,38.686c-0.239,0-0.476,0.114-0.62,0.328c-0.703,1.032-1.496,2.017-2.355,2.926c-0.285,0.302-0.272,0.777,0.029,1.061
	c0.145,0.137,0.33,0.205,0.516,0.205c0.194,0,0.389-0.075,0.534-0.224c0.214-0.227,0.423-0.455,0.628-0.689
	c0.003-0.004,0.006-0.006,0.009-0.01c0.029-0.033,0.058-0.066,0.086-0.098c0.005-0.006,0.009-0.011,0.014-0.015
	c0.028-0.033,0.058-0.067,0.086-0.1c0.003-0.005,0.006-0.007,0.009-0.011c0.062-0.073,0.125-0.148,0.187-0.221
	c0.006-0.007,0.012-0.014,0.017-0.02c0.024-0.028,0.048-0.057,0.071-0.086c0.01-0.011,0.019-0.023,0.029-0.035
	c0.019-0.024,0.04-0.049,0.06-0.072c0.011-0.014,0.021-0.027,0.032-0.04c0.018-0.023,0.038-0.047,0.058-0.071
	c0.011-0.012,0.021-0.025,0.032-0.038c0.021-0.027,0.043-0.055,0.064-0.082c0.017-0.02,0.034-0.043,0.051-0.064
	c0.018-0.022,0.034-0.044,0.052-0.064c0.017-0.022,0.033-0.043,0.05-0.064c0.011-0.013,0.021-0.027,0.032-0.041
	c0.018-0.023,0.036-0.047,0.054-0.07c0.009-0.01,0.018-0.023,0.026-0.033c0.019-0.026,0.039-0.051,0.059-0.078
	c0.004-0.007,0.009-0.012,0.014-0.019c0.275-0.36,0.54-0.728,0.796-1.103c0.232-0.342,0.144-0.807-0.197-1.041
	C839.868,38.729,839.721,38.686,839.576,38.686z"/>
</svg>
